<svg xmlns="http://www.w3.org/2000/svg" width="14" height="14" viewBox="0 0 14 14">
  <g fill="none" fill-rule="evenodd">
    <rect width="14" height="14" fill="#FFF" fill-rule="nonzero"/>
    <path d="M10,6.51 C9.26,5.42 8.1,3.64 7.25,2.33 C7.19231376,2.24910846 7.09935067,2.20076765 7,2.19999017 L7,2.19999017 C6.89751615,2.19919775 6.80084851,2.24753157 6.74,2.33 L6.19,3.18 C5.47,4.26 4.74,5.39 4,6.51 C3.49664904,7.34415036 3.36263944,8.3499823 3.63003685,9.28682147 C3.89743427,10.2236606 4.54218,11.0072163 5.41,11.45 C6.23096643,11.8607358 7.1831345,11.9220497 8.05,11.62 C9.07872486,11.3160575 9.9067838,10.5496291 10.2892259,9.54743456 C10.6716681,8.54524002 10.5647132,7.42200596 10,6.51 Z"/>
    <path fill="#ADAFB2" fill-rule="nonzero" d="M10.51,6.15 L10.51,6.15 C9.82,5.06 8.66,3.27 7.81,2 C7.63457604,1.71877697 7.33120607,1.54274748 7,1.53 L7,1.53 C6.66520578,1.53946067 6.35737812,1.71589848 6.18,2 L5.63,2.84 C4.91,3.9 4.17,5 3.47,6.16 C2.87128769,7.15477758 2.7121877,8.35338631 3.03065212,9.46990738 C3.34911653,10.5864284 4.11659084,11.5207511 5.15,12.05 C5.72497429,12.3337698 6.35885899,12.4776788 7,12.47 C7.45894086,12.4702919 7.91487212,12.3959126 8.35,12.25 C9.54945707,11.8500257 10.4996121,10.9226545 10.9285752,9.73325665 C11.3575384,8.54385877 11.2180408,7.22349813 10.55,6.15 L10.51,6.15 Z M8.09,11.62 C7.2231345,11.9220497 6.27096643,11.8607358 5.45,11.45 C4.57533913,11.0144743 3.92180539,10.2340718 3.64661593,9.29652974 C3.37142648,8.35898771 3.49949038,7.34916888 4,6.51 C4.7,5.39 5.43,4.26 6.15,3.18 L6.7,2.33 C6.76864514,2.23499472 6.88373834,2.185121 7,2.2 L7,2.2 C7.09935067,2.20076765 7.19231376,2.24910846 7.25,2.33 C8.1,3.64 9.25,5.42 9.95,6.51 C10.5171305,7.4098121 10.6361287,8.5213638 10.2723281,9.52083761 C9.90852742,10.5203114 9.10284781,11.2952876 8.09,11.62 L8.09,11.62 Z"/>
  </g>
</svg>
