<?xml version="1.0" encoding="utf-8"?>
<!-- Generator: Adobe Illustrator 24.0.1, SVG Export Plug-In . SVG Version: 6.00 Build 0)  -->
<svg version="1.1" xmlns="http://www.w3.org/2000/svg" xmlns:xlink="http://www.w3.org/1999/xlink" x="0px" y="0px"
	 viewBox="0 0 1170 756" enable-background="new 0 0 1170 756" xml:space="preserve">
<g id="Layer_1">
</g>
<g id="Layer_2">
	<g>
		<rect x="6.713" y="3.11" fill="#EFEEEF" width="1157.655" height="749.209"/>
		<rect x="8.773" y="5.966" fill="#D3D3D3" width="1156.227" height="89.641"/>
		<polygon fill="#CCD7E0" points="1164.368,189.673 999.192,189.673 999.192,471.87 832.859,471.87 832.859,658.253 666.14,658.253 
			666.14,752.319 223.556,752.319 223.556,95.607 1164.368,95.607 		"/>
		<polygon fill="#EFEEEF" points="832.473,95.607 832.473,377.804 666.14,377.804 666.14,471.87 500.578,471.87 500.578,566.645 
			334.052,566.645 334.052,752.319 167.526,752.319 167.526,95.607 		"/>
		<rect x="167.526" y="93.842" fill="#CCD7E0" width="333.052" height="283.962"/>
		<rect x="167.14" y="93.842" fill="#EFEEEF" width="166.719" height="189.897"/>
		<rect x="167.14" y="377.804" fill="#CCD7E0" width="166.719" height="94.066"/>
		<line fill="none" stroke="#FFFFFF" stroke-width="0.7895" stroke-miterlimit="10" x1="1" y1="471.87" x2="1164.368" y2="471.87"/>
		
			<line fill="none" stroke="#FFFFFF" stroke-width="0.7895" stroke-miterlimit="10" x1="333.859" y1="752.319" x2="333.474" y2="1.681"/>
		
			<line fill="none" stroke="#FFFFFF" stroke-width="0.7895" stroke-miterlimit="10" x1="999.192" y1="752.319" x2="998.806" y2="1.681"/>
		
			<line fill="none" stroke="#FFFFFF" stroke-width="0.7895" stroke-miterlimit="10" x1="1" y1="565.935" x2="1164.368" y2="565.935"/>
		
			<line fill="none" stroke="#FFFFFF" stroke-width="0.7895" stroke-miterlimit="10" x1="1" y1="658.253" x2="1164.368" y2="658.253"/>
		<g>
			<g>
				<path fill="#FFFFFF" d="M79.734,125.857h6.838l14.446,33.948h-7.753l-3.082-7.561H75.929l-3.082,7.561h-7.559L79.734,125.857z
					 M87.535,145.696l-4.479-10.93l-4.477,10.93H87.535z"/>
			</g>
		</g>
		<g>
			<g>
				<path fill="#7D7B7B" d="M229.44,143.625l-11.266-16.565h8.667l7.078,10.931l7.127-10.931h8.426l-11.266,16.468l11.749,17.239
					h-8.667l-7.561-11.557l-7.608,11.557h-8.428L229.44,143.625z"/>
				<path fill="#7D7B7B" d="M251.74,155.855l4.381-5.249c3.034,2.504,6.212,4.094,10.065,4.094c3.033,0,4.864-1.205,4.864-3.178
					v-0.096c0-1.877-1.156-2.84-6.79-4.286c-6.79-1.733-11.171-3.611-11.171-10.303v-0.098c0-6.115,4.912-10.159,11.798-10.159
					c4.91,0,9.1,1.541,12.52,4.286l-3.852,5.586c-2.987-2.071-5.924-3.323-8.765-3.323c-2.84,0-4.332,1.299-4.332,2.938v0.095
					c0,2.217,1.443,2.938,7.27,4.43c6.838,1.782,10.69,4.237,10.69,10.114v0.095c0,6.694-5.104,10.45-12.374,10.45
					C260.937,161.249,255.785,159.466,251.74,155.855z"/>
			</g>
		</g>
		<g>
			<g>
				<path fill="#7D7B7B" d="M229.44,236.285l-11.266-16.565h8.667l7.078,10.93l7.127-10.93h8.426l-11.266,16.468l11.749,17.239
					h-8.667l-7.561-11.557l-7.608,11.557h-8.428L229.44,236.285z"/>
				<path fill="#7D7B7B" d="M251.74,248.515l4.381-5.248c3.034,2.504,6.212,4.092,10.065,4.092c3.033,0,4.864-1.203,4.864-3.178
					v-0.096c0-1.879-1.156-2.842-6.79-4.285c-6.79-1.734-11.171-3.612-11.171-10.306V229.4c0-6.116,4.912-10.161,11.798-10.161
					c4.91,0,9.1,1.541,12.52,4.285l-3.852,5.586c-2.987-2.07-5.924-3.322-8.765-3.322c-2.84,0-4.332,1.301-4.332,2.937v0.098
					c0,2.213,1.443,2.937,7.27,4.43c6.838,1.781,10.69,4.237,10.69,10.11v0.098c0,6.692-5.104,10.448-12.374,10.448
					C260.937,253.908,255.785,252.128,251.74,248.515z"/>
			</g>
		</g>
		<g>
			<g>
				<path fill="#7D7B7B" d="M234.836,343.561l4.383-5.248c3.033,2.504,6.211,4.092,10.063,4.092c3.034,0,4.863-1.203,4.863-3.178
					v-0.096c0-1.879-1.156-2.842-6.789-4.285c-6.789-1.733-11.171-3.612-11.171-10.306v-0.095c0-6.116,4.912-10.161,11.797-10.161
					c4.913,0,9.102,1.541,12.52,4.285l-3.852,5.586c-2.984-2.07-5.922-3.322-8.762-3.322c-2.842,0-4.335,1.301-4.335,2.937v0.098
					c0,2.213,1.446,2.937,7.272,4.43c6.838,1.781,10.69,4.237,10.69,10.11v0.098c0,6.692-5.104,10.448-12.376,10.448
					C244.034,348.954,238.881,347.173,234.836,343.561z"/>
			</g>
		</g>
		<g>
			<g>
				<path fill="#7D7B7B" d="M400.774,343.561l4.381-5.248c3.034,2.504,6.212,4.092,10.065,4.092c3.033,0,4.864-1.203,4.864-3.178
					v-0.096c0-1.879-1.156-2.842-6.79-4.285c-6.79-1.733-11.171-3.612-11.171-10.306v-0.095c0-6.116,4.912-10.161,11.798-10.161
					c4.91,0,9.1,1.541,12.52,4.285l-3.852,5.586c-2.987-2.07-5.924-3.322-8.765-3.322c-2.84,0-4.332,1.301-4.332,2.937v0.098
					c0,2.213,1.443,2.937,7.27,4.43c6.838,1.781,10.69,4.237,10.69,10.11v0.098c0,6.692-5.104,10.448-12.374,10.448
					C409.97,348.954,404.818,347.173,400.774,343.561z"/>
			</g>
		</g>
		<g>
			<g>
				<path fill="#7D7B7B" d="M400.774,248.515l4.381-5.248c3.034,2.504,6.212,4.092,10.065,4.092c3.033,0,4.864-1.203,4.864-3.178
					v-0.096c0-1.879-1.156-2.842-6.79-4.285c-6.79-1.734-11.171-3.612-11.171-10.306V229.4c0-6.116,4.912-10.161,11.798-10.161
					c4.91,0,9.1,1.541,12.52,4.285l-3.852,5.586c-2.987-2.07-5.924-3.322-8.765-3.322c-2.84,0-4.332,1.301-4.332,2.937v0.098
					c0,2.213,1.443,2.937,7.27,4.43c6.838,1.781,10.69,4.237,10.69,10.11v0.098c0,6.692-5.104,10.448-12.374,10.448
					C409.97,253.908,404.818,252.128,400.774,248.515z"/>
			</g>
		</g>
		<g>
			<g>
				<path fill="#7D7B7B" d="M400.774,155.428l4.381-5.248c3.034,2.504,6.212,4.092,10.065,4.092c3.033,0,4.864-1.203,4.864-3.178
					v-0.096c0-1.879-1.156-2.842-6.79-4.285c-6.79-1.733-11.171-3.612-11.171-10.306v-0.095c0-6.116,4.912-10.161,11.798-10.161
					c4.91,0,9.1,1.541,12.52,4.285l-3.852,5.586c-2.987-2.07-5.924-3.322-8.765-3.322c-2.84,0-4.332,1.301-4.332,2.937v0.098
					c0,2.213,1.443,2.937,7.27,4.43c6.838,1.781,10.69,4.237,10.69,10.11v0.098c0,6.692-5.104,10.448-12.374,10.448
					C409.97,160.821,404.818,159.04,400.774,155.428z"/>
			</g>
		</g>
		<g>
			<g>
				<path fill="#7D7B7B" d="M234.836,436.642l4.383-5.248c3.033,2.504,6.211,4.092,10.063,4.092c3.034,0,4.863-1.203,4.863-3.178
					v-0.096c0-1.879-1.156-2.842-6.789-4.285c-6.789-1.733-11.171-3.612-11.171-10.306v-0.095c0-6.116,4.912-10.161,11.797-10.161
					c4.913,0,9.102,1.541,12.52,4.285l-3.852,5.586c-2.984-2.07-5.922-3.322-8.762-3.322c-2.842,0-4.335,1.301-4.335,2.937v0.098
					c0,2.213,1.446,2.937,7.272,4.43c6.838,1.781,10.69,4.237,10.69,10.11v0.098c0,6.692-5.104,10.448-12.376,10.448
					C244.034,442.035,238.881,440.255,234.836,436.642z"/>
			</g>
		</g>
		<g>
			<g>
				<path fill="#7D7B7B" d="M231.657,504.487h7.993l8.86,14.253l8.86-14.253h7.993v33.707h-7.367v-22.007l-9.487,14.398h-0.193
					l-9.389-14.253v21.861h-7.272V504.487z"/>
			</g>
		</g>
		<g>
			<g>
				<path fill="#7D7B7B" d="M231.657,599.528h7.993l8.86,14.253l8.86-14.253h7.993v33.707h-7.367V611.23l-9.487,14.397h-0.193
					l-9.389-14.253v21.861h-7.272V599.528z"/>
			</g>
		</g>
		<g>
			<g>
				<path fill="#7D7B7B" d="M397.594,407.845h7.993l8.86,14.253l8.86-14.253h7.993v33.707h-7.368v-22.005l-9.485,14.397h-0.193
					l-9.391-14.253v21.861h-7.27V407.845z"/>
			</g>
		</g>
		<g>
			<g>
				<path fill="#7D7B7B" d="M397.594,502.881h7.993l8.86,14.253l8.86-14.253h7.993v33.707h-7.368v-22.005l-9.485,14.397h-0.193
					l-9.391-14.253v21.861h-7.27V502.881z"/>
			</g>
		</g>
		<g>
			<g>
				<path fill="#7D7B7B" d="M566.454,314.766h7.993l8.86,14.253l8.86-14.253h7.993v33.707h-7.368v-22.007l-9.485,14.398h-0.193
					l-9.391-14.253v21.861h-7.27V314.766z"/>
			</g>
		</g>
		<g>
			<g>
				<path fill="#7D7B7B" d="M566.454,409.786h7.993l8.86,14.253l8.86-14.253h7.993v33.707h-7.368v-22.007l-9.485,14.398h-0.193
					l-9.391-14.253v21.861h-7.27V409.786z"/>
			</g>
		</g>
		<g>
			<g>
				<path fill="#7D7B7B" d="M566.454,126.099h7.993l8.86,14.253l8.86-14.253h7.993v33.707h-7.368v-22.007l-9.485,14.398h-0.193
					l-9.391-14.253v21.861h-7.27V126.099z"/>
			</g>
		</g>
		<g>
			<g>
				<path fill="#7D7B7B" d="M566.454,221.114h7.993l8.86,14.253l8.86-14.253h7.993v33.707h-7.368v-22.005l-9.485,14.397h-0.193
					l-9.391-14.253v21.861h-7.27V221.114z"/>
			</g>
		</g>
		<g>
			<g>
				<path fill="#7D7B7B" d="M730.462,314.766h7.993l8.86,14.253l8.86-14.253h7.993v33.707h-7.367v-22.007l-9.487,14.398h-0.193
					l-9.389-14.253v21.861h-7.272V314.766z"/>
			</g>
		</g>
		<g>
			<g>
				<path fill="#7D7B7B" d="M730.462,126.099h7.993l8.86,14.253l8.86-14.253h7.993v33.707h-7.367v-22.007l-9.487,14.398h-0.193
					l-9.389-14.253v21.861h-7.272V126.099z"/>
			</g>
		</g>
		<g>
			<g>
				<path fill="#7D7B7B" d="M730.462,221.114h7.993l8.86,14.253l8.86-14.253h7.993v33.707h-7.367v-22.005l-9.487,14.397h-0.193
					l-9.389-14.253v21.861h-7.272V221.114z"/>
			</g>
		</g>
		<g>
			<g>
				<path fill="#7D7B7B" d="M902.408,314.766h7.416v26.965h16.805v6.741h-24.22V314.766z"/>
			</g>
		</g>
		<g>
			<g>
				<path fill="#7D7B7B" d="M902.408,126.099h7.416v26.965h16.805v6.741h-24.22V126.099z"/>
			</g>
		</g>
		<g>
			<g>
				<path fill="#7D7B7B" d="M902.408,221.114h7.416v26.965h16.805v6.741h-24.22V221.114z"/>
			</g>
		</g>
		<g>
			<g>
				<path fill="#7D7B7B" d="M1059.15,331.33l-11.269-16.565h8.667l7.079,10.93l7.127-10.93h8.427l-11.269,16.468l11.749,17.239
					h-8.667l-7.559-11.557l-7.608,11.557h-8.426L1059.15,331.33z"/>
				<path fill="#7D7B7B" d="M1085.206,314.766h7.416v26.965h16.806v6.741h-24.222V314.766z"/>
			</g>
		</g>
		<g>
			<g>
				<path fill="#7D7B7B" d="M1067.579,126.099h7.416v26.965h16.805v6.741h-24.22V126.099z"/>
			</g>
		</g>
		<g>
			<g>
				<path fill="#7D7B7B" d="M1059.15,237.679l-11.269-16.565h8.667l7.079,10.931l7.127-10.931h8.427l-11.269,16.468l11.749,17.239
					h-8.667l-7.559-11.557l-7.608,11.557h-8.426L1059.15,237.679z"/>
				<path fill="#7D7B7B" d="M1085.206,221.114h7.416v26.965h16.806v6.741h-24.222V221.114z"/>
			</g>
		</g>
		<g>
			<g>
				<path fill="#7D7B7B" d="M902.408,412.187h7.416v26.965h16.805v6.741h-24.22V412.187z"/>
			</g>
		</g>
		<g>
			<g>
				<path fill="#7D7B7B" d="M736.459,412.187h7.416v26.965h16.805v6.741h-24.22V412.187z"/>
			</g>
		</g>
		<g>
			<g>
				<path fill="#7D7B7B" d="M736.459,501.339h7.416v26.965h16.805v6.741h-24.22V501.339z"/>
			</g>
		</g>
		<g>
			<g>
				<path fill="#7D7B7B" d="M572.443,501.339h7.416v26.965h16.804v6.741h-24.22V501.339z"/>
			</g>
		</g>
		<g>
			<g>
				<path fill="#7D7B7B" d="M736.459,598.765h7.416v26.965h16.805v6.741h-24.22V598.765z"/>
			</g>
		</g>
		<g>
			<g>
				<path fill="#7D7B7B" d="M1059.15,428.752l-11.269-16.565h8.667l7.079,10.931l7.127-10.931h8.427l-11.269,16.468l11.749,17.239
					h-8.667l-7.559-11.557l-7.608,11.557h-8.426L1059.15,428.752z"/>
				<path fill="#7D7B7B" d="M1085.206,412.187h7.416v26.965h16.806v6.741h-24.222V412.187z"/>
			</g>
		</g>
		<g>
			<g>
				<path fill="#7D7B7B" d="M1059.15,614.195l-11.269-16.565h8.667l7.079,10.931l7.127-10.931h8.427l-11.269,16.468l11.749,17.239
					h-8.667l-7.559-11.557l-7.608,11.557h-8.426L1059.15,614.195z"/>
				<path fill="#7D7B7B" d="M1085.206,597.63h7.416v26.966h16.806v6.741h-24.222V597.63z"/>
			</g>
		</g>
		<g>
			<g>
				<path fill="#7D7B7B" d="M1059.15,520.567l-11.269-16.565h8.667l7.079,10.931l7.127-10.931h8.427l-11.269,16.468l11.749,17.239
					h-8.667l-7.559-11.557l-7.608,11.557h-8.426L1059.15,520.567z"/>
				<path fill="#7D7B7B" d="M1085.206,504.002h7.416v26.965h16.806v6.741h-24.222V504.002z"/>
			</g>
		</g>
		<g>
			<g>
				<path fill="#7D7B7B" d="M1059.15,711.616l-11.269-16.565h8.667l7.079,10.93l7.127-10.93h8.427l-11.269,16.468l11.749,17.239
					h-8.667l-7.559-11.557l-7.608,11.557h-8.426L1059.15,711.616z"/>
				<path fill="#7D7B7B" d="M1085.206,695.052h7.416v26.966h16.806v6.741h-24.222V695.052z"/>
			</g>
		</g>
		<g>
			<g>
				<path fill="#7D7B7B" d="M893.979,614.195l-11.269-16.565h8.667l7.079,10.931l7.127-10.931h8.427l-11.269,16.468l11.749,17.239
					h-8.667l-7.559-11.557l-7.608,11.557h-8.426L893.979,614.195z"/>
				<path fill="#7D7B7B" d="M920.035,597.63h7.416v26.966h16.806v6.741h-24.222V597.63z"/>
			</g>
		</g>
		<g>
			<g>
				<path fill="#7D7B7B" d="M893.979,520.567l-11.269-16.565h8.667l7.079,10.931l7.127-10.931h8.427l-11.269,16.468l11.749,17.239
					h-8.667l-7.559-11.557l-7.608,11.557h-8.426L893.979,520.567z"/>
				<path fill="#7D7B7B" d="M920.035,504.002h7.416v26.965h16.806v6.741h-24.222V504.002z"/>
			</g>
		</g>
		<g>
			<g>
				<path fill="#7D7B7B" d="M893.979,711.616l-11.269-16.565h8.667l7.079,10.93l7.127-10.93h8.427l-11.269,16.468l11.749,17.239
					h-8.667l-7.559-11.557l-7.608,11.557h-8.426L893.979,711.616z"/>
				<path fill="#7D7B7B" d="M920.035,695.052h7.416v26.966h16.806v6.741h-24.222V695.052z"/>
			</g>
		</g>
		<g>
			<g>
				<path fill="#7D7B7B" d="M728.03,711.616l-11.269-16.565h8.667l7.079,10.93l7.127-10.93h8.427l-11.269,16.468l11.749,17.239
					h-8.667l-7.559-11.557l-7.608,11.557h-8.426L728.03,711.616z"/>
				<path fill="#7D7B7B" d="M754.086,695.052h7.416v26.966h16.806v6.741h-24.222V695.052z"/>
			</g>
		</g>
		<g>
			<g>
				<path fill="#7D7B7B" d="M231.657,692.627h7.993l8.86,14.253l8.86-14.253h7.993v33.707h-7.367v-22.007l-9.487,14.398h-0.193
					l-9.389-14.253v21.861h-7.272V692.627z"/>
			</g>
		</g>
		<g>
			<g>
				<path fill="#7D7B7B" d="M403.592,599.528h7.415v26.966h16.806v6.741h-24.222V599.528z"/>
			</g>
		</g>
		<g>
			<g>
				<path fill="#7D7B7B" d="M403.592,692.627h7.415v26.965h16.806v6.741h-24.222V692.627z"/>
			</g>
		</g>
		<g>
			<g>
				<path fill="#7D7B7B" d="M572.451,599.528h7.416v26.966h16.806v6.741h-24.222V599.528z"/>
			</g>
		</g>
		<g>
			<g>
				<path fill="#7D7B7B" d="M572.451,692.627h7.416v26.965h16.806v6.741h-24.222V692.627z"/>
			</g>
		</g>
		<g>
			<g>
				<path fill="#FFFFFF" d="M220.389,60.553l5.104-4.863c2.311,2.6,4.719,4.045,8.137,4.045c2.794,0,4.768-1.588,4.768-4.092v-0.098
					c0-2.744-2.457-4.285-6.596-4.285h-3.082l-1.156-4.719l8.041-8.09h-13.241v-6.356h22.775v5.586l-8.522,8.139
					c4.574,0.77,9.053,3.176,9.053,9.438v0.095c0,6.356-4.623,11.028-12.134,11.028C227.467,66.38,223.278,63.972,220.389,60.553z"
					/>
				<path fill="#FFFFFF" d="M250.826,59.927l11.22-9.198c4.188-3.467,5.827-5.295,5.827-8.09c0-2.84-1.879-4.381-4.528-4.381
					c-2.599,0-4.381,1.445-6.885,4.526l-5.2-4.19c3.323-4.525,6.549-6.981,12.569-6.981c6.981,0,11.604,4.092,11.604,10.401v0.096
					c0,5.635-2.889,8.426-8.86,13.049l-5.489,4.237h14.687v6.405h-24.945V59.927z"/>
			</g>
		</g>
		<g>
			<g>
				<path fill="#FFFFFF" d="M384.736,60.553l5.104-4.863c2.311,2.6,4.719,4.045,8.137,4.045c2.794,0,4.768-1.588,4.768-4.092v-0.098
					c0-2.744-2.457-4.285-6.596-4.285h-3.082l-1.156-4.719l8.041-8.09h-13.241v-6.356h22.775v5.586l-8.522,8.139
					c4.574,0.77,9.053,3.176,9.053,9.438v0.095c0,6.356-4.623,11.028-12.134,11.028C391.814,66.38,387.626,63.972,384.736,60.553z"
					/>
				<path fill="#FFFFFF" d="M431.98,58.532h-16.468l-1.203-5.249l18.491-21.429h6.258v20.658h4.528v6.02h-4.528v7.27h-7.078V58.532z
					 M431.98,52.512V42.015l-8.956,10.497H431.98z"/>
			</g>
		</g>
		<g>
			<g>
				<path fill="#FFFFFF" d="M551.332,60.553l5.104-4.863c2.311,2.6,4.719,4.045,8.137,4.045c2.794,0,4.768-1.588,4.768-4.092v-0.098
					c0-2.744-2.457-4.285-6.596-4.285h-3.082l-1.156-4.719l8.041-8.09h-13.241v-6.356h22.775v5.586l-8.522,8.139
					c4.574,0.77,9.053,3.176,9.053,9.438v0.095c0,6.356-4.623,11.028-12.135,11.028C558.41,66.38,554.221,63.972,551.332,60.553z"/>
				<path fill="#FFFFFF" d="M586.007,62.769c-2.455-2.457-3.996-6.069-3.996-12.761v-0.096c0-10.401,4.719-18.394,14.782-18.394
					c4.575,0,7.561,1.348,10.546,3.709l-3.9,5.729c-2.217-1.685-3.997-2.697-6.887-2.697c-4.19,0-6.309,3.371-6.789,7.801
					c1.685-1.108,3.66-2.166,6.981-2.166c6.694,0,11.846,3.707,11.846,10.737v0.096c0,6.887-5.537,11.653-12.856,11.653
					C591.352,66.38,588.367,65.128,586.007,62.769z M601.223,55.065v-0.098c0-2.84-2.213-4.91-5.873-4.91s-5.778,2.021-5.778,4.863
					v0.096c0,2.84,2.213,5.008,5.873,5.008S601.223,57.954,601.223,55.065z"/>
			</g>
		</g>
		<g>
			<g>
				<path fill="#FFFFFF" d="M719.025,60.553l5.104-4.863c2.311,2.6,4.719,4.045,8.139,4.045c2.791,0,4.766-1.588,4.766-4.092v-0.098
					c0-2.744-2.455-4.285-6.598-4.285h-3.082l-1.156-4.719l8.042-8.09h-13.243v-6.356h22.777v5.586l-8.524,8.139
					c4.575,0.77,9.053,3.176,9.053,9.438v0.095c0,6.356-4.623,11.028-12.135,11.028C726.104,66.38,721.914,63.972,719.025,60.553z"
					/>
				<path fill="#FFFFFF" d="M749.271,56.557V56.46c0-4.092,1.877-6.501,5.44-8.137c-2.6-1.59-4.285-3.757-4.285-7.368v-0.096
					c0-5.153,4.717-9.245,11.844-9.245s11.847,4.045,11.847,9.245v0.096c0,3.611-1.686,5.778-4.286,7.368
					c3.418,1.781,5.442,3.947,5.442,7.944v0.096c0,6.26-5.538,9.919-13.003,9.919C754.808,66.284,749.271,62.431,749.271,56.557z
					 M768.098,55.979v-0.096c0-2.6-2.455-4.141-5.827-4.141c-3.369,0-5.826,1.541-5.826,4.141v0.096
					c0,2.311,2.166,4.188,5.826,4.188S768.098,58.339,768.098,55.979z M767.086,41.775v-0.098c0-2.07-1.781-3.947-4.815-3.947
					c-3.033,0-4.815,1.828-4.815,3.9v0.096c0,2.36,1.879,4.141,4.815,4.141C765.209,45.867,767.086,44.133,767.086,41.775z"/>
			</g>
		</g>
		<g>
			<g>
				<path fill="#FFFFFF" d="M898.262,58.532h-16.468l-1.203-5.249l18.491-21.429h6.258v20.658h4.528v6.02h-4.528v7.27h-7.078V58.532
					z M898.262,52.512V42.015l-8.956,10.497H898.262z"/>
				<path fill="#FFFFFF" d="M914.88,49.045v-0.096c0-9.776,6.067-17.431,15.024-17.431c8.909,0,14.927,7.561,14.927,17.335v0.096
					c0,9.776-6.018,17.431-15.024,17.431C920.802,66.38,914.88,58.819,914.88,49.045z M937.223,49.045v-0.096
					c0-6.116-2.985-10.739-7.416-10.739s-7.319,4.479-7.319,10.643v0.096c0,6.164,2.937,10.739,7.416,10.739
					S937.223,55.159,937.223,49.045z"/>
			</g>
		</g>
		<g>
			<g>
				<path fill="#FFFFFF" d="M1066.01,58.532h-16.468l-1.203-5.249l18.491-21.429h6.258v20.658h4.528v6.02h-4.528v7.27h-7.078V58.532
					z M1066.01,52.512V42.015l-8.956,10.497H1066.01z"/>
				<path fill="#FFFFFF" d="M1082.386,59.927l11.22-9.198c4.188-3.467,5.827-5.295,5.827-8.09c0-2.84-1.879-4.381-4.528-4.381
					c-2.599,0-4.381,1.445-6.885,4.526l-5.2-4.19c3.323-4.525,6.549-6.981,12.569-6.981c6.981,0,11.604,4.092,11.604,10.401v0.096
					c0,5.635-2.889,8.426-8.86,13.049l-5.489,4.237h14.687v6.405h-24.945V59.927z"/>
			</g>
		</g>
		<g>
			<g>
				<path fill="#FFFFFF" d="M69.816,219.72h15.649c3.852,0,6.887,1.059,8.813,2.985c1.541,1.541,2.311,3.42,2.311,5.731v0.095
					c0,3.805-2.022,5.924-4.43,7.272c3.9,1.494,6.309,3.756,6.309,8.282v0.096c0,6.164-5.008,9.245-12.618,9.245H69.816V219.72z
					 M83.877,233.346c3.274,0,5.346-1.058,5.346-3.562v-0.098c0-2.213-1.733-3.467-4.864-3.467h-7.319v7.127H83.877z M85.85,246.927
					c3.274,0,5.249-1.156,5.249-3.66v-0.098c0-2.262-1.685-3.66-5.489-3.66h-8.571v7.417H85.85z"/>
			</g>
		</g>
		<g>
			<g>
				<path fill="#FFFFFF" d="M67.938,330.741v-0.096c0-9.582,7.221-17.431,17.575-17.431c6.356,0,10.161,2.119,13.29,5.2l-4.719,5.44
					c-2.6-2.359-5.249-3.803-8.619-3.803c-5.684,0-9.776,4.719-9.776,10.497v0.096c0,5.778,3.997,10.594,9.776,10.594
					c3.852,0,6.211-1.541,8.86-3.949l4.717,4.768c-3.467,3.707-7.319,6.018-13.819,6.018
					C75.304,348.076,67.938,340.419,67.938,330.741z"/>
			</g>
		</g>
		<g>
			<g>
				<path fill="#FFFFFF" d="M68.37,407.845h13.145c10.594,0,17.913,7.272,17.913,16.757v0.096c0,9.487-7.319,16.853-17.913,16.853
					H68.37V407.845z M81.515,434.858c6.069,0,10.161-4.092,10.161-10.063v-0.096c0-5.971-4.092-10.159-10.161-10.159h-5.729v20.319
					H81.515z"/>
			</g>
		</g>
		<g>
			<g>
				<path fill="#FFFFFF" d="M49.539,501.339h13.145c10.594,0,17.913,7.27,17.913,16.757v0.096c0,9.485-7.319,16.853-17.913,16.853
					H49.539V501.339z M62.683,528.353c6.069,0,10.161-4.094,10.161-10.065v-0.096c0-5.971-4.092-10.161-10.161-10.161h-5.729v20.322
					H62.683z"/>
				<path fill="#FFFFFF" d="M87.202,501.339h13.145c10.594,0,17.913,7.27,17.913,16.757v0.096c0,9.485-7.319,16.853-17.913,16.853
					H87.202V501.339z M100.347,528.353c6.069,0,10.161-4.094,10.161-10.065v-0.096c0-5.971-4.092-10.161-10.161-10.161h-5.729
					v20.322H100.347z"/>
			</g>
		</g>
		<g>
			<g>
				<path fill="#FFFFFF" d="M71.068,595.388h25.425v6.596H78.436v6.839h15.889v6.596H78.436v7.079h18.298v6.596H71.068V595.388z"/>
			</g>
		</g>
		<g>
			<g>
				<path fill="#FFFFFF" d="M71.405,688.699h25.665v6.741H78.82v7.176h16.083v6.741H78.82v13.049h-7.416V688.699z"/>
			</g>
		</g>
		
			<rect x="-285.981" y="294.657" transform="matrix(-1.836970e-16 1 -1 -1.836970e-16 465.477 289.65)" fill="#CCCCCC" width="747.789" height="165.813"/>
		<rect x="5.978" y="4.033" fill="#CCCCCC" width="1158.389" height="93.524"/>
		
			<line fill="none" stroke="#FFFFFF" stroke-width="0.7861" stroke-miterlimit="10" x1="1163.738" y1="97.557" x2="5.349" y2="97.557"/>
		
			<line fill="none" stroke="#FFFFFF" stroke-width="0.7861" stroke-miterlimit="10" x1="5.349" y1="191.22" x2="1163.738" y2="191.22"/>
		
			<line fill="none" stroke="#FFFFFF" stroke-width="0.7861" stroke-miterlimit="10" x1="5.349" y1="284.883" x2="1163.738" y2="284.883"/>
		
			<line fill="none" stroke="#FFFFFF" stroke-width="0.7861" stroke-miterlimit="10" x1="5.349" y1="378.546" x2="1163.738" y2="378.546"/>
		
			<line fill="none" stroke="#FFFFFF" stroke-width="0.7861" stroke-miterlimit="10" x1="5.349" y1="472.209" x2="1163.738" y2="472.209"/>
		
			<line fill="none" stroke="#FFFFFF" stroke-width="0.7861" stroke-miterlimit="10" x1="171.162" y1="751.458" x2="170.778" y2="4.033"/>
		
			<line fill="none" stroke="#FFFFFF" stroke-width="0.7861" stroke-miterlimit="10" x1="334.31" y1="751.458" x2="333.926" y2="4.033"/>
		
			<line fill="none" stroke="#FFFFFF" stroke-width="0.7861" stroke-miterlimit="10" x1="833.648" y1="751.458" x2="833.264" y2="4.033"/>
		
			<line fill="none" stroke="#FFFFFF" stroke-width="0.7861" stroke-miterlimit="10" x1="999.269" y1="751.458" x2="998.885" y2="4.033"/>
		
			<line fill="none" stroke="#FFFFFF" stroke-width="0.7861" stroke-miterlimit="10" x1="5.349" y1="565.872" x2="1163.738" y2="565.872"/>
		
			<line fill="none" stroke="#FFFFFF" stroke-width="0.7861" stroke-miterlimit="10" x1="5.349" y1="657.795" x2="1163.738" y2="657.795"/>
		<g>
			<g>
				<path fill="#FFFFFF" d="M83.76,127.66h6.809l14.386,33.808h-7.72l-3.069-7.529H79.971l-3.069,7.529h-7.529L83.76,127.66z
					 M91.528,147.417l-4.46-10.886l-4.46,10.886H91.528z"/>
			</g>
		</g>
		<g>
			<g>
				<path fill="#FFFFFF" d="M223.788,62.662l5.084-4.844c2.302,2.589,4.7,4.029,8.104,4.029c2.782,0,4.747-1.584,4.747-4.076v-0.096
					c0-2.733-2.446-4.267-6.569-4.267h-3.069l-1.151-4.7l8.009-8.056h-13.188V34.32h22.682v5.564l-8.488,8.104
					c4.555,0.767,9.015,3.165,9.015,9.4v0.096c0,6.329-4.604,10.982-12.084,10.982C230.837,68.465,226.666,66.067,223.788,62.662z"
					/>
				<path fill="#FFFFFF" d="M254.096,62.038l11.175-9.158c4.171-3.453,5.802-5.276,5.802-8.056c0-2.831-1.869-4.365-4.507-4.365
					c-2.589,0-4.364,1.44-6.858,4.509l-5.178-4.173c3.309-4.507,6.522-6.953,12.517-6.953c6.953,0,11.557,4.076,11.557,10.358v0.095
					c0,5.611-2.878,8.393-8.824,12.996l-5.467,4.22h14.627v6.378h-24.842V62.038z"/>
			</g>
		</g>
		<g>
			<g>
				<path fill="#FFFFFF" d="M387.438,62.662l5.084-4.844c2.302,2.589,4.7,4.029,8.104,4.029c2.782,0,4.747-1.584,4.747-4.076v-0.096
					c0-2.733-2.446-4.267-6.569-4.267h-3.069l-1.151-4.7l8.009-8.056h-13.188V34.32h22.682v5.564l-8.487,8.104
					c4.555,0.767,9.015,3.165,9.015,9.4v0.096c0,6.329-4.604,10.982-12.084,10.982C394.487,68.465,390.316,66.067,387.438,62.662z"
					/>
				<path fill="#FFFFFF" d="M434.482,60.647h-16.4l-1.198-5.226l18.415-21.34h6.233v20.573h4.509v5.993h-4.509v7.242h-7.049V60.647z
					 M434.482,54.654V44.2l-8.92,10.455H434.482z"/>
			</g>
		</g>
		<g>
			<g>
				<path fill="#FFFFFF" d="M553.307,62.662l5.084-4.844c2.302,2.589,4.7,4.029,8.104,4.029c2.782,0,4.747-1.584,4.747-4.076v-0.096
					c0-2.733-2.445-4.267-6.569-4.267h-3.069l-1.151-4.7l8.009-8.056h-13.188V34.32h22.682v5.564l-8.487,8.104
					c4.555,0.767,9.015,3.165,9.015,9.4v0.096c0,6.329-4.604,10.982-12.084,10.982C560.356,68.465,556.185,66.067,553.307,62.662z"
					/>
				<path fill="#FFFFFF" d="M587.835,64.867c-2.446-2.446-3.98-6.042-3.98-12.708v-0.096c0-10.358,4.7-18.319,14.722-18.319
					c4.556,0,7.529,1.342,10.502,3.693l-3.884,5.707c-2.206-1.68-3.98-2.687-6.858-2.687c-4.171,0-6.282,3.358-6.76,7.769
					c1.678-1.102,3.644-2.158,6.953-2.158c6.666,0,11.797,3.693,11.797,10.695v0.096c0,6.857-5.515,11.606-12.804,11.606
					C593.159,68.465,590.186,67.218,587.835,64.867z M602.99,57.195V57.1c0-2.831-2.206-4.893-5.851-4.893
					c-3.644,0-5.755,2.015-5.755,4.844v0.096c0,2.829,2.206,4.987,5.851,4.987C600.879,62.135,602.99,60.073,602.99,57.195z"/>
			</g>
		</g>
		<g>
			<g>
				<path fill="#FFFFFF" d="M720.302,62.662l5.084-4.844c2.302,2.589,4.7,4.029,8.104,4.029c2.782,0,4.749-1.584,4.749-4.076v-0.096
					c0-2.733-2.447-4.267-6.571-4.267h-3.069l-1.151-4.7l8.009-8.056h-13.188V34.32h22.682v5.564l-8.487,8.104
					c4.555,0.767,9.015,3.165,9.015,9.4v0.096c0,6.329-4.604,10.982-12.084,10.982C727.351,68.465,723.18,66.067,720.302,62.662z"/>
				<path fill="#FFFFFF" d="M750.419,58.682v-0.096c0-4.076,1.871-6.473,5.418-8.104c-2.589-1.584-4.267-3.74-4.267-7.337v-0.096
					c0-5.131,4.7-9.207,11.797-9.207c7.098,0,11.797,4.027,11.797,9.207v0.096c0,3.596-1.678,5.753-4.267,7.337
					c3.405,1.775,5.418,3.933,5.418,7.913v0.096c0,6.233-5.515,9.878-12.948,9.878C755.933,68.369,750.419,64.533,750.419,58.682z
					 M769.17,58.105v-0.095c0-2.589-2.447-4.124-5.804-4.124c-3.357,0-5.802,1.535-5.802,4.124v0.095
					c0,2.302,2.158,4.173,5.802,4.173C767.012,62.278,769.17,60.456,769.17,58.105z M768.163,43.96v-0.096
					c0-2.062-1.775-3.933-4.796-3.933c-3.022,0-4.795,1.823-4.795,3.885v0.096c0,2.349,1.869,4.124,4.795,4.124
					S768.163,46.309,768.163,43.96z"/>
			</g>
		</g>
		<g>
			<g>
				<path fill="#FFFFFF" d="M898.773,60.647h-16.4l-1.198-5.226l18.415-21.34h6.233v20.573h4.509v5.993h-4.509v7.242h-7.049V60.647z
					 M898.773,54.654V44.2l-8.919,10.455H898.773z"/>
				<path fill="#FFFFFF" d="M915.319,51.2v-0.095c0-9.735,6.042-17.36,14.962-17.36c8.873,0,14.866,7.529,14.866,17.264v0.096
					c0,9.735-5.993,17.36-14.961,17.36C921.217,68.465,915.319,60.936,915.319,51.2z M937.57,51.2v-0.095
					c0-6.091-2.973-10.695-7.384-10.695c-4.413,0-7.291,4.46-7.291,10.598v0.096c0,6.138,2.925,10.693,7.385,10.693
					S937.57,57.291,937.57,51.2z"/>
			</g>
		</g>
		<g>
			<g>
				<path fill="#FFFFFF" d="M1065.809,60.647h-16.4l-1.198-5.226l18.415-21.34h6.233v20.573h4.509v5.993h-4.509v7.242h-7.049V60.647
					z M1065.809,54.654V44.2l-8.92,10.455H1065.809z"/>
				<path fill="#FFFFFF" d="M1082.115,62.038l11.175-9.158c4.171-3.453,5.802-5.276,5.802-8.056c0-2.831-1.871-4.365-4.507-4.365
					c-2.589,0-4.364,1.44-6.858,4.509l-5.178-4.173c3.309-4.507,6.522-6.953,12.517-6.953c6.953,0,11.557,4.076,11.557,10.358v0.095
					c0,5.611-2.877,8.393-8.824,12.996l-5.467,4.22h14.627v6.378h-24.842V62.038z"/>
			</g>
		</g>
		<g>
			<g>
				<path fill="#FFFFFF" d="M73.88,221.127h15.586c3.836,0,6.858,1.056,8.776,2.974c1.535,1.535,2.302,3.404,2.302,5.706v0.096
					c0,3.789-2.015,5.898-4.413,7.242c3.885,1.486,6.284,3.74,6.284,8.248v0.096c0,6.138-4.987,9.207-12.565,9.207H73.88V221.127z
					 M87.884,234.699c3.262,0,5.324-1.056,5.324-3.549v-0.096c0-2.206-1.727-3.453-4.844-3.453h-7.289v7.098H87.884z
					 M89.849,248.222c3.262,0,5.227-1.151,5.227-3.644v-0.096c0-2.253-1.678-3.644-5.466-3.644h-8.536v7.384H89.849z"/>
			</g>
		</g>
		<g>
			<g>
				<path fill="#FFFFFF" d="M72.011,331.669v-0.095c0-9.544,7.193-17.36,17.504-17.36c6.329,0,10.118,2.109,13.235,5.178
					l-4.698,5.42c-2.591-2.351-5.227-3.789-8.585-3.789c-5.658,0-9.735,4.7-9.735,10.455v0.096c0,5.755,3.98,10.549,9.735,10.549
					c3.836,0,6.187-1.535,8.824-3.931l4.7,4.747c-3.453,3.693-7.289,5.995-13.764,5.995
					C79.347,348.935,72.011,341.309,72.011,331.669z"/>
			</g>
		</g>
		<g>
			<g>
				<path fill="#FFFFFF" d="M72.44,408.442h13.093c10.549,0,17.839,7.242,17.839,16.689v0.096c0,9.447-7.289,16.784-17.839,16.784
					H72.44V408.442z M85.533,435.346c6.042,0,10.118-4.076,10.118-10.024v-0.095c0-5.947-4.076-10.118-10.118-10.118h-5.707v20.237
					H85.533z"/>
			</g>
		</g>
		<g>
			<g>
				<path fill="#FFFFFF" d="M53.691,501.546h13.091c10.549,0,17.839,7.24,17.839,16.688v0.096c0,9.447-7.289,16.784-17.839,16.784
					H53.691V501.546z M66.782,528.448c6.042,0,10.118-4.076,10.118-10.022v-0.096c0-5.947-4.076-10.118-10.118-10.118h-5.707v20.237
					H66.782z"/>
				<path fill="#FFFFFF" d="M91.193,501.546h13.091c10.549,0,17.839,7.24,17.839,16.688v0.096c0,9.447-7.289,16.784-17.839,16.784
					H91.193V501.546z M104.284,528.448c6.042,0,10.118-4.076,10.118-10.022v-0.096c0-5.947-4.076-10.118-10.118-10.118h-5.707
					v20.237H104.284z"/>
			</g>
		</g>
		<g>
			<g>
				<path fill="#FFFFFF" d="M75.127,595.192h25.32v6.569H82.464v6.809H98.29v6.571H82.464v7.049h18.222v6.569H75.127V595.192z"/>
			</g>
		</g>
		<g>
			<g>
				<path fill="#FFFFFF" d="M75.462,688.094h25.56v6.715H82.848v7.146h16.018v6.713H82.848v12.996h-7.386V688.094z"/>
			</g>
		</g>
		
			<line fill="none" stroke="#FFFFFF" stroke-width="0.7895" stroke-miterlimit="10" x1="500.192" y1="752.319" x2="499.807" y2="1.681"/>
		
			<line fill="none" stroke="#FFFFFF" stroke-width="0.7895" stroke-miterlimit="10" x1="666.526" y1="752.319" x2="666.14" y2="1.681"/>
	</g>
</g>
</svg>
