<svg xmlns="http://www.w3.org/2000/svg" width="14" height="14" viewBox="0 0 14 14">
  <g fill="none" fill-rule="evenodd">
    <rect width="14" height="14" fill="#FFF" fill-rule="nonzero"/>
    <path d="M10.28 7L10 7.13 9.67 7.24 9.34 7.34 8.78 7.47C8.54 7.47 8.29 7.55 8.04 7.58 7.24949533 7.67474328 6.45050467 7.67474328 5.66 7.58 5.38413302 7.54963014 5.11031631 7.50288095 4.84 7.44 4.55496437 7.37052809 4.27444136 7.28369954 4 7.18L3.45 7 3.35 7C3.15433252 6.89839403 2.96707314 6.78135691 2.79 6.65L2.55 6.45 2.55 8C2.53990857 8.06293135 2.53990857 8.12706865 2.55 8.19 2.55916049 8.28309082 2.58277738 8.37418455 2.62 8.46 2.79368783 8.7661401 3.04120115 9.02396648 3.34 9.21L3.34 7.74C3.33424976 7.57247028 3.46271451 7.43071608 3.63 7.42 3.79728549 7.43071608 3.92575024 7.57247028 3.92 7.74L3.92 9.52C4.28781271 9.67563914 4.66950918 9.79617487 5.06 9.88L5.06 8.37C5.06 8.20983742 5.18983742 8.08 5.35 8.08 5.51016258 8.08 5.64 8.20983742 5.64 8.37L5.64 10 5.71 10C6.06457035 10.0485299 6.42212908 10.0719216 6.78 10.07L6.78 8.57C6.78 8.40983742 6.90983742 8.28 7.07 8.28 7.23016258 8.28 7.36 8.40983742 7.36 8.57L7.36 10C7.73919373 9.98252641 8.1167446 9.93909135 8.49 9.87L8.49 8.3C8.49 8.13983742 8.61983742 8.01 8.78 8.01 8.94016258 8.01 9.07 8.13983742 9.07 8.3L9.07 9.79 9.45 9.68C9.7325963 9.58554274 10.0096947 9.47537107 10.28 9.35L10.28 7zM11.45 8.39L11.45 6.3C11.2668941 6.45813457 11.0693628 6.59875013 10.86 6.72L10.86 9C11.0959496 8.83872311 11.2966755 8.63119291 11.45 8.39z"/>
    <path d="M8.44,5.84 C8.23993802,5.90510573 8.03626128,5.95852914 7.83,6 L7.58,6 L7,6.09 L7,6.15 L7,6.15 L7,6.15 C6.66712246,6.17465208 6.33287754,6.17465208 6,6.15 L5.38,6 L5.13,5.93 C4.81345156,5.83672865 4.51323546,5.69505364 4.24,5.51 L4.24,6.51 L4.44,6.58 L4.78,6.67 C5.08470629,6.75254873 5.39579507,6.80941442 5.71,6.84 C6.51659559,6.94502512 7.33340441,6.94502512 8.14,6.84 L8.49,6.78 C8.81167876,6.72575637 9.12913257,6.64889913 9.44,6.55 L9.49,6.55 L9.49,5.32 C9.31818131,5.44814234 9.13392262,5.55869755 8.94,5.65 C8.77883698,5.726964 8.61160409,5.7905125 8.44,5.84 L8.44,5.84 Z"/>
    <path d="M7.1,3.24 C6.78484552,3.20072748 6.46759125,3.18069037 6.15,3.18 C4.39,3.18 2.97,3.82 2.62,4.56 C2.58283779,4.64233882 2.55920086,4.73013313 2.55,4.82 L2.55,4.82 C2.53999371,4.88629119 2.53999371,4.95370881 2.55,5.02 C2.56045597,5.10963064 2.58404185,5.19723533 2.62,5.28 C2.82450188,5.64032431 3.13055865,5.93246942 3.5,6.12 L3.5,6.12 L3.5,4.94 C3.50107075,4.80950133 3.56903194,4.68868143 3.68,4.62 C3.7932532,4.54948145 3.9367468,4.54948145 4.05,4.62 C4.7127844,4.989233 5.44479291,5.21734728 6.2,5.29 C7.08267576,5.41331734 7.982013,5.26691361 8.78,4.87 C8.94,4.78 9.36,4.48 9.3,4.14 C9.24,3.8 8.85,3.47 7.1,3.24 Z"/>
    <path fill="#ADAFB2" fill-rule="nonzero" d="M11.68,5.36 L11.68,5.36 C11.565499,5.3609024 11.4552658,5.40357333 11.37,5.48 C11.0258032,5.78751088 10.6296263,6.03131202 10.2,6.2 L10.2,4.59 C10.1928964,4.38599851 10.1453074,4.18544466 10.06,4 C9.40394747,3.04777031 8.32627154,2.47350701 7.17,2.46 C6.10678067,2.32391705 5.02683655,2.4124929 4,2.72 C3.16270877,2.92095872 2.44173734,3.45087272 2,4.19 C1.95099021,4.3102272 1.9108822,4.43389358 1.88,4.56 C1.86525063,4.67954678 1.86525063,4.80045322 1.88,4.92 L1.88,8.21 C1.88184798,8.42225611 1.92251766,8.63238279 2,8.83 C2.29654523,9.39145501 2.77149819,9.83826261 3.35,10.1 C4.06304891,10.458076 4.83593274,10.6818056 5.63,10.76 C6.04132109,10.8118664 6.45542412,10.8385827 6.87,10.84 C7.80886696,10.8457884 8.74306581,10.7075135 9.64,10.43 C10.6873186,10.1854393 11.5920309,9.52943279 12.15,8.61 L12.15,8.61 L12.15,5.84 C12.1526894,5.71362475 12.1043616,5.59149322 12.0159263,5.50117634 C11.927491,5.41085945 11.8064039,5.35997139 11.68,5.36 Z M11.45,6.3 L11.45,8.39 C11.2966755,8.63119291 11.0959496,8.83872311 10.86,9 L10.86,6.72 C11.0693628,6.59875013 11.2668941,6.45813457 11.45,6.3 L11.45,6.3 Z M9.07,9.79 L9.07,8.3 C9.07,8.13983742 8.94016258,8.01 8.78,8.01 C8.61983742,8.01 8.49,8.13983742 8.49,8.3 L8.49,9.91 C8.11582098,9.96568578 7.73827614,9.99575573 7.36,10 L7.36,8.57 C7.36,8.40983742 7.23016258,8.28 7.07,8.28 C6.90983742,8.28 6.78,8.40983742 6.78,8.57 L6.78,10.05 C6.42260089,10.0585535 6.06504403,10.0418452 5.71,10 L5.64,10 L5.64,8.37 C5.64,8.20983742 5.51016258,8.08 5.35,8.08 C5.18983742,8.08 5.06,8.20983742 5.06,8.37 L5.06,9.88 C4.66950918,9.79617487 4.28781271,9.67563914 3.92,9.52 L3.92,7.74 C3.92575024,7.57247028 3.79728549,7.43071608 3.63,7.42 C3.46271451,7.43071608 3.33424976,7.57247028 3.34,7.74 L3.34,9.22 C3.04120115,9.03396648 2.79368783,8.7761401 2.62,8.47 C2.58277738,8.38418455 2.55916049,8.29309082 2.55,8.2 C2.53990857,8.13706865 2.53990857,8.07293135 2.55,8.01 L2.55,6.36 L2.79,6.56 C2.96707314,6.69135691 3.15433252,6.80839403 3.35,6.91 L3.45,6.91 L3.95,7.13 C4.23120102,7.23109895 4.51842319,7.31459377 4.81,7.38 C5.08031631,7.44288095 5.35413302,7.48963014 5.63,7.52 C6.41482606,7.63390553 7.21041565,7.65404704 8,7.58 C8.25,7.58 8.5,7.52 8.74,7.47 L9.3,7.34 L9.63,7.24 L10,7.13 L10.28,7 L10.28,9.35 C10.0096947,9.47537107 9.7325963,9.58554274 9.45,9.68 L9.07,9.79 Z M9.49,6.47 L9.44,6.47 C9.12913257,6.56889913 8.81167876,6.64575637 8.49,6.7 L8.14,6.76 C7.33340441,6.86502512 6.51659559,6.86502512 5.71,6.76 C5.39579507,6.72941442 5.08470629,6.67254873 4.78,6.59 L4.44,6.5 L4.24,6.43 L4.24,5.43 C4.51323546,5.61505364 4.81345156,5.75672865 5.13,5.85 L5.38,6 L5.95,6.1 C6.28287754,6.12465208 6.61712246,6.12465208 6.95,6.1 L7,6.1 L7,6.1 L7,6.09 L7.54,6.09 L7.79,6.09 C7.99626128,6.04852914 8.19993802,5.99510573 8.4,5.93 C8.57160409,5.8805125 8.73883698,5.816964 8.9,5.74 C9.09392262,5.64869755 9.27818131,5.53814234 9.45,5.41 L9.49,6.47 Z M8.81,4.86 C8.012013,5.25691361 7.11267576,5.40331734 6.23,5.28 C5.47479291,5.20734728 4.7427844,4.979233 4.08,4.61 C3.9667468,4.53948145 3.8232532,4.53948145 3.71,4.61 C3.59903194,4.67868143 3.53107075,4.79950133 3.53,4.93 L3.53,6.13 L3.53,6.13 C3.16055865,5.94246942 2.85450188,5.65032431 2.65,5.29 C2.60067213,5.19961088 2.566869,5.10158183 2.55,5 C2.53999371,4.93370881 2.53999371,4.86629119 2.55,4.8 L2.55,4.8 C2.55920086,4.71013313 2.58283779,4.62233882 2.62,4.54 C3,3.82 4.39,3.18 6.15,3.18 C6.46759125,3.18069037 6.78484552,3.20072748 7.1,3.24 C8.85,3.47 9.28,3.85 9.33,4.13 C9.38,4.41 9,4.77 8.81,4.86 Z"/>
  </g>
</svg>
