<svg id="Layer_1" data-name="Layer 1" xmlns="http://www.w3.org/2000/svg" viewBox="0 0 14 14"><defs><style>.cls-1{fill:#fff;}.cls-2{fill:none;}.cls-3{fill:#adafb2;}</style></defs><title>buttery14px</title><rect class="cls-1" width="14" height="14"/><path class="cls-2" d="M10.28,7,10,7.13l-.33.11-.33.1-.56.13c-.24,0-.49.08-.74.11a10,10,0,0,1-2.38,0,7,7,0,0,1-.82-.14A7.2,7.2,0,0,1,4,7.18L3.45,7l-.1,0a4.15,4.15,0,0,1-.56-.35l-.24-.2V8a.6.6,0,0,0,0,.19.9.9,0,0,0,.07.27,2.11,2.11,0,0,0,.72.75V7.74a.31.31,0,0,1,.29-.32.31.31,0,0,1,.29.32V9.52a6.34,6.34,0,0,0,1.14.36V8.37a.29.29,0,1,1,.58,0V10h.07a7.59,7.59,0,0,0,1.07.07V8.57a.29.29,0,1,1,.58,0V10a8.31,8.31,0,0,0,1.13-.13V8.3a.29.29,0,1,1,.58,0V9.79l.38-.11a8,8,0,0,0,.83-.33Z"/><path class="cls-2" d="M11.45,8.39V6.3a3.87,3.87,0,0,1-.59.42V9A2.11,2.11,0,0,0,11.45,8.39Z"/><path class="cls-2" d="M8.44,5.84A5.43,5.43,0,0,1,7.83,6L7.58,6,7,6.09v.06H7a.43.43,0,0,0,0,0H7a6.77,6.77,0,0,1-1,0L5.38,6l-.25-.07a3.2,3.2,0,0,1-.89-.42v1l.2.07.34.09a5.65,5.65,0,0,0,.93.17,9.41,9.41,0,0,0,2.43,0l.35-.06a6.94,6.94,0,0,0,.95-.23l.05,0V5.32a3.2,3.2,0,0,1-.55.33A3.25,3.25,0,0,1,8.44,5.84Z"/><path class="cls-2" d="M7.1,3.24a7.82,7.82,0,0,0-.95-.06c-1.76,0-3.18.64-3.53,1.38a.84.84,0,0,0-.07.26h0a.67.67,0,0,0,0,.2.92.92,0,0,0,.07.26,2.11,2.11,0,0,0,.88.84l0,0V4.94a.38.38,0,0,1,.18-.32.35.35,0,0,1,.37,0,5.5,5.5,0,0,0,2.15.67,4.42,4.42,0,0,0,2.58-.42c.16-.09.58-.39.52-.73S8.85,3.47,7.1,3.24Z"/><path class="cls-3" d="M11.68,5.36h0a.47.47,0,0,0-.31.12,3.89,3.89,0,0,1-1.17.72V4.59A1.54,1.54,0,0,0,10.06,4,3.56,3.56,0,0,0,7.17,2.46,7.66,7.66,0,0,0,4,2.72,3.2,3.2,0,0,0,2,4.19a2.65,2.65,0,0,0-.12.37,1.47,1.47,0,0,0,0,.36V8.21A1.74,1.74,0,0,0,2,8.83,2.86,2.86,0,0,0,3.35,10.1a6.5,6.5,0,0,0,2.28.66,10.19,10.19,0,0,0,1.24.08,9.18,9.18,0,0,0,2.77-.41,4,4,0,0,0,2.51-1.82h0V5.84A.47.47,0,0,0,11.68,5.36Zm-.23.94V8.39a2.11,2.11,0,0,1-.59.61V6.72A3.87,3.87,0,0,0,11.45,6.3ZM9.07,9.79V8.3a.29.29,0,1,0-.58,0V9.91A8.31,8.31,0,0,1,7.36,10V8.57a.29.29,0,1,0-.58,0v1.48A7.59,7.59,0,0,1,5.71,10H5.64V8.37a.29.29,0,1,0-.58,0V9.88a6.34,6.34,0,0,1-1.14-.36V7.74a.31.31,0,0,0-.29-.32.31.31,0,0,0-.29.32V9.22a2.11,2.11,0,0,1-.72-.75.9.9,0,0,1-.07-.27.6.6,0,0,1,0-.19V6.36l.24.2a4.15,4.15,0,0,0,.56.35l.1,0,.5.22a7.2,7.2,0,0,0,.86.25,7,7,0,0,0,.82.14A10,10,0,0,0,8,7.58c.25,0,.5-.06.74-.11l.56-.13.33-.1L10,7.13,10.28,7V9.35a8,8,0,0,1-.83.33Zm.42-3.32-.05,0a6.94,6.94,0,0,1-.95.23l-.35.06a9.41,9.41,0,0,1-2.43,0,5.65,5.65,0,0,1-.93-.17l-.34-.09-.2-.07v-1a3.2,3.2,0,0,0,.89.42L5.38,6l.57.1a6.77,6.77,0,0,0,1,0H7a.43.43,0,0,1,0,0H7V6.09l.54,0,.25,0a5.43,5.43,0,0,0,.61-.16,3.25,3.25,0,0,0,.5-.19,3.2,3.2,0,0,0,.55-.33ZM8.81,4.86a4.42,4.42,0,0,1-2.58.42,5.5,5.5,0,0,1-2.15-.67.35.35,0,0,0-.37,0,.38.38,0,0,0-.18.32v1.2l0,0a2.11,2.11,0,0,1-.88-.84A.92.92,0,0,1,2.55,5a.67.67,0,0,1,0-.2h0a.84.84,0,0,1,.07-.26C3,3.82,4.39,3.18,6.15,3.18a7.82,7.82,0,0,1,.95.06c1.75.23,2.18.61,2.23.89S9,4.77,8.81,4.86Z"/></svg>