<svg xmlns="http://www.w3.org/2000/svg" width="14" height="14" viewBox="0 0 14 14">
  <g fill="none">
    <rect width="14" height="14" fill="#FFF"/>
    <polygon fill="#ADAFB2" points="5.28 2.76 5.28 2.18 2.18 2.18 2.18 5.28 2.76 5.28 2.76 3.17 5.69 6.1 5.72 6.13 6.13 5.72 3.17 2.76"/>
    <polygon fill="#ADAFB2" points="8.72 2.18 8.72 2.76 10.83 2.76 7.87 5.72 8.28 6.13 11.24 3.17 11.24 5.28 11.82 5.28 11.82 2.18"/>
    <polygon fill="#ADAFB2" points="5.72 7.87 2.76 10.83 2.76 8.72 2.18 8.72 2.18 11.82 5.28 11.82 5.28 11.24 3.17 11.24 6.13 8.28"/>
    <polygon fill="#ADAFB2" points="11.24 10.83 8.31 7.9 8.28 7.87 7.87 8.28 10.83 11.24 8.72 11.24 8.72 11.82 11.82 11.82 11.82 8.72 11.24 8.72"/>
  </g>
</svg>
