<svg id="Layer_1" data-name="Layer 1" xmlns="http://www.w3.org/2000/svg" viewBox="0 0 984.44 512.53"><defs><style>.cls-1,.cls-2{fill:#808083;}.cls-2{stroke:#808083;stroke-miterlimit:10;stroke-width:0.2px;}</style></defs><title>home-mobile-heading</title><path class="cls-1" d="M191.51,425.76v3h-8v25.33h-3.66V428.73h-8v-3Z"/><path class="cls-1" d="M224.86,425.76v28.3h-3.69V441H206.8v13.09h-3.65v-28.3h3.65V438h14.37V425.76Z"/><path class="cls-1" d="M255.33,447.51H242.88l-2.36,6.55h-3.94l10.48-27.78h4.13l10.44,27.78h-3.94Zm-1.05-2.85-5.18-14.28-5.17,14.28Z"/><path class="cls-1" d="M290.68,425.76v3h-8v25.33H279V428.73h-8v-3Z"/><path class="cls-1" d="M348.6,426.24v27.82H345v-22.2l-8.87,22.2h-3.25l-8.91-22.12v22.12h-3.66V426.24h4.38l9.87,23.36,9.71-23.36Z"/><path class="cls-1" d="M379.06,447.51H366.62l-2.37,6.55h-3.93l10.47-27.78h4.14l10.43,27.78h-3.93Zm-1-2.85-5.18-14.28-5.18,14.28Z"/><path class="cls-1" d="M404.1,439.77,417,454.06h-4.5l-11.8-13.21v13.21h-3.65v-28.3h3.65v13.13l11.84-13.13H417Z"/><path class="cls-1" d="M432.32,428.73v9.67h10.75v2.81H432.32v9.88h12v3H428.67v-28.3h15.61v3Z"/><path class="cls-1" d="M496.93,454.06h-3.65L478.59,431.7v22.36h-3.65v-28.3h3.65l14.69,22.4v-22.4h3.65Z"/><path class="cls-1" d="M514.27,425.76v17q0,4.17,1.85,6.16a6.64,6.64,0,0,0,5.1,2,6.38,6.38,0,0,0,5-2q1.82-2,1.81-6.14v-17h3.65v17q0,5.77-2.87,8.69a11.55,11.55,0,0,1-15.33,0q-2.87-2.91-2.87-8.69v-17Z"/><path class="cls-1" d="M560.39,454.06,553,442.5h-4v11.56h-3.65v-28.3h9.31q4.81,0,7.22,2.31a8.07,8.07,0,0,1,2.41,6.12,7.91,7.91,0,0,1-1.93,5.56,9,9,0,0,1-5.58,2.63l7.71,11.68ZM549,439.85h5.34c4.14,0,6.22-1.82,6.22-5.46s-2.08-5.46-6.22-5.46H549Z"/><path class="cls-1" d="M593.74,450.44a7.17,7.17,0,0,1-2.93,2.81,9.87,9.87,0,0,1-4.86,1.09,11.5,11.5,0,0,1-5-1,8.81,8.81,0,0,1-3.5-2.81,7.88,7.88,0,0,1-1.5-4.07h3.89a5.62,5.62,0,0,0,.82,2.35,5.45,5.45,0,0,0,2,1.88,6.22,6.22,0,0,0,3.15.75,5,5,0,0,0,3.69-1.29,4.43,4.43,0,0,0,1.29-3.29,4.25,4.25,0,0,0-.9-2.81,6.47,6.47,0,0,0-2.23-1.7,29.08,29.08,0,0,0-3.61-1.35,37.28,37.28,0,0,1-4.32-1.66A7.57,7.57,0,0,1,577,437a6.86,6.86,0,0,1-1.14-4.14,7.14,7.14,0,0,1,1.06-3.89,7.06,7.06,0,0,1,3.05-2.61,11.1,11.1,0,0,1,4.68-.92,10.07,10.07,0,0,1,6.62,2,7.77,7.77,0,0,1,2.85,5.15h-3.93a5.37,5.37,0,0,0-1.73-3,5.47,5.47,0,0,0-3.81-1.28,5.22,5.22,0,0,0-3.53,1.14,4.58,4.58,0,0,0-.47,5.9,6.06,6.06,0,0,0,2.15,1.61,34.88,34.88,0,0,0,3.53,1.3,35.24,35.24,0,0,1,4.4,1.69,7.36,7.36,0,0,1,2.83,2.43,7.28,7.28,0,0,1,1.16,4.31A7.54,7.54,0,0,1,593.74,450.44Z"/><path class="cls-1" d="M611.28,425.76v28.3h-3.65v-28.3Z"/><path class="cls-1" d="M647.16,454.06H643.5L628.82,431.7v22.36h-3.66v-28.3h3.66l14.68,22.4v-22.4h3.66Z"/><path class="cls-1" d="M682.17,427.93a11.89,11.89,0,0,1,4.52,6.66h-3.85a8.68,8.68,0,0,0-3.35-4.13,9.76,9.76,0,0,0-5.56-1.57,10,10,0,0,0-5.18,1.35,9.3,9.3,0,0,0-3.59,3.83,13.89,13.89,0,0,0,0,11.82,9.28,9.28,0,0,0,3.67,3.85,10.64,10.64,0,0,0,5.4,1.35A10.17,10.17,0,0,0,679,450a9.29,9.29,0,0,0,3.56-3.27,11.19,11.19,0,0,0,1.66-5H673.12v-2.73h14.21v3.37a14.09,14.09,0,0,1-2.09,6.1,12.5,12.5,0,0,1-4.65,4.33,13.62,13.62,0,0,1-6.66,1.61,14.08,14.08,0,0,1-7.23-1.83,12.66,12.66,0,0,1-4.87-5.1,16.88,16.88,0,0,1,0-15,12.82,12.82,0,0,1,4.87-5.11,13.89,13.89,0,0,1,7.19-1.85A13.66,13.66,0,0,1,682.17,427.93Z"/><path class="cls-1" d="M734.81,447.51H722.37L720,454.06h-3.93l10.47-27.78h4.14l10.43,27.78h-3.93Zm-1-2.85-5.18-14.28-5.18,14.28Z"/><path class="cls-1" d="M774.83,454.06h-3.66L756.48,431.7v22.36h-3.65v-28.3h3.65l14.69,22.4v-22.4h3.66Z"/><path class="cls-1" d="M810.83,447.37a11.88,11.88,0,0,1-5.08,4.94,17.3,17.3,0,0,1-8,1.75h-9v-28.3h9a17.55,17.55,0,0,1,8,1.71,11.66,11.66,0,0,1,5.08,4.89,17.23,17.23,0,0,1,0,15Zm-4.94.55q2.93-2.85,2.93-8c0-3.45-1-6.14-2.91-8.05s-4.77-2.87-8.49-2.87h-5.06v21.8h5.06C801.11,450.77,803.94,449.82,805.89,447.92Z"/><path class="cls-1" d="M284.36,500.85v11.4h-3.65V484h9q4.86,0,7.26,2.26a8.11,8.11,0,0,1,2.41,6.21,7.91,7.91,0,0,1-2.49,6.2q-2.49,2.22-7.18,2.22Zm9.81-4.45a6.19,6.19,0,0,0,0-8q-1.46-1.38-4.79-1.38h-5V497.8h5C291.6,497.8,293.2,497.34,294.17,496.4Z"/><path class="cls-1" d="M315.11,484v17q0,4.19,1.84,6.16a6.6,6.6,0,0,0,5.1,2,6.42,6.42,0,0,0,5-2q1.8-2,1.8-6.14V484h3.65v17c0,3.86-.95,6.75-2.87,8.69a11.55,11.55,0,0,1-15.33,0c-1.91-1.94-2.87-4.83-2.87-8.69V484Z"/><path class="cls-1" d="M374.54,484.44v27.81h-3.65V490.06L362,512.25h-3.25l-8.91-22.11v22.11h-3.65V484.44h4.37l9.88,23.36,9.71-23.36Z"/><path class="cls-1" d="M392.08,500.85v11.4h-3.65V484h9q4.86,0,7.26,2.26a8.11,8.11,0,0,1,2.41,6.21,7.91,7.91,0,0,1-2.49,6.2c-1.65,1.48-4.05,2.22-7.18,2.22Zm9.82-4.45a6.22,6.22,0,0,0,0-8q-1.47-1.38-4.8-1.38h-5V497.8h5C399.32,497.8,400.92,497.34,401.9,496.4Z"/><path class="cls-1" d="M423,484v28.29h-3.66V484Z"/><path class="cls-1" d="M458.91,512.25h-3.66L440.57,489.9v22.35h-3.66V484h3.66l14.68,22.39V484h3.66Z"/><path class="cls-1" d="M493.92,486.12a12,12,0,0,1,4.52,6.67h-3.85a8.7,8.7,0,0,0-3.35-4.14,9.83,9.83,0,0,0-5.56-1.56,10.07,10.07,0,0,0-5.18,1.34,9.42,9.42,0,0,0-3.59,3.83,13.89,13.89,0,0,0,0,11.82,9.31,9.31,0,0,0,3.67,3.86,10.73,10.73,0,0,0,5.4,1.34,10.17,10.17,0,0,0,4.77-1.12,9.29,9.29,0,0,0,3.56-3.27,11.19,11.19,0,0,0,1.66-5H484.87v-2.73h14.21v3.37a14,14,0,0,1-2.09,6.1,12.53,12.53,0,0,1-4.65,4.34,13.61,13.61,0,0,1-6.66,1.6,14.17,14.17,0,0,1-7.23-1.82,12.73,12.73,0,0,1-4.87-5.1,16.88,16.88,0,0,1,0-15,12.84,12.84,0,0,1,4.87-5.12,13.89,13.89,0,0,1,7.19-1.84A13.65,13.65,0,0,1,493.92,486.12Z"/><path class="cls-1" d="M533.64,486.93v9.67h10.75v2.81H533.64v9.87h12v3H530V484H545.6v3Z"/><path class="cls-1" d="M574.9,505.71H562.45l-2.37,6.54h-3.93l10.48-27.77h4.13l10.44,27.77h-3.94Zm-1-2.85-5.18-14.29-5.17,14.29Z"/><path class="cls-1" d="M609.85,508.64a7.23,7.23,0,0,1-2.93,2.81,10,10,0,0,1-4.85,1.08,11.69,11.69,0,0,1-5-1,8.86,8.86,0,0,1-3.49-2.81,8,8,0,0,1-1.51-4.07H596a5.44,5.44,0,0,0,.82,2.34,5.36,5.36,0,0,0,2,1.89,6.23,6.23,0,0,0,3.16.74,5,5,0,0,0,3.69-1.28,4.48,4.48,0,0,0,1.28-3.29,4.25,4.25,0,0,0-.9-2.81,6.52,6.52,0,0,0-2.23-1.71,30.34,30.34,0,0,0-3.61-1.34,36.81,36.81,0,0,1-4.31-1.67,7.23,7.23,0,0,1-2.77-2.35A6.78,6.78,0,0,1,592,491a7.12,7.12,0,0,1,1.07-3.89,6.82,6.82,0,0,1,3.05-2.61,10.9,10.9,0,0,1,4.67-.92,10.07,10.07,0,0,1,6.62,2,7.69,7.69,0,0,1,2.85,5.16h-3.93a5.31,5.31,0,0,0-1.73-3,5.39,5.39,0,0,0-3.81-1.28,5.22,5.22,0,0,0-3.53,1.14,4,4,0,0,0-1.33,3.23,4,4,0,0,0,.87,2.67,5.86,5.86,0,0,0,2.15,1.6,32.82,32.82,0,0,0,3.53,1.31,36.84,36.84,0,0,1,4.39,1.68,7.46,7.46,0,0,1,2.83,2.43,7.25,7.25,0,0,1,1.17,4.32A7.57,7.57,0,0,1,609.85,508.64Z"/><path class="cls-1" d="M627.39,484v28.29h-3.65V484Z"/><path class="cls-1" d="M644.93,486.93v9.67h10.76v2.81H644.93v9.87h12v3H641.28V484h15.61v3Z"/><path class="cls-1" d="M684.62,512.25l-7.38-11.56h-4v11.56h-3.65V484h9.31q4.82,0,7.23,2.3a8.11,8.11,0,0,1,2.41,6.12,7.92,7.92,0,0,1-1.93,5.56,8.91,8.91,0,0,1-5.58,2.63l7.71,11.68ZM673.26,498h5.34q6.23,0,6.22-5.45t-6.22-5.46h-5.34Z"/><path class="cls-2" d="M143.2,140.58c1.84-.34,3.83-.75,6-1.21s4.25-.86,6.38-1.21,4.14-.63,6-.86a42.78,42.78,0,0,1,5.09-.34c.46,0,.72.26.78.77a.77.77,0,0,1-.6,1q-3.63.87-6.65,1.56t-5.78,1.2q-3.79.87-7.51,1.56c-2.47.46-5.67,1.15-9.58,2.07q-1.2,16.4-4.05,33.48a241,241,0,0,1-8.2,33.82l-.86,3.11q-1.38,4.14-2.85,8.37T118,232.22q-2.07,4.49-4.41,9.49a86,86,0,0,1-5.26,9.67,96.17,96.17,0,0,1-13.29,17.17,65,65,0,0,1-17.77,13,50.8,50.8,0,0,1-10.53,3.71,42.74,42.74,0,0,1-11,1.12,39.64,39.64,0,0,1-11-2,42.6,42.6,0,0,1-10-4.75,36.19,36.19,0,0,1-8-7.68,36.94,36.94,0,0,1-5.43-9.58,45.88,45.88,0,0,1-3-10.27,59.94,59.94,0,0,1-1-10.44,81.5,81.5,0,0,1,3.19-20.28,79.31,79.31,0,0,1,7.85-18.2A86.43,86.43,0,0,1,40,188.3a116.7,116.7,0,0,1,13.81-12,161,161,0,0,1,29-16.82A289.49,289.49,0,0,1,109.89,149q5.86-1.9,11-3.28t10-2.42a17.24,17.24,0,0,1,.17-2.5,16,16,0,0,0,.17-2.33c.12-.92.2-1.75.26-2.5s.09-1.58.09-2.51q.35-4.83.34-9.66v-9.32a418,418,0,0,0-2.58-48l-.35-1.89a41.22,41.22,0,0,1-2.67,3.62c-1.21,1.5-2.68,3.39-4.41,5.69q-4,5-9.66,11.83T99,100.71q-7.77,8.12-17.17,16.83A171.39,171.39,0,0,1,60.54,134.2c-2.07,1.26-4.23,2.53-6.48,3.79a63.68,63.68,0,0,1-6.64,3.28,43.77,43.77,0,0,1-7,2.5,44.37,44.37,0,0,1-7.85,1.47,29,29,0,0,1-8.11-.09,32.31,32.31,0,0,1-8-2.24,31.07,31.07,0,0,1-7.25-4.31A22.55,22.55,0,0,1,3.59,132,22.84,22.84,0,0,1,.65,124a39.28,39.28,0,0,1-.52-8.11A58.24,58.24,0,0,1,3.59,99.85a99.52,99.52,0,0,1,6.64-14.06Q14.12,79,18.6,72.58A132.69,132.69,0,0,1,28,61.19q5.08-5.52,10.61-10.44A128.44,128.44,0,0,1,50,41.69a119.19,119.19,0,0,1,11.56-7.25A61,61,0,0,1,74.17,30a33.47,33.47,0,0,1,12.6-.69A27.6,27.6,0,0,1,98,33.32a30.59,30.59,0,0,1,8.11,7.34,35.78,35.78,0,0,1,4.83,8,73.36,73.36,0,0,1,2.76,7.51q1,3.45,1.73,6.38t1,5.18a9.52,9.52,0,0,0,.35,2.07q1.89-2.41,3.28-4.23c.92-1.2,1.72-2.27,2.41-3.19a32.32,32.32,0,0,0,2.07-2.93,14.37,14.37,0,0,1,4.15-4c1.26-.69,2.24-.86,2.93-.52.92-.11,1.78.72,2.59,2.5a31.94,31.94,0,0,1,1.9,8.72q1,10.88,1.64,22.87t.6,25.28V124q0,5-.35,10.36c-.11,1.38-.17,2.62-.17,3.71a22.79,22.79,0,0,1-.34,3.71Zm-49-44q5.7-6.21,10.44-11.73t8.2-10.18a48.2,48.2,0,0,1-1-6.22c-.23-1.38-.54-3-1-4.74s-1-3.83-1.64-6.13a53.86,53.86,0,0,0-2.76-6.9,48,48,0,0,0-4.31-7.25,23.39,23.39,0,0,0-6.56-6.13,20.92,20.92,0,0,0-9.49-3.19,27.06,27.06,0,0,0-11,.6,55.69,55.69,0,0,0-11.39,4.23A97.57,97.57,0,0,0,42,54.2,143.19,143.19,0,0,0,22.91,75.69,113.84,113.84,0,0,0,15.06,88.2a94.64,94.64,0,0,0-6.13,13.72A60.25,60.25,0,0,0,7,109a63.48,63.48,0,0,0-1.12,7.07A30.85,30.85,0,0,0,6.26,123a18.8,18.8,0,0,0,2.33,6.38,19.14,19.14,0,0,0,4.14,5,11.14,11.14,0,0,0,2.76,1.9l1,.51.69.35.69.34a8.86,8.86,0,0,1,.86.35,17.63,17.63,0,0,0,6.3,1.72,34,34,0,0,0,7,0,29.3,29.3,0,0,0,6.39-1.46q3.27-1.12,6.73-2.5,6.38-3.12,11.91-6.22a179.58,179.58,0,0,0,20.53-16.48Q86.94,104.17,94.19,96.57Zm25.2,114.25a275.23,275.23,0,0,0,7.5-32.36q2.69-16,3.89-31.67l-9.5,2.59c-3.33.92-6.79,2-10.35,3.28q-6,1.91-12.68,4.49t-13.9,6V163q-6.72,3.45-13.72,7.42a126.14,126.14,0,0,0-14.24,9.49,127.92,127.92,0,0,0-13.28,11.48,66.72,66.72,0,0,0-11,14.41,69.07,69.07,0,0,0-7.25,17,75.35,75.35,0,0,0-2.76,19.07,49.88,49.88,0,0,0,.95,9.41,54.52,54.52,0,0,0,2.68,9.41,33.55,33.55,0,0,0,4.91,8.19,38.74,38.74,0,0,0,7,6.65,31.38,31.38,0,0,0,9,4.4,34.54,34.54,0,0,0,10,1.47,37.93,37.93,0,0,0,9.49-1.21,44.91,44.91,0,0,0,8.8-3.28,56.52,56.52,0,0,0,16.31-12.08,91.71,91.71,0,0,0,12.34-16.4,68.23,68.23,0,0,0,4.75-8.71q2.14-4.75,4-9.75,1.91-4,3.19-7.51c.87-2.36,1.64-4.69,2.33-7l1.56-4.83Z"/><path class="cls-2" d="M302.15,137.82c.8-.35,1.38-.4,1.72-.17a1.12,1.12,0,0,1,.52.51v.69a1.88,1.88,0,0,1-.86,1.39,22.66,22.66,0,0,1-2.42,1.38c-.81.46-1.76,1-2.85,1.55s-2.27,1.15-3.54,1.72l-2.58,1-2.08.86c-.92.24-1.87.46-2.84.69a14.24,14.24,0,0,1-3.37.35,14.89,14.89,0,0,1-1.9-.52,4.84,4.84,0,0,1-1.9-1.21h.18a6.63,6.63,0,0,1-1.9-2.07,13,13,0,0,1-1-1.64c-.34-.63-.63-1.18-.86-1.64s-.43-.83-.6-1.12-.21-.31-.09-.09l-.86-2.07c-.58-.92-1.15-1.75-1.73-2.5a4.49,4.49,0,0,0-1.72-1.47,2.4,2.4,0,0,0-1.56.18,11.76,11.76,0,0,0-1.9,2.07q-1.38,2.07-2.76,4.4t-2.41,4.4l-1.56,3.28c-.57,1.15-1.15,2.27-1.72,3.36s-1.1,2.05-1.55,2.85v-.17a7.44,7.44,0,0,1-1,1.47,4.86,4.86,0,0,1-1.38,1.12l.17-.18a5.37,5.37,0,0,1-1.38.78,2.15,2.15,0,0,1-1.72-.26,3.3,3.3,0,0,1-2.33-2.07,11.73,11.73,0,0,1-.95-2.76c-.24-2.18-.38-4.28-.44-6.3s-.08-3.82-.08-5.43c0-.92,0-2-.09-3.2a16.64,16.64,0,0,0-.43-3.19,11.86,11.86,0,0,0-.87-2.76l-.35-.17q-.87,0-1.74,1.38l-1.74,3.28c-.58,1.38-1.13,2.73-1.66,4s-1,2.74-1.47,4.23c-.35,1.27-.7,2.5-1.05,3.71s-.69,2.39-1,3.54l-.52,1.55c-.23.81-.47,1.58-.7,2.33s-.46,1.47-.69,2.16l-.7,2.24-.87,3.45-.35.69-1.39,2.59a2.53,2.53,0,0,1-.61,1,4.76,4.76,0,0,1-.61.34,6.5,6.5,0,0,1-1.65.43,1.37,1.37,0,0,1-1.13-.25l-.35-.18a5.54,5.54,0,0,1-.87-1.9c-.11-.57-.23-1.15-.35-1.72a19,19,0,0,1-.26-1.9c-.06-.69-.08-1.38-.08-2.07l-.18-2.24V153c0-6-.06-11.57-.17-16.74a114.16,114.16,0,0,0-1-13.64,14,14,0,0,0-1-4.83,1.58,1.58,0,0,0-.86-1h-.18a5.61,5.61,0,0,0-2.24,2.59v-.17l-1,2.07-3.27,6c-.58.92-1.13,1.87-1.64,2.85s-1.07,2-1.64,3l-1.38,2.59-2.94,4.31a15.35,15.35,0,0,1-1.46,1.64l-1.64,1.64a14.07,14.07,0,0,1-2.07,2,6.93,6.93,0,0,1-2.59,1.29,5,5,0,0,1-1.9,0,4,4,0,0,1-1.9-.86,5.25,5.25,0,0,1-2.07-2.59,15.39,15.39,0,0,1-1.73-5.35,17.46,17.46,0,0,1-.52-2.68c-.11-1-.23-1.92-.34-2.84l-.17-.35-.52,1-.86,1.55-2.59,5.18h.17l-.86,1.55q-1.91,4-4.66,8.8v-.17c0,.12,0,.17-.09.17s-.08.06-.08.17v.18q-1.56,2.76-3.28,5.26a20.1,20.1,0,0,1-4.14,4.4,15.49,15.49,0,0,1-2.51,2,9.67,9.67,0,0,1-3.88,1.29,7.85,7.85,0,0,1-7.25-3.28,9.93,9.93,0,0,1-1.9-3.71,15.5,15.5,0,0,1-.51-3.88,21.3,21.3,0,0,1,.17-2.76,13.13,13.13,0,0,1,.51-2.42,28.39,28.39,0,0,1,5-10.7,21,21,0,0,1,8.54-6.9,20.72,20.72,0,0,1,9.93-1.9,2.75,2.75,0,0,1,2.15,1.12,2.7,2.7,0,0,1,.43,2,3.08,3.08,0,0,1-1,1.81,2.42,2.42,0,0,1-2.07.6,13.65,13.65,0,0,0-7.08,1.3,17.53,17.53,0,0,0-6.56,5.43,14.54,14.54,0,0,0-2.5,3.89,36.17,36.17,0,0,0-1.64,4.57,10.91,10.91,0,0,0-.51,4.49,8.38,8.38,0,0,0,1.2,4.14A7.46,7.46,0,0,0,168,158a1.8,1.8,0,0,0,1.46.35,4.94,4.94,0,0,0,2-.52,7.19,7.19,0,0,0,2-1.38,29.83,29.83,0,0,0,3.45-4.14c1-1.5,2.07-3,3.11-4.66q1.2-1.91,2.16-3.54t2-3.54l1.38-2.93v.17l2.76-5.18a.48.48,0,0,1,.18-.34c.11-.12.11-.06,0,.17l1.55-2.93.86-1.21a10,10,0,0,1,1.56-1.56,2.17,2.17,0,0,1,2.41-.51,5.7,5.7,0,0,1,1.73,1.89l.34,1,.17,1.21.18,1V132c.11.92.2,1.79.26,2.59a14.41,14.41,0,0,0,.43,2.59,12,12,0,0,0,1.21,4.31q.85,1.73,2.07,1.56a5.67,5.67,0,0,0,2.93-1.9l2.76-3.11c.92-1.15,1.75-2.27,2.5-3.36s1.47-2.16,2.16-3.2l4.83-8.45.18-.35a.15.15,0,0,1,.17-.17l1.9-3.11a1.51,1.51,0,0,0,.52-1,1,1,0,0,1,.17-.69l.34-.35c.23-.34.55-.77.95-1.29a14.91,14.91,0,0,1,1.12-1.3,13.5,13.5,0,0,1,2-.6,2.1,2.1,0,0,1,1.81.26h-.17a2.66,2.66,0,0,1,1.23.86c.23.35.47.69.71,1l.36.69v-.35a9.3,9.3,0,0,1,.8,2.5c.18,1,.39,2,.62,3a77.88,77.88,0,0,1,1.52,13.81q.27,8.12.63,16.91a11.22,11.22,0,0,1,.17,2.07v2.25a7.35,7.35,0,0,0,.26-1.12,2.61,2.61,0,0,1,.43-1.13v.18l1-3.63c.35-1.49.75-3.07,1.21-4.74s.92-3.31,1.38-4.92l.86-2.42c.35-1,.67-2,.95-3a18.17,18.17,0,0,1,1.13-2.85c.34-.57.69-1.2,1-1.89s.75-1.5,1.21-2.42l-.17.35.34-.7L243,127a5.8,5.8,0,0,1,6.3-1.3,6,6,0,0,1,2.33,1.64,19.25,19.25,0,0,1,1.47,3.28c.28.92.48,1.67.6,2.24a12.15,12.15,0,0,1,.35,2.94,19,19,0,0,0,.17,2.76,7.15,7.15,0,0,0,.08,1,6.18,6.18,0,0,1,.09,1c0,1.38,0,2.82.09,4.31a43.18,43.18,0,0,0,.43,4.66,4.45,4.45,0,0,0,.78-1.46q.42-1.12.6-1.47l.86-1.38v.17l1.38-3.28q1.22-2.07,2.59-4.48a40.13,40.13,0,0,1,3.28-4.84,8.16,8.16,0,0,1,1.38-1.38,13.45,13.45,0,0,0,1.55-1.38,5.24,5.24,0,0,1,2.77-1,8.59,8.59,0,0,1,2.76.26,7.47,7.47,0,0,1,2.93,2.25c.69.92,1.32,1.84,1.9,2.76l.69,1,1.72,3.8a4.53,4.53,0,0,0,.52,1.21,13.66,13.66,0,0,0,1.82,2.59,3.47,3.47,0,0,0,2,1.2,10.85,10.85,0,0,0,4.4-.6A43.62,43.62,0,0,0,293,142a1.59,1.59,0,0,0,.69-.17h-.17l3.71-1.55c1.09-.46,2-.87,2.67-1.21l2.07-1Zm-95.27.17c0-.11.11-.28.35-.52l-.35.35Zm14.5-18.46.17-.18v.18Zm54.19,20,.17.35Z"/><path class="cls-2" d="M348.57,138a5.36,5.36,0,0,0-.35,1,2.16,2.16,0,0,1-.86,1.21q-.35,0-2.07,1.89l-2.07,1.73c-.58.58-1.21,1.18-1.9,1.81a16.4,16.4,0,0,1-2.42,1.81q-1.89,1.56-4.4,3.28t-5.78,3.63a35.34,35.34,0,0,1-6.82,3.19,31.83,31.83,0,0,1-7.85,1.64h-2.24a6.25,6.25,0,0,1-2.07-.35,6.57,6.57,0,0,1-2.25-.69l-2.76-1.55a9.08,9.08,0,0,1-2.24-3.8,31.51,31.51,0,0,1-1-4.48,22.49,22.49,0,0,1,.18-4.84,22,22,0,0,1,1-4.14,16.56,16.56,0,0,1,4.14-7.94,14.91,14.91,0,0,1,3.45-3.36,8.92,8.92,0,0,1,4.66-1.64h-.17a3.31,3.31,0,0,1,1.3-.09,7,7,0,0,1,1.29.26,1.18,1.18,0,0,1,.52.09,1.15,1.15,0,0,0,.52.08l1.38.87a3.68,3.68,0,0,1,1.38,1.55,4.65,4.65,0,0,1,.51,2.07l-1.38,2.94A11.5,11.5,0,0,1,317.5,137a17.83,17.83,0,0,1-6.64,2.85c-1.21.23-2.27.4-3.19.52h-1.21a28.33,28.33,0,0,0-.86,3.79,14.29,14.29,0,0,0-.18,3.8,17.4,17.4,0,0,0,.69,3.19,6.85,6.85,0,0,0,1.73,2.85,4.93,4.93,0,0,0,2.76,1.47c1,.17,2.18.32,3.45.43a24.63,24.63,0,0,0,7.08-1.38,46.58,46.58,0,0,0,6.38-2.76q2.25-1.38,5-3.11a45.28,45.28,0,0,0,4.66-3.28c1.38-1,2.61-2,3.71-2.93s2-1.67,2.84-2.24a20.59,20.59,0,0,0,1.73-1.39,2.78,2.78,0,0,1,.69-.51c.8-.81,1.44-1.1,1.9-.87A1.19,1.19,0,0,1,348.57,138Zm-38.66-4.14a11.24,11.24,0,0,0-.61,1,3.28,3.28,0,0,1-.6.86,13.1,13.1,0,0,0,3.63-1.21,13.52,13.52,0,0,0,2.58-1.29,7.56,7.56,0,0,0,2.08-2l-.18-.34h-1.72A6.14,6.14,0,0,0,309.91,133.85Zm7.25-2.59v-.17l-.17.17Z"/><path class="cls-2" d="M404.83,113.31a8.13,8.13,0,0,0-3.37-.77c-1.78-.18-3.94-.26-6.47-.26-1.27,0-2.62,0-4.06.08s-2.84.15-4.22.26q-2.94.34-5.61.61t-4.92.6q-2.6.35-4.83.69c-.24,0-.46-.28-.69-.86a8.4,8.4,0,0,1-.52-1.9,7.48,7.48,0,0,1-.09-2c.06-.63.2-.94.43-.94,1.61-.23,3.28-.41,5-.52,1.49-.12,3.19-.2,5.09-.26s3.88-.14,5.95-.26a24,24,0,0,1,2.85-.17h2.85a80.9,80.9,0,0,1,8.89.43,13,13,0,0,1,5.43,1.47,1.56,1.56,0,0,1,.69,1.89l-.34,1.39a.54.54,0,0,1-.35.51,2,2,0,0,1-1.38.18Z"/><path class="cls-2" d="M578.61,141.62a14.34,14.34,0,0,1,2.42-2.94,2.41,2.41,0,0,1,1-.86,8,8,0,0,0,.77-.35h.69c.12,0,.23.18.35.52a9.93,9.93,0,0,1,0,2.59,30.31,30.31,0,0,1-1.38,3.19,70.69,70.69,0,0,1-3.63,6.3q-3.27,5-8.8,13.55a233.58,233.58,0,0,1-14,19.07q-4.31,5.34-9.4,11t-11,11.22a168.6,168.6,0,0,1-13.38,11,95.31,95.31,0,0,1-15.61,9.41,89.44,89.44,0,0,1-9,3.36,58,58,0,0,1-9.83,2.16,4.36,4.36,0,0,1-1.3.17h-1.29a8.85,8.85,0,0,0-1.3.09,8.76,8.76,0,0,1-1.29.08h-2.59a10.64,10.64,0,0,1-1.38-.08,10.66,10.66,0,0,0-1.38-.09l-5-1a1.8,1.8,0,0,1-.6-.09,1.37,1.37,0,0,0-.43-.09c-.58-.11-1.21-.25-1.9-.43a8.81,8.81,0,0,1-2.24-1l.17.18q-2.76-.87-5.18-1.9-.69-.34-1.38-.78l-1.55-.95a4.33,4.33,0,0,1-.69-.43,4.83,4.83,0,0,0-.69-.43q.85.34-.09-.09a4.6,4.6,0,0,1-1.29-.77,4.17,4.17,0,0,0-.95-.69c-.41-.24-.61-.29-.61-.18l-3.45-2.59h.17l-2.76-2.41a73.73,73.73,0,0,1-12.25-18.3,84.81,84.81,0,0,1-6.39-20.88,207.92,207.92,0,0,1-2.59-21.92c-.11-1.26-.17-2.67-.17-4.22v-4.23q0-9.15.87-18t2.24-17.6a233.58,233.58,0,0,1,11.3-41.59,168.49,168.49,0,0,1,19.07-36.76A112.4,112.4,0,0,1,473.77,19,81.48,81.48,0,0,1,489,7.18,64.63,64.63,0,0,1,501.47,2,43.89,43.89,0,0,1,514.07.1a41.41,41.41,0,0,1,9.32,1,28.54,28.54,0,0,1,7.76,3.19,31.88,31.88,0,0,1,6.22,4.74A32.64,32.64,0,0,1,542,14.94c1.26,2.07,2.47,4.09,3.62,6a72.27,72.27,0,0,1,4.14,11.74,60.74,60.74,0,0,1,1.73,10.18,39.63,39.63,0,0,1-.35,9c-.11.24-.29.61-.52,1.13a4.16,4.16,0,0,1-.86,1.29c-.81.58-1.27.89-1.38,1a1.15,1.15,0,0,1-.52.09h-1l-2.07-1a3.09,3.09,0,0,1-1-1.38l-.17-.17a2.11,2.11,0,0,1-.52-.87c-.12-.22-.23-.45-.34-.69a1.45,1.45,0,0,1-.18-.69h.18l-1-2.07c-.23-.57-.4-1.06-.52-1.46s-.23-.84-.34-1.3a5.45,5.45,0,0,1-.18-1.38,21.1,21.1,0,0,1-1-7.85c.23-2,.75-3.13,1.55-3.37a3.33,3.33,0,0,1,2.42,1,71.43,71.43,0,0,0-3.8-10.36H540a41.68,41.68,0,0,0-6.81-9.83,23.25,23.25,0,0,0-11.31-6.73,21.25,21.25,0,0,0-3.53-.69c-1.1-.12-2.28-.23-3.54-.35a12.15,12.15,0,0,0-1.9.17,11.13,11.13,0,0,1-1.9.18c-.58,0-1.18,0-1.81.08s-1.3.15-2,.26a67.16,67.16,0,0,0-7.85,2.24A41.36,41.36,0,0,0,492,12.53a59.23,59.23,0,0,0-14,10.52,111.62,111.62,0,0,0-12.08,14.33,151.15,151.15,0,0,0-18.55,35.38,248.15,248.15,0,0,0-11.31,40.55q-1.38,8.3-2.16,17.26t-.77,17.26V152c0,1.38.05,2.76.17,4.14A155.13,155.13,0,0,0,435.8,177a95.29,95.29,0,0,0,6,19.85q2.24,4.66,4.83,9a40.05,40.05,0,0,0,6,7.76l.95.95a7.28,7.28,0,0,0,1.47,1.12l1.38,1.21,1.89,1.55H458l2.93,1.56,3.63,2.07-.18-.17,4.49,1.72a11.8,11.8,0,0,0,3.28,1,1.2,1.2,0,0,1,.52.08,1.13,1.13,0,0,0,.52.09.75.75,0,0,1,.34.09,1.34,1.34,0,0,0,.52.08,9,9,0,0,0,2.07.43,19,19,0,0,1,1.9.26,10,10,0,0,0,2.24.17,7.2,7.2,0,0,1,1.21.09,7.2,7.2,0,0,0,1.21.09,6,6,0,0,0,1-.09,7.2,7.2,0,0,1,1.21-.09,10.28,10.28,0,0,0,2.07-.17,47.36,47.36,0,0,0,9.06-1.9,72.18,72.18,0,0,0,8.55-3.28,77.76,77.76,0,0,0,15-8.8q6.9-5.18,12.77-10.35,5.52-5.18,10.7-10.87t9.15-10.7q7.41-9.33,12.94-17.52T574,149l.87-1.56Q577.23,143.69,578.61,141.62Z"/><path class="cls-2" d="M652.65,138.16a4.39,4.39,0,0,1,1.38-.6,5.13,5.13,0,0,1,.86-.09,2.44,2.44,0,0,1,.52.35,2.94,2.94,0,0,1-.17.86,2.37,2.37,0,0,1-1,1.56L651.61,142h.17l-.69.35c-.8.57-1.81,1.2-3,1.89s-2.5,1.39-3.88,2.08a43,43,0,0,1-5.52,2.24,22.35,22.35,0,0,1-7.08,1,10.31,10.31,0,0,1-7.94-4v.17l-.51-.87-.52-.86-.86-2.59.17.18a11.56,11.56,0,0,1-1.21-3.11,1.8,1.8,0,0,0-.09-.6,1.92,1.92,0,0,1-.08-.61l-.35-1.38v.17c-.23-1-.4-2-.52-2.93a3.36,3.36,0,0,0-.51-1.73,3,3,0,0,0-2.33-1.72,4.92,4.92,0,0,0-2.85.52,15.4,15.4,0,0,0-6,4.66,57.37,57.37,0,0,0-4.58,6.38,88.86,88.86,0,0,0-7.16,13.46q-3,7.08-5.26,12.6a2.79,2.79,0,0,1-2.61,1.73,2.52,2.52,0,0,1-2.44-1.38V168a6.81,6.81,0,0,1-1.43-2.76c-.24-1.73-.54-3.68-.89-5.87q-.36-2.92-.81-7.07c-.29-2.77-.56-5.87-.8-9.32q-.34-6.39-.6-14.07t-.26-16c0-3.34,0-6.67.09-10s.14-6.73.25-10.18q.38-14.16,1.36-28.13t2.44-25.89q.87-6,1.64-11.48a39.75,39.75,0,0,1,2.68-9.92,6.37,6.37,0,0,1,.86-1.3,6,6,0,0,1,2.07-1.29h.69a1.48,1.48,0,0,1,1,.52,2.51,2.51,0,0,0,.69.52,1,1,0,0,1,.17.69.36.36,0,0,0,.08.25.36.36,0,0,1,.09.26v-.17a1,1,0,0,1,.17.69v1.38c-.11.81-.2,1.53-.26,2.16a3.12,3.12,0,0,1-.43,1.47v-.18l-1,4.49c0,.23,0,.38-.09.43s-.08.2-.08.43c-.58,2.07-1.21,3.31-1.9,3.71s-1.15.55-1.38.44a26.94,26.94,0,0,0-.44,3.71c-.06,1.2-.14,2.44-.25,3.71q-1.39,11.89-2.08,25.8t-1,27.87c0,2,0,3.91-.09,5.87s-.08,3.91-.08,5.86q0,10.88.34,20.54t.69,17.43q.52,5.52.78,8.72a55.51,55.51,0,0,0,.78,5.95q1.89-4.48,4.4-9.15t5.78-9.66a81.82,81.82,0,0,1,5.35-6.82,25.38,25.38,0,0,1,7.59-5.78,10.57,10.57,0,0,1,5-1,5.8,5.8,0,0,1,3.19.94,6.21,6.21,0,0,1,2.16,2.33h-.18a11,11,0,0,1,1.38,3.71c.12,1,.29,2,.52,3l.35,2.07.34,1.55.52,1.9.69,1.55c0,.23.06.35.17.35v.17a8.13,8.13,0,0,0,5.52,3.45,13.71,13.71,0,0,0,5.87-.6,46.35,46.35,0,0,0,5.18-2q2.76-1.2,4.49-2.16c1.15-.63,2.13-1.12,2.93-1.46ZM592.24,22c.12-.46-.11-.75-.69-.86s-.92.05-1,.51l-1,5c-.11.46.12.75.69.86s.92-.06,1-.52Z"/><path class="cls-2" d="M773.28,138c.69-.57,1.26-.75,1.72-.52a1.19,1.19,0,0,1,.52.52v.69a1.88,1.88,0,0,1-.86,1.38c-.46.35-1,.75-1.73,1.21s-1.35.81-2.33,1.38-2.15,1.21-3.54,1.9-3,1.53-4.48,2.16-3.05,1.23-4.66,1.81a17.9,17.9,0,0,1-6.21.34,2.4,2.4,0,0,1-1.73-.51,4.28,4.28,0,0,1-1.9-1h.17a5.51,5.51,0,0,1-1.55-1.47,8.26,8.26,0,0,1-.86-1.64,32.46,32.46,0,0,1-2.07-6c-.24-1.14-.47-2.21-.69-3.19a6.21,6.21,0,0,0-1.21-2.5,4.16,4.16,0,0,0-3.11-2.24,4.27,4.27,0,0,0-2,.6c-.75.4-1.41.78-2,1.12a47.5,47.5,0,0,0-3.79,4.32q-1.9,2.41-3.28,4.48-2.43,4-4.15,7.25a8.14,8.14,0,0,1-.43.78,1.59,1.59,0,0,0-.26.6l-5.17,10.36-.52,1.2L715,165.43h.17a4.71,4.71,0,0,1-3,2.94h-1.08c-.72,0-1.15-.18-1.27-.52h.37a1.58,1.58,0,0,1-.91-1,3.22,3.22,0,0,1-.54-2.24.73.73,0,0,0-.08-.43.36.36,0,0,1-.09-.26v.17a5.85,5.85,0,0,1-.17-1.72,2.72,2.72,0,0,0-.09-.69,2.74,2.74,0,0,1-.08-.7v-1.2l-.18-.87v-1.55l-.17-6.56V138.34q-.18-6-.43-11.39a40.21,40.21,0,0,0-1.3-9v.17c-.34-1.14-.63-1.72-.86-1.72a4.68,4.68,0,0,0-1.21,1,7.27,7.27,0,0,1-1,1,1,1,0,0,0-.35.44,1.61,1.61,0,0,1-.52,1.2v-.34l-1.55,2.93-2.24,4.49c-.58.92-1.12,1.87-1.64,2.85s-1.07,2-1.64,3l-1.55,2.59-2.77,4.31a15.35,15.35,0,0,1-1.46,1.64c-.64.63-1.18,1.18-1.64,1.64a14,14,0,0,1-2.07,2,6.76,6.76,0,0,1-2.76,1.3,5.06,5.06,0,0,1-1.82,0,4.13,4.13,0,0,1-1.81-.86,5.25,5.25,0,0,1-2.07-2.59,16.62,16.62,0,0,1-1.9-5.35,17.7,17.7,0,0,1-.52-2.68c-.11-1-.23-1.92-.34-2.85l-.17-.34-.52,1-.69,1.56-2.59,5.17h.17l-.86,1.56q-.87,1.91-2.07,4.14t-2.76,4.66v-.17c0,.11,0,.17-.09.17s-.09.06-.09.17v.17a43.1,43.1,0,0,1-3.1,5.27,20.09,20.09,0,0,1-4.14,4.4,31,31,0,0,1-2.59,2,8.83,8.83,0,0,1-3.8,1.3,7.85,7.85,0,0,1-7.25-3.28,10,10,0,0,1-1.9-3.71,15.56,15.56,0,0,1-.51-3.88,23.53,23.53,0,0,1,.17-2.77,13.15,13.15,0,0,1,.52-2.41,30.84,30.84,0,0,1,1.89-5.61,30.42,30.42,0,0,1,2.94-5.09,22,22,0,0,1,18.47-8.8,3,3,0,0,1,2.24,1.12,2.57,2.57,0,0,1,.52,2,3.12,3.12,0,0,1-1,1.82,2.7,2.7,0,0,1-2.24.6,13.74,13.74,0,0,0-7.08,1.29,16.32,16.32,0,0,0-6.38,5.44,18.92,18.92,0,0,0-4.32,8.46,11,11,0,0,0-.52,4.48,8.49,8.49,0,0,0,1.21,4.15l1.3.86a1.79,1.79,0,0,0,1.46.34,4.91,4.91,0,0,0,2-.51,6.88,6.88,0,0,0,2-1.39,49.93,49.93,0,0,0,3.37-4.14q1.64-2.23,3.19-4.66c.8-1.26,1.52-2.44,2.16-3.53s1.23-2.27,1.81-3.54l1.55-2.94-.17.18,2.93-5.35-.17.17c.12-.23.32-.58.61-1s.6-1,.94-1.55l1.21-1.73a7.63,7.63,0,0,0,.69-.77,9.09,9.09,0,0,1,.69-.78,2.45,2.45,0,0,1,2.59-.52,5.87,5.87,0,0,1,1.73,1.9l.34,1.21.35,2.07v.52c.11.92.2,1.78.26,2.59a14.55,14.55,0,0,0,.43,2.59,12.29,12.29,0,0,0,1.21,4.31c.57,1.15,1.21,1.67,1.9,1.55a6.1,6.1,0,0,0,3-1.89c1-1,1.92-2.08,2.84-3.11a67.74,67.74,0,0,0,4.49-6.56v.17l5-8.63a6.37,6.37,0,0,1,.35-.6c.11-.17.17-.14.17.09.58-1.15,1.12-2.22,1.64-3.2a9.81,9.81,0,0,1,1.12-1.81.48.48,0,0,1,.18-.34.52.52,0,0,0,.17-.35,1,1,0,0,1,.17-.69l1.21-1.21c.34-.23.78-.48,1.29-.77a3,3,0,0,1,1.47-.43H706a9.44,9.44,0,0,1,1.73,1l.17.17a6,6,0,0,1,1.26,2.25,39.13,39.13,0,0,1,2,9.49q.54,5.52.9,11.73c.12,2,.2,4,.26,6.13s.2,4.23.43,6.3l.35,6.56a3,3,0,0,1,.34-.87q.87-1.89,2.16-4.4t2.67-4.91a48.53,48.53,0,0,1,2.42-4.84c.92-1.61,1.78-3,2.59-4.31q1.72-2.41,3.62-4.92a28.13,28.13,0,0,1,4.66-4.75,37,37,0,0,1,3.37-2,7.42,7.42,0,0,1,4-.78,5.57,5.57,0,0,1,2.33.52,21.3,21.3,0,0,1,2,1,4.93,4.93,0,0,1,1.64,2c.52,1,1,1.93,1.46,2.85s.67,1.84.95,2.76.55,1.9.78,2.93c.23.81.4,1.53.52,2.16a13.77,13.77,0,0,0,1,2.85,3.69,3.69,0,0,0,3.28,2.5,15,15,0,0,0,4.32-.09,26.25,26.25,0,0,0,7.76-2.76l1-.34,3.11-1.55c.91-.46,1.66-.87,2.24-1.21A10.47,10.47,0,0,1,773.28,138ZM688,137.82c0-.11.12-.29.35-.52l-.35.35Z"/><path class="cls-2" d="M819.36,167.5a15.73,15.73,0,0,1,4.14.35c.34.11.52.28.52.52a2.07,2.07,0,0,1-.87.69,5.31,5.31,0,0,1-1.38.6,8,8,0,0,1-2.24.26,5.13,5.13,0,0,0-.86.09,10,10,0,0,1-1.38.08,5.94,5.94,0,0,0-1.39.17l-1.64.35c-.51.11-1.23.23-2.15.34a1.86,1.86,0,0,1-.86.18v.34a1.2,1.2,0,0,0,.08.52,1.15,1.15,0,0,1,.09.52c.23,2,.37,3.73.43,5.35s.09,2.87.09,3.79v3.46c.11,1.26.17,2.73.17,4.4v4.57q0,5-.26,10.35c-.17,3.57-.38,7.25-.6,11q-.71,9.5-2.08,19.42a130.66,130.66,0,0,1-4.48,20.1q-1.91,4.83-4.23,9.84a36.73,36.73,0,0,1-6.3,9.32,24.72,24.72,0,0,1-4.92,3.53,15.22,15.22,0,0,1-5.61,1.82,20.87,20.87,0,0,1-6.21-.26,14.19,14.19,0,0,1-5.7-2.33,24,24,0,0,1-6.9-9.06,51.77,51.77,0,0,1-3.45-10.44,37.33,37.33,0,0,1-1-7.17q-.17-3.7-.17-7.33v-3.19a27.24,27.24,0,0,1,.17-3.2A94.42,94.42,0,0,1,763.79,217a83.15,83.15,0,0,1,7.07-17.35,70.57,70.57,0,0,1,9.75-13.89,53.61,53.61,0,0,1,11-9.41,86.18,86.18,0,0,1,7.59-4.14,45.76,45.76,0,0,1,6.56-2.59c0-.23,0-.66-.08-1.29s-.09-1.07-.09-1.29c-.12-1.39-.23-2.83-.34-4.32s-.29-3-.52-4.66c-.12-.92-.23-1.84-.35-2.76s-.29-1.9-.52-2.93l-.69-3.8-.51-2.59-.52-2.76.17.17-.69-1.72-.34-1-.87,1.55-.69,1q-1.38,2.25-3,4.57c-1.09,1.56-2.27,3.08-3.54,4.58a39.33,39.33,0,0,1-4.22,4.57,26.31,26.31,0,0,1-5.61,3.88,12.4,12.4,0,0,1-7.25,1.56,11.46,11.46,0,0,1-4-1.47,6.65,6.65,0,0,1-2.76-3h.17a10.23,10.23,0,0,1-1-2.94,18.08,18.08,0,0,1-.26-2.93,17.15,17.15,0,0,1,.43-3.88c.29-1.21.55-2.33.78-3.37a31.12,31.12,0,0,1,6.21-9.49,21.75,21.75,0,0,1,7.42-5.09,34.67,34.67,0,0,1,5.7-1.81c2-.35,3.28-.18,4,.51a1.55,1.55,0,0,1,.52,1,2.85,2.85,0,0,1-.69,1,6.08,6.08,0,0,1-1,.77,4.93,4.93,0,0,1-1.9.61,27.32,27.32,0,0,0-4.83,1.64,21.5,21.5,0,0,0-6.38,4.4,23.16,23.16,0,0,0-2.59,3.53,23.58,23.58,0,0,0-2.07,4.41,21.1,21.1,0,0,0-1.13,5,8.38,8.38,0,0,0,.78,4.66,3.48,3.48,0,0,0,3.19,2.07,6.8,6.8,0,0,0,4.4-1.21,24.72,24.72,0,0,0,4.49-3.28,31.79,31.79,0,0,0,3.8-4.14q1.89-2.24,3.45-4.49c1-1.49,2-3,2.93-4.48l.69-.87.52-1.38v.35l.69-1.21,1.21-2.07c.46-.57.86-1.06,1.21-1.47a2.32,2.32,0,0,1,1.38-.77,9.21,9.21,0,0,1,1.12.08,1.71,1.71,0,0,1,1,.43,1.34,1.34,0,0,1,.52.44,1.3,1.3,0,0,0,.51.43l.7,1.55.51,1.38a3.15,3.15,0,0,1,.17,1,1.85,1.85,0,0,0,.35,1l.35,1.21a3.15,3.15,0,0,1,.25.95,1.6,1.6,0,0,0,.26.78l1,5.17.34,2.07,1.38,7.77.35,2.93c.23,1.73.4,3.17.52,4.32s.23,2.36.34,3.62h.35l3.45-.51a9.59,9.59,0,0,0,1.21-.09,9.46,9.46,0,0,1,1.21-.09Zm-13.64,47.63q.35-5.52.52-10.87t.17-10.35v-6.22c0-1.95-.06-3.91-.17-5.86v-1.9c0-.81,0-1.67-.09-2.59s-.14-2-.26-3.28v-1.21c0-.23,0-.29.09-.17l-.09-.17a55.42,55.42,0,0,0-12.42,6,56.11,56.11,0,0,0-10.7,9.32,57.87,57.87,0,0,0-9,13.29,92.69,92.69,0,0,0-6.3,16.56,86.82,86.82,0,0,0-3,19,22,22,0,0,0-.18,2.84v2.85q0,3.45.26,7a45.25,45.25,0,0,0,1.12,7.16,70.94,70.94,0,0,0,3.2,9.15,19.15,19.15,0,0,0,5.61,7.59,13.71,13.71,0,0,0,3.88,1.56,9.62,9.62,0,0,0,4.4,0,12.81,12.81,0,0,0,7.59-4.32,27.09,27.09,0,0,0,5.53-8,89.62,89.62,0,0,0,3.62-9.41,116,116,0,0,0,4.4-19.41Q805.2,224.11,805.72,215.13Z"/><path class="cls-2" d="M933.43,138.34a2.53,2.53,0,0,1,1.72-.52,1.09,1.09,0,0,1,.52.52V138a1.48,1.48,0,0,1,.18.69,2.4,2.4,0,0,1-.87,1.56,16.7,16.7,0,0,0-1.72,1c-1.16.69-3.28,1.84-6.39,3.45l-.17.17c-1.15.58-2.5,1.19-4.06,1.82s-3,1.18-4.4,1.64q-1.38.35-2.76.6a9,9,0,0,1-3.28-.09,6.41,6.41,0,0,1-1.72-.6l-1.56-.78a3.4,3.4,0,0,1-1.29-1.29c-.29-.52-.61-1.06-1-1.64-.58-1.27-1.07-2.39-1.47-3.37a20.58,20.58,0,0,1-1-2.84c-.23-1.15-.49-2.25-.77-3.28a10.39,10.39,0,0,0-1-2.42,8.91,8.91,0,0,0-1.3-1.64,3.42,3.42,0,0,0-2-.95,3.32,3.32,0,0,0-2.07.43l-2.25,1.13a26.31,26.31,0,0,0-3.88,4,51,51,0,0,0-3.19,4.58v-.18l-.52,1c-.92,1.49-1.75,2.85-2.5,4.05a34.09,34.09,0,0,0-2,3.71q-1,1.9-2.07,4.15l-2.24,4.83-4,7.76-.17.52V166c-.23.34-.58.8-1,1.38s-.41.63.17.17a3.16,3.16,0,0,1-1.95.52,2.83,2.83,0,0,1-1.64-.69,1,1,0,0,1-.18-.69c0-.23,0-.38-.09-.43a.36.36,0,0,1-.09-.26v.17a3,3,0,0,1-.27-.77,6.91,6.91,0,0,1-.09-1.3l-.35-2.41-.17-3.11-.17-6.56c0-1.15,0-2.21-.09-3.19s-.08-2-.08-3v-6q-.18-6-.52-11.31a36.07,36.07,0,0,0-1.55-8.88l-.61-1.47a1.49,1.49,0,0,0-.6-.78.76.76,0,0,0-1,.17,4.18,4.18,0,0,0-1.21,1l-.34.35a3.73,3.73,0,0,0-.52,1,18.65,18.65,0,0,0-1.81,2.16c-.63.86-1.36,1.93-2.16,3.19l-2.76,4q-4.14,6.21-10,13.81-2.07,2.92-4.23,5.52c-1.44,1.72-2.9,3.34-4.4,4.83l-.69.52a14.8,14.8,0,0,1-2.41,2.24,15.32,15.32,0,0,1-2.94,1.73,7.66,7.66,0,0,1-2.41.34,9,9,0,0,1-2.08-.17,6.73,6.73,0,0,1-3.79-2.42,9,9,0,0,1-2.07-3.45q-.53-1.72-.87-3.45a19.83,19.83,0,0,1-.43-3.28c0-1.15-.08-2.24-.08-3.28,0-1.95.06-3.88.17-5.78a46.65,46.65,0,0,1,.52-4.92,1.32,1.32,0,0,1,.86-1,3.28,3.28,0,0,1,1.47-.17,4.39,4.39,0,0,1,1.46.43,1.12,1.12,0,0,1,.69,1c-.23,1.61-.4,3.34-.51,5.18s-.18,3.56-.18,5.17c0,1.85.09,3.74.26,5.7a8.79,8.79,0,0,0,2,5,2.52,2.52,0,0,0,1.72,1.21h.87a4.58,4.58,0,0,0,.77-.08,10.13,10.13,0,0,0,1.81-.78l3.28-2.76a56.43,56.43,0,0,0,4.4-4.58c1.56-1.78,3-3.47,4.23-5.09L852,128.67a22.4,22.4,0,0,1,1.9-2.59,20.8,20.8,0,0,0,1.9-2.59l1.55-1.89,3.45-4.32v.35a5.29,5.29,0,0,1,1.56-1.9,4.7,4.7,0,0,1,1.12-1.12,1.31,1.31,0,0,1,1.46-.26,14.43,14.43,0,0,1,2.86,2.24,6.83,6.83,0,0,1,1.32,1.9,34,34,0,0,1,1.91,9.32q.45,5.52.82,11.73c0,.93,0,1.88.08,2.85s.15,2,.26,3l.35,6.56.34,6.39v.86l1.56-3.28c.8-1.73,1.61-3.34,2.41-4.83s1.56-2.94,2.25-4.32l.17-.34q1-1.9,2.33-4.23t2.67-4.4a52.36,52.36,0,0,1,3.63-4.92,37.24,37.24,0,0,1,4.48-4.57,14,14,0,0,1,3.46-1.82,7.47,7.47,0,0,1,4-.43,7.12,7.12,0,0,1,3.71,1.9,12.07,12.07,0,0,1,2.5,3.28,34.52,34.52,0,0,1,1.21,3.63l.69,2.76c.23,1.15.49,2.18.77,3.1s.55,1.67.78,2.25a4.09,4.09,0,0,0,3.54,2.67,10.86,10.86,0,0,0,4.57-.43,18.41,18.41,0,0,0,4-1.12c1.27-.52,2.53-1.06,3.8-1.64l1-.35-.34.18q1.38-.69,2.76-1.47c.92-.52,1.73-1,2.42-1.3S932.74,138.68,933.43,138.34ZM822.12,125.05a2,2,0,0,1-1.56-1.9,7.24,7.24,0,0,1,.17-2.76,3.24,3.24,0,0,1,1.47-1.73,2.8,2.8,0,0,1,2.33-.34,1.53,1.53,0,0,1,1,1.64,7.36,7.36,0,0,1-.35,2.33,1.65,1.65,0,0,1-.08.43,1.37,1.37,0,0,0-.09.43,3.65,3.65,0,0,1-1,1.64,2.22,2.22,0,0,1-2.07.26ZM873,161.46v-.17c.11.46.14.72.08.78S873,161.92,873,161.46Zm5.86-14.67-.17.35Z"/><path class="cls-2" d="M979.68,167.5a15.73,15.73,0,0,1,4.14.35c.35.11.52.28.52.52a2.07,2.07,0,0,1-.87.69,5.31,5.31,0,0,1-1.38.6,8,8,0,0,1-2.24.26,5.13,5.13,0,0,0-.86.09,10,10,0,0,1-1.38.08,5.86,5.86,0,0,0-1.38.17c-.58.12-1.13.23-1.64.35s-1.24.23-2.16.34a1.86,1.86,0,0,1-.86.18v.34a1.2,1.2,0,0,0,.08.52,1.15,1.15,0,0,1,.09.52c.23,2,.37,3.73.43,5.35s.09,2.87.09,3.79v3.46c.11,1.26.17,2.73.17,4.4v4.57q0,5-.26,10.35t-.6,11q-.69,9.5-2.07,19.42A131.9,131.9,0,0,1,965,255q-1.9,4.83-4.23,9.84a36.47,36.47,0,0,1-6.3,9.32,24.43,24.43,0,0,1-4.92,3.53,15.22,15.22,0,0,1-5.61,1.82,20.88,20.88,0,0,1-6.21-.26,14.09,14.09,0,0,1-5.69-2.33,24.05,24.05,0,0,1-6.91-9.06,51.77,51.77,0,0,1-3.45-10.44,36.56,36.56,0,0,1-1-7.17q-.18-3.7-.18-7.33v-3.19a25.07,25.07,0,0,1,.18-3.2A93.75,93.75,0,0,1,924.11,217a83.15,83.15,0,0,1,7.07-17.35,70.57,70.57,0,0,1,9.75-13.89,53.61,53.61,0,0,1,11-9.41,84.88,84.88,0,0,1,7.6-4.14,45.68,45.68,0,0,1,6.55-2.59c0-.23,0-.66-.08-1.29s-.09-1.07-.09-1.29c-.11-1.39-.23-2.83-.34-4.32s-.29-3-.52-4.66c-.12-.92-.23-1.84-.35-2.76a29.66,29.66,0,0,0-.51-2.93l-.69-3.8-.52-2.59-.52-2.76.17.17-.69-1.72-.34-1-.87,1.55-.69,1c-.92,1.5-1.92,3-3,4.57s-2.27,3.08-3.53,4.58a40.33,40.33,0,0,1-4.23,4.57,26.31,26.31,0,0,1-5.61,3.88,12.38,12.38,0,0,1-7.25,1.56,11.46,11.46,0,0,1-4-1.47,6.7,6.7,0,0,1-2.76-3h.17a10.55,10.55,0,0,1-.95-2.94,18.08,18.08,0,0,1-.26-2.93,16.59,16.59,0,0,1,.44-3.88c.28-1.21.54-2.33.77-3.37a31.12,31.12,0,0,1,6.21-9.49,21.69,21.69,0,0,1,7.43-5.09,34.63,34.63,0,0,1,5.69-1.81c2-.35,3.28-.18,4,.51a1.5,1.5,0,0,1,.52,1,2.85,2.85,0,0,1-.69,1,5.7,5.7,0,0,1-1,.77,4.93,4.93,0,0,1-1.9.61,27.32,27.32,0,0,0-4.83,1.64,21.5,21.5,0,0,0-6.38,4.4,23.16,23.16,0,0,0-2.59,3.53,23.58,23.58,0,0,0-2.07,4.41,20.61,20.61,0,0,0-1.12,5,8.29,8.29,0,0,0,.77,4.66A3.49,3.49,0,0,0,937,158a6.85,6.85,0,0,0,4.41-1.21,25,25,0,0,0,4.48-3.28,31.79,31.79,0,0,0,3.8-4.14q1.89-2.24,3.45-4.49c1-1.49,2-3,2.93-4.48l.69-.87.52-1.38v.35l.69-1.21,1.21-2.07c.46-.57.86-1.06,1.21-1.47a2.32,2.32,0,0,1,1.38-.77,9.21,9.21,0,0,1,1.12.08,1.71,1.71,0,0,1,.95.43,1.34,1.34,0,0,1,.52.44,1.27,1.27,0,0,0,.52.43l.69,1.55.51,1.38a3.16,3.16,0,0,1,.18,1,1.83,1.83,0,0,0,.34,1l.35,1.21a3.45,3.45,0,0,1,.26.95,1.41,1.41,0,0,0,.26.78l1,5.17.34,2.07,1.39,7.77.34,2.93c.23,1.73.4,3.17.52,4.32s.23,2.36.34,3.62h.35l3.45-.51a9.46,9.46,0,0,0,1.21-.09,9.46,9.46,0,0,1,1.21-.09ZM966,215.13c.23-3.68.41-7.3.52-10.87s.17-7,.17-10.35v-6.22c0-1.95-.05-3.91-.17-5.86v-1.9c0-.81,0-1.67-.08-2.59s-.15-2-.26-3.28v-1.21c0-.23,0-.29.08-.17s0,.06-.08-.17a55.27,55.27,0,0,0-12.43,6,56.11,56.11,0,0,0-10.7,9.32,58.19,58.19,0,0,0-9,13.29,92.69,92.69,0,0,0-6.3,16.56,86.82,86.82,0,0,0-3,19,22,22,0,0,0-.17,2.84v2.85q0,3.45.25,7a45.29,45.29,0,0,0,1.13,7.16,69.37,69.37,0,0,0,3.19,9.15,19.15,19.15,0,0,0,5.61,7.59,13.83,13.83,0,0,0,3.88,1.56,9.62,9.62,0,0,0,4.4,0,12.78,12.78,0,0,0,7.59-4.32,27.09,27.09,0,0,0,5.53-8,87.47,87.47,0,0,0,3.62-9.41,116,116,0,0,0,4.4-19.41Q965.54,224.11,966,215.13Z"/><path class="cls-2" d="M376.87,199.6a7.25,7.25,0,0,1,.86,1.47q.34.78.69,1.47a6,6,0,0,1,.35,3.45,7.4,7.4,0,0,1-1.21,2.93v-.17a13.35,13.35,0,0,1-2.76,4.06c-1,1-2,1.87-2.93,2.67l-.87.17h.52a7.67,7.67,0,0,1-4.66,1.82,3.29,3.29,0,0,1-2.76-1.13c-.46-.57-.43-1.4.09-2.5a10.8,10.8,0,0,1,3.19-3.54,16.66,16.66,0,0,0,4.49-4.48c.57-1,.22-2-1-2.94a28.48,28.48,0,0,0-7.42-2.76,10.34,10.34,0,0,0-1.73-.52c-.57-.11-1.21-.23-1.9-.34a.66.66,0,0,1-.43-.09.34.34,0,0,0-.26-.08c-.92-.23-2.18-.46-3.79-.7-1.84-.22-3.69-.4-5.53-.51s-3.73-.18-5.69-.18a110.85,110.85,0,0,0-26.92,3.46,157.43,157.43,0,0,0-19.59,6.21,124.69,124.69,0,0,0-18.72,9.15,98.91,98.91,0,0,0-16.31,12.25,48.73,48.73,0,0,0-11.65,15.88,21.38,21.38,0,0,0-1.3,4.4,16.69,16.69,0,0,0-.26,4.4,34.74,34.74,0,0,0,.61,4.14,14.19,14.19,0,0,0,1.46,4,19,19,0,0,0,6,5.78,37.68,37.68,0,0,0,7.68,3.71,56.51,56.51,0,0,0,9.84,2.24,66.8,66.8,0,0,0,9.31.69c2,0,3.83-.05,5.61-.17s3.54-.28,5.27-.52a9.36,9.36,0,0,0,2.07-.34l2.41-.35c-.23,0-.28-.05-.17-.17a1,1,0,0,1,.69-.17l.52-.35h-.35l9.67-4,4-1.72c1.95-.58,3.68-1.12,5.18-1.64l3.79-1.3,3.11-1a10.63,10.63,0,0,1,5.26-.6c1.32.28,2.13.8,2.42,1.55s0,1.64-.86,2.67a9.67,9.67,0,0,1-4.58,2.59,24.51,24.51,0,0,0-3.1,1q-1.56.51-3.63,1.38a47.58,47.58,0,0,1-5,1.72L303,278.13c-1.62.57-3.31,1.26-5.09,2.07s-3.54,1.67-5.27,2.59c-1.15.57-2.27,1.12-3.36,1.64s-2.22,1.06-3.37,1.64v-.18q-9,5-19,11.57a142.53,142.53,0,0,0-19.85,15.87,75.94,75.94,0,0,0-9.15,9.84q-4.31,5.52-7.93,11.05a81.21,81.21,0,0,0-6,12.42,64.35,64.35,0,0,0-3.54,13.46c-.23,1.27-.4,2.56-.51,3.89s-.18,2.61-.18,3.88a45.11,45.11,0,0,0,4.32,19.5H224a25.21,25.21,0,0,0,8.63,9.92,39.36,39.36,0,0,0,12.26,5.61,62.07,62.07,0,0,0,8.88,1.73,75.8,75.8,0,0,0,8.72.52,87.07,87.07,0,0,0,9.49-.52,120,120,0,0,0,13.12-2.07q6.38-1.4,12.42-3.11a191.22,191.22,0,0,0,22-7.77q10.1-4.31,17.95-8.62t13.54-8.2q5.7-3.89,8.8-6.47l3.89-2.85a10.53,10.53,0,0,1,2.16-1.3v.18a2.78,2.78,0,0,1,1.72-.35l.69.35v.86a3.05,3.05,0,0,1-.34,1.38A16.06,16.06,0,0,1,366,369c-.92,1-2,2-3.28,3.19q-3.45,2.76-9.49,6.82t-14.15,8.54q-8.11,4.48-18.3,9a180.73,180.73,0,0,1-21.92,7.93q-6,1.73-12.77,3.11a134.08,134.08,0,0,1-13.63,2.07,54.76,54.76,0,0,1-5.52.43c-2,.06-3.8.09-5.53.09-3,0-6-.15-8.88-.43a55.4,55.4,0,0,1-8.89-1.64,43.31,43.31,0,0,1-7.34-2.5,37.66,37.66,0,0,1-6.81-3.89,33,33,0,0,1-10.56-11.9,53.35,53.35,0,0,1-5-22.44,60,60,0,0,1,.53-8.11,68.11,68.11,0,0,1,4.06-14.76A122.58,122.58,0,0,1,225,330.94q4-5.87,8.54-11.65A103.74,103.74,0,0,1,243,308.85a152.49,152.49,0,0,1,20.28-16.23q10.61-7.06,19.76-12.25l5.35-2.42a.46.46,0,0,0,.34-.17h.17c-.11,0,.06-.11.52-.34-1.15.11-2.3.17-3.45.17H282.3a83,83,0,0,1-9.32-.52,47.72,47.72,0,0,1-9.49-2.07,42.22,42.22,0,0,1-8.46-4,22.42,22.42,0,0,1-7.25-7.07,52.32,52.32,0,0,1-1.9-5,23.19,23.19,0,0,1-1.21-5.35,21.6,21.6,0,0,1,.35-5.52,49.67,49.67,0,0,1,1.38-5.35,43.48,43.48,0,0,1,5.35-9.41,65.53,65.53,0,0,1,7.25-8.2,72.94,72.94,0,0,1,8.11-7q4.31-3.19,8.8-6.13a145.64,145.64,0,0,1,19.33-9.92,154.41,154.41,0,0,1,20.36-7,133.47,133.47,0,0,1,14.93-2.94,108.09,108.09,0,0,1,14.76-1c1.84,0,3.65.06,5.43.17s3.54.29,5.27.52c.92.11,1.75.23,2.5.34a20.15,20.15,0,0,1,2.33.52,2.94,2.94,0,0,1,.86.17,2.75,2.75,0,0,0,.87.18c.57.11,1.09.2,1.55.25s.63.09.52.09a8.25,8.25,0,0,0,1.72.69l1.38.35c.35.11.75.25,1.21.43a12.17,12.17,0,0,0,1.38.43.52.52,0,0,0,.35.17c.11,0,.17,0,.17.09s.06.08.17.08l1.38.69,2.76,1.56,1.56,1.55Z"/><path class="cls-2" d="M392.75,310.92c0,.11-.12.29-.35.51a3.57,3.57,0,0,1-.78.61,4.09,4.09,0,0,1-1.29.43h-1a4.31,4.31,0,0,0-1.13.17c-.4.12-.89.23-1.46.35a36.69,36.69,0,0,0-4.15.77q-2.58.62-5.52,1.47c-1.72.69-3.57,1.44-5.52,2.25a25.86,25.86,0,0,0-5.52,3.1,28.7,28.7,0,0,1,3.62,4.14,11.54,11.54,0,0,1,1.73,6.22,14.85,14.85,0,0,1-1.38,6,8.67,8.67,0,0,1-4.32,4.48,7.32,7.32,0,0,1-6.56.69,12.71,12.71,0,0,1-2.67-1.81,4.91,4.91,0,0,1-1.64-2.5,16,16,0,0,1,.34-9.32,18.41,18.41,0,0,1,4.15-6.9l-.52-.35q-1.22-.86-2.25-1.47a15.41,15.41,0,0,1-2.07-1.46,19.87,19.87,0,0,1-4.4-3.89,11,11,0,0,1-2.5-5.43,11.55,11.55,0,0,1,.17-6A26.9,26.9,0,0,1,350,298a18.82,18.82,0,0,1,7.42-6.73,7.8,7.8,0,0,1,6-.34h-.35a1,1,0,0,0,.69.34.7.7,0,0,1,.52.18v.17a1,1,0,0,1,.69.17l.69.69.52,1a8.12,8.12,0,0,1,.52,3.1,3.44,3.44,0,0,1-1.3,2.68,2.61,2.61,0,0,1-2,.6q-2.42-.69-2.25-3.62v-.18a4.36,4.36,0,0,0-1.89.52,5.3,5.3,0,0,0-2.59,1.64,14.12,14.12,0,0,0-2.07,2.85,12.33,12.33,0,0,0-1.56,3.28,7.73,7.73,0,0,0-.17,3.62c.35,2.42,1.84,4.49,4.49,6.22l4.31,3.1h-.17l.78.52.77.52a33.8,33.8,0,0,1,6.65-3.71,64.72,64.72,0,0,1,6.12-2.16c2-.57,3.83-1,5.61-1.38s3.37-.63,4.75-.86a7.3,7.3,0,0,1,1.47-.18,3.41,3.41,0,0,0,1.12-.17,3.9,3.9,0,0,0,1.2-.17,3.38,3.38,0,0,1,2.42.69C392.63,310.63,392.75,310.8,392.75,310.92Zm-26.06,20.19a8.76,8.76,0,0,0-1.21-3.8,13.15,13.15,0,0,0-2.59-3.1c-.46,0-.75-.06-.86-.18a13.87,13.87,0,0,0-2.76,4.32,18.65,18.65,0,0,0-1.3,4,5.1,5.1,0,0,0,.43,3.62,3.16,3.16,0,0,0,2.25,2.24h-.18a4.17,4.17,0,0,0,3.28-.34,5.69,5.69,0,0,0,2.16-2.76A10.37,10.37,0,0,0,366.69,331.11ZM362,324l.17-.17-.17-.17Zm.17-.17h.35c-.12,0-.18-.06-.18-.17Z"/><path class="cls-2" d="M434.51,310.92c0,.11-.12.29-.35.51a3.76,3.76,0,0,1-.77.61,4.17,4.17,0,0,1-1.3.43h-1a4.24,4.24,0,0,0-1.12.17c-.41.12-.9.23-1.47.35a36.19,36.19,0,0,0-4.14.77q-2.59.62-5.53,1.47-2.58,1-5.52,2.25a25.86,25.86,0,0,0-5.52,3.1,27.53,27.53,0,0,1,3.62,4.14,11.54,11.54,0,0,1,1.73,6.22,14.85,14.85,0,0,1-1.38,6,8.64,8.64,0,0,1-4.32,4.48,7.3,7.3,0,0,1-6.55.69,12.52,12.52,0,0,1-2.68-1.81,4.91,4.91,0,0,1-1.64-2.5,16,16,0,0,1,.35-9.32,18.27,18.27,0,0,1,4.14-6.9l-.52-.35c-.81-.57-1.55-1.06-2.24-1.47a15.41,15.41,0,0,1-2.07-1.46,19.65,19.65,0,0,1-4.4-3.89,11,11,0,0,1-2.51-5.43,11.55,11.55,0,0,1,.18-6,26.86,26.86,0,0,1,2.24-5.09,18.89,18.89,0,0,1,7.42-6.73,7.8,7.8,0,0,1,6-.34h-.34a1,1,0,0,0,.69.34.67.67,0,0,1,.51.18v.17a1,1,0,0,1,.69.17l.69.69.52,1a8.12,8.12,0,0,1,.52,3.1,3.47,3.47,0,0,1-1.29,2.68,2.63,2.63,0,0,1-2,.6q-2.42-.69-2.24-3.62v-.18a4.36,4.36,0,0,0-1.9.52,5.35,5.35,0,0,0-2.59,1.64,14.12,14.12,0,0,0-2.07,2.85,12,12,0,0,0-1.55,3.28,7.6,7.6,0,0,0-.18,3.62c.35,2.42,1.84,4.49,4.49,6.22l4.31,3.1h-.17l.78.52.78.52a33.75,33.75,0,0,1,6.64-3.71,64.87,64.87,0,0,1,6.13-2.16c1.95-.57,3.82-1,5.61-1.38s3.36-.63,4.74-.86a7.38,7.38,0,0,1,1.47-.18,3.41,3.41,0,0,0,1.12-.17,4,4,0,0,0,1.21-.17,3.35,3.35,0,0,1,2.41.69C434.39,310.63,434.51,310.8,434.51,310.92Zm-26.06,20.19a8.76,8.76,0,0,0-1.21-3.8,13.15,13.15,0,0,0-2.59-3.1c-.46,0-.75-.06-.86-.18a13.87,13.87,0,0,0-2.76,4.32,18.65,18.65,0,0,0-1.3,4,5.1,5.1,0,0,0,.44,3.62,3.13,3.13,0,0,0,2.24,2.24h-.17a4.18,4.18,0,0,0,3.28-.34,5.68,5.68,0,0,0,2.15-2.76A10.37,10.37,0,0,0,408.45,331.11ZM403.79,324l.17-.17-.17-.17Zm.17-.17h.35a.15.15,0,0,1-.17-.17Z"/><path class="cls-2" d="M549.1,310.74c.69-.57,1.26-.74,1.73-.51a1.14,1.14,0,0,1,.51.51v-.34a1.48,1.48,0,0,1,.18.69c0,.46-.35,1-1,1.55a17.05,17.05,0,0,0-1.73,1c-.57.34-1.38.8-2.41,1.38s-2.3,1.27-3.8,2.07l-.17.17c-1.27.58-2.65,1.18-4.14,1.81s-2.94,1.19-4.32,1.64c-.92.24-1.87.44-2.85.61a7.72,7.72,0,0,1-3-.09,9.14,9.14,0,0,1-3.45-1.38,9.28,9.28,0,0,1-2.41-2.93c-.58-1.27-1-2.39-1.38-3.37a28.72,28.72,0,0,1-.87-2.85c-.23-1.14-.49-2.24-.77-3.27a10.39,10.39,0,0,0-.95-2.42,8.59,8.59,0,0,0-1.3-1.64,3.55,3.55,0,0,0-2.15-1,3.27,3.27,0,0,0-2,.35,9.56,9.56,0,0,0-2,1.2,29.46,29.46,0,0,0-4,4.06,42.3,42.3,0,0,0-3.28,4.57q-1.73,2.6-2.94,4.84c-.8,1.49-1.49,2.76-2.07,3.79q-2.07,3.63-4.48,9l-3.45,7.07h.17a9.34,9.34,0,0,1-.78,1.55,6.18,6.18,0,0,1-.78,1,3.05,3.05,0,0,1-1.89.52,2.75,2.75,0,0,1-1.73-.69,1,1,0,0,1-.17-.69c0-.23,0-.38-.09-.43s-.08-.21-.08-.44l-.35-1.72-.35-2.42v-3.1l-.17-6.56v-6.22q0-3.11-.17-6-.18-6-.43-11.21a28.8,28.8,0,0,0-1.64-8.8l-.61-1.56a1.51,1.51,0,0,0-.6-.86.57.57,0,0,0-.69.17,8.62,8.62,0,0,0-1.9,1.56L476.27,294l-5.52,7.6-2.24,3.1q-3.12,4.5-7.43,10a119.2,119.2,0,0,1-9.83,11.05c-1.27,1-2.51,2.07-3.71,3.1a13.16,13.16,0,0,1-4.23,2.42,8.21,8.21,0,0,1-5.87.26,8.89,8.89,0,0,1-4.83-3.37,12.24,12.24,0,0,1-2.07-5.17,26.42,26.42,0,0,1-.18-5.18A24.73,24.73,0,0,1,433.3,308h-.17a22.71,22.71,0,0,1,2.76-4.31,13.8,13.8,0,0,1,4-3.28h-.18a7.74,7.74,0,0,1,5.53-1.38,6.92,6.92,0,0,1,2.93.86l-.17-.17a2.89,2.89,0,0,1,1.64,1.21,3.64,3.64,0,0,1,.77,2.24,4.78,4.78,0,0,1-.6,3.11,12.68,12.68,0,0,1-1.64,2.07,14,14,0,0,1-4,2.59,23.17,23.17,0,0,1-7.25,2.07h-1.38a25.69,25.69,0,0,0-1,5.17,13.4,13.4,0,0,0-.18,3.72,6.14,6.14,0,0,0,1,3,6.26,6.26,0,0,0,2.93,2.76,4.49,4.49,0,0,0,3.63.17,19.62,19.62,0,0,0,3.88-2.16A24.86,24.86,0,0,0,449,323a131.74,131.74,0,0,0,9.24-9.84q4.22-5,7.68-9.32l1.2-2a10.73,10.73,0,0,1,1.56-2q1.38-1.89,3.19-4.23t3.19-4.05l.35-.52,1.21-1.38c0-.11.11-.29.34-.52a1.14,1.14,0,0,1,.52-.52,2.55,2.55,0,0,0,.69-.51H478a13.28,13.28,0,0,1,1.29-1.13,1.32,1.32,0,0,1,1.47-.25,12.15,12.15,0,0,1,2.76,2.24,7.41,7.41,0,0,1,1.21,1.9,40.36,40.36,0,0,1,2,9.32q.6,5.52,1,11.73l.52,12.43.34,6.38v.87l1.56-3.28,1.9-3.45a21.5,21.5,0,0,0,1.38-3,13.85,13.85,0,0,1,1.38-2.85v.17c.8-1.61,1.64-3.16,2.5-4.66s1.75-2.93,2.67-4.31q1.72-2.42,3.63-4.92a23,23,0,0,1,4.66-4.57,14.37,14.37,0,0,1,3.28-1.82,7.24,7.24,0,0,1,4-.43,7.09,7.09,0,0,1,3.88,1.9,9.34,9.34,0,0,1,2.33,3.28,15.86,15.86,0,0,1,1.12,3c.29,1.09.55,2.22.78,3.36s.49,2.19.77,3.11.55,1.67.78,2.24a4,4,0,0,0,3.45,2.68,12.61,12.61,0,0,0,4.83-.43,18.7,18.7,0,0,0,4.15-1.12,34.82,34.82,0,0,0,3.45-1.64l1-.35,3.11-1.55c.92-.46,1.67-.87,2.24-1.21A19.14,19.14,0,0,1,549.1,310.74ZM441.76,304a8.13,8.13,0,0,0-4,4.32,14.19,14.19,0,0,0,4.48-1.38,10.78,10.78,0,0,0,2.76-1.9h-.17l1.21-1.21.17-.17a2.33,2.33,0,0,1-.52-.09,4.05,4.05,0,0,0-.86-.08,3,3,0,0,0-1.47,0A10.07,10.07,0,0,0,441.76,304Z"/><path class="cls-2" d="M617.44,258.45a3.34,3.34,0,0,1,1.21.43,7.55,7.55,0,0,1,.69.61,1,1,0,0,1,.34.69,1.11,1.11,0,0,1-.6.52,6.15,6.15,0,0,1-1.81.17l-3.11-.35c-.92-.11-2.1-.23-3.54-.34s-3-.29-4.74-.52-3.83-.4-6-.52l-6.64-.34h-2.42a14.26,14.26,0,0,1-2.24-.17c-1.61-.12-3.34-.23-5.18-.35a27.88,27.88,0,0,0-5.35.17H553.76c-.12,2.07-.17,4.14-.17,6.22v12.68c0,2.13,0,4.34.17,6.64q.16,12.6.77,24.17T556,328.69q.87,9.15,1.55,14.15c.23,2.07.46,3.86.69,5.35a2.44,2.44,0,0,1-.6,2.16,3.3,3.3,0,0,1-1.81.95,3,3,0,0,1-2-.35,2.32,2.32,0,0,1-1.12-1.89c-.23-1.62-.46-3.45-.69-5.53q-.35-2.58-.69-6.29t-.69-8.2q-.69-9.15-1.21-20.8T548.93,284V271.31q0-6.12.34-12.68-10.18.35-19.07.94t-15.79,1.3a2.19,2.19,0,0,1-1.64-.61,2.36,2.36,0,0,1-.69-1.46,2.4,2.4,0,0,1,.35-1.56,2,2,0,0,1,1.46-.86q7.25-.69,16.14-1.12t19.24-.6l1-19.16,1-10.18.52-4.66.52-2.25v.18a.34.34,0,0,1,.08-.26.36.36,0,0,0,.09-.26,2.9,2.9,0,0,1,.52-1.38,1,1,0,0,1,.34-.69l.61-.61a.87.87,0,0,1,1-.25c1,.57,1.72.94,2.07,1.12a4.21,4.21,0,0,1,.6.34q.09.09-.09,0c-.11,0-.11,0,0,.09a1,1,0,0,1,.35.69v.69a2.43,2.43,0,0,0,.17,1,2.15,2.15,0,0,1-.08.61,1.8,1.8,0,0,0-.09.6v.87a14.36,14.36,0,0,1-.09,1.64c-.06.51-.14,1.06-.26,1.63l-.51,2.42a9.24,9.24,0,0,0-.35,2.24c-.58,1.85-1.21,3-1.9,3.46v1.2a6.35,6.35,0,0,1-.08.87,6,6,0,0,0-.09,1c-.23,3-.4,6-.52,9.15s-.23,6.38-.34,9.84h6q4.49,0,9.14.08t9.15.26q2.76,0,6.39.17t6,.52q.51,0,1.38.09a14.77,14.77,0,0,0,1.55.08,10.23,10.23,0,0,1,1.47.09,8.71,8.71,0,0,0,1.29.09c1.73.11,3.45.26,5.18.43s3.33.37,4.83.6a80.13,80.13,0,0,0,8.29,1c1.14.11,2.18.23,3.1.34Z"/><path class="cls-2" d="M611.4,317.82a45.64,45.64,0,0,1-5.78,5.44,44.73,44.73,0,0,1-8,5.09,35.38,35.38,0,0,1-5.09,1.72,13.92,13.92,0,0,1-5.78.18,10.88,10.88,0,0,1-5.61-3.28,14.68,14.68,0,0,1-3-4.84,27.08,27.08,0,0,1-1.38-5.78,45.29,45.29,0,0,1-.35-5.43q0-1.73.09-3.45c.06-1.15.15-2.19.26-3.11v-1c0-.34.26-.6.78-.77a3.88,3.88,0,0,1,1.64-.18,4.5,4.5,0,0,1,1.55.44,1.1,1.1,0,0,1,.69,1c-.12,1-.23,2.19-.35,3.45s-.17,2.59-.17,4a43.07,43.07,0,0,0,.26,4.49,20.59,20.59,0,0,0,1.12,4.83,9.27,9.27,0,0,0,1.9,3.54,6.49,6.49,0,0,0,3.28,2.16,8.17,8.17,0,0,0,4.4.17,26.26,26.26,0,0,0,4.4-1.38,39.35,39.35,0,0,0,7.68-4.4,51.51,51.51,0,0,0,5.61-4.75q1.2-1.2,2.07-2.16a20.81,20.81,0,0,0,1.38-1.64,8.84,8.84,0,0,0,1-1.2,1.85,1.85,0,0,1,1.38-.87.66.66,0,0,1,.51.18,2.69,2.69,0,0,1,.18.86,2.85,2.85,0,0,1-.18,1.21,18.36,18.36,0,0,0-1.46,2A25.32,25.32,0,0,1,611.4,317.82Zm-32.1-20.36a2,2,0,0,1-1.56-1.9,7,7,0,0,1,.18-2.76,2.89,2.89,0,0,1,1.46-1.82,3,3,0,0,1,2.33-.25,1.74,1.74,0,0,1,.95,2.15,11.88,11.88,0,0,1-.6,2.5l.17-.17a5,5,0,0,1-1,2.07Q580.68,298,579.3,297.46Z"/><path class="cls-2" d="M717,312.3c.57-1.15,1-1.78,1.38-1.9a2.94,2.94,0,0,1,.86-.17c.11.23.26.57.43,1a2.64,2.64,0,0,1-.26,1.9,19.63,19.63,0,0,1-1.72,4q-.87,1.9-2.25,4.57c-.92,1.79-2,3.77-3.28,6s-2.76,4.6-4.48,7.25a51.4,51.4,0,0,1-5.7,7.24,10.85,10.85,0,0,1-3.28,3.28,31.69,31.69,0,0,1-3.19,1.73,8.64,8.64,0,0,1-3.71.86,6.7,6.7,0,0,1-3.37-.95,8.78,8.78,0,0,1-2.67-2.33,21,21,0,0,1-1.73-2.67c-.46-.87-.92-1.76-1.38-2.68a63.53,63.53,0,0,1-2.76-11.56c-.58-4-1-8.05-1.38-12.08s-.58-8-.69-12-.17-7.9-.17-11.82v-1.81a8.89,8.89,0,0,1,.17-1.81,68.83,68.83,0,0,1-2.16,7q-1.29,3.54-2.84,7.33-1.22,2.6-2.77,5.53a44.31,44.31,0,0,1-8.62,11.21,10.84,10.84,0,0,1-3.8,2,10.61,10.61,0,0,1-4.49.26,9.68,9.68,0,0,1-3.88-2.25,26.77,26.77,0,0,1-2.85-3.1,22,22,0,0,1-1.9-3.63,34.13,34.13,0,0,1-1.21-3.62l-1-3.63-.52-1.38c-.23.46-.46.9-.69,1.3s-.4.72-.52.95l-3.62,6.9h.17a20.18,20.18,0,0,0-1,2.5,25.08,25.08,0,0,1-2.15,4.23v-.17l-.52,1-3.71,6.39a25.93,25.93,0,0,1-4.06,5.35,9.11,9.11,0,0,1-1.47,1c-.74.46-1.52.92-2.33,1.38a7.65,7.65,0,0,1-5.17.86,11.76,11.76,0,0,1-4.49-2.24,8.3,8.3,0,0,1-2.42-4,16.9,16.9,0,0,1-.51-2.51,19.31,19.31,0,0,1-.18-2.67,18.42,18.42,0,0,1,.78-5.35q.78-2.59,1.64-4.66a38.28,38.28,0,0,1,3.8-5.78,19.55,19.55,0,0,1,5-4.58q6-4.14,12.08-3.79a4.51,4.51,0,0,1,3.45,1.12,2.81,2.81,0,0,1,.87,2.33V304a14,14,0,0,1,1.12-1.9c.4-.57.77-1.14,1.12-1.72a4.73,4.73,0,0,1,2.42-1.73,2.46,2.46,0,0,1,1.81,0,2.87,2.87,0,0,1,1.47,1.21,11.07,11.07,0,0,1,1.72,3.8,2,2,0,0,0,.17.86l.87,3.45c.34.93.71,2,1.12,3.11a8.91,8.91,0,0,0,1.46,2.76,11.25,11.25,0,0,0,1.9,2.33,5.92,5.92,0,0,0,2.07,1.3,4.69,4.69,0,0,0,2.68-.09,7.12,7.12,0,0,0,2.33-1.3,14.38,14.38,0,0,0,2.24-2,24.48,24.48,0,0,0,1.9-2.33,42.92,42.92,0,0,0,3.45-5.09c1-1.78,2-3.65,2.94-5.61a107.76,107.76,0,0,0,4.05-10.7q1.64-5.17,2.68-9.49t1.55-7.42a3.06,3.06,0,0,1,.17-.87,3.1,3.1,0,0,0,.18-1q.33-5.7.69-11t.69-9.92q.67-8.3,1.81-18.9t3.19-22.18a1.18,1.18,0,0,1,.09-.52,1.29,1.29,0,0,0,.08-.51c.35-1.73.66-3.45,1-5.18a39.52,39.52,0,0,1,1.3-5.35c.23-.92.48-1.93.77-3s.61-2.1,1-3v.34a1,1,0,0,1,.18-.6.85.85,0,0,0,.17-.43,4.6,4.6,0,0,1,.6-1.38c.29-.46.78-1.21,1.47-2.24.23.23.63.17,1.21-.18l.17,1.73c.92,0,1.35-.17,1.29-.52a3.39,3.39,0,0,0-.25-.86,8.33,8.33,0,0,0,.77.34,3.08,3.08,0,0,1,.95.69,2.24,2.24,0,0,0,.09.52,3.25,3.25,0,0,1,.08.69,3.72,3.72,0,0,1,0,2.24q-.35,5.35-1.12,10.53c-.52,3.45-1.06,6.85-1.64,10.18a6.26,6.26,0,0,1-.17,1.13,5.79,5.79,0,0,0-.17,1.29q-2.43,14.33-4.58,26.15t-3.53,19.07v-.18q-.53,7.08-.87,15t-.69,16.39v6.22q0,4.49.09,8.71c.06,2.82.14,5.67.26,8.54q.35,5.36,1.21,11.39a59.53,59.53,0,0,0,2.58,11,26.79,26.79,0,0,0,2.08,4.23,3.55,3.55,0,0,0,3.1,2,6.73,6.73,0,0,0,3.8-1.29,24,24,0,0,0,3.45-2.85,50.64,50.64,0,0,0,6.13-7.25q2.32-3.45,4-6.56a53.59,53.59,0,0,0,3.71-6c.87-1.67,1.58-3,2.16-4.06h-.17c.23-.57.46-1.12.69-1.64a9.42,9.42,0,0,1,.69-1.29A3.62,3.62,0,0,1,717,312.3Zm-87.33,5.18,2-3.54c.86-1.56,1.46-2.73,1.81-3.54l2.59-5.52c-.58.57-1.79.86-3.63.86a13.44,13.44,0,0,0-8.89,2.76,20.56,20.56,0,0,0-6.81,8.28,23,23,0,0,0-2,5.61,10.2,10.2,0,0,0,.26,5.44,4.11,4.11,0,0,0,2.76,2.76c1.27.23,2.7-.4,4.32-1.9a30.87,30.87,0,0,0,4.23-5.26A67.24,67.24,0,0,0,629.69,317.48Zm59.89-106.83a101.53,101.53,0,0,1,2.07-11.56v.17l.51-1.73-1.72-.52-1,9.67-1,8.11q-1.22,8.11-2.33,15.53T683.88,244l1.73.34c.57-4.94,1.15-10.27,1.72-16S688.65,216.75,689.58,210.65Zm1.55-23,.17-.18Zm28.3,122.53h-.17l-.17-.18Z"/><path class="cls-2" d="M768.1,310.92c0,.11-.12.29-.35.51a3.76,3.76,0,0,1-.77.61,4.17,4.17,0,0,1-1.3.43h-1a4.37,4.37,0,0,0-1.13.17c-.4.12-.89.23-1.46.35a36.19,36.19,0,0,0-4.14.77q-2.59.62-5.53,1.47-2.58,1-5.52,2.25a25.86,25.86,0,0,0-5.52,3.1,27.53,27.53,0,0,1,3.62,4.14,11.54,11.54,0,0,1,1.73,6.22,14.85,14.85,0,0,1-1.38,6,8.67,8.67,0,0,1-4.32,4.48,7.32,7.32,0,0,1-6.56.69,12.71,12.71,0,0,1-2.67-1.81,4.91,4.91,0,0,1-1.64-2.5,15.87,15.87,0,0,1,.35-9.32,18.27,18.27,0,0,1,4.14-6.9l-.52-.35c-.81-.57-1.55-1.06-2.24-1.47a15.41,15.41,0,0,1-2.07-1.46,19.92,19.92,0,0,1-4.41-3.89,11,11,0,0,1-2.5-5.43,11.55,11.55,0,0,1,.17-6A27.55,27.55,0,0,1,725.3,298a18.89,18.89,0,0,1,7.42-6.73,7.8,7.8,0,0,1,6-.34h-.35a1,1,0,0,0,.69.34.68.68,0,0,1,.52.18v.17a1,1,0,0,1,.69.17l.69.69.52,1a8.12,8.12,0,0,1,.52,3.1,3.44,3.44,0,0,1-1.3,2.68,2.61,2.61,0,0,1-2,.6q-2.41-.69-2.24-3.62v-.18a4.36,4.36,0,0,0-1.9.52,5.35,5.35,0,0,0-2.59,1.64,14.12,14.12,0,0,0-2.07,2.85,12.33,12.33,0,0,0-1.56,3.28,7.73,7.73,0,0,0-.17,3.62c.35,2.42,1.84,4.49,4.49,6.22l4.31,3.1h-.17l.78.52.77.52a33.8,33.8,0,0,1,6.65-3.71c2.13-.87,4.17-1.58,6.12-2.16s3.83-1,5.61-1.38,3.37-.63,4.75-.86a7.3,7.3,0,0,1,1.47-.18,3.41,3.41,0,0,0,1.12-.17,4,4,0,0,0,1.21-.17,3.35,3.35,0,0,1,2.41.69C768,310.63,768.1,310.8,768.1,310.92ZM742,331.11a8.76,8.76,0,0,0-1.21-3.8,13.15,13.15,0,0,0-2.59-3.1c-.46,0-.75-.06-.86-.18a13.87,13.87,0,0,0-2.76,4.32,18.65,18.65,0,0,0-1.3,4,5.1,5.1,0,0,0,.43,3.62,3.16,3.16,0,0,0,2.25,2.24h-.17a4.15,4.15,0,0,0,3.27-.34,5.69,5.69,0,0,0,2.16-2.76A10.37,10.37,0,0,0,742,331.11ZM737.38,324l.17-.17-.17-.17Zm.17-.17h.35c-.12,0-.18-.06-.18-.17Z"/></svg>