<svg xmlns="http://www.w3.org/2000/svg" width="200" height="40" viewBox="0 0 200 40">
  <g fill="#231F20" fill-rule="evenodd">
    <polygon points="0 2 0 40 23 40 23 36.371 3.976 36.371 3.976 2"/>
    <polygon points="33.324 23 30 20.637 44.98 0 60 20.125 56.707 22.533 45.025 6.879"/>
    <polygon points="33.323 40 30 37.635 44.985 17 60 37.124 56.709 39.529 45.03 23.876"/>
    <path d="M82.2522966,2 C88.7262346,2 93.2676242,6.00372803 93.2676242,12.5668738 C93.2676242,18.1174507 89.9785312,21.7467779 85.1785007,22.7613705 L94,40 L89.3523829,40 L80.8970715,23.1350968 L71.9706644,23.1350968 L71.9706644,40 L68,40 L68,2 L82.2522966,2 Z M71.9706644,5.62730339 L71.9706644,19.5590627 L81.8894077,19.5590627 C86.222961,19.5590627 89.3002588,17.2640866 89.3002588,12.6201669 C89.3002588,7.97557252 86.222961,5.62730339 81.8894077,5.62730339 L71.9706644,5.62730339 Z"/>
    <polygon points="118.553 16.676 132 40 127.271 40 115.872 19.774 107.994 29.432 107.994 40 104 40 104 2 107.994 2 107.994 23.882 125.488 2 130.318 2"/>
    <polygon points="163 5.628 143.958 5.628 143.958 19.024 160.191 19.024 160.191 22.653 143.958 22.653 143.958 36.37 163 36.37 163 40 140 40 140 2 163 2"/>
    <polygon points="200 40 196.171 40 176.046 9.524 176.046 40 172 40 172 2 175.835 2 195.958 32.367 195.958 2 200 2"/>
  </g>
</svg>
