<svg id="Layer_1" data-name="Layer 1" xmlns="http://www.w3.org/2000/svg" viewBox="0 0 1028.67 450.51"><defs><style>.cls-1,.cls-2{fill:#808083;}.cls-2{stroke:#808083;stroke-miterlimit:10;stroke-width:0.21px;}</style></defs><title>learn-mobile-heading</title><path class="cls-1" d="M306.05,385.31a11.84,11.84,0,0,1-5.07,4.93,17.18,17.18,0,0,1-8.05,1.75h-9v-28.3h9A17.55,17.55,0,0,1,301,365.4a11.6,11.6,0,0,1,5.07,4.9,17.14,17.14,0,0,1,0,15Zm-4.93.54q2.92-2.85,2.93-8t-2.91-8.05q-2.91-2.86-8.49-2.86h-5.06V388.7h5.06Q298.18,388.7,301.12,385.85Z"/><path class="cls-1" d="M324.4,366.66v9.68h10.75v2.81H324.4V389h12v3H320.74v-28.3h15.62v3Z"/><path class="cls-1" d="M366,388.38a7.33,7.33,0,0,1-2.94,2.81,10,10,0,0,1-4.85,1.08,11.72,11.72,0,0,1-5-1,9,9,0,0,1-3.49-2.81,8,8,0,0,1-1.51-4.08h3.9a5.44,5.44,0,0,0,.82,2.35,5.56,5.56,0,0,0,2,1.89,6.33,6.33,0,0,0,3.15.74,5,5,0,0,0,3.69-1.28,4.46,4.46,0,0,0,1.28-3.3,4.29,4.29,0,0,0-.9-2.81,6.28,6.28,0,0,0-2.23-1.7,28.68,28.68,0,0,0-3.61-1.34,36.81,36.81,0,0,1-4.31-1.67,7.23,7.23,0,0,1-2.77-2.35,6.85,6.85,0,0,1-1.15-4.13,7.12,7.12,0,0,1,1.07-3.89,6.88,6.88,0,0,1,3.05-2.61,10.9,10.9,0,0,1,4.67-.93,10.1,10.1,0,0,1,6.63,2,7.77,7.77,0,0,1,2.85,5.16h-3.94a5.28,5.28,0,0,0-1.72-3,5.44,5.44,0,0,0-3.82-1.29,5.19,5.19,0,0,0-3.53,1.15,4.6,4.6,0,0,0-.46,5.9,6.06,6.06,0,0,0,2.15,1.6,35.13,35.13,0,0,0,3.53,1.31A35.19,35.19,0,0,1,363,377.9a7.46,7.46,0,0,1,2.83,2.43,7.21,7.21,0,0,1,1.17,4.31A7.57,7.57,0,0,1,366,388.38Z"/><path class="cls-1" d="M383.55,363.69V392H379.9v-28.3Z"/><path class="cls-1" d="M418.57,365.86a11.89,11.89,0,0,1,4.52,6.66h-3.86a8.62,8.62,0,0,0-3.35-4.13,9.81,9.81,0,0,0-5.56-1.57,10,10,0,0,0-5.17,1.35,9.38,9.38,0,0,0-3.6,3.83,12.45,12.45,0,0,0-1.3,5.86,12.63,12.63,0,0,0,1.32,6,9.37,9.37,0,0,0,3.68,3.85,10.6,10.6,0,0,0,5.39,1.35,10.33,10.33,0,0,0,4.78-1.12,9.15,9.15,0,0,0,3.55-3.28,11.08,11.08,0,0,0,1.67-5H409.52v-2.73h14.21v3.37a14,14,0,0,1-2.09,6.1,12.5,12.5,0,0,1-4.65,4.33,13.57,13.57,0,0,1-6.67,1.61,14,14,0,0,1-7.22-1.83,12.66,12.66,0,0,1-4.88-5.09,17,17,0,0,1,0-15,12.87,12.87,0,0,1,4.88-5.12,13.88,13.88,0,0,1,7.18-1.85A13.69,13.69,0,0,1,418.57,365.86Z"/><path class="cls-1" d="M458.69,392H455l-14.69-22.36V392h-3.65v-28.3h3.65L455,386.09v-22.4h3.66Z"/><path class="cls-1" d="M476.22,366.66v9.68H487v2.81H476.22V389h12v3H472.57v-28.3h15.61v3Z"/><path class="cls-1" d="M523,385.31a11.81,11.81,0,0,1-5.08,4.93,17.11,17.11,0,0,1-8,1.75h-9v-28.3h9a17.48,17.48,0,0,1,8,1.71,11.58,11.58,0,0,1,5.08,4.9,17.14,17.14,0,0,1,0,15Zm-4.94.54c2-1.9,2.93-4.58,2.93-8s-1-6.13-2.91-8.05-4.77-2.86-8.49-2.86h-5.05V388.7h5.05Q515.16,388.7,518.08,385.85Z"/><path class="cls-1" d="M571.66,363.69v3H559.3v9.8h10.48v2.85H559.3V392h-3.65v-28.3Z"/><path class="cls-1" d="M604.07,365.18a13.18,13.18,0,0,1,5,5.16,16.38,16.38,0,0,1,0,15,13.22,13.22,0,0,1-5,5.15,13.65,13.65,0,0,1-7.08,1.85,13.91,13.91,0,0,1-7.13-1.85,13.08,13.08,0,0,1-5-5.15,16.38,16.38,0,0,1,0-15,13,13,0,0,1,5-5.16,14,14,0,0,1,7.13-1.85A13.75,13.75,0,0,1,604.07,365.18Zm-12.32,2.91a9.33,9.33,0,0,0-3.61,3.85,13.81,13.81,0,0,0,0,11.74,9.21,9.21,0,0,0,3.61,3.87A10.2,10.2,0,0,0,597,388.9a10,10,0,0,0,5.2-1.37,9.51,9.51,0,0,0,3.61-3.87,13.86,13.86,0,0,0,0-11.72,9.4,9.4,0,0,0-3.61-3.85,10.77,10.77,0,0,0-10.44,0Z"/><path class="cls-1" d="M638.81,392l-7.39-11.56h-4V392H623.8v-28.3h9.31q4.82,0,7.22,2.31a8.07,8.07,0,0,1,2.41,6.12,7.89,7.89,0,0,1-1.93,5.56,9,9,0,0,1-5.57,2.63l7.7,11.68Zm-11.36-14.21h5.34q6.23,0,6.22-5.46c0-3.64-2.07-5.45-6.22-5.45h-5.34Z"/><path class="cls-1" d="M689.74,385.45H677.3L674.93,392H671l10.47-27.77h4.14L696,392h-3.93Zm-1-2.85-5.17-14.29-5.18,14.29Z"/><path class="cls-1" d="M711.41,389.14h10V392H707.76v-28.3h3.65Z"/><path class="cls-1" d="M736.86,389.14h10V392H733.2v-28.3h3.66Z"/><path class="cls-1" d="M210.68,446.57a7.26,7.26,0,0,1-2.94,2.81,10,10,0,0,1-4.85,1.09,11.73,11.73,0,0,1-5-1,8.86,8.86,0,0,1-3.49-2.81,7.91,7.91,0,0,1-1.5-4.07h3.89a5.53,5.53,0,0,0,.82,2.35,5.45,5.45,0,0,0,2,1.88,6.22,6.22,0,0,0,3.15.75,5,5,0,0,0,3.69-1.29,4.42,4.42,0,0,0,1.28-3.29,4.25,4.25,0,0,0-.9-2.81,6.28,6.28,0,0,0-2.23-1.7A28.48,28.48,0,0,0,201,437.1a35.11,35.11,0,0,1-4.31-1.67,7.3,7.3,0,0,1-2.77-2.34,6.88,6.88,0,0,1-1.15-4.14,7.12,7.12,0,0,1,1.07-3.89,7,7,0,0,1,3-2.61,11.05,11.05,0,0,1,4.67-.92,10.1,10.1,0,0,1,6.63,2,7.79,7.79,0,0,1,2.85,5.16H207.1a5.35,5.35,0,0,0-1.72-3,5.48,5.48,0,0,0-3.82-1.28A5.24,5.24,0,0,0,198,425.6a4.6,4.6,0,0,0-.46,5.9,6.09,6.09,0,0,0,2.15,1.61,35.5,35.5,0,0,0,3.53,1.3,35.87,35.87,0,0,1,4.4,1.69,7.34,7.34,0,0,1,2.82,2.43,7.21,7.21,0,0,1,1.17,4.31A7.54,7.54,0,0,1,210.68,446.57Z"/><path class="cls-1" d="M241.9,421.89v3h-8v25.32h-3.65V424.86h-8v-3Z"/><path class="cls-1" d="M270.11,443.64H257.67l-2.37,6.54h-3.93l10.48-27.77H266l10.43,27.77h-3.93Zm-1-2.85-5.18-14.29-5.17,14.29Z"/><path class="cls-1" d="M309.26,424.06a11.89,11.89,0,0,1,4.52,6.66h-3.85a8.75,8.75,0,0,0-3.35-4.14A9.83,9.83,0,0,0,301,425a10.07,10.07,0,0,0-5.18,1.34,9.39,9.39,0,0,0-3.59,3.84,13.89,13.89,0,0,0,0,11.82,9.34,9.34,0,0,0,3.67,3.85,10.63,10.63,0,0,0,5.4,1.34,10.17,10.17,0,0,0,4.77-1.12,9.29,9.29,0,0,0,3.56-3.27,11.19,11.19,0,0,0,1.66-5H300.21v-2.73h14.21v3.37a14.08,14.08,0,0,1-2.09,6.11,12.5,12.5,0,0,1-4.65,4.33,13.62,13.62,0,0,1-6.66,1.61,14.08,14.08,0,0,1-7.23-1.83,12.73,12.73,0,0,1-4.87-5.1,16.88,16.88,0,0,1,0-15,12.91,12.91,0,0,1,4.87-5.12,13.89,13.89,0,0,1,7.19-1.84A13.59,13.59,0,0,1,309.26,424.06Z"/><path class="cls-1" d="M331,424.86v9.67h10.75v2.81H331v9.87h12v3H327.39V421.89H343v3Z"/><path class="cls-1" d="M372.66,446.57a7.23,7.23,0,0,1-2.93,2.81,10,10,0,0,1-4.86,1.09,11.73,11.73,0,0,1-5-1,8.93,8.93,0,0,1-3.49-2.81,7.91,7.91,0,0,1-1.5-4.07h3.89a5.53,5.53,0,0,0,.82,2.35,5.45,5.45,0,0,0,2,1.88,6.22,6.22,0,0,0,3.15.75,5,5,0,0,0,3.69-1.29,4.43,4.43,0,0,0,1.29-3.29,4.2,4.2,0,0,0-.91-2.81,6.34,6.34,0,0,0-2.22-1.7A29.32,29.32,0,0,0,363,437.1a35.11,35.11,0,0,1-4.31-1.67,7.37,7.37,0,0,1-2.77-2.34,6.88,6.88,0,0,1-1.14-4.14,6.84,6.84,0,0,1,4.11-6.5,11.1,11.1,0,0,1,4.68-.92,10.07,10.07,0,0,1,6.62,2,7.79,7.79,0,0,1,2.85,5.16h-3.93a5.37,5.37,0,0,0-1.73-3,5.47,5.47,0,0,0-3.81-1.28A5.2,5.2,0,0,0,360,425.6a4.58,4.58,0,0,0-.47,5.9,6.09,6.09,0,0,0,2.15,1.61,36.47,36.47,0,0,0,3.53,1.3,35.24,35.24,0,0,1,4.4,1.69,7.36,7.36,0,0,1,2.83,2.43,7.28,7.28,0,0,1,1.16,4.31A7.54,7.54,0,0,1,372.66,446.57Z"/><path class="cls-1" d="M424.53,423.37a13.24,13.24,0,0,1,5,5.16,16.46,16.46,0,0,1,0,15,13.18,13.18,0,0,1-5,5.16,13.75,13.75,0,0,1-7.08,1.85,14,14,0,0,1-7.13-1.85,13,13,0,0,1-5-5.16,16.38,16.38,0,0,1,0-15,13.11,13.11,0,0,1,5-5.16,14,14,0,0,1,7.13-1.84A13.74,13.74,0,0,1,424.53,423.37Zm-12.32,2.91a9.36,9.36,0,0,0-3.61,3.86,13.81,13.81,0,0,0,0,11.74,9.32,9.32,0,0,0,3.61,3.87,10.17,10.17,0,0,0,5.24,1.34,10,10,0,0,0,5.2-1.36,9.51,9.51,0,0,0,3.61-3.87,13.86,13.86,0,0,0,0-11.72,9.42,9.42,0,0,0-3.61-3.86,10.84,10.84,0,0,0-10.44,0Z"/><path class="cls-1" d="M460.27,421.89v3H447.91v9.79h10.47v2.85H447.91v12.68h-3.65V421.89Z"/><path class="cls-1" d="M518.91,422.37v27.81h-3.66V428l-8.86,22.19h-3.26l-8.91-22.11v22.11h-3.65V422.37H495l9.87,23.36,9.71-23.36Z"/><path class="cls-1" d="M552.84,423.37a13.24,13.24,0,0,1,5,5.16,16.46,16.46,0,0,1,0,15,13.18,13.18,0,0,1-5,5.16,13.75,13.75,0,0,1-7.08,1.85,14,14,0,0,1-7.13-1.85,13,13,0,0,1-5-5.16,16.38,16.38,0,0,1,0-15,13.11,13.11,0,0,1,5-5.16,14,14,0,0,1,7.13-1.84A13.74,13.74,0,0,1,552.84,423.37Zm-12.32,2.91a9.36,9.36,0,0,0-3.61,3.86,13.81,13.81,0,0,0,0,11.74,9.32,9.32,0,0,0,3.61,3.87,10.17,10.17,0,0,0,5.24,1.34,10,10,0,0,0,5.19-1.36,9.47,9.47,0,0,0,3.62-3.87,13.86,13.86,0,0,0,0-11.72,9.38,9.38,0,0,0-3.62-3.86,10.82,10.82,0,0,0-10.43,0Z"/><path class="cls-1" d="M589.9,421.89v3h-8v25.32h-3.65V424.86h-8v-3Z"/><path class="cls-1" d="M623.26,421.89v28.29h-3.7V437.1H605.19v13.08h-3.65V421.89h3.65v12.24h14.37V421.89Z"/><path class="cls-1" d="M640.79,424.86v9.67h10.76v2.81H640.79v9.87h12v3H637.14V421.89h15.61v3Z"/><path class="cls-1" d="M680.49,450.18l-7.39-11.55h-4v11.55h-3.65V421.89h9.31q4.82,0,7.22,2.31a8.07,8.07,0,0,1,2.41,6.12,7.91,7.91,0,0,1-1.93,5.56,9,9,0,0,1-5.57,2.62l7.7,11.68ZM669.13,436h5.34c4.14,0,6.22-1.82,6.22-5.46s-2.08-5.46-6.22-5.46h-5.34Z"/><path class="cls-1" d="M718.62,421.89v28.29h-3.7V437.1H700.56v13.08H696.9V421.89h3.66v12.24h14.36V421.89Z"/><path class="cls-1" d="M752.55,423.37a13.24,13.24,0,0,1,5,5.16,16.46,16.46,0,0,1,0,15,13.18,13.18,0,0,1-5,5.16,13.75,13.75,0,0,1-7.08,1.85,14,14,0,0,1-7.13-1.85,13.07,13.07,0,0,1-5-5.16,16.46,16.46,0,0,1,0-15,13.13,13.13,0,0,1,5-5.16,14,14,0,0,1,7.13-1.84A13.74,13.74,0,0,1,752.55,423.37Zm-12.32,2.91a9.29,9.29,0,0,0-3.61,3.86,13.81,13.81,0,0,0,0,11.74,9.26,9.26,0,0,0,3.61,3.87,10.17,10.17,0,0,0,5.24,1.34,10,10,0,0,0,5.19-1.36,9.45,9.45,0,0,0,3.61-3.87,13.76,13.76,0,0,0,0-11.72,9.36,9.36,0,0,0-3.61-3.86,10.82,10.82,0,0,0-10.43,0Z"/><path class="cls-1" d="M792.32,423.37a13.24,13.24,0,0,1,5,5.16,16.38,16.38,0,0,1,0,15,13.18,13.18,0,0,1-5,5.16,13.75,13.75,0,0,1-7.08,1.85,14,14,0,0,1-7.13-1.85,13,13,0,0,1-5-5.16,16.38,16.38,0,0,1,0-15,13.11,13.11,0,0,1,5-5.16,14,14,0,0,1,7.13-1.84A13.74,13.74,0,0,1,792.32,423.37ZM780,426.28a9.36,9.36,0,0,0-3.61,3.86,13.81,13.81,0,0,0,0,11.74,9.32,9.32,0,0,0,3.61,3.87,10.19,10.19,0,0,0,5.24,1.34,10,10,0,0,0,5.2-1.36,9.51,9.51,0,0,0,3.61-3.87,13.86,13.86,0,0,0,0-11.72,9.42,9.42,0,0,0-3.61-3.86,10.84,10.84,0,0,0-10.44,0Z"/><path class="cls-1" d="M834.16,443.5a11.83,11.83,0,0,1-5.08,4.94,17.23,17.23,0,0,1-8,1.74h-9V421.89h9a17.48,17.48,0,0,1,8,1.71,11.5,11.5,0,0,1,5.08,4.89,17.14,17.14,0,0,1,0,15Zm-4.93.54q2.92-2.85,2.92-8c0-3.45-1-6.14-2.9-8s-4.77-2.87-8.49-2.87H815.7v21.79h5.06Q826.3,446.89,829.23,444Z"/><path class="cls-2" d="M146.92,245.06q4.47-2.28,6.79-2.28,3.93,0,3.31,3t-7.24,6.53q-1.78.83-3.75,1.86t-4.46,2.28q-2.5,1.24-5.9,2.9l-2,.83q-6.8,3.1-16.08,7.05t-20.54,8.08h.18q-6.08,2.28-12.68,4.45T70.48,283.6q-7.5,1.65-15.19,3A93.75,93.75,0,0,1,39,288a62.06,62.06,0,0,1-8.66-.62,39.93,39.93,0,0,1-8.67-2.28L17.79,283c-1-.55-1.79-1.07-2.5-1.55a10.2,10.2,0,0,1-2-1.76,25.64,25.64,0,0,1-3-4.35q-1.24-2.28-2.5-5a78.87,78.87,0,0,1-5.2-19.79q-1.4-10.47-2.12-21Q.1,224.75.1,220.19v-9.32q0-15.75,1-32.22t2.49-31.8q2-19.47,4.35-39.06t5-36.57q2.86-17.4,5.54-32.53T24,10.93a2.82,2.82,0,0,1,.18-.93,3.18,3.18,0,0,0,.17-.94Q24.75,8,25,7c.18-.69.39-1.38.62-2.07a1.33,1.33,0,0,1,.18-.83q0-.21.09-.21c.06,0,.21-.2.45-.62a10,10,0,0,1,.36-1.45,1.24,1.24,0,0,1,.53-.62L28.32.57C28.68.15,29,0,29.4.15a4.46,4.46,0,0,1,1.07.63,8.09,8.09,0,0,0,.71.72,5.61,5.61,0,0,1,.54.52c.36.83.53,1.11.53.83a2.07,2.07,0,0,1,.18.83,8.26,8.26,0,0,1,.18,2.07,22.32,22.32,0,0,1-.36,4.66c-.24,1-.47,2.18-.71,3.42L31,16.52,27.79,30a2.07,2.07,0,0,1-.18.83,2.07,2.07,0,0,0-.18.83,47,47,0,0,1-2.59,7.77,10.67,10.67,0,0,1-1.87,3q-1.44,7.26-2.42,14.71c-.65,5-1.4,10.09-2.23,15.33q-2.67,17.42-5,36.26T9,147.68q-1.42,14.91-2.14,30t-.71,30q0,10.78.53,21.55.54,9.52,1.88,19.37a75.37,75.37,0,0,0,4.91,18.55,18.62,18.62,0,0,0,4.38,7,19.67,19.67,0,0,0,6.25,4.15,26.61,26.61,0,0,0,7.32,1.86,69.74,69.74,0,0,0,7.59.41,93.65,93.65,0,0,0,15.36-1.24q7.5-1.24,14.65-3.11,6.78-1.86,13.31-4t12.77-4.45q12.14-4.35,21.61-8.6T133,251.69q3.39-1.66,6-2.7a34.21,34.21,0,0,0,4.37-2.07A23,23,0,0,0,146.92,245.06Z"/><path class="cls-2" d="M114.42,182.74a3.54,3.54,0,0,1,1.42-.81,5.66,5.66,0,0,1,.9-.09,1.89,1.89,0,0,1,.71.36v-.36a1,1,0,0,1,.18.72,2.93,2.93,0,0,1-1.61,2.32,5.23,5.23,0,0,1-.89.71,4.29,4.29,0,0,1-1.07.72c-.48.24-1,.53-1.61.89q-2,1.08-4.73,2.32a29.36,29.36,0,0,1-6.34,2,17.64,17.64,0,0,1-8.22-.18,9.46,9.46,0,0,1-4.46-2.05,17.11,17.11,0,0,1-3.58-3.85,16.73,16.73,0,0,1-2.23-4.19,24.21,24.21,0,0,1-1.16-4.56l-.36-1.25-.18-.18-1.43,2.86-3.75,7q-1.79,3.57-3.48,7.14a53.53,53.53,0,0,1-3.3,6.07A40.33,40.33,0,0,1,65.65,203a22.21,22.21,0,0,1-5.18,4.2,8.39,8.39,0,0,1-3.75,1,6.93,6.93,0,0,1-3.75-.81v.18a7.85,7.85,0,0,1-3.12-2.41,11.43,11.43,0,0,1-1.7-3,23.58,23.58,0,0,1,.45-12.41,28.37,28.37,0,0,1,5.62-10.09,26.44,26.44,0,0,1,8.67-6.61,16.27,16.27,0,0,1,9.55-1.61,2.56,2.56,0,0,1,2.14,1.16,3.11,3.11,0,0,1,.36,2.06,3.35,3.35,0,0,1-1,1.87,2.27,2.27,0,0,1-2,.63,16.06,16.06,0,0,0-7.15,1.34,18,18,0,0,0-6.43,4.73,19.62,19.62,0,0,0-4.64,8,34.84,34.84,0,0,0-.81,4.46,12.34,12.34,0,0,0,.27,4.47,3.61,3.61,0,0,0,2,2.77,3.25,3.25,0,0,0,3.21-.09,10.12,10.12,0,0,0,3.66-3,47.6,47.6,0,0,0,3.13-4.46,64.57,64.57,0,0,0,4.29-6.61c1.18-2.14,2.26-4.29,3.21-6.43l3.75-7.15a4.17,4.17,0,0,1,.18-.8c.12-.42.06-.09-.18,1a27.74,27.74,0,0,0,1.61-2.5,7.85,7.85,0,0,1,1.78-2.14h-.17a2.41,2.41,0,0,1,2.14-.72,2.74,2.74,0,0,1,2,1.25,1.59,1.59,0,0,1,.45.72,1.52,1.52,0,0,0,.45.71h.18a1.11,1.11,0,0,1,.17.72l.36,1.78a39,39,0,0,0,1,4.29,13.45,13.45,0,0,0,1.88,3.93,15.53,15.53,0,0,0,2.59,2.68,9.86,9.86,0,0,0,3.13,1.79,14.21,14.21,0,0,0,7,.35,28,28,0,0,0,5.54-1.52,33.93,33.93,0,0,0,4.11-1.87l-.36.18a1.44,1.44,0,0,1,1.07-.36,7.9,7.9,0,0,0,1.43-.71,5.78,5.78,0,0,0,.89-.72A8.44,8.44,0,0,1,114.42,182.74ZM81,174.88c0,.12.06.17.18.17v-.35Q81.19,175.06,81,174.88Z"/><path class="cls-2" d="M153.89,165.77a2.58,2.58,0,0,1,.89,1.78,1,1,0,0,1-.18.72h-.89a3.88,3.88,0,0,1-2.5-1.07q0-.18-.36-.36c-.24-.12-.71-.42-1.43-.89a15.1,15.1,0,0,0-2.68-1.17,8.49,8.49,0,0,0-4.1-.26,9.33,9.33,0,0,0-4.38,2.23,29.25,29.25,0,0,0-4.2,4.38,31.68,31.68,0,0,0-3.3,6.07q-1.53,3.57-2.95,7.14a79.88,79.88,0,0,0-4.29,15.72c-.24,1-.47,2.26-.71,3.93a6.35,6.35,0,0,1-.09,1.07,5.66,5.66,0,0,0-.09.9,1,1,0,0,1-.18.71v.18a1.73,1.73,0,0,1-.53,1.25v-.36c-.48.83-1,1.25-1.61,1.25a1.83,1.83,0,0,1-1.43-.35,2.88,2.88,0,0,1-1.43-1.79.8.8,0,0,0-.09-.36.8.8,0,0,1-.09-.36,1,1,0,0,1-.18-.71A.71.71,0,0,0,117,205c-.06-.06-.08-.2-.08-.44a23.78,23.78,0,0,1-.45-3.84c-.06-1.37-.15-2.59-.27-3.67-.24-3.8-.45-7.5-.62-11.07s-.27-7-.27-10.18v-4.29c0-1.43.06-2.79.18-4.11a1.87,1.87,0,0,1,1.07-1.34,3.46,3.46,0,0,1,1.87-.35,4.49,4.49,0,0,1,1.88.62,1.63,1.63,0,0,1,.89,1.43c-.12,1.43-.21,3.1-.27,5s-.09,3.7-.09,5.36v5.72c0,.83,0,1.69.09,2.59s.09,2.11.09,3.66c.48-1.31.9-2.59,1.25-3.84a16.3,16.3,0,0,1,1.43-3.48,68,68,0,0,1,3.4-7.24A66.38,66.38,0,0,1,131,169a33.31,33.31,0,0,1,5.26-5.18,11.66,11.66,0,0,1,5.81-2.5,10.48,10.48,0,0,1,5.45.63,29.78,29.78,0,0,1,3.66,1.87,15.69,15.69,0,0,1,2.14,1.61Q153.71,165.77,153.89,165.77Z"/><path class="cls-2" d="M212.3,181.84a3.47,3.47,0,0,1,.44.72c.18.35,0,1-.62,2l-.54.54A12.24,12.24,0,0,1,210,187.2V187a26.67,26.67,0,0,1-2.68,3,41.2,41.2,0,0,1-3.92,3.39,34.07,34.07,0,0,1-5.36,3,38.2,38.2,0,0,1-7,2.5,28.09,28.09,0,0,1-3.57.54c-1.31.12-2.62.17-3.93.17-1.55,0-3.07,0-4.56-.17a26.56,26.56,0,0,1-4.37-.72q-2.51-.7-5.27-1.61a27,27,0,0,1-5.27-2.32c.36,4.77.71,8.4,1.07,10.9.24,1.55.42,3,.54,4.46a2.83,2.83,0,0,1-.9,2.23,3.8,3.8,0,0,1-1.87,1A2.45,2.45,0,0,1,161,213a2.8,2.8,0,0,1-1.07-2c-.12-1.43-.3-3.1-.53-5q-.36-2.51-.63-6t-.45-8.13l-.53-.53.53.18a.52.52,0,0,1-.35-.18.52.52,0,0,0-.36-.18,32.15,32.15,0,0,1-3.39-3.13,13.78,13.78,0,0,1-2.68-4.19,4.24,4.24,0,0,1,.35-3.75,5.13,5.13,0,0,1,.81-1.43,13.77,13.77,0,0,1,1-1.07,17.73,17.73,0,0,1,1.61-1.43,24.71,24.71,0,0,1,2.32-1.61h.18v-6.25q0-7.68.18-15.9t.53-17q.54-14.46,1.7-29.2t2.59-27.06c.24-2,.47-4.08.71-6.16s.54-4,.9-5.63a1.12,1.12,0,0,1,.09-.54,1.33,1.33,0,0,0,.09-.53c.23-1.67.5-3.28.8-4.82a27.13,27.13,0,0,1,1.34-4.65,1.48,1.48,0,0,1,.53-.89l.54-.54a1,1,0,0,1,.72-.18.32.32,0,0,0,.26-.09.81.81,0,0,1,.45-.08l.54.17-.72,1.61a6.66,6.66,0,0,1,.63.89,11,11,0,0,0,.8,1.17c.24.29.47.35.71.17s.36-.92.36-2.23l-.18-.71a1.73,1.73,0,0,1,.36,1.25,2.85,2.85,0,0,1,.18.89,2,2,0,0,1-.09.63,1.89,1.89,0,0,0-.09.62v1.07a2.9,2.9,0,0,0-.36,1.25l-.53,2.5a1.6,1.6,0,0,0-.18.72,6.75,6.75,0,0,0-.54,1.43,14.15,14.15,0,0,1-.53,1.6l-.72,1.79h.18A4.57,4.57,0,0,1,168,72l-.54,3.93a12,12,0,0,1-.18,2,11.81,11.81,0,0,0-.17,2q-1.26,12.33-2.15,26.71t-1.43,29c-.12,3.46-.21,7.23-.26,11.34s-.09,7.77-.09,11c0,2.62,0,4.85.09,6.7s.08,4,.08,6.34c1.31-.72,2.8-1.49,4.47-2.33s3.15-1.54,4.47-2.14q3.57-1.42,6.87-2.77t6.17-2.41a2,2,0,0,1,1.87.18,3.1,3.1,0,0,1,1.16,1.34,2.36,2.36,0,0,1,.09,1.7,1.9,1.9,0,0,1-1.34,1.25v-.18l-2.86,1.25q-4.63,1.78-10.18,4.11t-10.72,5l.54,11.61V189a7.75,7.75,0,0,0,.18,1.43,22.45,22.45,0,0,0,5.45,2.85c2,.72,3.9,1.37,5.8,2a43.41,43.41,0,0,0,9.29,1.07c.83,0,1.79,0,2.86-.09a16,16,0,0,0,3-.45,27,27,0,0,0,6.17-1.78,24.28,24.28,0,0,0,5.09-2.86,34.58,34.58,0,0,0,3.57-2.95,37,37,0,0,0,2.68-2.77l1.07-1.25.36-.35a1,1,0,0,1,.35-.72l.18-.18v.18c.84-1,1.49-1.43,2-1.43a1.7,1.7,0,0,1,.71.18Zm-56.63.9a5.12,5.12,0,0,0,2.33,3.39v-3.22a6.9,6.9,0,0,0-.09-1.51,8.53,8.53,0,0,1-.09-1.7l-1.25,1.07a6.17,6.17,0,0,1-.72,1.16A.77.77,0,0,0,155.67,182.74Z"/><path class="cls-2" d="M332.33,182.38c.71-.6,1.3-.77,1.78-.54a1.18,1.18,0,0,1,.54.54V182a1.74,1.74,0,0,1,.18.72c0,.47-.36,1-1.08,1.6a19.31,19.31,0,0,0-1.78,1.07c-.6.36-1.43.84-2.5,1.43s-2.39,1.32-3.93,2.15l-.18.18c-1.31.59-2.74,1.22-4.29,1.87s-3,1.22-4.46,1.7c-1,.24-1.94.44-2.95.62a7.9,7.9,0,0,1-3.13-.09,9.16,9.16,0,0,1-3.57-1.43,9.58,9.58,0,0,1-2.5-3c-.6-1.31-1.07-2.47-1.43-3.48s-.65-2-.89-3c-.24-1.19-.51-2.32-.8-3.4a10.43,10.43,0,0,0-1-2.5,8.36,8.36,0,0,0-1.34-1.69,3.67,3.67,0,0,0-2.23-1,3.39,3.39,0,0,0-2,.36,10.35,10.35,0,0,0-2.06,1.25,30.38,30.38,0,0,0-4.11,4.2,44.82,44.82,0,0,0-3.39,4.73q-1.79,2.68-3,5c-.83,1.55-1.55,2.86-2.14,3.93q-2.14,3.75-4.64,9.29l-3.58,7.33H272a10,10,0,0,1-.8,1.6,6.69,6.69,0,0,1-.8,1.07,3.22,3.22,0,0,1-2,.54,2.9,2.9,0,0,1-1.79-.71,1,1,0,0,1-.17-.72.71.71,0,0,0-.09-.45.68.68,0,0,1-.09-.44l-.36-1.79-.36-2.5v-3.21l-.18-6.79v-6.43c0-2.14-.06-4.23-.17-6.25q-.18-6.26-.45-11.61a30,30,0,0,0-1.7-9.11c-.24-.6-.44-1.13-.62-1.61a1.58,1.58,0,0,0-.63-.89.57.57,0,0,0-.71.18,8.77,8.77,0,0,0-2,1.6L257,165.05l-5.72,7.86-2.32,3.22q-3.21,4.63-7.68,10.36a126,126,0,0,1-10.18,11.43q-2,1.61-3.84,3.21a13.68,13.68,0,0,1-4.38,2.5,8.43,8.43,0,0,1-6.07.27,9.22,9.22,0,0,1-5-3.48,12.72,12.72,0,0,1-2.14-5.36,26.71,26.71,0,0,1-.18-5.36,25.46,25.46,0,0,1,3-10.18h-.17a24,24,0,0,1,2.85-4.47,14.79,14.79,0,0,1,4.11-3.39h-.18a8,8,0,0,1,5.72-1.43,7,7,0,0,1,3,.9l-.17-.18a2.91,2.91,0,0,1,1.69,1.25,3.77,3.77,0,0,1,.81,2.32,5,5,0,0,1-.63,3.21,12.31,12.31,0,0,1-1.7,2.15,14.39,14.39,0,0,1-4.1,2.68,24,24,0,0,1-7.51,2.14H214.8a26.43,26.43,0,0,0-1.08,5.36,13.86,13.86,0,0,0-.17,3.84,6.14,6.14,0,0,0,1.07,3.12,6.31,6.31,0,0,0,3,2.86,4.6,4.6,0,0,0,3.76.18,20.42,20.42,0,0,0,4-2.23,26.77,26.77,0,0,0,3.31-2.77,136.52,136.52,0,0,0,9.55-10.18q4.38-5.17,7.95-9.65l1.25-2a11.05,11.05,0,0,1,1.61-2.05q1.42-2,3.3-4.38t3.31-4.2l.36-.53,1.25-1.43c0-.12.11-.3.35-.54a1.16,1.16,0,0,1,.54-.53,2.78,2.78,0,0,0,.71-.54h-.17a13.19,13.19,0,0,1,1.34-1.16,1.34,1.34,0,0,1,1.51-.27,12.9,12.9,0,0,1,2.86,2.32,7.55,7.55,0,0,1,1.25,2,42.11,42.11,0,0,1,2.06,9.64c.41,3.82.74,7.86,1,12.15l.53,12.86.36,6.61V204l1.61-3.39,2-3.58a19.43,19.43,0,0,0,1.43-3.12,15.11,15.11,0,0,1,1.43-3v.18c.83-1.67,1.7-3.27,2.59-4.82s1.82-3,2.77-4.47q1.79-2.49,3.75-5.09A24.61,24.61,0,0,1,290,172a15.43,15.43,0,0,1,3.4-1.88,7.46,7.46,0,0,1,4.11-.44,7.35,7.35,0,0,1,4,2,9.84,9.84,0,0,1,2.42,3.39,17,17,0,0,1,1.16,3.13c.29,1.13.56,2.29.8,3.48s.51,2.27.8,3.22.57,1.73.81,2.32a4.18,4.18,0,0,0,3.57,2.77,12.9,12.9,0,0,0,5-.45,18.25,18.25,0,0,0,4.29-1.16,33.13,33.13,0,0,0,3.57-1.69l1.07-.36,3.22-1.61c.95-.47,1.72-.89,2.32-1.25A18,18,0,0,1,332.33,182.38Zm-111.1-7a8.5,8.5,0,0,0-4.11,4.47,14.5,14.5,0,0,0,4.64-1.43,11.15,11.15,0,0,0,2.86-2h-.18l1.25-1.25.18-.18a2.31,2.31,0,0,1-.54-.08,3.7,3.7,0,0,0-.89-.09,3.25,3.25,0,0,0-1.52,0A12,12,0,0,0,221.23,175.41Z"/><path class="cls-2" d="M585.6,180.59q6.25.18,7.68.72a2.06,2.06,0,0,1,1.07.71,2.06,2.06,0,0,1-1.07.72,12.9,12.9,0,0,1-2.68.62,35.52,35.52,0,0,1-5,.27q-3.4,0-9.91.53t-14,1.25a46.26,46.26,0,0,1-1.07,5.9c-.47,1.91-1,3.87-1.6,5.89a133.53,133.53,0,0,1-6.44,17.51A126,126,0,0,1,543.27,232a175,175,0,0,1-26.62,31.17A199.46,199.46,0,0,1,482.54,289q-9.48,5.36-19.83,10.36a155.39,155.39,0,0,1-20.54,8.22,187.92,187.92,0,0,1-18.84,5.18,92.37,92.37,0,0,1-19.92,2.14h-3a24.21,24.21,0,0,1-3-.18c-2-.24-4-.53-6-.89a21.71,21.71,0,0,1-5.8-2c-1-.6-1.88-1.2-2.77-1.79a15.65,15.65,0,0,1-2.41-2,11.42,11.42,0,0,1-2.06-2.76,25.79,25.79,0,0,1-1.33-2.95,9.49,9.49,0,0,1-.63-1.7c-.18-.65-.39-1.4-.63-2.23l-.35-2.14a2,2,0,0,0-.09-.63,2,2,0,0,1-.09-.62,17.63,17.63,0,0,1-.27-2.24,10.42,10.42,0,0,1,.09-2.41,8.25,8.25,0,0,1,.18-1.61,7.56,7.56,0,0,0,.18-1.43l.53-2.85c.12-.84.27-1.64.45-2.41a14,14,0,0,1,.63-2.06.69.69,0,0,1,.17-.53.73.73,0,0,0,.18-.54,56.76,56.76,0,0,1,4.83-10.09q3-5.1,6.07-9.56,3-4.11,6.87-8.39a105.26,105.26,0,0,1,7.78-7.86,176.4,176.4,0,0,1,14-11.34q7.23-5.28,14.37-9.92c0-2,0-4.08-.08-6.16s-.09-4.32-.09-6.7q0-7.14.17-15.09t.54-16q.54-13.93,1.7-28t2.94-25.9l2.15-11.07.71-2.33a6.37,6.37,0,0,0,.27-1.16,4.5,4.5,0,0,1,.45-1.34.68.68,0,0,1,.09-.35,1,1,0,0,0,.09-.36,2.9,2.9,0,0,1,.53-1.16,6.9,6.9,0,0,0,.72-1.16l-.18.35c.23-.23.35-.41.35-.53a1,1,0,0,1,.18-.72L442,104c-.12,0,.18-.12.89-.36v.18a4,4,0,0,1,1.79-.36l1.43.71,1.43,2.51a4.39,4.39,0,0,1,.27,1.87,13.71,13.71,0,0,0-.09,1.52v1.07l-.54,3.75-.53,2.68a7.1,7.1,0,0,1-.18,1.34,6.09,6.09,0,0,0-.18,1.16,5.71,5.71,0,0,1-2.15,3.57,2.58,2.58,0,0,1-1.6.54q-.18,0-.54-.36a2.49,2.49,0,0,0-.18,1.07Q440,136.65,439,150.41t-1.43,27.68q-.18,4.29-.18,8.49v8.3q0,6.62.09,12.15c.06,3.69.14,7.38.27,11.07q9.1-5.17,17.41-9.11t16.16-7a304.07,304.07,0,0,1,33-10.27q16.15-4,30.1-6.35,5.17-1.07,10.62-1.78c3.63-.48,7-.83,10.1-1.07a89.85,89.85,0,0,0,1.42-19.47v-.72a.93.93,0,0,0-.08-.35,1.12,1.12,0,0,1-.09-.54V158.8q0-2.49-.54-7.68-.54-4.81-2-11.52a69.56,69.56,0,0,0-5.17-14.74,75,75,0,0,0-10-15.54A83.84,83.84,0,0,0,523.8,95.21,110,110,0,0,0,504,84.32a105.47,105.47,0,0,0-22.86-6.79,120.93,120.93,0,0,0-22.69-2.14q-6.26,0-12.77.62t-12.77,1.7a177.42,177.42,0,0,0-22.59,6.34,111.73,111.73,0,0,0-19.56,9,123.61,123.61,0,0,0-16.34,10.63,155.27,155.27,0,0,0-12.69,10.89,118.07,118.07,0,0,0-9.11,9.74q-3.66,4.47-5.8,7.14a20,20,0,0,1-3,3.49,8.11,8.11,0,0,1-2,1.34,1.88,1.88,0,0,1-1.61,0,2.88,2.88,0,0,1-.18-1.79,11.82,11.82,0,0,1,.81-2.32,23.88,23.88,0,0,1,2.23-3.75l1.61-2.5.53-.9v.18l3.57-3.93,1.79-2.14,2.32-2.68,5-5.36q5.72-5.17,13.49-11.16A164.91,164.91,0,0,1,388.23,88.6,174.74,174.74,0,0,1,408.77,79a130.8,130.8,0,0,1,23-6.79q6.78-1.07,13.49-1.78a131,131,0,0,1,14-.72,134.7,134.7,0,0,1,22.86,2,112.37,112.37,0,0,1,24.11,7,110.88,110.88,0,0,1,21.26,11.61,93.52,93.52,0,0,1,16.34,15.18,70.27,70.27,0,0,1,10.63,16.79h-.18a73.82,73.82,0,0,1,6,15.72q1.71,7.15,2.42,12.33c.23,1.9.38,3.84.44,5.8s.09,3.43.09,4.38a4.26,4.26,0,0,1,.18,1.34v1.52q0,4.46-.27,9.2c-.18,3.15-.51,6.28-1,9.37h.36q6.42-.53,12.68-.89T585.6,180.59Zm-47.69,47.69a117.05,117.05,0,0,0,10.54-21,126.25,126.25,0,0,0,6.07-21.17c-3,.36-6.1.78-9.38,1.25s-6.64,1-10.09,1.43q-13.39,2.5-29.29,6.61a293.34,293.34,0,0,0-32.87,10.71q-8.75,3.76-17.68,8a190.3,190.3,0,0,0-17.5,9.38q.35,6.07.44,10.81t.45,8.3q.16,4.11.53,7.15a2.62,2.62,0,0,1-1.07,2.23,4.27,4.27,0,0,1-2.23.89,3.47,3.47,0,0,1-2.23-.62,2.82,2.82,0,0,1-1.25-2.15q-.18-2.5-.36-5.89-.36-6.08-.54-16.79Q425,231.5,418.5,236.5t-12.41,10.36q-3.39,3.21-7.06,7.41t-6.69,8.13a52,52,0,0,0-5.63,8.66,64.48,64.48,0,0,0-4.2,9.74,35.51,35.51,0,0,0-2,11.25,30.85,30.85,0,0,0,.27,4,11.73,11.73,0,0,0,1.16,3.84A9.34,9.34,0,0,0,384.3,304a14.16,14.16,0,0,0,3.75,2.67,18.85,18.85,0,0,0,4.64,1.61,36.07,36.07,0,0,0,5,.72A78.8,78.8,0,0,0,419,307.5,183.56,183.56,0,0,0,440,301.87a184.9,184.9,0,0,0,20.36-8.12,212.33,212.33,0,0,0,52.24-35.19A150,150,0,0,0,537.91,228.28Z"/><path class="cls-2" d="M638.29,189.7A47.56,47.56,0,0,1,624,200.6a36.24,36.24,0,0,1-5.27,1.78,14.21,14.21,0,0,1-6,.18,11.13,11.13,0,0,1-5.81-3.39,15.25,15.25,0,0,1-3.12-5,28,28,0,0,1-1.43-6,46.38,46.38,0,0,1-.36-5.62c0-1.19,0-2.38.09-3.58s.15-2.26.27-3.21V174.7c0-.36.27-.63.8-.81a4.19,4.19,0,0,1,1.7-.17,4.62,4.62,0,0,1,1.61.44,1.16,1.16,0,0,1,.71,1.07c-.12,1.08-.24,2.27-.36,3.58s-.18,2.68-.18,4.1a43.58,43.58,0,0,0,.27,4.65,22.06,22.06,0,0,0,1.16,5,9.5,9.5,0,0,0,2,3.66,6.62,6.62,0,0,0,3.39,2.23,8.36,8.36,0,0,0,4.56.18,27.13,27.13,0,0,0,4.55-1.43,40.49,40.49,0,0,0,7.95-4.55,53.46,53.46,0,0,0,5.81-4.91c.83-.83,1.54-1.58,2.14-2.24s1.07-1.22,1.43-1.69a9.9,9.9,0,0,0,1.07-1.25,1.92,1.92,0,0,1,1.43-.9.77.77,0,0,1,.53.18,3,3,0,0,1,.18.9,3.07,3.07,0,0,1-.18,1.25,19.43,19.43,0,0,0-1.51,2A27,27,0,0,1,638.29,189.7Zm-33.22-21.08a2,2,0,0,1-1.61-2,7.37,7.37,0,0,1,.18-2.86,3,3,0,0,1,1.52-1.87,3.08,3.08,0,0,1,2.41-.27,1.82,1.82,0,0,1,1,2.23,12.51,12.51,0,0,1-.63,2.59l.18-.18a5.13,5.13,0,0,1-1,2.15C606.7,168.92,606,169,605.07,168.62Z"/><path class="cls-2" d="M719.56,183.27A8.57,8.57,0,0,1,723,182a1.42,1.42,0,0,1,.9.18,1.91,1.91,0,0,1-.36,1.07c-.24.24-.54.57-.89,1a5,5,0,0,1-1.61,1.16,6.32,6.32,0,0,0-1.43.81c-.83.53-2.38,1.46-4.64,2.77h.17q-3,1.78-8,4.28t-10.54,5.18L694,199.7l-2.86,1.08a10.92,10.92,0,0,0-.09,2.41c.06.77.09,1.52.09,2.23A24.52,24.52,0,0,1,696.7,209q2.49,2.14,5,4.65a49.1,49.1,0,0,1,9.47,16.43,80.33,80.33,0,0,1,4.1,19.11,23.49,23.49,0,0,1,.18,2.95v3q0,3.57-.27,6.87a38.25,38.25,0,0,1-1.16,6.7c-.59,1.55-1.28,3.18-2,4.91a10.82,10.82,0,0,1-3.66,4.38,17,17,0,0,1-3,1.34,9.06,9.06,0,0,1-3.39.27,9.17,9.17,0,0,1-5.36-2.86,18.83,18.83,0,0,1-2.95-4.29,50.55,50.55,0,0,1-2.05-4.64c-.48-1.43-.93-2.92-1.34-4.47a43.49,43.49,0,0,1-1-4.46q-.9-4.65-1.43-8.94t-.9-8.57c-.24-1.9-.38-3.75-.44-5.54s-.15-3.51-.27-5.18a.34.34,0,0,0-.09-.26.37.37,0,0,1-.09-.27v-.72c-.12-3.09-.21-6.58-.27-10.44s-.09-7.66-.09-11.35l-.53-.35.18.17a30.81,30.81,0,0,0-7.69-1.07c-.59,0-1.22,0-1.87.09a17.71,17.71,0,0,0-1.88.27h-2.5a4.08,4.08,0,0,1-.8-.09,3.23,3.23,0,0,1-1.16-.62h.18a2.27,2.27,0,0,1-.81-1.34c-.18-.66-.15-1,.09-1.16v.17a3.84,3.84,0,0,1,1.43-1.07.37.37,0,0,0,.27-.09.37.37,0,0,1,.27-.09c2.62-.35,5.2-.83,7.77-1.43s5-1.25,7.23-2q.18-9.11.63-18.58t1.16-19.29l-3.4,6.43c-.59,1.07-1.25,2.15-2,3.22s-1.49,2.2-2.32,3.39a90,90,0,0,1-10,12.15,112.09,112.09,0,0,1-13.57,11.79q-.18,3.57-.18,6.87v6.7a39.72,39.72,0,0,1,6.7,4.65,34,34,0,0,1,5.45,5.89,59.15,59.15,0,0,1,7,11.07,75.47,75.47,0,0,1,4.65,12.15v-.18a93.31,93.31,0,0,1,4.28,25.9,57.42,57.42,0,0,1,0,6.43,44,44,0,0,1-.89,6.79.73.73,0,0,1-.09.35.8.8,0,0,0-.09.36c-.6,1.91-1.34,3.93-2.23,6.08a12.35,12.35,0,0,1-4.91,5.53,16.4,16.4,0,0,1-4,1.25,6.75,6.75,0,0,1-4-.53,9.09,9.09,0,0,1-3.39-2.15,26.7,26.7,0,0,1-2.51-2.85,27.1,27.1,0,0,1-3.21-5.72c-.83-2-1.55-4-2.14-5.89A77.78,77.78,0,0,1,654,269.19q-.9-5.9-1.61-11.61-.36-4.47-.62-8.76t-.63-8.39A4.66,4.66,0,0,1,651,239q-.18-2.87-.18-6.79c-.11-2.14-.18-4.79-.18-8V213.64a10,10,0,0,0-2.32-.72,15.19,15.19,0,0,1-2.14-.53,28.22,28.22,0,0,0-5.54-.18,39.74,39.74,0,0,0-5.54.71l-2.85.72a1.1,1.1,0,0,0-.63.17,5.68,5.68,0,0,1-.62.36,4.15,4.15,0,0,1-2.15.18,1.59,1.59,0,0,1-.71-.18,2.88,2.88,0,0,1-1.43-1.25.72.72,0,0,1-.18-.53v-.72a1,1,0,0,1,.18-.71q.36-.36.27-.54c-.06-.12.33-.3,1.16-.53l.89-.36-.71.18.89-.54,2.86-1.25q5.18-2.5,9.82-5a85.21,85.21,0,0,0,8.93-5.54q.18-8.38.54-17.32t1.25-18.58q1.06-14.82,2.86-30.1t3.93-27.59q1.25-6.26,2.41-11.7a100.56,100.56,0,0,1,2.59-9.92l.71-1.42a1.38,1.38,0,0,1,.18-.54,1.38,1.38,0,0,0,.18-.54l1.25-2.5a1.48,1.48,0,0,1,1.07-.35q-.18,0,.72-.54c0,.12,0,.18.17.18a.37.37,0,0,1,.27.09.71.71,0,0,0,.45.09l-1.07.89c0,.24.35.66,1.07,1.25s1.19.78,1.43.54V78.25a2.83,2.83,0,0,1,.36,1.25l-.18-.36a3.27,3.27,0,0,1,.35,1.43,1.17,1.17,0,0,1-.09.53.78.78,0,0,0-.08.36v1.25l-1.08,5.18a.37.37,0,0,1-.09.27.37.37,0,0,0-.09.27q-1.24,3.57-2.32,4.1a1.61,1.61,0,0,1-1.25.18c-.48,1.91-.89,3.82-1.25,5.72s-.71,3.93-1.07,6.07q-1.07,6.07-2,13.13t-1.79,14.47q-.81,7.41-1.43,15t-1.16,14.56q-.54,8.57-.8,16.34t-.45,15.45a101,101,0,0,0,12-10.63q5.18-5.44,9.28-10.62l3.93-6.25,3.22-5.72h-.18c.24-.59.48-1.13.72-1.61s.47-1,.71-1.61a39.68,39.68,0,0,0,1.52-3.84c.41-1.25.74-2.17,1-2.76a3.72,3.72,0,0,0,.18-1.43q.89-8,2.05-15.9t2.59-15.54c.48-2.38,1-4.7,1.43-7s1-4.52,1.61-6.78a2,2,0,0,1,.09-.63,1.93,1.93,0,0,0,.09-.62l.71-2.15a24.81,24.81,0,0,1,1.25-2.85,1.69,1.69,0,0,1,.54-1.25A3,3,0,0,1,700.45,95a1.58,1.58,0,0,1,2.14.72,4,4,0,0,1,.54,1.25,1.89,1.89,0,0,1-.09.62,2,2,0,0,0-.09.63v1.07a3.38,3.38,0,0,0-.18,1.07,5.66,5.66,0,0,1-.09.9,5.44,5.44,0,0,0-.09.89c-.48,2.86-1,5.54-1.43,8s-1,4.94-1.61,7.32c-.24,1-.47,2-.71,3.13s-.48,2.23-.71,3.3l-1.08,4.47-2.5,11.25q-1.42,14.12-2.23,29.2t-1,28l1.25-.36h-.18l2.23-.89,2.24-.9q6.42-2.67,10.36-4.64c2.61-1.31,4.76-2.44,6.43-3.39.71-.36,1.39-.75,2.05-1.17l1.87-1.16a7.37,7.37,0,0,1,1.79-1.07Zm-72.7,24.83c1.19.24,2.44.54,3.75.89,0-1.19,0-2.29-.09-3.3a26.64,26.64,0,0,1,.09-3.49c-1.43,1-2.91,1.85-4.46,2.68s-3.4,1.85-5.54,3A21.43,21.43,0,0,1,646.86,208.1Zm18,16.61q-2-2.33-4-4.47a30,30,0,0,0-4.37-3.75v.36q0,8.75.27,18.93T658.12,257q.52,5.35,1.51,11.07T662,279.19c.6,1.78,1.22,3.57,1.88,5.36a18.93,18.93,0,0,0,2.41,4.64,8.85,8.85,0,0,0,3.4,3.13,3.78,3.78,0,0,0,3.93-.27h-.18a8.12,8.12,0,0,0,3-3.66,24.15,24.15,0,0,0,1.61-5.09,35.4,35.4,0,0,0,.89-6.08c.12-2,.18-4.05.18-6.07a108.39,108.39,0,0,0-1.07-12.23,74.83,74.83,0,0,0-2.86-12.24A112.88,112.88,0,0,0,671,235.25,54.41,54.41,0,0,0,664.9,224.71Zm20.72-21.61a.37.37,0,0,0-.27.09.36.36,0,0,1-.26.09.69.69,0,0,0,.53.18Zm5.72,6.61v-1.07l-1.25.71,1.25.71Zm7.14,6.61a26.17,26.17,0,0,0-3.39-3.49,34.86,34.86,0,0,0-3.75-2.77,2,2,0,0,0,.09.63,1.93,1.93,0,0,1,.09.62v6.08q0,5.18.18,11.34t.71,12.41q.36,3.75.89,8c.36,2.8.83,5.63,1.43,8.49s1.25,5.53,2,8.39a18.27,18.27,0,0,0,3.75,7q2.31,2.49,5,.71a8.27,8.27,0,0,0,2-2.68c.6-1.19,1.13-2.38,1.61-3.57a36.37,36.37,0,0,0,1.25-6.16,53.93,53.93,0,0,0,.36-6.16v-2.86a22.76,22.76,0,0,0-.18-2.86,90.28,90.28,0,0,0-3.57-17.77A42,42,0,0,0,698.48,216.32Zm-.18-111.46-1.07,6.07q-1.07,6.79-2.14,12.33l-.54,2.32,1.79.36.54-4.29.53-3.22c.36-2.38.74-4.64,1.16-6.78s.92-4.29,1.52-6.43Z"/><path class="cls-2" d="M768.32,182.2a5.69,5.69,0,0,0-.36,1.07,2.27,2.27,0,0,1-.89,1.25c-.24,0-1,.66-2.14,2l-2.15,1.78c-.59.6-1.25,1.22-2,1.88a17.5,17.5,0,0,1-2.5,1.87c-1.31,1.07-2.83,2.21-4.56,3.4s-3.72,2.44-6,3.75a36.35,36.35,0,0,1-7.06,3.3,32.55,32.55,0,0,1-8.12,1.7h-2.32a6.74,6.74,0,0,1-2.15-.36,6.64,6.64,0,0,1-2.32-.71L723,201.49a9.37,9.37,0,0,1-2.32-3.93,33.76,33.76,0,0,1-1.07-4.64,22.67,22.67,0,0,1,.18-5,22.43,22.43,0,0,1,1.07-4.29,17,17,0,0,1,4.29-8.22,15.16,15.16,0,0,1,3.57-3.48,9.29,9.29,0,0,1,4.82-1.7h-.18a3.33,3.33,0,0,1,1.34-.09,6.56,6.56,0,0,1,1.34.27,1.25,1.25,0,0,1,.54.09,1.17,1.17,0,0,0,.53.09l1.43.89a3.83,3.83,0,0,1,1.43,1.61,4.71,4.71,0,0,1,.54,2.14l-1.43,3a12.57,12.57,0,0,1-2.86,2.95,15.64,15.64,0,0,1-3.39,1.87,15.27,15.27,0,0,1-3.49,1.07q-1.87.36-3.3.54h-1.25a30.09,30.09,0,0,0-.89,3.93,14.83,14.83,0,0,0-.18,3.93,16.42,16.42,0,0,0,.71,3.3,7.06,7.06,0,0,0,1.79,2.95,5.12,5.12,0,0,0,2.86,1.52q1.61.27,3.57.45a25.89,25.89,0,0,0,7.32-1.43,49.43,49.43,0,0,0,6.61-2.86c1.55-1,3.27-2,5.18-3.22a47.79,47.79,0,0,0,4.82-3.39q2.15-1.6,3.84-3c1.13-1,2.12-1.72,3-2.32a21.28,21.28,0,0,0,1.79-1.43,2.79,2.79,0,0,1,.71-.53c.83-.83,1.49-1.13,2-.9A1.2,1.2,0,0,1,768.32,182.2Zm-40-4.29a9.18,9.18,0,0,0-.62,1.07,3.43,3.43,0,0,1-.63.9,13.86,13.86,0,0,0,3.75-1.25,14.59,14.59,0,0,0,2.68-1.34,7.76,7.76,0,0,0,2.14-2.06l-.17-.35h-1.79A6.38,6.38,0,0,0,728.31,177.91Zm7.5-2.68v-.18l-.18.18Z"/><path class="cls-2" d="M804.22,165.77a2.55,2.55,0,0,1,.9,1.78,1.1,1.1,0,0,1-.18.72H804a3.88,3.88,0,0,1-2.5-1.07c0-.12-.12-.24-.35-.36s-.72-.42-1.43-.89a15.45,15.45,0,0,0-2.68-1.17,8.52,8.52,0,0,0-4.11-.26,9.33,9.33,0,0,0-4.38,2.23,29.2,29.2,0,0,0-4.19,4.38,31.14,31.14,0,0,0-3.31,6.07q-1.51,3.57-3,7.14a80.57,80.57,0,0,0-4.28,15.72c-.24,1-.48,2.26-.72,3.93a6.35,6.35,0,0,1-.09,1.07,5.66,5.66,0,0,0-.09.9,1.09,1.09,0,0,1-.17.71v.18a1.71,1.71,0,0,1-.54,1.25v-.36c-.48.83-1,1.25-1.61,1.25a1.84,1.84,0,0,1-1.43-.35,2.91,2.91,0,0,1-1.43-1.79.94.94,0,0,0-.08-.36.69.69,0,0,1-.09-.36,1,1,0,0,1-.18-.71.71.71,0,0,0-.09-.45.68.68,0,0,1-.09-.44,25,25,0,0,1-.45-3.84c-.06-1.37-.15-2.59-.27-3.67-.23-3.8-.44-7.5-.62-11.07s-.27-7-.27-10.18v-4.29c0-1.43.06-2.79.18-4.11a1.89,1.89,0,0,1,1.07-1.34,3.5,3.5,0,0,1,1.88-.35,4.5,4.5,0,0,1,1.87.62,1.62,1.62,0,0,1,.9,1.43c-.12,1.43-.21,3.1-.27,5s-.09,3.7-.09,5.36v5.72c0,.83,0,1.69.09,2.59s.09,2.11.09,3.66c.47-1.31.89-2.59,1.25-3.84a15.8,15.8,0,0,1,1.43-3.48A74.68,74.68,0,0,1,781.36,169a33.35,33.35,0,0,1,5.27-5.18,11.63,11.63,0,0,1,5.8-2.5,10.47,10.47,0,0,1,5.45.63,29.07,29.07,0,0,1,3.66,1.87,16.69,16.69,0,0,1,2.15,1.61C803.92,165.65,804.1,165.77,804.22,165.77Z"/><path class="cls-2" d="M930,182.38c.71-.6,1.31-.77,1.78-.54a1.18,1.18,0,0,1,.54.54V182a1.6,1.6,0,0,1,.18.72c0,.47-.36,1-1.07,1.6a18,18,0,0,0-1.79,1.07c-.6.36-1.43.84-2.5,1.43s-2.38,1.32-3.93,2.15l-.18.18c-1.31.59-2.74,1.22-4.29,1.87s-3,1.22-4.46,1.7c-1,.24-1.94.44-3,.62a7.84,7.84,0,0,1-3.12-.09,9.15,9.15,0,0,1-3.58-1.43,9.58,9.58,0,0,1-2.5-3c-.59-1.31-1.07-2.47-1.43-3.48s-.65-2-.89-3c-.24-1.19-.51-2.32-.8-3.4a10.91,10.91,0,0,0-1-2.5,9.12,9.12,0,0,0-1.34-1.69,3.73,3.73,0,0,0-2.24-1,3.4,3.4,0,0,0-2,.36,10.35,10.35,0,0,0-2.06,1.25,30.33,30.33,0,0,0-4.1,4.2,43.57,43.57,0,0,0-3.4,4.73q-1.78,2.68-3,5c-.84,1.55-1.55,2.86-2.15,3.93q-2.14,3.75-4.64,9.29l-3.57,7.33h.17a10,10,0,0,1-.8,1.6,6.69,6.69,0,0,1-.8,1.07,3.22,3.22,0,0,1-2,.54,2.85,2.85,0,0,1-1.78-.71,1,1,0,0,1-.18-.72.71.71,0,0,0-.09-.45.68.68,0,0,1-.09-.44l-.36-1.79-.35-2.5v-3.21l-.18-6.79v-6.43c0-2.14-.07-4.23-.18-6.25q-.18-6.26-.45-11.61a29.69,29.69,0,0,0-1.7-9.11c-.24-.6-.44-1.13-.62-1.61a1.58,1.58,0,0,0-.63-.89.57.57,0,0,0-.71.18,9,9,0,0,0-2,1.6l-2.14,2.68-5.71,7.86-2.33,3.22q-3.21,4.63-7.68,10.36a126,126,0,0,1-10.18,11.43q-2,1.61-3.84,3.21a13.73,13.73,0,0,1-4.37,2.5,8.46,8.46,0,0,1-6.08.27,9.22,9.22,0,0,1-5-3.48,12.72,12.72,0,0,1-2.14-5.36,26.71,26.71,0,0,1-.18-5.36,25.46,25.46,0,0,1,3-10.18h-.18a24,24,0,0,1,2.85-4.47,14.94,14.94,0,0,1,4.11-3.39h-.18a8,8,0,0,1,5.72-1.43,7.07,7.07,0,0,1,3,.9l-.18-.18a3,3,0,0,1,1.7,1.25,3.82,3.82,0,0,1,.8,2.32,4.93,4.93,0,0,1-.63,3.21,12.77,12.77,0,0,1-1.69,2.15,14.61,14.61,0,0,1-4.11,2.68,24,24,0,0,1-7.5,2.14h-1.43a25.68,25.68,0,0,0-1.07,5.36,13.87,13.87,0,0,0-.18,3.84,6.14,6.14,0,0,0,1.07,3.12,6.29,6.29,0,0,0,3,2.86,4.57,4.57,0,0,0,3.75.18,20.21,20.21,0,0,0,4-2.23,25.92,25.92,0,0,0,3.3-2.77,138.82,138.82,0,0,0,9.56-10.18q4.37-5.17,7.94-9.65l1.25-2a11.05,11.05,0,0,1,1.61-2.05c.95-1.31,2.06-2.77,3.31-4.38s2.35-3,3.3-4.2l.36-.53,1.25-1.43q0-.18.36-.54a1.09,1.09,0,0,1,.53-.53,2.82,2.82,0,0,0,.72-.54h-.18a13.19,13.19,0,0,1,1.34-1.16,1.35,1.35,0,0,1,1.52-.27,12.81,12.81,0,0,1,2.85,2.32,7.55,7.55,0,0,1,1.25,2,42.11,42.11,0,0,1,2.06,9.64c.41,3.82.74,7.86,1,12.15l.54,12.86.35,6.61V204l1.61-3.39,2-3.58a19.43,19.43,0,0,0,1.43-3.12,15.7,15.7,0,0,1,1.43-3v.18c.83-1.67,1.7-3.27,2.59-4.82s1.82-3,2.77-4.47q1.79-2.49,3.75-5.09a24.61,24.61,0,0,1,4.82-4.73,15.43,15.43,0,0,1,3.4-1.88,7.78,7.78,0,0,1,8.13,1.52,9.8,9.8,0,0,1,2.41,3.39,17,17,0,0,1,1.16,3.13c.29,1.13.56,2.29.8,3.48a30.78,30.78,0,0,0,.81,3.22c.29,1,.56,1.73.8,2.32a4.18,4.18,0,0,0,3.57,2.77,12.9,12.9,0,0,0,5-.45,18.25,18.25,0,0,0,4.29-1.16,33.13,33.13,0,0,0,3.57-1.69l1.07-.36,3.22-1.61c.95-.47,1.72-.89,2.32-1.25A19.27,19.27,0,0,1,930,182.38Zm-111.1-7a8.5,8.5,0,0,0-4.11,4.47,14.5,14.5,0,0,0,4.64-1.43,11,11,0,0,0,2.86-2h-.18l1.25-1.25.18-.18A2.18,2.18,0,0,1,823,175a3.79,3.79,0,0,0-.9-.09,3.25,3.25,0,0,0-1.52,0A12,12,0,0,0,818.87,175.41Z"/><path class="cls-2" d="M981.41,182.56a2,2,0,0,1,1-.63,4.08,4.08,0,0,1,.8-.09,1.6,1.6,0,0,1,.72.18,3.55,3.55,0,0,1,.44.63c.18.29-.15.92-1,1.87a23.15,23.15,0,0,1-2.5,2.15c-.83.59-1.79,1.33-2.86,2.23s-2.32,1.87-3.75,2.94q-4.47,3-10.8,7a72.82,72.82,0,0,1-13.85,6.61,22.21,22.21,0,0,1-3.84,1.25c-1.49.36-3,.66-4.55.89a18.19,18.19,0,0,1-4.82.09,9.71,9.71,0,0,1-5-2.05,7.79,7.79,0,0,1-3.12-4.29,23.68,23.68,0,0,1-1-5.18,15.82,15.82,0,0,1,.26-4.37c.3-1.49.69-3,1.16-4.56a30.58,30.58,0,0,1,8.76-14.65h-.18a16.88,16.88,0,0,1,3.12-2.76,15.42,15.42,0,0,1,3.84-1.88,9.71,9.71,0,0,1,4.83-.18,6.93,6.93,0,0,1,4.11,2.86,2.76,2.76,0,0,1,.26,2.77,5.53,5.53,0,0,1-1.51,2,3,3,0,0,1-1.61-.09,4.34,4.34,0,0,1-1.79-1.16c-.48-.83-1.31-1-2.5-.53a8.13,8.13,0,0,0-2.5,1.25l-2.5,1.78h.18a46.46,46.46,0,0,0-4.38,5.54,24,24,0,0,0-3.12,6.61,21.34,21.34,0,0,0-1.43,7.32,12,12,0,0,0,.44,3.31,4.46,4.46,0,0,0,1.7,2.41,7.86,7.86,0,0,0,3,1.25,7.65,7.65,0,0,0,3.3,0q2-.36,3.75-.63a19.29,19.29,0,0,0,3.75-1,90.31,90.31,0,0,0,13.76-5.81,82.06,82.06,0,0,0,10.36-6.34q2-1.43,3.57-2.67c1.07-.84,2-1.55,2.86-2.15S980.57,183.15,981.41,182.56Z"/><path class="cls-2" d="M1028.56,182.2a5.69,5.69,0,0,0-.36,1.07,2.27,2.27,0,0,1-.89,1.25c-.24,0-1,.66-2.14,2l-2.15,1.78c-.6.6-1.25,1.22-2,1.88a17.5,17.5,0,0,1-2.5,1.87c-1.31,1.07-2.83,2.21-4.56,3.4s-3.72,2.44-6,3.75a36.35,36.35,0,0,1-7.06,3.3,32.65,32.65,0,0,1-8.12,1.7h-2.33a6.68,6.68,0,0,1-2.14-.36,6.59,6.59,0,0,1-2.32-.71l-2.86-1.61a9.37,9.37,0,0,1-2.32-3.93,32.36,32.36,0,0,1-1.07-4.64,22.67,22.67,0,0,1,.18-5,22.43,22.43,0,0,1,1.07-4.29,17.09,17.09,0,0,1,4.28-8.22,15.41,15.41,0,0,1,3.58-3.48,9.26,9.26,0,0,1,4.82-1.7h-.18a3.31,3.31,0,0,1,1.34-.09,6.56,6.56,0,0,1,1.34.27,1.25,1.25,0,0,1,.54.09,1.17,1.17,0,0,0,.53.09l1.43.89a3.83,3.83,0,0,1,1.43,1.61,4.71,4.71,0,0,1,.54,2.14l-1.43,3a12.57,12.57,0,0,1-2.86,2.95,15.71,15.71,0,0,1-3.4,1.87,15.19,15.19,0,0,1-3.48,1.07q-1.87.36-3.3.54H985a31.76,31.76,0,0,0-.9,3.93,14.8,14.8,0,0,0-.17,3.93,16.42,16.42,0,0,0,.71,3.3,7.06,7.06,0,0,0,1.79,2.95,5.13,5.13,0,0,0,2.85,1.52c1.08.18,2.26.33,3.58.45a25.89,25.89,0,0,0,7.32-1.43,49.43,49.43,0,0,0,6.61-2.86q2.31-1.43,5.18-3.22a47.79,47.79,0,0,0,4.82-3.39q2.15-1.6,3.84-3c1.13-1,2.11-1.72,2.95-2.32a20.5,20.5,0,0,0,1.78-1.43,3,3,0,0,1,.72-.53c.83-.83,1.49-1.13,2-.9A1.18,1.18,0,0,1,1028.56,182.2Zm-40-4.29a11,11,0,0,0-.63,1.07,3.19,3.19,0,0,1-.62.9,13.86,13.86,0,0,0,3.75-1.25,14.91,14.91,0,0,0,2.68-1.34,7.76,7.76,0,0,0,2.14-2.06l-.18-.35h-1.78A6.37,6.37,0,0,0,988.55,177.91Zm7.5-2.68v-.18l-.18.18Z"/><path class="cls-1" d="M239.27,75.8v3.08H231v26.21h-3.78V78.88H219V75.8Z"/><path class="cls-1" d="M273.79,75.8v29.29H270V91.55H255.09v13.54h-3.78V75.8h3.78V88.47H270V75.8Z"/><path class="cls-1" d="M291.94,78.88v10h11.13V91.8H291.94V102h12.38v3.08H288.16V75.8h16.16v3.08Z"/></svg>