<?xml version="1.0" encoding="utf-8"?>
<!-- Generator: Adobe Illustrator 24.0.1, SVG Export Plug-In . SVG Version: 6.00 Build 0)  -->
<svg version="1.1" id="Layer_1" xmlns="http://www.w3.org/2000/svg" xmlns:xlink="http://www.w3.org/1999/xlink" x="0px" y="0px"
	 viewBox="0 0 495.287 342.232" enable-background="new 0 0 495.287 342.232" xml:space="preserve">
<g>
	<g>
		<path fill="#818285" stroke="#818285" stroke-width="0.1" stroke-miterlimit="10" d="M70.741,101.723
			c1.433-0.632,2.522-0.946,3.269-0.946c1.261,0,1.791,0.416,1.591,1.247c-0.201,0.831-1.362,1.733-3.482,2.709
			c-0.574,0.229-1.176,0.487-1.807,0.774c-0.632,0.286-1.348,0.602-2.149,0.946c-0.804,0.344-1.75,0.744-2.839,1.204l-0.945,0.344
			c-2.18,0.859-4.76,1.834-7.74,2.924c-2.981,1.089-6.278,2.206-9.89,3.354h0.086c-1.95,0.63-3.986,1.246-6.106,1.849
			c-2.122,0.602-4.386,1.131-6.794,1.591c-2.408,0.458-4.846,0.873-7.31,1.247c-2.466,0.372-5.074,0.559-7.826,0.559
			c-1.376,0-2.767-0.086-4.171-0.258c-1.406-0.172-2.795-0.487-4.171-0.945l-1.893-0.86c-0.459-0.229-0.859-0.445-1.204-0.646
			c-0.344-0.201-0.659-0.444-0.945-0.73c-0.574-0.574-1.062-1.176-1.462-1.806c-0.402-0.632-0.804-1.32-1.204-2.064
			c-1.23-2.58-2.065-5.318-2.508-8.213c-0.443-2.896-0.782-5.805-1.019-8.729c-0.114-1.317-0.172-2.607-0.172-3.869
			c0-1.261,0-2.551,0-3.87c0-4.356,0.162-8.815,0.486-13.373c0.325-4.559,0.725-8.958,1.197-13.201
			C2.383,55.57,3.081,50.166,3.83,44.748c0.747-5.418,1.552-10.478,2.411-15.18c0.917-4.816,1.807-9.316,2.666-13.502
			c0.86-4.184,1.749-8.025,2.666-11.523c0-0.114,0.028-0.243,0.087-0.387c0.056-0.143,0.086-0.272,0.086-0.388
			c0.114-0.286,0.215-0.572,0.301-0.859c0.086-0.286,0.186-0.573,0.301-0.86c0-0.172,0.028-0.286,0.086-0.344
			c0-0.057,0.014-0.086,0.043-0.086c0.028,0,0.1-0.086,0.215-0.259c0-0.056,0.057-0.258,0.172-0.602
			c0.057-0.114,0.143-0.2,0.259-0.258l0.516-0.258c0.172-0.172,0.344-0.229,0.516-0.172c0.172,0.058,0.345,0.144,0.517,0.258
			c0.114,0.115,0.229,0.215,0.344,0.301c0.114,0.086,0.2,0.158,0.258,0.215c0.172,0.344,0.258,0.46,0.258,0.344
			c0.057,0.116,0.086,0.23,0.086,0.345c0.057,0.172,0.087,0.459,0.087,0.859c0,0.86-0.059,1.505-0.173,1.936
			c-0.115,0.43-0.229,0.902-0.344,1.419l-0.258,1.118l-1.548,5.59c0,0.115-0.029,0.229-0.086,0.344
			c-0.058,0.115-0.086,0.229-0.086,0.344c-0.46,1.492-0.875,2.566-1.247,3.226c-0.374,0.659-0.675,1.074-0.903,1.247
			c-0.46,2.007-0.847,4.042-1.161,6.105c-0.315,2.065-0.675,4.186-1.075,6.364c-0.859,4.815-1.663,9.833-2.407,15.05
			C5.668,50.353,4.979,55.742,4.35,61.303c-0.46,4.128-0.804,8.286-1.032,12.47c-0.229,4.187-0.344,8.343-0.344,12.471
			c0,2.981,0.086,5.963,0.258,8.943c0.172,2.637,0.474,5.317,0.903,8.041c0.43,2.723,1.218,5.289,2.365,7.697
			c0.516,1.204,1.217,2.179,2.106,2.924c0.889,0.745,1.893,1.318,3.01,1.72c1.118,0.401,2.293,0.659,3.526,0.774
			c1.233,0.114,2.451,0.172,3.655,0.172c2.522,0,4.988-0.172,7.396-0.516c2.408-0.344,4.759-0.774,7.053-1.29
			c2.178-0.517,4.313-1.075,6.406-1.677c2.093-0.603,4.142-1.219,6.149-1.85c3.898-1.204,7.366-2.395,10.406-3.568
			c3.038-1.176,5.646-2.223,7.825-3.14c1.089-0.459,2.05-0.832,2.882-1.118c0.83-0.287,1.533-0.573,2.106-0.859
			C69.652,102.267,70.226,102.009,70.741,101.723z"/>
		<path fill="#818285" stroke="#818285" stroke-width="0.1" stroke-miterlimit="10" d="M55.089,82.459
			c0.286-0.229,0.517-0.357,0.688-0.387c0.172-0.028,0.314-0.043,0.43-0.043c0.172,0.058,0.286,0.115,0.344,0.172v-0.172
			c0.057,0.058,0.086,0.172,0.086,0.344c0,0.401-0.258,0.773-0.774,1.118c-0.116,0.115-0.258,0.229-0.431,0.344
			c-0.115,0.115-0.287,0.229-0.516,0.344c-0.229,0.115-0.487,0.258-0.774,0.43c-0.632,0.345-1.392,0.718-2.279,1.118
			c-0.89,0.402-1.907,0.718-3.053,0.946c-1.263,0.287-2.58,0.258-3.956-0.086c-0.746-0.114-1.462-0.443-2.15-0.989
			c-0.688-0.544-1.262-1.161-1.72-1.849c-0.46-0.631-0.817-1.304-1.075-2.021c-0.258-0.716-0.445-1.447-0.56-2.192l-0.172-0.603
			l-0.086-0.086l-0.688,1.376l-1.807,3.354c-0.573,1.147-1.133,2.294-1.677,3.439c-0.545,1.147-1.075,2.122-1.591,2.924
			c-0.516,0.804-1.09,1.563-1.72,2.279c-0.632,0.718-1.462,1.391-2.494,2.021c-0.517,0.287-1.118,0.444-1.806,0.473
			c-0.688,0.029-1.29-0.1-1.807-0.387v0.086c-0.63-0.286-1.131-0.674-1.505-1.161c-0.372-0.486-0.645-0.96-0.817-1.419
			c-0.458-2.121-0.387-4.113,0.216-5.978c0.602-1.862,1.505-3.482,2.709-4.858c1.204-1.376,2.593-2.437,4.171-3.183
			c1.576-0.744,3.109-1.002,4.601-0.773c0.517,0.058,0.86,0.244,1.032,0.559c0.172,0.316,0.229,0.646,0.172,0.989
			c-0.058,0.344-0.215,0.645-0.473,0.903c-0.258,0.258-0.589,0.358-0.989,0.301c-1.147-0.057-2.294,0.158-3.44,0.645
			c-1.147,0.488-2.179,1.247-3.096,2.279c-0.976,0.976-1.72,2.266-2.236,3.87c-0.172,0.688-0.301,1.405-0.387,2.15
			c-0.086,0.745-0.043,1.462,0.129,2.149c0.114,0.632,0.431,1.075,0.946,1.333c0.516,0.258,1.032,0.245,1.548-0.043
			c0.63-0.286,1.218-0.774,1.763-1.462c0.545-0.688,1.046-1.404,1.506-2.15c0.802-1.088,1.49-2.149,2.064-3.182
			c0.572-1.032,1.089-2.064,1.548-3.096l1.807-3.44c0-0.057,0.027-0.186,0.086-0.387c0.056-0.2,0.028-0.043-0.086,0.473
			c0.286-0.4,0.544-0.802,0.773-1.204c0.229-0.4,0.517-0.744,0.86-1.031h-0.086c0.286-0.287,0.63-0.4,1.031-0.345
			c0.401,0.058,0.717,0.258,0.946,0.603c0.114,0.115,0.186,0.229,0.215,0.344c0.028,0.115,0.1,0.229,0.216,0.344h0.086
			c0.056,0.058,0.086,0.172,0.086,0.345l0.172,0.859c0.114,0.688,0.271,1.376,0.473,2.064c0.2,0.688,0.501,1.319,0.903,1.892
			c0.344,0.46,0.759,0.89,1.247,1.29c0.486,0.401,0.988,0.689,1.505,0.86c1.318,0.344,2.437,0.401,3.354,0.172
			c0.975-0.172,1.862-0.415,2.666-0.731c0.803-0.314,1.462-0.615,1.978-0.902l-0.172,0.086c0.114-0.114,0.286-0.172,0.516-0.172
			c0.286-0.114,0.516-0.228,0.688-0.345c0.172-0.114,0.314-0.229,0.43-0.344C54.831,82.603,54.974,82.517,55.089,82.459z
			 M39.007,78.675c0,0.058,0.028,0.086,0.086,0.086v-0.172C39.093,78.704,39.063,78.732,39.007,78.675z"/>
		<path fill="#818285" stroke="#818285" stroke-width="0.1" stroke-miterlimit="10" d="M74.095,74.289
			c0.286,0.287,0.43,0.573,0.43,0.859c0,0.173-0.029,0.288-0.086,0.345h-0.43c-0.402,0-0.804-0.172-1.204-0.517
			c0-0.057-0.059-0.114-0.173-0.172c-0.115-0.057-0.344-0.2-0.688-0.43c-0.287-0.172-0.718-0.357-1.29-0.56
			c-0.574-0.2-1.233-0.243-1.978-0.129c-0.688,0.116-1.392,0.474-2.107,1.075c-0.718,0.603-1.391,1.305-2.021,2.107
			c-0.573,0.804-1.104,1.777-1.591,2.924c-0.487,1.147-0.961,2.294-1.419,3.439c-0.918,2.352-1.605,4.874-2.063,7.568
			c-0.116,0.46-0.23,1.09-0.345,1.892c0,0.173-0.015,0.345-0.043,0.517c-0.029,0.172-0.043,0.315-0.043,0.43
			c0,0.172-0.029,0.288-0.086,0.344v0.086c0,0.23-0.086,0.431-0.258,0.603v-0.172c-0.229,0.4-0.487,0.602-0.774,0.602
			c-0.173,0.057-0.402,0-0.688-0.172c-0.287-0.115-0.516-0.4-0.688-0.86c0-0.056-0.016-0.113-0.044-0.172
			c-0.029-0.056-0.043-0.114-0.043-0.172c-0.058-0.057-0.086-0.172-0.086-0.344c0-0.114-0.015-0.186-0.043-0.215
			c-0.029-0.028-0.043-0.1-0.043-0.215c-0.115-0.573-0.187-1.189-0.215-1.85c-0.029-0.658-0.072-1.247-0.129-1.763
			c-0.114-1.834-0.215-3.612-0.301-5.332c-0.086-1.72-0.129-3.354-0.129-4.902c0-0.688,0-1.376,0-2.063
			c0-0.688,0.029-1.347,0.086-1.979c0.058-0.286,0.229-0.501,0.516-0.645c0.286-0.143,0.588-0.2,0.903-0.172
			c0.314,0.029,0.615,0.129,0.903,0.301c0.286,0.172,0.43,0.401,0.43,0.688c-0.058,0.688-0.101,1.492-0.129,2.408
			c-0.03,0.918-0.043,1.778-0.043,2.58c0,0.632,0,1.147,0,1.548c0,0.402,0,0.804,0,1.204c0,0.402,0.013,0.817,0.043,1.247
			c0.028,0.43,0.043,1.018,0.043,1.763c0.228-0.63,0.43-1.246,0.601-1.849c0.172-0.601,0.4-1.161,0.688-1.677
			c0.458-1.146,1.002-2.308,1.634-3.483c0.63-1.174,1.261-2.221,1.892-3.139c0.803-0.975,1.648-1.806,2.537-2.494
			c0.889-0.688,1.819-1.088,2.795-1.204c1.032-0.114,1.906-0.014,2.623,0.301c0.717,0.316,1.304,0.617,1.764,0.903
			c0.516,0.344,0.859,0.603,1.031,0.774C73.95,74.232,74.036,74.289,74.095,74.289z"/>
		<path fill="#818285" stroke="#818285" stroke-width="0.1" stroke-miterlimit="10" d="M102.216,82.029
			c0.057,0.058,0.129,0.172,0.215,0.344c0.086,0.172-0.015,0.487-0.301,0.945l-0.258,0.259c-0.288,0.459-0.546,0.804-0.774,1.031
			v-0.086c-0.344,0.46-0.773,0.946-1.29,1.462c-0.516,0.517-1.147,1.062-1.892,1.635c-0.632,0.459-1.491,0.945-2.58,1.462
			c-1.09,0.516-2.208,0.918-3.353,1.204c-0.517,0.115-1.09,0.201-1.721,0.258c-0.631,0.058-1.262,0.086-1.892,0.086
			c-0.746,0-1.477-0.028-2.193-0.086c-0.718-0.057-1.419-0.172-2.106-0.344c-0.804-0.229-1.649-0.487-2.537-0.774
			c-0.89-0.286-1.735-0.658-2.537-1.118c0.172,2.294,0.344,4.042,0.516,5.246c0.114,0.746,0.2,1.462,0.258,2.15
			c0,0.458-0.144,0.816-0.43,1.075c-0.287,0.258-0.589,0.415-0.902,0.473c-0.316,0.057-0.617-0.015-0.903-0.215
			c-0.288-0.202-0.46-0.531-0.517-0.989c-0.058-0.688-0.144-1.49-0.258-2.408c-0.115-0.802-0.215-1.763-0.301-2.881
			c-0.086-1.118-0.157-2.422-0.215-3.913l-0.258-0.258l0.258,0.086c-0.057,0-0.114-0.028-0.172-0.086
			c-0.057-0.057-0.114-0.086-0.172-0.086c-0.573-0.458-1.118-0.96-1.635-1.505c-0.516-0.545-0.945-1.218-1.29-2.021
			c-0.227-0.572-0.172-1.174,0.173-1.806c0.115-0.286,0.244-0.516,0.387-0.688c0.144-0.172,0.301-0.344,0.473-0.516
			c0.23-0.229,0.488-0.458,0.774-0.688c0.287-0.228,0.659-0.486,1.118-0.773h0.086v-0.086v-2.924c0-2.465,0.029-5.017,0.086-7.654
			c0.058-2.637,0.144-5.36,0.258-8.17c0.172-4.645,0.443-9.331,0.817-14.062c0.372-4.729,0.787-9.072,1.246-13.028
			c0.114-0.975,0.229-1.964,0.345-2.967c0.114-1.003,0.258-1.906,0.43-2.709c0-0.114,0.014-0.201,0.043-0.259
			c0.028-0.056,0.043-0.142,0.043-0.258c0.114-0.802,0.243-1.576,0.387-2.322c0.143-0.744,0.357-1.49,0.646-2.235
			c0-0.114,0.086-0.258,0.258-0.431l0.258-0.258c0.057-0.057,0.172-0.086,0.345-0.086c0.056,0,0.099-0.014,0.129-0.043
			c0.028-0.028,0.099-0.043,0.215-0.043l0.258,0.086l-0.344,0.774c0.057,0.058,0.157,0.201,0.301,0.43
			c0.143,0.229,0.272,0.417,0.387,0.559c0.114,0.145,0.229,0.173,0.344,0.087c0.114-0.087,0.173-0.444,0.173-1.075l-0.086-0.345
			c0.114,0.116,0.172,0.316,0.172,0.603c0.056,0.172,0.086,0.315,0.086,0.43c0,0.116-0.015,0.215-0.043,0.301
			c-0.03,0.087-0.043,0.188-0.043,0.302v0.516c-0.116,0.229-0.172,0.43-0.172,0.603l-0.259,1.203
			c-0.058,0.116-0.086,0.231-0.086,0.345c-0.115,0.229-0.201,0.459-0.258,0.688c-0.058,0.229-0.144,0.488-0.258,0.774
			c-0.115,0.287-0.23,0.573-0.344,0.859h0.086c-0.116,0.46-0.288,0.804-0.517,1.032l-0.258,1.893c0,0.287-0.029,0.601-0.086,0.945
			c-0.058,0.345-0.086,0.66-0.086,0.946c-0.401,3.956-0.746,8.242-1.032,12.857c-0.287,4.615-0.516,9.274-0.688,13.975
			c-0.058,1.663-0.101,3.483-0.129,5.461c-0.03,1.978-0.043,3.741-0.043,5.289c0,1.262,0.013,2.337,0.043,3.225
			c0.028,0.89,0.043,1.907,0.043,3.054c0.63-0.345,1.346-0.717,2.149-1.118c0.803-0.4,1.519-0.745,2.15-1.032
			c1.146-0.458,2.249-0.903,3.311-1.333c1.061-0.43,2.05-0.817,2.968-1.161c0.344-0.114,0.645-0.086,0.902,0.086
			c0.258,0.172,0.443,0.388,0.56,0.646c0.114,0.258,0.129,0.53,0.043,0.816c-0.086,0.288-0.302,0.488-0.646,0.603v-0.086
			l-1.376,0.602c-1.491,0.574-3.125,1.233-4.901,1.979c-1.778,0.745-3.498,1.548-5.16,2.407l0.258,5.591c0,0.287,0,0.516,0,0.688
			c0,0.172,0.028,0.402,0.086,0.688c0.802,0.573,1.677,1.031,2.623,1.376c0.946,0.344,1.877,0.659,2.795,0.945
			c0.744,0.172,1.505,0.302,2.279,0.388c0.773,0.086,1.505,0.129,2.192,0.129c0.4,0,0.86-0.014,1.376-0.043
			c0.517-0.028,1.003-0.1,1.462-0.215c1.032-0.173,2.021-0.459,2.968-0.86c0.945-0.4,1.763-0.86,2.45-1.376
			c0.631-0.458,1.204-0.932,1.721-1.419c0.516-0.486,0.945-0.932,1.29-1.333l0.516-0.603l0.172-0.172
			c0-0.114,0.057-0.229,0.172-0.344l0.086-0.086v0.086c0.4-0.458,0.717-0.688,0.946-0.688c0.114,0,0.229,0.03,0.344,0.087H102.216z
			 M74.954,82.459c0.172,0.746,0.546,1.29,1.118,1.634v-1.548c0-0.4-0.014-0.646-0.043-0.731c-0.028-0.086-0.043-0.357-0.043-0.816
			l-0.603,0.516c-0.114,0.229-0.229,0.417-0.344,0.56C74.926,82.216,74.897,82.345,74.954,82.459z"/>
		<path fill="#818285" stroke="#818285" stroke-width="0.1" stroke-miterlimit="10" d="M160.008,82.287
			c0.345-0.286,0.631-0.372,0.86-0.258c0.114,0.058,0.2,0.144,0.258,0.258v-0.172c0.057,0.115,0.086,0.23,0.086,0.344
			c0,0.229-0.172,0.487-0.516,0.773c-0.229,0.116-0.517,0.288-0.86,0.517c-0.287,0.172-0.687,0.401-1.204,0.688
			c-0.516,0.288-1.147,0.632-1.892,1.032l-0.086,0.086c-0.632,0.288-1.319,0.589-2.064,0.903c-0.745,0.315-1.462,0.589-2.149,0.816
			c-0.46,0.116-0.933,0.216-1.419,0.302c-0.488,0.086-0.989,0.072-1.505-0.043c-0.632-0.114-1.204-0.345-1.721-0.688
			c-0.401-0.286-0.804-0.773-1.204-1.462c-0.287-0.63-0.516-1.189-0.688-1.677c-0.172-0.486-0.316-0.96-0.43-1.419
			c-0.116-0.572-0.245-1.118-0.388-1.634c-0.144-0.517-0.301-0.917-0.473-1.204c-0.172-0.286-0.387-0.56-0.646-0.817
			c-0.258-0.258-0.616-0.415-1.074-0.473c-0.288-0.057-0.617,0-0.989,0.172c-0.374,0.172-0.703,0.373-0.989,0.602
			c-0.688,0.574-1.348,1.247-1.978,2.021c-0.632,0.773-1.176,1.534-1.635,2.278c-0.573,0.86-1.061,1.664-1.462,2.408
			c-0.401,0.746-0.745,1.376-1.031,1.893c-0.689,1.204-1.435,2.695-2.236,4.472l-1.72,3.526h0.086
			c-0.116,0.286-0.245,0.544-0.388,0.773c-0.144,0.229-0.273,0.4-0.387,0.517c-0.23,0.172-0.546,0.258-0.946,0.258
			c-0.287,0-0.573-0.116-0.859-0.345c-0.058-0.058-0.086-0.172-0.086-0.344c0-0.115-0.015-0.187-0.043-0.215
			c-0.03-0.029-0.043-0.101-0.043-0.215l-0.172-0.86l-0.173-1.204v-1.548l-0.086-3.268c0-1.032,0-2.064,0-3.097
			c0-1.031-0.029-2.034-0.086-3.01c-0.058-2.006-0.129-3.87-0.215-5.59c-0.086-1.72-0.358-3.182-0.817-4.386
			c-0.115-0.286-0.215-0.544-0.301-0.774c-0.086-0.229-0.187-0.372-0.301-0.43c-0.115-0.057-0.229-0.028-0.344,0.086
			c-0.23,0.115-0.546,0.374-0.946,0.774l-1.032,1.29l-2.752,3.783l-1.118,1.548c-1.031,1.492-2.265,3.154-3.697,4.988
			c-1.435,1.836-3.068,3.67-4.902,5.504c-0.632,0.517-1.247,1.032-1.849,1.548c-0.603,0.517-1.305,0.918-2.107,1.204
			c-0.918,0.402-1.892,0.445-2.924,0.129c-1.032-0.314-1.836-0.873-2.408-1.677c-0.572-0.859-0.916-1.72-1.032-2.58
			c-0.114-0.859-0.142-1.72-0.086-2.58c0.172-1.834,0.66-3.468,1.462-4.901h-0.086c0.4-0.803,0.86-1.519,1.376-2.15
			c0.517-0.63,1.175-1.175,1.979-1.634h-0.086c0.802-0.572,1.72-0.803,2.752-0.688c0.4,0,0.888,0.145,1.462,0.431l-0.086-0.086
			c0.286,0.058,0.559,0.258,0.816,0.602c0.259,0.344,0.388,0.718,0.388,1.118c0.057,0.632-0.043,1.147-0.302,1.548
			c-0.258,0.401-0.53,0.746-0.816,1.032c-0.46,0.459-1.118,0.89-1.979,1.29c-1.262,0.573-2.466,0.918-3.611,1.032h-0.689
			c-0.287,0.976-0.459,1.835-0.516,2.579c-0.116,0.632-0.144,1.247-0.086,1.85c0.057,0.602,0.229,1.104,0.516,1.505
			c0.344,0.632,0.831,1.09,1.462,1.376c0.631,0.287,1.232,0.315,1.807,0.086c0.688-0.286,1.333-0.644,1.935-1.075
			c0.602-0.43,1.132-0.873,1.591-1.333c1.662-1.604,3.195-3.238,4.602-4.901c1.404-1.662,2.679-3.211,3.826-4.645
			c0.173-0.286,0.373-0.615,0.603-0.989c0.229-0.372,0.486-0.701,0.774-0.988c0.458-0.631,0.988-1.333,1.591-2.107
			c0.602-0.773,1.131-1.447,1.591-2.021l0.172-0.259l0.602-0.688c0-0.057,0.057-0.143,0.173-0.258
			c0.056-0.114,0.142-0.2,0.258-0.258c0.114-0.057,0.229-0.143,0.344-0.259h-0.086c0.172-0.172,0.387-0.357,0.645-0.559
			c0.259-0.2,0.502-0.243,0.731-0.129c0.63,0.401,1.089,0.773,1.376,1.118c0.286,0.344,0.486,0.659,0.602,0.945
			c0.459,1.262,0.788,2.811,0.989,4.645c0.2,1.835,0.357,3.784,0.474,5.848l0.258,6.192l0.172,3.182v0.43l0.774-1.634l0.946-1.72
			c0.286-0.516,0.517-1.018,0.688-1.505c0.172-0.486,0.4-0.96,0.687-1.419v0.086c0.4-0.803,0.817-1.576,1.247-2.322
			c0.43-0.744,0.873-1.462,1.333-2.149c0.572-0.803,1.175-1.62,1.806-2.451c0.631-0.831,1.404-1.591,2.322-2.279
			c0.458-0.344,1.003-0.645,1.634-0.903c0.631-0.258,1.29-0.329,1.979-0.215c0.744,0.116,1.39,0.43,1.935,0.946
			c0.545,0.516,0.932,1.062,1.161,1.634c0.229,0.46,0.415,0.961,0.56,1.505c0.142,0.546,0.271,1.104,0.387,1.677
			c0.114,0.574,0.243,1.09,0.387,1.549c0.143,0.459,0.271,0.831,0.387,1.117c0.345,0.804,0.917,1.247,1.721,1.333
			c0.802,0.087,1.604,0.016,2.408-0.215c0.744-0.114,1.432-0.301,2.063-0.559c0.63-0.258,1.204-0.529,1.72-0.817l0.517-0.172
			c0.572-0.286,1.088-0.544,1.548-0.773c0.458-0.228,0.83-0.431,1.118-0.603C159.492,82.574,159.778,82.402,160.008,82.287z
			 M106.517,78.933c-0.804,0.344-1.463,1.062-1.979,2.15c0.63-0.057,1.376-0.286,2.236-0.688c0.4-0.172,0.859-0.486,1.376-0.945
			h-0.086l0.602-0.603l0.086-0.086c-0.058,0-0.143-0.014-0.258-0.043c-0.115-0.028-0.258-0.043-0.43-0.043
			c-0.23-0.057-0.474-0.057-0.731,0C107.075,78.732,106.803,78.818,106.517,78.933z"/>
		<path fill="#818285" stroke="#818285" stroke-width="0.1" stroke-miterlimit="10" d="M281.954,81.427
			c2.006,0.058,3.238,0.172,3.698,0.344c0.286,0.116,0.458,0.23,0.516,0.345c-0.058,0.115-0.229,0.23-0.516,0.344
			c-0.288,0.115-0.718,0.215-1.29,0.301c-0.574,0.086-1.376,0.129-2.408,0.129c-1.09,0-2.681,0.086-4.773,0.258
			c-2.094,0.172-4.344,0.374-6.751,0.603c-0.116,0.976-0.288,1.921-0.517,2.838c-0.23,0.918-0.487,1.863-0.773,2.838
			c-0.746,2.638-1.778,5.446-3.097,8.428c-1.319,2.98-2.81,5.763-4.472,8.343c-3.44,5.216-7.712,10.219-12.814,15.007
			c-5.104,4.786-10.577,8.929-16.426,12.427c-3.039,1.72-6.222,3.382-9.546,4.988c-3.326,1.604-6.622,2.924-9.89,3.956
			c-2.924,0.974-5.949,1.806-9.073,2.493c-3.126,0.688-6.321,1.032-9.589,1.032c-0.46,0-0.946,0-1.462,0
			c-0.517,0-1.004-0.029-1.462-0.086c-0.976-0.115-1.936-0.258-2.881-0.43c-0.946-0.172-1.879-0.488-2.796-0.946
			c-0.459-0.287-0.902-0.573-1.333-0.86c-0.43-0.287-0.816-0.602-1.16-0.945c-0.402-0.402-0.732-0.847-0.989-1.333
			c-0.258-0.488-0.473-0.961-0.645-1.419c-0.115-0.23-0.215-0.503-0.301-0.817c-0.086-0.315-0.187-0.675-0.301-1.075l-0.172-1.031
			c0-0.116-0.015-0.216-0.043-0.302c-0.03-0.086-0.043-0.186-0.043-0.301c-0.058-0.287-0.101-0.645-0.129-1.075
			c-0.03-0.43-0.015-0.816,0.043-1.161c0-0.23,0.028-0.487,0.086-0.773c0.057-0.288,0.086-0.517,0.086-0.688l0.258-1.376
			c0.057-0.401,0.129-0.788,0.215-1.161c0.086-0.373,0.186-0.702,0.301-0.988c0-0.116,0.028-0.202,0.086-0.258
			c0.057-0.059,0.087-0.145,0.087-0.259c0.572-1.605,1.346-3.225,2.321-4.858c0.975-1.634,1.948-3.169,2.924-4.602
			c0.975-1.319,2.078-2.666,3.311-4.042c1.232-1.376,2.48-2.638,3.741-3.784c2.178-1.949,4.429-3.771,6.751-5.461
			c2.321-1.691,4.629-3.282,6.923-4.772c0-0.976-0.015-1.965-0.043-2.967c-0.029-1.004-0.043-2.079-0.043-3.226
			c0-2.292,0.028-4.715,0.086-7.267c0.057-2.551,0.142-5.117,0.258-7.697c0.172-4.472,0.443-8.972,0.817-13.502
			c0.372-4.528,0.845-8.686,1.419-12.47l1.031-5.332l0.345-1.118c0.057-0.172,0.1-0.358,0.129-0.559
			c0.028-0.2,0.1-0.416,0.215-0.646c0-0.057,0.014-0.114,0.043-0.172c0.028-0.057,0.043-0.114,0.043-0.172
			c0.057-0.229,0.143-0.415,0.258-0.56c0.114-0.142,0.229-0.329,0.344-0.559l-0.086,0.172c0.114-0.114,0.173-0.2,0.173-0.258
			c0-0.172,0.027-0.286,0.086-0.344l0.086-0.086c-0.058,0,0.086-0.057,0.43-0.173v0.087c0.229-0.114,0.516-0.173,0.86-0.173
			l0.688,0.345l0.689,1.204c0.114,0.344,0.157,0.645,0.129,0.902c-0.03,0.258-0.043,0.503-0.043,0.731v0.516l-0.258,1.807
			l-0.259,1.289c0,0.173-0.029,0.388-0.086,0.646c-0.058,0.258-0.086,0.444-0.086,0.559c-0.229,0.86-0.573,1.435-1.032,1.721
			c-0.23,0.172-0.487,0.258-0.773,0.258c-0.058,0-0.144-0.057-0.258-0.172c-0.058,0.115-0.086,0.287-0.086,0.516
			c-0.574,3.784-1.032,7.884-1.376,12.298c-0.345,4.416-0.574,8.858-0.688,13.33c-0.058,1.376-0.086,2.738-0.086,4.085
			c0,1.348,0,2.681,0,3.999c0,2.122,0.014,4.071,0.043,5.849c0.028,1.776,0.071,3.554,0.129,5.332
			c2.924-1.664,5.719-3.126,8.385-4.387c2.666-1.26,5.26-2.378,7.783-3.354c5.389-2.007,10.678-3.655,15.867-4.945
			c5.189-1.29,10.019-2.308,14.491-3.053c1.662-0.344,3.367-0.631,5.117-0.86c1.748-0.229,3.367-0.4,4.858-0.516
			c0.286-1.548,0.486-3.124,0.603-4.73c0.114-1.604,0.142-3.152,0.086-4.644v-0.344c0-0.057-0.015-0.114-0.043-0.173
			c-0.03-0.056-0.043-0.142-0.043-0.258v-1.29c0-0.802-0.086-2.034-0.259-3.697c-0.172-1.549-0.487-3.397-0.945-5.548
			c-0.46-2.149-1.29-4.515-2.494-7.095c-1.147-2.464-2.752-4.958-4.816-7.481c-2.064-2.522-4.443-4.787-7.138-6.795
			c-2.867-2.006-6.05-3.754-9.546-5.245c-3.498-1.49-7.168-2.58-11.008-3.268c-3.612-0.688-7.254-1.032-10.922-1.032
			c-2.008,0-4.058,0.102-6.149,0.302c-2.094,0.201-4.143,0.473-6.149,0.816c-3.783,0.804-7.41,1.821-10.879,3.053
			c-3.47,1.234-6.608,2.682-9.417,4.344c-2.924,1.605-5.547,3.311-7.869,5.117c-2.321,1.806-4.357,3.555-6.105,5.245
			c-1.75,1.692-3.212,3.255-4.386,4.688c-1.176,1.434-2.107,2.58-2.795,3.44c-0.574,0.804-1.047,1.363-1.419,1.678
			c-0.374,0.315-0.703,0.53-0.989,0.644c-0.288,0.116-0.546,0.116-0.774,0c-0.115-0.229-0.144-0.516-0.086-0.859
			c0.057-0.287,0.186-0.659,0.387-1.118c0.2-0.458,0.56-1.061,1.075-1.807l0.774-1.204l0.258-0.43v0.086l1.72-1.892l0.86-1.032
			l1.118-1.29l2.408-2.58c1.834-1.662,3.999-3.453,6.492-5.375c2.494-1.92,5.203-3.741,8.127-5.461
			c2.98-1.662,6.278-3.21,9.891-4.644c3.611-1.433,7.31-2.522,11.094-3.269c2.179-0.344,4.343-0.63,6.493-0.859
			c2.149-0.229,4.399-0.345,6.751-0.345c3.668,0,7.338,0.316,11.008,0.946c4.013,0.688,7.883,1.806,11.61,3.354
			c3.726,1.548,7.138,3.411,10.233,5.59c3.038,2.235,5.661,4.673,7.869,7.31c2.207,2.638,3.913,5.332,5.117,8.084h-0.086
			c1.376,2.752,2.335,5.275,2.881,7.568c0.544,2.294,0.932,4.271,1.161,5.934c0.114,0.918,0.186,1.85,0.215,2.795
			c0.028,0.946,0.043,1.649,0.043,2.107c0.057,0.172,0.086,0.387,0.086,0.645c0,0.259,0,0.503,0,0.731
			c0,1.434-0.043,2.91-0.129,4.429c-0.086,1.52-0.244,3.025-0.473,4.516h0.172c2.064-0.173,4.099-0.314,6.105-0.431
			C278.973,81.484,280.635,81.427,281.954,81.427z M258.992,104.389c2.064-3.268,3.755-6.637,5.074-10.104
			c1.318-3.469,2.292-6.865,2.924-10.191c-1.434,0.172-2.939,0.374-4.515,0.603c-1.578,0.229-3.197,0.459-4.859,0.688
			c-4.3,0.804-9.002,1.864-14.103,3.182c-5.105,1.32-10.378,3.04-15.824,5.16c-2.81,1.204-5.648,2.479-8.515,3.827
			c-2.867,1.347-5.676,2.851-8.428,4.515c0.114,1.949,0.186,3.684,0.215,5.203c0.028,1.519,0.1,2.852,0.215,3.999
			c0.057,1.318,0.143,2.465,0.259,3.44c0,0.458-0.172,0.816-0.517,1.075c-0.344,0.258-0.702,0.4-1.075,0.43
			c-0.373,0.028-0.73-0.072-1.074-0.301c-0.345-0.23-0.546-0.574-0.602-1.032c-0.058-0.804-0.115-1.75-0.172-2.838
			c-0.115-1.95-0.201-4.645-0.258-8.084c-2.064,1.318-4.143,2.78-6.235,4.386c-2.094,1.604-4.085,3.269-5.977,4.988
			c-1.09,1.032-2.223,2.221-3.398,3.568c-1.176,1.347-2.251,2.651-3.225,3.913c-0.976,1.204-1.879,2.594-2.709,4.171
			c-0.832,1.577-1.505,3.14-2.021,4.688c-0.631,1.892-0.945,3.698-0.945,5.418c0,0.63,0.043,1.275,0.129,1.935
			c0.086,0.659,0.271,1.275,0.559,1.85c0.229,0.802,0.603,1.462,1.118,1.977c0.516,0.517,1.118,0.946,1.806,1.29
			c0.688,0.345,1.433,0.603,2.236,0.774c0.802,0.172,1.605,0.286,2.408,0.344c3.324,0.229,6.736-0.015,10.233-0.73
			c3.497-0.718,6.881-1.621,10.148-2.709c3.44-1.148,6.708-2.451,9.804-3.913c3.097-1.462,6.107-3.083,9.03-4.859
			c5.904-3.556,11.279-7.583,16.125-12.083C251.667,114.464,255.725,109.605,258.992,104.389z"/>
		<path fill="#818285" stroke="#818285" stroke-width="0.1" stroke-miterlimit="10" d="M307.324,85.812
			c-0.746,0.86-1.707,1.764-2.881,2.709c-1.176,0.946-2.509,1.793-3.999,2.537c-0.804,0.345-1.649,0.632-2.537,0.86
			c-0.89,0.229-1.85,0.258-2.881,0.086c-1.148-0.286-2.079-0.83-2.795-1.634c-0.718-0.803-1.22-1.604-1.506-2.408
			c-0.344-0.975-0.572-1.935-0.688-2.881c-0.114-0.946-0.172-1.85-0.172-2.709c0-0.572,0.015-1.146,0.043-1.72
			c0.029-0.573,0.072-1.089,0.129-1.549v-0.516c0-0.172,0.129-0.301,0.387-0.387c0.258-0.086,0.529-0.114,0.817-0.086
			c0.286,0.029,0.544,0.101,0.773,0.215c0.228,0.115,0.345,0.287,0.345,0.516c-0.059,0.517-0.116,1.09-0.173,1.72
			c-0.058,0.632-0.086,1.29-0.086,1.979c0,0.688,0.043,1.434,0.13,2.236c0.086,0.803,0.27,1.605,0.559,2.407
			c0.172,0.632,0.486,1.219,0.946,1.764c0.458,0.545,1.002,0.902,1.634,1.074c0.688,0.23,1.419,0.259,2.192,0.087
			c0.774-0.173,1.506-0.401,2.193-0.688c1.433-0.63,2.709-1.361,3.827-2.193c1.118-0.83,2.049-1.619,2.795-2.364
			c0.4-0.4,0.744-0.76,1.032-1.075c0.286-0.314,0.516-0.587,0.688-0.817c0.228-0.229,0.4-0.43,0.517-0.602
			c0.228-0.286,0.458-0.431,0.688-0.431c0.114,0,0.2,0.03,0.258,0.087c0.057,0.172,0.086,0.315,0.086,0.43
			c0,0.287-0.029,0.487-0.086,0.602c-0.115,0.116-0.358,0.445-0.73,0.989C308.455,84.596,307.954,85.183,307.324,85.812z
			 M291.328,75.665c-0.46-0.114-0.718-0.431-0.774-0.946c-0.058-0.516-0.029-0.975,0.086-1.376c0.114-0.4,0.357-0.701,0.732-0.903
			c0.372-0.2,0.759-0.243,1.161-0.129c0.4,0.172,0.559,0.531,0.473,1.075c-0.086,0.546-0.186,0.961-0.301,1.247l0.086-0.086
			c-0.115,0.46-0.272,0.804-0.473,1.032C292.115,75.809,291.786,75.837,291.328,75.665z"/>
		<path fill="#818285" stroke="#818285" stroke-width="0.1" stroke-miterlimit="10" d="M346.453,82.717
			c0.745-0.4,1.29-0.602,1.634-0.602c0.229,0,0.373,0.029,0.431,0.086c0,0.172-0.058,0.344-0.172,0.516
			c-0.116,0.115-0.259,0.273-0.431,0.473c-0.172,0.202-0.43,0.388-0.773,0.56c-0.058,0-0.288,0.129-0.689,0.387
			c-0.401,0.258-1.147,0.703-2.235,1.333h0.086c-0.976,0.574-2.266,1.262-3.87,2.064c-1.607,0.803-3.298,1.634-5.074,2.493
			l-1.204,0.603l-1.376,0.516c-0.058,0.402-0.072,0.789-0.043,1.161c0.028,0.374,0.043,0.731,0.043,1.075
			c0.975,0.46,1.862,1.032,2.666,1.72c0.803,0.688,1.605,1.433,2.408,2.236c2.006,2.292,3.525,4.93,4.558,7.912
			c1.032,2.98,1.69,6.048,1.978,9.202c0.057,0.458,0.086,0.931,0.086,1.419c0,0.486,0,0.959,0,1.419
			c0,1.146-0.043,2.249-0.129,3.311c-0.086,1.061-0.273,2.136-0.56,3.226c-0.287,0.744-0.616,1.533-0.988,2.364
			c-0.374,0.831-0.961,1.533-1.764,2.107c-0.516,0.286-1.004,0.501-1.462,0.645c-0.459,0.143-1.004,0.186-1.634,0.13
			c-1.032-0.173-1.892-0.632-2.58-1.376c-0.574-0.632-1.047-1.32-1.419-2.064c-0.374-0.746-0.703-1.491-0.989-2.236
			c-0.229-0.688-0.444-1.405-0.645-2.149c-0.202-0.746-0.359-1.462-0.474-2.15c-0.287-1.491-0.516-2.924-0.688-4.3
			c-0.172-1.376-0.315-2.752-0.43-4.128c-0.116-0.918-0.188-1.807-0.216-2.666c-0.029-0.86-0.072-1.692-0.129-2.494
			c0-0.058-0.015-0.1-0.043-0.129c-0.029-0.029-0.043-0.072-0.043-0.129v-0.344c-0.058-1.492-0.101-3.169-0.129-5.031
			c-0.029-1.864-0.043-3.685-0.043-5.461l-0.258-0.172l0.086,0.086c-1.319-0.345-2.552-0.517-3.698-0.517
			c-0.287,0-0.588,0.015-0.902,0.043c-0.316,0.03-0.617,0.073-0.903,0.129h-1.204c-0.115,0-0.244-0.013-0.387-0.043
			c-0.145-0.028-0.331-0.129-0.56-0.301h0.086c-0.172-0.114-0.301-0.329-0.387-0.645c-0.086-0.314-0.072-0.502,0.043-0.56v0.086
			c0.114-0.172,0.344-0.344,0.688-0.516c0.056,0,0.099-0.014,0.129-0.043c0.028-0.028,0.071-0.043,0.129-0.043
			c1.26-0.172,2.507-0.4,3.741-0.688c1.231-0.286,2.392-0.602,3.482-0.945c0.057-2.925,0.157-5.904,0.301-8.944
			c0.142-3.038,0.33-6.134,0.559-9.288l-1.634,3.096c-0.288,0.517-0.603,1.032-0.946,1.549c-0.344,0.516-0.718,1.061-1.118,1.634
			c-1.319,1.949-2.924,3.899-4.816,5.848c-1.892,1.95-4.071,3.842-6.535,5.676c-0.059,1.147-0.086,2.251-0.086,3.312
			c0,1.062,0,2.135,0,3.225c1.146,0.631,2.221,1.376,3.225,2.236c1.002,0.86,1.877,1.806,2.623,2.838
			c1.318,1.662,2.437,3.44,3.354,5.332c0.917,1.892,1.662,3.841,2.236,5.848v-0.086c1.261,3.956,1.948,8.112,2.064,12.471
			c0.056,0.974,0.056,2.006,0,3.096c-0.059,1.088-0.202,2.178-0.431,3.268c0,0.057-0.015,0.114-0.043,0.172
			c-0.029,0.057-0.043,0.114-0.043,0.173c-0.287,0.916-0.645,1.892-1.075,2.924c-0.43,1.031-1.219,1.92-2.364,2.666
			c-0.632,0.286-1.277,0.486-1.936,0.602c-0.659,0.114-1.305,0.028-1.935-0.258c-0.632-0.229-1.176-0.574-1.634-1.032
			c-0.46-0.459-0.86-0.918-1.204-1.376c-0.632-0.859-1.147-1.777-1.549-2.752c-0.401-0.975-0.745-1.922-1.031-2.838
			c-0.574-1.836-1.004-3.698-1.29-5.59c-0.288-1.893-0.546-3.756-0.774-5.59c-0.115-1.435-0.215-2.838-0.301-4.214
			c-0.086-1.376-0.186-2.725-0.301-4.042c-0.057-0.173-0.086-0.402-0.086-0.688c-0.057-0.918-0.086-2.008-0.086-3.267
			c-0.057-1.032-0.086-2.309-0.086-3.827c0-1.521,0-3.226,0-5.117c-0.4-0.172-0.774-0.288-1.118-0.344
			c-0.345-0.059-0.689-0.145-1.032-0.259c-0.86-0.115-1.748-0.144-2.666-0.086c-0.916,0.057-1.806,0.173-2.666,0.345l-1.376,0.344
			c-0.114,0-0.215,0.028-0.301,0.086c-0.086,0.057-0.186,0.114-0.301,0.172c-0.287,0.114-0.631,0.143-1.032,0.086
			c-0.114,0-0.229-0.029-0.345-0.086c-0.286-0.115-0.516-0.315-0.688-0.602c-0.057-0.059-0.086-0.145-0.086-0.259
			c0-0.115,0-0.229,0-0.344c0-0.172,0.029-0.287,0.086-0.344c0.115-0.115,0.158-0.201,0.129-0.258
			c-0.028-0.058,0.158-0.144,0.559-0.258l0.431-0.173l-0.344,0.087l0.43-0.259l1.376-0.602c1.663-0.803,3.239-1.604,4.729-2.408
			c1.492-0.802,2.925-1.691,4.301-2.666c0.058-2.694,0.144-5.475,0.258-8.342c0.115-2.866,0.314-5.848,0.602-8.944
			c0.345-4.758,0.803-9.589,1.376-14.491c0.572-4.901,1.204-9.33,1.892-13.286c0.4-2.007,0.787-3.884,1.161-5.634
			c0.372-1.748,0.787-3.339,1.246-4.772l0.345-0.688c0-0.056,0.028-0.143,0.086-0.258c0.057-0.114,0.086-0.2,0.086-0.258
			l0.602-1.204c0.114-0.114,0.286-0.172,0.517-0.172c-0.058,0,0.056-0.086,0.344-0.258c0,0.058,0.028,0.086,0.086,0.086
			c0.057,0,0.1,0.015,0.129,0.043c0.028,0.029,0.1,0.043,0.215,0.043l-0.516,0.43c0,0.115,0.172,0.316,0.516,0.602
			c0.345,0.287,0.572,0.373,0.688,0.258v-0.517c0.114,0.23,0.172,0.431,0.172,0.603l-0.086-0.172
			c0.114,0.229,0.172,0.459,0.172,0.688c0,0.116-0.015,0.202-0.043,0.258c-0.029,0.059-0.043,0.116-0.043,0.173v0.602l-0.516,2.494
			c0,0.058-0.016,0.101-0.044,0.129c-0.029,0.029-0.043,0.072-0.043,0.129c-0.401,1.147-0.773,1.806-1.117,1.979
			c-0.23,0.115-0.431,0.144-0.603,0.086c-0.229,0.917-0.43,1.835-0.602,2.752c-0.172,0.917-0.345,1.892-0.517,2.924
			c-0.344,1.949-0.674,4.057-0.988,6.321c-0.316,2.265-0.603,4.587-0.86,6.966c-0.258,2.38-0.488,4.787-0.689,7.224
			c-0.201,2.438-0.387,4.773-0.559,7.009c-0.172,2.752-0.301,5.375-0.387,7.869c-0.086,2.494-0.159,4.975-0.215,7.439
			c2.178-1.662,4.098-3.368,5.762-5.117c1.662-1.748,3.152-3.453,4.472-5.117l1.893-3.01l1.548-2.752h-0.086
			c0.114-0.286,0.228-0.544,0.344-0.774c0.114-0.229,0.228-0.486,0.344-0.773c0.286-0.631,0.529-1.247,0.732-1.85
			c0.2-0.602,0.357-1.045,0.473-1.333c0.057-0.114,0.086-0.344,0.086-0.688c0.286-2.58,0.615-5.131,0.989-7.654
			c0.372-2.522,0.787-5.017,1.247-7.482c0.228-1.146,0.458-2.264,0.688-3.354c0.228-1.089,0.486-2.179,0.774-3.268
			c0-0.114,0.014-0.216,0.043-0.302c0.028-0.086,0.043-0.186,0.043-0.301c0.114-0.344,0.229-0.688,0.344-1.032
			c0.114-0.344,0.314-0.802,0.603-1.376c0-0.229,0.086-0.43,0.258-0.602c0.172-0.286,0.4-0.486,0.687-0.603
			c0.459-0.172,0.803-0.056,1.032,0.345c0.114,0.172,0.2,0.373,0.258,0.601c0,0.115-0.015,0.215-0.043,0.301
			c-0.029,0.086-0.043,0.188-0.043,0.302v0.516c-0.058,0.172-0.086,0.344-0.086,0.516c0,0.116-0.015,0.259-0.043,0.431
			c-0.029,0.172-0.043,0.315-0.043,0.43c-0.23,1.376-0.459,2.666-0.688,3.87c-0.23,1.204-0.488,2.38-0.774,3.525
			c-0.115,0.46-0.229,0.961-0.344,1.506c-0.116,0.545-0.229,1.074-0.344,1.591l-0.517,2.149l-1.204,5.418
			c-0.459,4.53-0.816,9.217-1.075,14.062c-0.258,4.846-0.416,9.331-0.473,13.459l0.602-0.172h-0.086
			c0.286-0.114,0.645-0.258,1.074-0.431c0.431-0.172,0.788-0.314,1.075-0.43c2.065-0.86,3.727-1.604,4.988-2.236
			c1.261-0.63,2.292-1.174,3.096-1.634c0.344-0.172,0.674-0.357,0.989-0.559c0.314-0.2,0.615-0.387,0.903-0.56
			c0.286-0.228,0.572-0.4,0.859-0.516H346.453z M311.451,94.671c0.574,0.114,1.176,0.258,1.807,0.43
			c0-0.572-0.014-1.103-0.043-1.591c-0.028-0.486-0.014-1.045,0.043-1.677c-0.688,0.459-1.404,0.89-2.15,1.29
			c-0.744,0.401-1.634,0.89-2.666,1.462C309.531,94.471,310.535,94.499,311.451,94.671z M320.138,102.669
			c-0.632-0.746-1.277-1.462-1.936-2.15c-0.659-0.688-1.362-1.29-2.106-1.806v0.172c0,2.809,0.043,5.848,0.129,9.116
			c0.086,3.268,0.301,6.679,0.645,10.233c0.172,1.721,0.415,3.497,0.731,5.332c0.314,1.835,0.701,3.612,1.161,5.332
			c0.286,0.86,0.587,1.721,0.902,2.58c0.314,0.86,0.702,1.604,1.161,2.236c0.458,0.688,1.003,1.189,1.634,1.505
			c0.631,0.314,1.261,0.271,1.893-0.129h-0.086c0.63-0.401,1.118-0.989,1.462-1.763c0.344-0.774,0.602-1.591,0.773-2.451
			c0.229-0.976,0.373-1.95,0.431-2.924c0.057-0.976,0.086-1.95,0.086-2.924c-0.058-1.95-0.23-3.913-0.517-5.892
			c-0.287-1.978-0.745-3.942-1.376-5.891c-0.573-1.836-1.262-3.67-2.064-5.504C322.258,105.907,321.283,104.217,320.138,102.669z
			 M330.113,92.263c-0.058,0-0.1,0.015-0.129,0.043c-0.029,0.029-0.072,0.043-0.129,0.043c0.057,0.058,0.143,0.086,0.258,0.086
			V92.263z M332.865,95.445v-0.517l-0.602,0.344l0.602,0.345V95.445z M336.306,98.627c-0.517-0.632-1.062-1.19-1.635-1.677
			c-0.573-0.488-1.176-0.933-1.806-1.333c0,0.114,0.014,0.215,0.043,0.301c0.028,0.086,0.043,0.186,0.043,0.301v2.924
			c0,1.662,0.028,3.483,0.086,5.461c0.057,1.979,0.172,3.97,0.345,5.978c0.113,1.204,0.258,2.479,0.43,3.827
			c0.172,1.346,0.4,2.709,0.688,4.085c0.286,1.318,0.603,2.666,0.946,4.042c0.458,1.432,1.061,2.55,1.806,3.354
			c0.745,0.803,1.549,0.917,2.408,0.344c0.344-0.287,0.658-0.717,0.946-1.29c0.286-0.573,0.544-1.147,0.773-1.72
			c0.287-0.976,0.487-1.965,0.603-2.967c0.114-1.004,0.172-1.993,0.172-2.967c0-0.46,0-0.918,0-1.376
			c0-0.46-0.029-0.918-0.086-1.376c-0.287-2.924-0.86-5.777-1.72-8.558C339.487,103.198,338.14,100.747,336.306,98.627z
			 M336.22,44.963l-0.517,2.924c-0.344,2.18-0.688,4.157-1.032,5.935l-0.258,1.117l0.86,0.172l0.258-2.063l0.258-1.548
			c0.172-1.146,0.357-2.236,0.56-3.269c0.2-1.031,0.443-2.063,0.73-3.096L336.22,44.963z"/>
		<path fill="#818285" stroke="#818285" stroke-width="0.1" stroke-miterlimit="10" d="M369.932,82.201
			c-0.059,0.115-0.116,0.287-0.172,0.516c-0.059,0.229-0.202,0.43-0.431,0.602c-0.115,0-0.459,0.316-1.032,0.946l-1.031,0.86
			c-0.288,0.287-0.603,0.589-0.946,0.903c-0.344,0.316-0.746,0.616-1.204,0.902c-0.632,0.517-1.362,1.062-2.193,1.634
			c-0.831,0.574-1.792,1.176-2.881,1.807c-1.031,0.631-2.164,1.161-3.396,1.591c-1.233,0.43-2.537,0.703-3.913,0.817
			c-0.402,0-0.774,0-1.118,0c-0.344,0-0.688-0.057-1.032-0.173c-0.229,0-0.602-0.114-1.118-0.344l-1.376-0.773
			c-0.516-0.517-0.888-1.147-1.117-1.893c-0.229-0.744-0.4-1.49-0.517-2.236c-0.057-0.859-0.028-1.662,0.086-2.407
			c0.116-0.745,0.288-1.433,0.517-2.064c0.344-1.548,1.031-2.866,2.063-3.956c0.458-0.63,1.032-1.189,1.72-1.677
			c0.688-0.486,1.463-0.759,2.322-0.817h-0.086c0.172-0.056,0.387-0.071,0.646-0.043c0.258,0.03,0.473,0.073,0.645,0.129
			c0.114,0,0.2,0.016,0.258,0.043c0.057,0.03,0.143,0.043,0.258,0.043l0.689,0.431c0.286,0.172,0.516,0.43,0.688,0.773
			c0.173,0.345,0.259,0.688,0.259,1.032l-0.689,1.462c-0.401,0.574-0.859,1.047-1.376,1.419c-0.516,0.374-1.061,0.675-1.634,0.903
			c-0.516,0.229-1.075,0.401-1.677,0.516c-0.603,0.116-1.133,0.202-1.592,0.259h-0.602c-0.172,0.573-0.315,1.203-0.43,1.892
			c-0.116,0.688-0.145,1.319-0.086,1.892c0.056,0.517,0.172,1.047,0.344,1.592c0.172,0.545,0.458,1.019,0.86,1.419
			c0.4,0.401,0.859,0.645,1.376,0.73c0.516,0.086,1.088,0.159,1.72,0.215c1.204-0.056,2.378-0.286,3.525-0.688
			c1.146-0.4,2.207-0.86,3.183-1.376c0.744-0.458,1.576-0.975,2.494-1.548c0.916-0.573,1.69-1.118,2.321-1.635
			c0.689-0.516,1.304-1.002,1.85-1.462c0.544-0.458,1.017-0.83,1.419-1.118c0.458-0.344,0.744-0.572,0.859-0.688
			c0.114-0.114,0.229-0.2,0.345-0.258c0.4-0.4,0.716-0.544,0.945-0.431C369.787,82.001,369.873,82.087,369.932,82.201z
			 M350.667,80.137c-0.115,0.172-0.215,0.344-0.301,0.517c-0.086,0.172-0.186,0.316-0.301,0.43c0.458-0.057,1.06-0.258,1.806-0.603
			c0.458-0.172,0.889-0.387,1.29-0.645c0.4-0.258,0.744-0.587,1.032-0.989l-0.086-0.172h-0.86
			C352.215,78.675,351.355,79.163,350.667,80.137z M354.279,78.847v-0.086l-0.086,0.086H354.279z"/>
		<path fill="#818285" stroke="#818285" stroke-width="0.1" stroke-miterlimit="10" d="M387.217,74.289
			c0.286,0.287,0.43,0.573,0.43,0.859c0,0.173-0.029,0.288-0.086,0.345h-0.43c-0.402,0-0.804-0.172-1.204-0.517
			c0-0.057-0.059-0.114-0.173-0.172c-0.115-0.057-0.344-0.2-0.687-0.43c-0.287-0.172-0.718-0.357-1.29-0.56
			c-0.574-0.2-1.233-0.243-1.977-0.129c-0.689,0.116-1.392,0.474-2.107,1.075c-0.718,0.603-1.391,1.305-2.022,2.107
			c-0.573,0.804-1.104,1.777-1.591,2.924c-0.487,1.147-0.961,2.294-1.419,3.439c-0.918,2.352-1.605,4.874-2.064,7.568
			c-0.116,0.46-0.23,1.09-0.345,1.892c0,0.173-0.015,0.345-0.043,0.517c-0.029,0.172-0.043,0.315-0.043,0.43
			c0,0.172-0.029,0.288-0.086,0.344v0.086c0,0.23-0.086,0.431-0.258,0.603v-0.172c-0.23,0.4-0.487,0.602-0.773,0.602
			c-0.173,0.057-0.402,0-0.689-0.172c-0.287-0.115-0.516-0.4-0.688-0.86c0-0.056-0.016-0.113-0.044-0.172
			c-0.029-0.056-0.043-0.114-0.043-0.172c-0.058-0.057-0.086-0.172-0.086-0.344c0-0.114-0.015-0.186-0.043-0.215
			c-0.029-0.028-0.043-0.1-0.043-0.215c-0.115-0.573-0.187-1.189-0.215-1.85c-0.029-0.658-0.072-1.247-0.129-1.763
			c-0.114-1.834-0.215-3.612-0.301-5.332c-0.086-1.72-0.129-3.354-0.129-4.902c0-0.688,0-1.376,0-2.063
			c0-0.688,0.029-1.347,0.086-1.979c0.058-0.286,0.229-0.501,0.516-0.645c0.286-0.143,0.588-0.2,0.903-0.172
			c0.314,0.029,0.615,0.129,0.903,0.301c0.286,0.172,0.43,0.401,0.43,0.688c-0.058,0.688-0.101,1.492-0.129,2.408
			c-0.03,0.918-0.043,1.778-0.043,2.58c0,0.632,0,1.147,0,1.548c0,0.402,0,0.804,0,1.204c0,0.402,0.013,0.817,0.043,1.247
			c0.028,0.43,0.043,1.018,0.043,1.763c0.229-0.63,0.43-1.246,0.602-1.849c0.172-0.601,0.4-1.161,0.689-1.677
			c0.458-1.146,1.002-2.308,1.634-3.483c0.63-1.174,1.261-2.221,1.892-3.139c0.803-0.975,1.647-1.806,2.537-2.494
			c0.889-0.688,1.819-1.088,2.795-1.204c1.032-0.114,1.906-0.014,2.623,0.301c0.717,0.316,1.304,0.617,1.764,0.903
			c0.516,0.344,0.859,0.603,1.031,0.774C387.072,74.232,387.158,74.289,387.217,74.289z"/>
		<path fill="#818285" stroke="#818285" stroke-width="0.1" stroke-miterlimit="10" d="M447.76,82.287
			c0.345-0.286,0.631-0.372,0.86-0.258c0.114,0.058,0.2,0.144,0.258,0.258v-0.172c0.057,0.115,0.086,0.23,0.086,0.344
			c0,0.229-0.172,0.487-0.516,0.773c-0.229,0.116-0.517,0.288-0.86,0.517c-0.287,0.172-0.688,0.401-1.204,0.688
			c-0.516,0.288-1.147,0.632-1.892,1.032l-0.086,0.086c-0.632,0.288-1.319,0.589-2.064,0.903c-0.745,0.315-1.462,0.589-2.15,0.816
			c-0.46,0.116-0.933,0.216-1.419,0.302c-0.488,0.086-0.989,0.072-1.505-0.043c-0.632-0.114-1.204-0.345-1.721-0.688
			c-0.401-0.286-0.804-0.773-1.204-1.462c-0.287-0.63-0.516-1.189-0.688-1.677c-0.172-0.486-0.316-0.96-0.43-1.419
			c-0.116-0.572-0.245-1.118-0.388-1.634c-0.143-0.517-0.301-0.917-0.473-1.204c-0.172-0.286-0.387-0.56-0.645-0.817
			c-0.258-0.258-0.616-0.415-1.074-0.473c-0.288-0.057-0.617,0-0.989,0.172c-0.374,0.172-0.703,0.373-0.989,0.602
			c-0.687,0.574-1.348,1.247-1.977,2.021c-0.632,0.773-1.176,1.534-1.635,2.278c-0.573,0.86-1.062,1.664-1.462,2.408
			c-0.401,0.746-0.745,1.376-1.031,1.893c-0.689,1.204-1.435,2.695-2.236,4.472l-1.72,3.526h0.086
			c-0.116,0.286-0.245,0.544-0.388,0.773c-0.144,0.229-0.272,0.4-0.387,0.517c-0.229,0.172-0.546,0.258-0.946,0.258
			c-0.287,0-0.573-0.116-0.859-0.345c-0.058-0.058-0.086-0.172-0.086-0.344c0-0.115-0.015-0.187-0.043-0.215
			c-0.03-0.029-0.043-0.101-0.043-0.215l-0.172-0.86l-0.173-1.204v-1.548l-0.086-3.268c0-1.032,0-2.064,0-3.097
			c0-1.031-0.029-2.034-0.086-3.01c-0.058-2.006-0.129-3.87-0.215-5.59c-0.086-1.72-0.358-3.182-0.817-4.386
			c-0.115-0.286-0.215-0.544-0.301-0.774c-0.086-0.229-0.186-0.372-0.301-0.43c-0.115-0.057-0.229-0.028-0.344,0.086
			c-0.23,0.115-0.546,0.374-0.946,0.774l-1.032,1.29l-2.752,3.783l-1.118,1.548c-1.031,1.492-2.265,3.154-3.697,4.988
			c-1.435,1.836-3.068,3.67-4.902,5.504c-0.632,0.517-1.247,1.032-1.849,1.548c-0.603,0.517-1.305,0.918-2.107,1.204
			c-0.918,0.402-1.892,0.445-2.924,0.129c-1.032-0.314-1.836-0.873-2.408-1.677c-0.572-0.859-0.916-1.72-1.032-2.58
			c-0.114-0.859-0.142-1.72-0.086-2.58c0.172-1.834,0.66-3.468,1.462-4.901h-0.086c0.4-0.803,0.86-1.519,1.376-2.15
			c0.517-0.63,1.175-1.175,1.979-1.634h-0.086c0.802-0.572,1.72-0.803,2.752-0.688c0.4,0,0.888,0.145,1.462,0.431l-0.086-0.086
			c0.286,0.058,0.559,0.258,0.816,0.602c0.259,0.344,0.388,0.718,0.388,1.118c0.057,0.632-0.043,1.147-0.302,1.548
			c-0.258,0.401-0.53,0.746-0.816,1.032c-0.46,0.459-1.118,0.89-1.979,1.29c-1.262,0.573-2.466,0.918-3.611,1.032h-0.689
			c-0.287,0.976-0.459,1.835-0.516,2.579c-0.116,0.632-0.143,1.247-0.086,1.85c0.057,0.602,0.229,1.104,0.516,1.505
			c0.344,0.632,0.831,1.09,1.462,1.376c0.631,0.287,1.232,0.315,1.807,0.086c0.688-0.286,1.333-0.644,1.935-1.075
			c0.602-0.43,1.132-0.873,1.591-1.333c1.662-1.604,3.195-3.238,4.602-4.901c1.404-1.662,2.679-3.211,3.826-4.645
			c0.173-0.286,0.373-0.615,0.603-0.989c0.228-0.372,0.486-0.701,0.774-0.988c0.458-0.631,0.988-1.333,1.591-2.107
			c0.602-0.773,1.131-1.447,1.591-2.021l0.172-0.259l0.602-0.688c0-0.057,0.057-0.143,0.173-0.258
			c0.056-0.114,0.142-0.2,0.258-0.258c0.114-0.057,0.229-0.143,0.344-0.259h-0.086c0.172-0.172,0.387-0.357,0.645-0.559
			c0.259-0.2,0.502-0.243,0.732-0.129c0.63,0.401,1.089,0.773,1.376,1.118c0.286,0.344,0.486,0.659,0.602,0.945
			c0.459,1.262,0.788,2.811,0.989,4.645c0.2,1.835,0.357,3.784,0.474,5.848l0.258,6.192l0.172,3.182v0.43l0.773-1.634l0.946-1.72
			c0.286-0.516,0.517-1.018,0.689-1.505c0.172-0.486,0.4-0.96,0.688-1.419v0.086c0.4-0.803,0.817-1.576,1.247-2.322
			c0.43-0.744,0.873-1.462,1.333-2.149c0.572-0.803,1.175-1.62,1.806-2.451c0.631-0.831,1.404-1.591,2.322-2.279
			c0.458-0.344,1.003-0.645,1.634-0.903c0.631-0.258,1.29-0.329,1.979-0.215c0.744,0.116,1.39,0.43,1.935,0.946
			c0.545,0.516,0.932,1.062,1.161,1.634c0.229,0.46,0.415,0.961,0.56,1.505c0.142,0.546,0.272,1.104,0.387,1.677
			c0.114,0.574,0.243,1.09,0.387,1.549c0.143,0.459,0.272,0.831,0.387,1.117c0.345,0.804,0.917,1.247,1.721,1.333
			c0.802,0.087,1.605,0.016,2.408-0.215c0.744-0.114,1.432-0.301,2.064-0.559c0.63-0.258,1.204-0.529,1.72-0.817l0.517-0.172
			c0.572-0.286,1.088-0.544,1.548-0.773c0.458-0.228,0.83-0.431,1.118-0.603C447.244,82.574,447.53,82.402,447.76,82.287z
			 M394.268,78.933c-0.804,0.344-1.463,1.062-1.979,2.15c0.63-0.057,1.376-0.286,2.236-0.688c0.4-0.172,0.859-0.486,1.376-0.945
			h-0.086l0.601-0.603l0.086-0.086c-0.058,0-0.144-0.014-0.258-0.043c-0.115-0.028-0.258-0.043-0.43-0.043
			c-0.231-0.057-0.474-0.057-0.732,0C394.827,78.732,394.555,78.818,394.268,78.933z"/>
		<path fill="#818285" stroke="#818285" stroke-width="0.1" stroke-miterlimit="10" d="M472.527,82.373
			c0.172-0.172,0.329-0.271,0.473-0.301c0.142-0.028,0.271-0.043,0.388-0.043c0.114,0,0.228,0.029,0.344,0.086
			c0.057,0.058,0.129,0.158,0.215,0.301c0.086,0.144-0.072,0.444-0.473,0.902c-0.345,0.345-0.746,0.688-1.204,1.032
			c-0.402,0.288-0.86,0.646-1.376,1.075c-0.517,0.43-1.118,0.903-1.807,1.419c-1.434,0.976-3.168,2.094-5.202,3.354
			c-2.036,1.262-4.258,2.321-6.665,3.182c-0.517,0.229-1.133,0.43-1.85,0.602c-0.718,0.173-1.448,0.316-2.192,0.431
			c-0.688,0.115-1.463,0.129-2.322,0.043c-0.86-0.086-1.664-0.415-2.408-0.989c-0.744-0.516-1.247-1.204-1.505-2.063
			c-0.258-0.86-0.415-1.691-0.473-2.494c-0.057-0.688-0.014-1.39,0.129-2.107c0.144-0.716,0.33-1.447,0.559-2.193
			c0.804-2.866,2.206-5.216,4.214-7.052h-0.086c0.458-0.516,0.96-0.959,1.505-1.333c0.545-0.372,1.161-0.673,1.85-0.902
			c0.916-0.229,1.69-0.259,2.321-0.087c0.86,0.23,1.519,0.688,1.979,1.376c0.286,0.46,0.329,0.903,0.129,1.333
			c-0.201,0.431-0.444,0.761-0.731,0.989c-0.229,0.058-0.487,0.043-0.773-0.043c-0.288-0.086-0.574-0.271-0.86-0.559
			c-0.229-0.4-0.632-0.486-1.204-0.258c-0.401,0.115-0.804,0.316-1.204,0.602c-0.401,0.287-0.803,0.574-1.203,0.86h0.086
			c-0.746,0.804-1.449,1.691-2.107,2.666c-0.66,0.976-1.161,2.035-1.505,3.182c-0.46,1.262-0.689,2.438-0.689,3.526
			c0,0.573,0.071,1.104,0.216,1.591c0.142,0.487,0.415,0.875,0.816,1.161c0.4,0.287,0.874,0.487,1.419,0.602
			c0.544,0.115,1.075,0.115,1.591,0c0.631-0.114,1.232-0.215,1.807-0.301c0.572-0.086,1.174-0.243,1.806-0.473
			c2.408-0.803,4.614-1.733,6.622-2.796c2.006-1.06,3.668-2.077,4.988-3.053c0.63-0.458,1.204-0.888,1.72-1.29
			c0.516-0.4,0.975-0.744,1.376-1.032C471.695,82.975,472.126,82.66,472.527,82.373z"/>
		<path fill="#818285" stroke="#818285" stroke-width="0.1" stroke-miterlimit="10" d="M495.23,82.201
			c-0.059,0.115-0.116,0.287-0.172,0.516c-0.059,0.229-0.202,0.43-0.431,0.602c-0.115,0-0.459,0.316-1.032,0.946l-1.031,0.86
			c-0.288,0.287-0.603,0.589-0.946,0.903c-0.344,0.316-0.746,0.616-1.204,0.902c-0.632,0.517-1.362,1.062-2.193,1.634
			c-0.831,0.574-1.792,1.176-2.881,1.807c-1.031,0.631-2.164,1.161-3.396,1.591c-1.233,0.43-2.537,0.703-3.913,0.817
			c-0.402,0-0.774,0-1.118,0c-0.344,0-0.688-0.057-1.032-0.173c-0.229,0-0.602-0.114-1.118-0.344l-1.376-0.773
			c-0.516-0.517-0.888-1.147-1.117-1.893c-0.229-0.744-0.4-1.49-0.517-2.236c-0.057-0.859-0.028-1.662,0.086-2.407
			c0.116-0.745,0.288-1.433,0.517-2.064c0.344-1.548,1.031-2.866,2.063-3.956c0.458-0.63,1.032-1.189,1.72-1.677
			c0.688-0.486,1.463-0.759,2.322-0.817h-0.086c0.172-0.056,0.387-0.071,0.646-0.043c0.258,0.03,0.473,0.073,0.645,0.129
			c0.114,0,0.2,0.016,0.258,0.043c0.057,0.03,0.143,0.043,0.258,0.043l0.688,0.431c0.286,0.172,0.516,0.43,0.688,0.773
			c0.173,0.345,0.259,0.688,0.259,1.032l-0.689,1.462c-0.401,0.574-0.859,1.047-1.376,1.419c-0.516,0.374-1.062,0.675-1.634,0.903
			c-0.516,0.229-1.075,0.401-1.677,0.516c-0.603,0.116-1.133,0.202-1.592,0.259h-0.602c-0.172,0.573-0.315,1.203-0.43,1.892
			c-0.116,0.688-0.145,1.319-0.086,1.892c0.056,0.517,0.172,1.047,0.344,1.592c0.172,0.545,0.458,1.019,0.86,1.419
			c0.4,0.401,0.859,0.645,1.376,0.73c0.516,0.086,1.088,0.159,1.72,0.215c1.204-0.056,2.378-0.286,3.525-0.688
			c1.146-0.4,2.207-0.86,3.183-1.376c0.744-0.458,1.576-0.975,2.494-1.548c0.916-0.573,1.69-1.118,2.321-1.635
			c0.689-0.516,1.304-1.002,1.85-1.462c0.544-0.458,1.017-0.83,1.419-1.118c0.458-0.344,0.744-0.572,0.859-0.688
			c0.114-0.114,0.229-0.2,0.345-0.258c0.4-0.4,0.716-0.544,0.945-0.431C495.086,82.001,495.172,82.087,495.23,82.201z
			 M475.966,80.137c-0.115,0.172-0.215,0.344-0.301,0.517c-0.086,0.172-0.186,0.316-0.301,0.43c0.458-0.057,1.061-0.258,1.806-0.603
			c0.458-0.172,0.889-0.387,1.29-0.645c0.4-0.258,0.744-0.587,1.032-0.989l-0.086-0.172h-0.86
			C477.514,78.675,476.654,79.163,475.966,80.137z M479.578,78.847v-0.086l-0.086,0.086H479.578z"/>
	</g>
</g>
<rect x="246.264" y="159.657" fill="#BCBEC0" width="1.977" height="112.949"/>
<g>
	<g>
		<path fill="#818285" d="M141.453,309.741c-0.574,1.061-1.417,1.88-2.53,2.46c-1.113,0.58-2.45,0.87-4.01,0.87h-4.48v-14.1h4.48
			c1.56,0,2.896,0.283,4.01,0.85c1.113,0.566,1.956,1.38,2.53,2.44c0.572,1.06,0.859,2.31,0.859,3.75
			C142.312,307.439,142.025,308.682,141.453,309.741z M138.992,310.012c0.974-0.947,1.461-2.28,1.461-4
			c0-1.721-0.484-3.057-1.45-4.011c-0.967-0.953-2.377-1.43-4.23-1.43h-2.52v10.86h2.52
			C136.612,311.432,138.02,310.958,138.992,310.012z"/>
		<path fill="#818285" d="M150.593,300.451v4.82h5.359v1.399h-5.359v4.92h5.96v1.48h-7.78v-14.1h7.78v1.479H150.593z"/>
		<path fill="#818285" d="M171.333,311.272c-0.32,0.573-0.808,1.04-1.46,1.399c-0.654,0.36-1.46,0.54-2.421,0.54
			c-0.933,0-1.763-0.17-2.489-0.51c-0.728-0.34-1.308-0.807-1.74-1.399c-0.434-0.594-0.684-1.27-0.75-2.03h1.94
			c0.039,0.399,0.176,0.79,0.409,1.17c0.233,0.38,0.567,0.693,1,0.939c0.434,0.247,0.957,0.37,1.57,0.37
			c0.8,0,1.413-0.213,1.84-0.64c0.427-0.427,0.641-0.974,0.641-1.64c0-0.573-0.15-1.04-0.45-1.4c-0.3-0.36-0.67-0.644-1.11-0.85
			c-0.439-0.207-1.04-0.431-1.8-0.67c-0.894-0.294-1.61-0.57-2.15-0.83c-0.54-0.261-1-0.65-1.38-1.17
			c-0.38-0.52-0.569-1.207-0.569-2.061c0-0.733,0.176-1.38,0.529-1.939c0.354-0.561,0.86-0.993,1.521-1.301
			c0.66-0.307,1.437-0.46,2.33-0.46c1.386,0,2.486,0.337,3.3,1.011c0.812,0.673,1.286,1.529,1.42,2.569h-1.96
			c-0.107-0.56-0.394-1.053-0.86-1.479c-0.467-0.427-1.1-0.641-1.899-0.641c-0.733,0-1.32,0.19-1.761,0.57
			c-0.439,0.38-0.659,0.917-0.659,1.61c0,0.547,0.143,0.989,0.43,1.33c0.286,0.34,0.643,0.607,1.07,0.8
			c0.426,0.193,1.013,0.41,1.76,0.649c0.906,0.294,1.637,0.574,2.189,0.841c0.554,0.267,1.024,0.67,1.41,1.21
			c0.387,0.54,0.58,1.257,0.58,2.149C171.812,310.078,171.652,310.698,171.333,311.272z"/>
		<path fill="#818285" d="M180.072,298.972v14.1h-1.82v-14.1H180.072z"/>
		<path fill="#818285" d="M197.522,300.052c1.113,0.812,1.863,1.92,2.25,3.319h-1.92c-0.334-0.853-0.891-1.54-1.67-2.06
			c-0.78-0.521-1.704-0.78-2.771-0.78c-0.96,0-1.82,0.224-2.58,0.67c-0.76,0.447-1.357,1.084-1.79,1.91
			c-0.434,0.827-0.649,1.8-0.649,2.92c0,1.146,0.22,2.137,0.659,2.97c0.441,0.834,1.051,1.474,1.83,1.92
			c0.78,0.447,1.677,0.67,2.69,0.67c0.866,0,1.66-0.186,2.38-0.559c0.72-0.373,1.311-0.917,1.77-1.63
			c0.46-0.713,0.736-1.55,0.829-2.51h-5.539v-1.36h7.079v1.68c-0.119,1.12-0.467,2.134-1.04,3.04
			c-0.573,0.907-1.347,1.627-2.319,2.16c-0.974,0.533-2.08,0.8-3.32,0.8c-1.36,0-2.56-0.303-3.6-0.909
			c-1.04-0.607-1.851-1.453-2.431-2.54c-0.58-1.087-0.869-2.33-0.869-3.73c0-1.4,0.289-2.644,0.869-3.73
			c0.58-1.087,1.391-1.938,2.431-2.551c1.04-0.613,2.232-0.92,3.58-0.92C195.032,298.831,196.409,299.238,197.522,300.052z"/>
		<path fill="#818285" d="M217.513,313.071h-1.82l-7.319-11.14v11.14h-1.82v-14.1h1.82l7.319,11.159v-11.159h1.82V313.071z"/>
		<path fill="#818285" d="M226.252,300.451v4.82h5.359v1.399h-5.359v4.92h5.96v1.48h-7.78v-14.1h7.78v1.479H226.252z"/>
		<path fill="#818285" d="M249.572,309.741c-0.574,1.061-1.417,1.88-2.53,2.46c-1.113,0.58-2.45,0.87-4.01,0.87h-4.48v-14.1h4.48
			c1.56,0,2.896,0.283,4.01,0.85c1.113,0.566,1.956,1.38,2.53,2.44c0.572,1.06,0.859,2.31,0.859,3.75
			C250.432,307.439,250.145,308.682,249.572,309.741z M247.111,310.012c0.974-0.947,1.461-2.28,1.461-4
			c0-1.721-0.484-3.057-1.45-4.011c-0.967-0.953-2.377-1.43-4.23-1.43h-2.52v10.86h2.52
			C244.731,311.432,246.139,310.958,247.111,310.012z"/>
		<path fill="#818285" d="M273.812,298.972v1.479h-6.16v4.88h5.22v1.42h-5.22v6.32h-1.82v-14.1H273.812z"/>
		<path fill="#818285" d="M289.962,299.711c1.046,0.614,1.87,1.471,2.47,2.57c0.6,1.1,0.9,2.344,0.9,3.73
			c0,1.387-0.301,2.63-0.9,3.73c-0.6,1.1-1.424,1.957-2.47,2.57c-1.047,0.613-2.224,0.92-3.53,0.92c-1.307,0-2.49-0.307-3.55-0.92
			c-1.061-0.613-1.89-1.471-2.49-2.57c-0.6-1.1-0.899-2.343-0.899-3.73c0-1.387,0.3-2.631,0.899-3.73
			c0.601-1.1,1.43-1.956,2.49-2.57c1.06-0.612,2.243-0.92,3.55-0.92C287.738,298.791,288.915,299.099,289.962,299.711z
			 M283.821,301.161c-0.767,0.447-1.366,1.087-1.8,1.92c-0.434,0.834-0.649,1.811-0.649,2.931c0,1.107,0.216,2.079,0.649,2.92
			c0.434,0.84,1.033,1.483,1.8,1.93c0.767,0.447,1.637,0.67,2.61,0.67c0.96,0,1.823-0.227,2.59-0.68
			c0.767-0.453,1.367-1.097,1.8-1.931c0.434-0.833,0.65-1.803,0.65-2.909c0-1.12-0.217-2.097-0.65-2.931
			c-0.433-0.833-1.033-1.473-1.8-1.92c-0.767-0.446-1.63-0.67-2.59-0.67C285.458,300.491,284.588,300.715,283.821,301.161z"/>
		<path fill="#818285" d="M307.271,313.071l-3.681-5.76h-1.979v5.76h-1.82v-14.1h4.64c1.601,0,2.801,0.383,3.601,1.149
			c0.8,0.767,1.2,1.783,1.2,3.05c0,1.147-0.32,2.07-0.96,2.771c-0.641,0.7-1.567,1.137-2.78,1.31l3.84,5.82H307.271z
			 M301.611,305.991h2.66c2.066,0,3.1-0.906,3.1-2.72c0-1.814-1.033-2.72-3.1-2.72h-2.66V305.991z"/>
		<path fill="#818285" d="M332.65,309.811h-6.2l-1.18,3.26h-1.96l5.22-13.84h2.061l5.2,13.84h-1.96L332.65,309.811z
			 M332.131,308.392l-2.58-7.12l-2.58,7.12H332.131z"/>
		<path fill="#818285" d="M343.451,311.651h5v1.42h-6.82v-14.1h1.82V311.651z"/>
		<path fill="#818285" d="M356.131,311.651h5v1.42h-6.82v-14.1h1.82V311.651z"/>
		<path fill="#818285" d="M93.924,340.272c-0.32,0.573-0.808,1.04-1.46,1.399c-0.654,0.36-1.46,0.54-2.421,0.54
			c-0.933,0-1.763-0.17-2.489-0.51c-0.728-0.34-1.308-0.807-1.74-1.399c-0.434-0.594-0.684-1.27-0.75-2.03h1.94
			c0.039,0.399,0.176,0.79,0.409,1.17c0.233,0.38,0.567,0.693,1,0.939c0.434,0.247,0.957,0.37,1.57,0.37
			c0.8,0,1.413-0.213,1.84-0.64c0.427-0.427,0.641-0.974,0.641-1.64c0-0.573-0.15-1.04-0.45-1.4c-0.3-0.36-0.67-0.644-1.11-0.85
			c-0.439-0.207-1.04-0.431-1.8-0.67c-0.894-0.294-1.61-0.57-2.15-0.83c-0.54-0.261-1-0.65-1.38-1.17
			c-0.38-0.52-0.569-1.207-0.569-2.061c0-0.733,0.176-1.38,0.529-1.939c0.354-0.561,0.86-0.993,1.521-1.301
			c0.66-0.307,1.437-0.46,2.33-0.46c1.386,0,2.486,0.337,3.3,1.011c0.812,0.673,1.286,1.529,1.42,2.569h-1.96
			c-0.107-0.56-0.394-1.053-0.86-1.479c-0.467-0.427-1.1-0.641-1.899-0.641c-0.733,0-1.32,0.19-1.761,0.57
			c-0.439,0.38-0.659,0.917-0.659,1.61c0,0.547,0.143,0.989,0.43,1.33c0.286,0.34,0.643,0.607,1.07,0.8
			c0.426,0.193,1.013,0.41,1.76,0.649c0.906,0.294,1.637,0.574,2.189,0.841c0.554,0.267,1.024,0.67,1.41,1.21
			c0.387,0.54,0.58,1.257,0.58,2.149C94.403,339.078,94.243,339.698,93.924,340.272z"/>
		<path fill="#818285" d="M109.482,327.972v1.479h-3.98v12.62h-1.82v-12.62h-3.979v-1.479H109.482z"/>
		<path fill="#818285" d="M123.543,338.811h-6.2l-1.18,3.26h-1.96l5.22-13.84h2.061l5.2,13.84h-1.96L123.543,338.811z
			 M123.023,337.392l-2.58-7.12l-2.58,7.12H123.023z"/>
		<path fill="#818285" d="M143.053,329.052c1.113,0.812,1.863,1.92,2.25,3.319h-1.92c-0.334-0.853-0.891-1.54-1.67-2.06
			c-0.78-0.521-1.704-0.78-2.771-0.78c-0.96,0-1.82,0.224-2.58,0.67c-0.76,0.447-1.356,1.084-1.79,1.91
			c-0.434,0.827-0.649,1.8-0.649,2.92c0,1.146,0.22,2.137,0.659,2.97c0.44,0.834,1.051,1.474,1.83,1.92
			c0.78,0.447,1.677,0.67,2.69,0.67c0.866,0,1.66-0.186,2.38-0.559c0.72-0.373,1.31-0.917,1.77-1.63
			c0.46-0.713,0.736-1.55,0.829-2.51h-5.539v-1.36h7.079v1.68c-0.119,1.12-0.467,2.134-1.04,3.04
			c-0.573,0.907-1.347,1.627-2.319,2.16c-0.974,0.533-2.08,0.8-3.32,0.8c-1.36,0-2.559-0.303-3.6-0.909
			c-1.04-0.607-1.85-1.453-2.431-2.54c-0.58-1.087-0.869-2.33-0.869-3.73c0-1.4,0.289-2.644,0.869-3.73
			c0.58-1.087,1.391-1.938,2.431-2.551c1.04-0.613,2.232-0.92,3.58-0.92C140.562,327.831,141.939,328.238,143.053,329.052z"/>
		<path fill="#818285" d="M153.903,329.451v4.82h5.359v1.399h-5.359v4.92h5.96v1.48h-7.78v-14.1h7.78v1.479H153.903z"/>
		<path fill="#818285" d="M174.643,340.272c-0.32,0.573-0.808,1.04-1.46,1.399c-0.654,0.36-1.46,0.54-2.421,0.54
			c-0.933,0-1.763-0.17-2.489-0.51c-0.728-0.34-1.308-0.807-1.74-1.399c-0.434-0.594-0.684-1.27-0.75-2.03h1.94
			c0.039,0.399,0.176,0.79,0.409,1.17c0.233,0.38,0.567,0.693,1,0.939c0.434,0.247,0.957,0.37,1.57,0.37
			c0.8,0,1.413-0.213,1.84-0.64c0.427-0.427,0.641-0.974,0.641-1.64c0-0.573-0.15-1.04-0.45-1.4c-0.3-0.36-0.67-0.644-1.11-0.85
			c-0.439-0.207-1.04-0.431-1.8-0.67c-0.893-0.294-1.61-0.57-2.15-0.83c-0.54-0.261-1-0.65-1.38-1.17
			c-0.38-0.52-0.569-1.207-0.569-2.061c0-0.733,0.176-1.38,0.529-1.939c0.354-0.561,0.86-0.993,1.521-1.301
			c0.66-0.307,1.436-0.46,2.33-0.46c1.386,0,2.486,0.337,3.3,1.011c0.812,0.673,1.286,1.529,1.42,2.569h-1.96
			c-0.107-0.56-0.393-1.053-0.86-1.479c-0.467-0.427-1.1-0.641-1.899-0.641c-0.733,0-1.32,0.19-1.761,0.57
			c-0.439,0.38-0.659,0.917-0.659,1.61c0,0.547,0.143,0.989,0.43,1.33c0.286,0.34,0.643,0.607,1.07,0.8
			c0.426,0.193,1.013,0.41,1.76,0.649c0.906,0.294,1.637,0.574,2.189,0.841c0.554,0.267,1.023,0.67,1.41,1.21
			c0.387,0.54,0.58,1.257,0.58,2.149C175.123,339.078,174.963,339.698,174.643,340.272z"/>
		<path fill="#818285" d="M200.493,328.711c1.046,0.614,1.87,1.471,2.47,2.57c0.6,1.1,0.9,2.344,0.9,3.73
			c0,1.387-0.301,2.63-0.9,3.73c-0.6,1.1-1.424,1.957-2.47,2.57c-1.047,0.613-2.224,0.92-3.53,0.92c-1.307,0-2.49-0.307-3.55-0.92
			c-1.061-0.613-1.89-1.471-2.49-2.57c-0.6-1.1-0.899-2.343-0.899-3.73c0-1.387,0.3-2.631,0.899-3.73
			c0.601-1.1,1.43-1.956,2.49-2.57c1.06-0.612,2.243-0.92,3.55-0.92C198.27,327.791,199.446,328.099,200.493,328.711z
			 M194.352,330.161c-0.767,0.447-1.366,1.087-1.8,1.92c-0.434,0.834-0.649,1.811-0.649,2.931c0,1.107,0.216,2.079,0.649,2.92
			c0.434,0.84,1.033,1.483,1.8,1.93c0.767,0.447,1.637,0.67,2.61,0.67c0.96,0,1.823-0.227,2.59-0.68
			c0.767-0.453,1.367-1.097,1.8-1.931c0.434-0.833,0.65-1.803,0.65-2.909c0-1.12-0.217-2.097-0.65-2.931
			c-0.433-0.833-1.033-1.473-1.8-1.92c-0.767-0.446-1.63-0.67-2.59-0.67C195.989,329.491,195.119,329.715,194.352,330.161z"/>
		<path fill="#818285" d="M218.303,327.972v1.479h-6.16v4.88h5.22v1.42h-5.22v6.32h-1.82v-14.1H218.303z"/>
		<path fill="#818285" d="M247.521,328.211v13.86h-1.82v-11.06l-4.42,11.06h-1.62l-4.439-11.02v11.02h-1.82v-13.86h2.18l4.92,11.641
			l4.841-11.641H247.521z"/>
		<path fill="#818285" d="M264.432,328.711c1.046,0.614,1.87,1.471,2.47,2.57c0.6,1.1,0.9,2.344,0.9,3.73
			c0,1.387-0.301,2.63-0.9,3.73c-0.6,1.1-1.424,1.957-2.47,2.57c-1.047,0.613-2.224,0.92-3.53,0.92c-1.307,0-2.49-0.307-3.55-0.92
			c-1.061-0.613-1.89-1.471-2.49-2.57c-0.6-1.1-0.899-2.343-0.899-3.73c0-1.387,0.3-2.631,0.899-3.73
			c0.601-1.1,1.43-1.956,2.49-2.57c1.06-0.612,2.243-0.92,3.55-0.92C262.208,327.791,263.385,328.099,264.432,328.711z
			 M258.291,330.161c-0.767,0.447-1.366,1.087-1.8,1.92c-0.434,0.834-0.649,1.811-0.649,2.931c0,1.107,0.216,2.079,0.649,2.92
			c0.434,0.84,1.033,1.483,1.8,1.93c0.767,0.447,1.637,0.67,2.61,0.67c0.96,0,1.823-0.227,2.59-0.68
			c0.767-0.453,1.367-1.097,1.8-1.931c0.434-0.833,0.65-1.803,0.65-2.909c0-1.12-0.217-2.097-0.65-2.931
			c-0.433-0.833-1.033-1.473-1.8-1.92c-0.767-0.446-1.63-0.67-2.59-0.67C259.928,329.491,259.058,329.715,258.291,330.161z"/>
		<path fill="#818285" d="M282.901,327.972v1.479h-3.98v12.62h-1.82v-12.62h-3.98v-1.479H282.901z"/>
		<path fill="#818285" d="M299.521,327.972v14.1h-1.84v-6.52h-7.16v6.52h-1.82v-14.1h1.82v6.1h7.16v-6.1H299.521z"/>
		<path fill="#818285" d="M308.262,329.451v4.82h5.359v1.399h-5.359v4.92h5.96v1.48h-7.78v-14.1h7.78v1.479H308.262z"/>
		<path fill="#818285" d="M328.041,342.071l-3.681-5.76h-1.979v5.76h-1.82v-14.1h4.64c1.6,0,2.801,0.383,3.6,1.149
			s1.2,1.783,1.2,3.05c0,1.147-0.32,2.07-0.96,2.771c-0.641,0.7-1.567,1.137-2.78,1.31l3.84,5.82H328.041z M322.381,334.991h2.66
			c2.066,0,3.1-0.906,3.1-2.72c0-1.814-1.033-2.72-3.1-2.72h-2.66V334.991z"/>
		<path fill="#818285" d="M347.041,327.972v14.1h-1.84v-6.52h-7.16v6.52h-1.82v-14.1h1.82v6.1h7.16v-6.1H347.041z"/>
		<path fill="#818285" d="M363.951,328.711c1.046,0.614,1.87,1.471,2.47,2.57c0.6,1.1,0.9,2.344,0.9,3.73
			c0,1.387-0.301,2.63-0.9,3.73c-0.6,1.1-1.424,1.957-2.47,2.57c-1.047,0.613-2.224,0.92-3.53,0.92c-1.307,0-2.49-0.307-3.55-0.92
			c-1.061-0.613-1.89-1.471-2.49-2.57c-0.6-1.1-0.899-2.343-0.899-3.73c0-1.387,0.3-2.631,0.899-3.73
			c0.601-1.1,1.43-1.956,2.49-2.57c1.06-0.612,2.243-0.92,3.55-0.92C361.727,327.791,362.904,328.099,363.951,328.711z
			 M357.81,330.161c-0.767,0.447-1.366,1.087-1.8,1.92c-0.434,0.834-0.649,1.811-0.649,2.931c0,1.107,0.216,2.079,0.649,2.92
			c0.434,0.84,1.033,1.483,1.8,1.93c0.767,0.447,1.637,0.67,2.61,0.67c0.96,0,1.823-0.227,2.59-0.68
			c0.767-0.453,1.367-1.097,1.8-1.931c0.434-0.833,0.65-1.803,0.65-2.909c0-1.12-0.217-2.097-0.65-2.931
			c-0.433-0.833-1.033-1.473-1.8-1.92c-0.767-0.446-1.63-0.67-2.59-0.67C359.447,329.491,358.577,329.715,357.81,330.161z"/>
		<path fill="#818285" d="M383.77,328.711c1.046,0.614,1.87,1.471,2.47,2.57c0.6,1.1,0.9,2.344,0.9,3.73
			c0,1.387-0.301,2.63-0.9,3.73c-0.6,1.1-1.424,1.957-2.47,2.57c-1.047,0.613-2.224,0.92-3.53,0.92c-1.307,0-2.49-0.307-3.55-0.92
			c-1.061-0.613-1.89-1.471-2.49-2.57c-0.6-1.1-0.9-2.343-0.9-3.73c0-1.387,0.3-2.631,0.9-3.73c0.6-1.1,1.43-1.956,2.49-2.57
			c1.06-0.612,2.243-0.92,3.55-0.92C381.547,327.791,382.724,328.099,383.77,328.711z M377.63,330.161
			c-0.767,0.447-1.366,1.087-1.8,1.92c-0.434,0.834-0.649,1.811-0.649,2.931c0,1.107,0.216,2.079,0.649,2.92
			c0.434,0.84,1.033,1.483,1.8,1.93c0.767,0.447,1.637,0.67,2.61,0.67c0.96,0,1.823-0.227,2.59-0.68
			c0.767-0.453,1.367-1.097,1.8-1.931c0.434-0.833,0.65-1.803,0.65-2.909c0-1.12-0.217-2.097-0.65-2.931
			c-0.433-0.833-1.033-1.473-1.8-1.92c-0.767-0.446-1.63-0.67-2.59-0.67C379.267,329.491,378.396,329.715,377.63,330.161z"/>
		<path fill="#818285" d="M404.621,338.741c-0.574,1.061-1.417,1.88-2.53,2.46s-2.45,0.87-4.01,0.87h-4.48v-14.1h4.48
			c1.56,0,2.896,0.283,4.01,0.85c1.113,0.566,1.956,1.38,2.53,2.44c0.572,1.06,0.859,2.31,0.859,3.75
			C405.48,336.439,405.193,337.682,404.621,338.741z M402.16,339.012c0.974-0.947,1.461-2.28,1.461-4
			c0-1.721-0.484-3.057-1.45-4.011c-0.967-0.953-2.377-1.43-4.23-1.43h-2.52v10.86h2.52
			C399.78,340.432,401.188,339.958,402.16,339.012z"/>
	</g>
</g>
<g>
	<g>
		<path fill="#818285" d="M115.202,30.972v1.479h-3.979v12.62h-1.82v-12.62h-3.979v-1.479H115.202z"/>
		<path fill="#818285" d="M131.822,30.972v14.1h-1.84v-6.52h-7.16v6.52h-1.82v-14.1h1.82v6.1h7.16v-6.1H131.822z"/>
		<path fill="#818285" d="M140.562,32.451v4.82h5.359v1.399h-5.359v4.92h5.96v1.48h-7.78v-14.1h7.78v1.479H140.562z"/>
	</g>
</g>
<g>
</g>
<g>
</g>
<g>
</g>
<g>
</g>
<g>
</g>
<g>
</g>
</svg>
