<?xml version="1.0" encoding="utf-8"?>
<!-- Generator: Adobe Illustrator 24.0.1, SVG Export Plug-In . SVG Version: 6.00 Build 0)  -->
<svg version="1.1" id="Layer_1" xmlns="http://www.w3.org/2000/svg" xmlns:xlink="http://www.w3.org/1999/xlink" x="0px" y="0px"
	 viewBox="0 0 200 40" enable-background="new 0 0 200 40" xml:space="preserve">
<g>
	<polygon fill-rule="evenodd" clip-rule="evenodd" fill="#231F20" points="0,2 0,40 23,40 23,36.371 3.976,36.371 3.976,2 	"/>
	<polygon fill-rule="evenodd" clip-rule="evenodd" fill="#231F20" points="33.324,23 30,20.637 44.98,0 60,20.125 56.707,22.533 
		45.025,6.879 	"/>
	<polygon fill-rule="evenodd" clip-rule="evenodd" fill="#231F20" points="33.323,40 30,37.635 44.985,17 60,37.124 56.709,39.529 
		45.03,23.876 	"/>
	<path fill-rule="evenodd" clip-rule="evenodd" fill="#231F20" d="M82.252,2c6.474,0,11.015,4.004,11.015,10.567
		c0,5.551-3.289,9.18-8.089,10.194L94,40h-4.648l-8.455-16.865h-8.926V40H68V2H82.252z M71.971,5.627v13.932h9.919
		c4.334,0,7.411-2.295,7.411-6.939c0-4.645-3.077-6.993-7.411-6.993H71.971z"/>
	<polygon fill-rule="evenodd" clip-rule="evenodd" fill="#231F20" points="118.553,16.676 132,40 127.271,40 115.872,19.774 
		107.994,29.432 107.994,40 104,40 104,2 107.994,2 107.994,23.882 125.488,2 130.318,2 	"/>
	<polygon fill-rule="evenodd" clip-rule="evenodd" fill="#231F20" points="163,5.628 143.958,5.628 143.958,19.024 160.191,19.024 
		160.191,22.653 143.958,22.653 143.958,36.37 163,36.37 163,40 140,40 140,2 163,2 	"/>
	<polygon fill-rule="evenodd" clip-rule="evenodd" fill="#231F20" points="200,40 196.171,40 176.046,9.524 176.046,40 172,40 
		172,2 175.835,2 195.958,32.367 195.958,2 200,2 	"/>
</g>
</svg>
