<svg xmlns="http://www.w3.org/2000/svg" width="14" height="14" viewBox="0 0 14 14">
  <g fill="none" fill-rule="evenodd">
    <rect width="14" height="14" fill="#FFF" fill-rule="nonzero"/>
    <path d="M7.37,3.14999801 C6.30176352,3.14873235 5.32519375,3.75327554 4.85,4.71 L4.72,5 L4.46,4.9 C3.58611666,4.71742083 2.68424717,5.04577729 2.13231457,5.74747356 C1.58038197,6.44916983 1.4737161,7.40300888 1.85701465,8.20929014 C2.24031321,9.0155714 3.04737283,9.53503391 3.94,9.55 L10.81,9.55 C11.6991784,9.55 12.42,8.82917845 12.42,7.94 C12.42,7.05082155 11.6991784,6.33 10.81,6.33 L10.59,6.33 L10.2,6.38 L10.2,6 C10.2053289,5.24597806 9.90952322,4.52100779 9.37821658,3.98594634 C8.84690995,3.45088489 8.12404077,3.14999801 7.37,3.14999801 Z"/>
    <path fill="#ADAFB2" fill-rule="nonzero" d="M10.88,5.63 C10.6958152,3.82814199 9.18123737,2.45596039 7.37,2.45 C6.13831492,2.45068808 4.99819459,3.10055667 4.37,4.16 L3.96,4.16 C2.27000869,4.16000004 0.900000064,5.53000869 0.900000064,7.22 C0.900000064,8.90999131 2.27000869,10.28 3.96,10.28 L10.83,10.28 C12.1057777,10.2993299 13.15567,9.28077775 13.1749999,8.005 C13.1943299,6.72922225 12.1757777,5.67933 10.9000001,5.66 L10.88,5.63 Z M10.59,6.35 L10.81,6.35 C11.6991784,6.35000002 12.42,7.07082157 12.42,7.96 C12.42,8.84917843 11.6991784,9.57 10.81,9.57 L3.94,9.57 C3.04352315,9.55546178 2.23271205,9.03418504 1.84736038,8.22462578 C1.46200871,7.41506653 1.56868115,6.45706596 2.12267355,5.75210176 C2.67666594,5.04713756 3.58228305,4.71698345 4.46,4.9 L4.72,5 L4.85,4.75 C5.4294725,3.57298905 6.74408523,2.95105714 8.02160224,3.24954242 C9.29911924,3.5480277 10.2020539,4.68807815 10.2,6 L10.2,6.4 L10.59,6.35 Z"/>
  </g>
</svg>
