<svg id="Layer_1" data-name="Layer 1" xmlns="http://www.w3.org/2000/svg" viewBox="0 0 14 14"><defs><style>.cls-1{fill:#fff;}.cls-2{fill:none;}.cls-3{fill:#adafb2;}</style></defs><title>lux-soft14px</title><rect class="cls-1" width="14" height="14"/><path class="cls-2" d="M7.37,3.15A2.81,2.81,0,0,0,4.85,4.71L4.72,5,4.46,4.9a2.35,2.35,0,1,0-.52,4.65h6.87a1.61,1.61,0,0,0,0-3.22l-.22,0-.39.05V6A2.83,2.83,0,0,0,7.37,3.15Z"/><path class="cls-3" d="M10.88,5.63A3.54,3.54,0,0,0,7.37,2.45a3.49,3.49,0,0,0-3,1.71l-.41,0a3.06,3.06,0,0,0,0,6.12h6.87a2.31,2.31,0,0,0,.07-4.62Zm-.29.72.22,0a1.61,1.61,0,0,1,0,3.22H3.94A2.36,2.36,0,1,1,4.46,4.9L4.72,5l.13-.25A2.82,2.82,0,0,1,10.2,6V6.4Z"/></svg>