<svg xmlns="http://www.w3.org/2000/svg" width="14" height="14" viewBox="0 0 14 14">
  <g fill="none" fill-rule="evenodd">
    <rect width="14" height="14" fill="#FFF" fill-rule="nonzero"/>
    <line x1="10.11" x2="3.89" y1="3.66" y2="9.88" fill="#FFF" fill-rule="nonzero"/>
    <path d="M9.86,3.44 C8.11270558,1.96750441 5.52905296,2.07755763 3.91330529,3.69330529 C2.29755763,5.30905296 2.18750441,7.89270558 3.66,9.64 L9.86,3.44 Z"/>
    <polygon points="3.88 9.88 3.89 9.88 3.89 9.89"/>
    <path d="M10.34,3.91 L4.14,10.11 C5.88729442,11.5824956 8.47094704,11.4724424 10.0866947,9.85669471 C11.7024424,8.24094704 11.8124956,5.65729442 10.34,3.91 L10.34,3.91 Z"/>
    <path fill="#ADAFB2" fill-rule="nonzero" d="M10.58,3.19 C9.13277972,1.74112694 6.95494036,1.30741532 5.06306842,2.09131597 C3.17119648,2.87521661 1.93834789,4.7221531 1.93999834,6.77 C1.93999834,9.56456083 4.20543917,11.83 7,11.83 C9.79456083,11.83 12.06,9.56456083 12.06,6.77 C12.0578065,5.42824171 11.5259069,4.1416198 10.58,3.19 L10.58,3.19 Z M2.58,6.77 C2.56995973,5.04305484 3.57335743,3.4706626 5.14383334,2.7522993 C6.71430924,2.03393601 8.56005745,2.30307882 9.86,3.44 L3.66,9.64 C2.97395114,8.8413902 2.59775547,7.82282269 2.6,6.77 L2.58,6.77 Z M10.11,9.88 C8.4832993,11.5262555 5.85795475,11.6268937 4.11,10.11 L10.31,3.91 C11.8268937,5.65795475 11.7262555,8.2832993 10.08,9.91 L10.11,9.88 Z"/>
  </g>
</svg>
