<svg id="Layer_1" data-name="Layer 1" xmlns="http://www.w3.org/2000/svg" viewBox="0 0 14 14"><defs><style>.cls-1{fill:#fff;}.cls-2{fill:none;}.cls-3{fill:#adafb2;}</style></defs><title>no-heat14px</title><rect class="cls-1" width="14" height="14"/><line class="cls-1" x1="10.11" y1="3.66" x2="3.89" y2="9.88"/><path class="cls-2" d="M9.86,3.44a4.4,4.4,0,0,0-6.2,6.2Z"/><polygon class="cls-2" points="3.88 9.88 3.89 9.88 3.89 9.89 3.88 9.88"/><path class="cls-2" d="M10.34,3.91l-6.2,6.2a4.4,4.4,0,0,0,6.2-6.2Z"/><path class="cls-3" d="M10.58,3.19A5.06,5.06,0,0,0,1.94,6.77a5.06,5.06,0,1,0,10.12,0A5.09,5.09,0,0,0,10.58,3.19Zm-8,3.58A4.39,4.39,0,0,1,9.86,3.44l-6.2,6.2A4.39,4.39,0,0,1,2.6,6.77ZM3.89,9.88h0Zm6.22,0a4.39,4.39,0,0,1-6,.23l6.2-6.2a4.39,4.39,0,0,1-.23,6Z"/></svg>