<svg xmlns="http://www.w3.org/2000/svg" width="14" height="14" viewBox="0 0 14 14">
  <g fill="none" fill-rule="evenodd">
    <rect width="14" height="14" fill="#FFF" fill-rule="nonzero"/>
    <path d="M10.11,2.68 C9.29045909,1.84709152 8.16846691,1.38169927 7,1.39 L7,1.39 C4.590404,1.38446083 2.63102156,3.33042284 2.62,5.74 C2.6068477,6.90252994 3.06499568,8.0208439 3.89,8.84 C4.08160132,9.04428281 4.29638729,9.22550847 4.53,9.38 L4.81,9.56 L5.08,9.7 C5.67053988,9.99231082 6.32108104,10.1429625 6.98,10.1400429 L7,10.1400429 C7.66530414,10.1427863 8.32230241,9.99222416 8.92,9.7 L9.19,9.56 L9.47,9.38 C9.68681533,9.23049552 9.89084893,9.06325487 10.08,8.88 C10.9050244,8.06251995 11.37248,6.95141394 11.38,5.79 C11.3913052,4.62488342 10.9336449,3.50415628 10.11,2.68 Z M8.64,9.08 C8.40159918,9.19944098 8.14982789,9.29007864 7.89,9.35 C7.59923004,9.42560208 7.30040967,9.46589247 7,9.47 L7,9.47 C6.70657191,9.46088435 6.41493933,9.42065917 6.13,9.35 C5.87017211,9.29007864 5.61840082,9.19944098 5.38,9.08 C3.83844978,8.32165982 3.02167916,6.60198122 3.4079834,4.92799617 C3.79428764,3.25401112 5.28203051,2.06614332 7,2.06 L7,2.06 C7.98146048,2.06598363 8.92033049,2.46167597 9.61,3.16 C10.312809,3.84991538 10.7060644,4.79517164 10.7000691,5.78 C10.6913445,7.18067626 9.8945638,8.45707258 8.64,9.08 L8.64,9.08 Z"/>
    <path d="M10.1500159 5.78C10.1526564 4.94191462 9.82227364 4.13710025 9.23153315 3.54260902 8.64079265 2.94811779 7.83808541 2.61264797 7 2.61L7 2.61C5.32646502 2.70425559 4.01769356 4.08881283 4.01769356 5.765 4.01769356 7.44118717 5.32646502 8.82574441 7 8.92L7 8.92C8.73353766 8.91454876 10.1390368 7.51351156 10.1500159 5.78zM7 10.69C6.35086551 10.6916253 5.70806371 10.5623847 5.11 10.31L5.11 12.7 6.9 11.28C7.00351634 11.2016622 7.14648366 11.2016622 7.25 11.28L8.92 12.68 8.92 10.3C8.31353387 10.560346 7.65997849 10.6930994 7 10.69L7 10.69z"/>
    <path fill="#ADAFB2" fill-rule="nonzero" d="M10.5,2.3 C9.58116729,1.3565236 8.31692202,0.829152713 7,0.84 C4.79458504,0.867536613 2.8757949,2.35655826 2.30156715,4.48608306 C1.72733939,6.61560786 2.63740773,8.86743305 4.53,10 L4.53,13.23 C4.52863685,13.3378038 4.59153686,13.436085 4.69,13.48 C4.77913675,13.5339589 4.89086325,13.5339589 4.98,13.48 L7.07,11.85 L9,13.47 C9.04447157,13.5159514 9.10606621,13.5413139 9.17,13.5400486 L9.29,13.5400486 C9.39033354,13.4982872 9.45414625,13.3985798 9.45,13.29 L9.45,10 C9.81292668,9.78816675 10.148728,9.53295778 10.45,9.24 C11.3831265,8.31433402 11.9079833,7.05437538 11.9079833,5.74 C11.9079833,4.42562462 11.3831265,3.16566598 10.45,2.24 L10.5,2.3 Z M9.5,9.38 L9.22,9.56 L8.95,9.7 C8.34321651,9.99675515 7.67542173,10.147437 7,10.14 L7,10.14 C6.34108104,10.1429625 5.69053988,9.99231082 5.1,9.7 L4.83,9.56 L4.55,9.38 C4.31638729,9.22550847 4.10160132,9.04428281 3.91,8.84 C3.08499568,8.0208439 2.6268477,6.90252994 2.64,5.74 C2.65098598,3.33822597 4.59820707,1.39547098 7,1.39 L7,1.39 C8.16247854,1.39263273 9.27600056,1.8583307 10.0942372,2.68407407 C10.9124738,3.50981745 11.3679834,4.6275459 11.36,5.79 C11.35248,6.95141394 10.8850244,8.06251995 10.06,8.88 C9.87722066,9.06239369 9.67990291,9.22961213 9.47,9.38 L9.5,9.38 Z M8.95,12.68 L7.28,11.28 C7.17648366,11.2016622 7.03351634,11.2016622 6.93,11.28 L5.08,12.7 L5.08,10.31 C5.68736001,10.5663706 6.34077344,10.695692 7,10.69 L7,10.69 C7.65997849,10.6930994 8.31353387,10.560346 8.92,10.3 L8.95,12.68 Z"/>
    <path fill="#ADAFB2" fill-rule="nonzero" d="M9.63,3.16 C8.93544793,2.45676844 7.98840111,2.06066521 7,2.06 L7,2.06 C5.2940919,2.07522896 3.81972584,3.25485051 3.43057748,4.91584958 C3.04142913,6.57684866 3.8383858,8.28860867 5.36,9.06 C5.59840082,9.17944098 5.85017211,9.27007864 6.11,9.33 C6.40070705,9.40882622 6.69913183,9.45576945 7,9.47 L7,9.47 C7.30040967,9.46589247 7.59923004,9.42560208 7.89,9.35 C8.14982789,9.29007864 8.40159918,9.19944098 8.64,9.08 C9.8945638,8.45707258 10.6913445,7.18067626 10.7,5.78 C10.7113377,4.79808991 10.3254689,3.85325244 9.63,3.16 Z M7,8.92 C5.32646502,8.82574441 4.01769356,7.44118717 4.01769356,5.765 C4.01769356,4.08881283 5.32646502,2.70425559 7,2.61 L7,2.61 C8.67353498,2.70425559 9.98230644,4.08881283 9.98230644,5.765 C9.98230644,7.44118717 8.67353498,8.82574441 7,8.92 L7,8.92 Z"/>
  </g>
</svg>
