<svg id="Layer_1" data-name="Layer 1" xmlns="http://www.w3.org/2000/svg" viewBox="0 0 14 14"><defs><style>.cls-1{fill:#fff;}.cls-2{fill:none;}.cls-3{fill:#adafb2;}</style></defs><title>patent14px</title><rect class="cls-1" width="14" height="14"/><path class="cls-2" d="M10.11,2.68A4.32,4.32,0,0,0,7,1.39H7A4.37,4.37,0,0,0,2.62,5.74a4.3,4.3,0,0,0,1.27,3.1,3.6,3.6,0,0,0,.64.54l.28.18.27.14a4.24,4.24,0,0,0,1.9.44H7A4.33,4.33,0,0,0,8.92,9.7l.27-.14.28-.18a4.76,4.76,0,0,0,.61-.5,4.39,4.39,0,0,0,1.3-3.09A4.34,4.34,0,0,0,10.11,2.68ZM8.64,9.08a3.36,3.36,0,0,1-.75.27A3.74,3.74,0,0,1,7,9.47H7a4.15,4.15,0,0,1-.87-.12,3.36,3.36,0,0,1-.75-.27A3.7,3.7,0,0,1,7,2.06H7a3.7,3.7,0,0,1,2.61,1.1A3.64,3.64,0,0,1,10.7,5.78,3.71,3.71,0,0,1,8.64,9.08Z"/><path class="cls-2" d="M10.15,5.78A3.16,3.16,0,0,0,7,2.61H7A3.16,3.16,0,0,0,7,8.92H7A3.16,3.16,0,0,0,10.15,5.78Z"/><path class="cls-2" d="M7,10.69a4.83,4.83,0,0,1-1.89-.38V12.7L6.9,11.28a.29.29,0,0,1,.35,0l1.67,1.4V10.3A4.81,4.81,0,0,1,7,10.69Z"/><path class="cls-3" d="M10.5,2.3A4.83,4.83,0,0,0,7,.84,4.93,4.93,0,0,0,4.53,10v3.23a.27.27,0,0,0,.16.25.28.28,0,0,0,.29,0l2.09-1.63L9,13.47a.23.23,0,0,0,.17.07l.12,0a.26.26,0,0,0,.16-.25V10a5.18,5.18,0,0,0,1-.76,4.93,4.93,0,0,0,0-7Zm-1,7.08-.28.18-.27.14A4.33,4.33,0,0,1,7,10.14H7a4.24,4.24,0,0,1-1.9-.44l-.27-.14-.28-.18a3.6,3.6,0,0,1-.64-.54,4.3,4.3,0,0,1-1.27-3.1A4.37,4.37,0,0,1,7,1.39H7a4.37,4.37,0,0,1,4.36,4.4,4.39,4.39,0,0,1-1.3,3.09A4.76,4.76,0,0,1,9.47,9.38Zm-.55,3.3-1.67-1.4a.29.29,0,0,0-.35,0L5.08,12.7V10.31A4.83,4.83,0,0,0,7,10.69H7a4.81,4.81,0,0,0,1.92-.39Z"/><path class="cls-3" d="M9.63,3.16A3.7,3.7,0,0,0,7,2.06H7a3.7,3.7,0,0,0-1.64,7,3.36,3.36,0,0,0,.75.27A4.15,4.15,0,0,0,7,9.47H7a3.74,3.74,0,0,0,.89-.12,3.36,3.36,0,0,0,.75-.27,3.71,3.71,0,0,0,2.06-3.3A3.64,3.64,0,0,0,9.63,3.16ZM7,8.92A3.16,3.16,0,0,1,7,2.61H7A3.16,3.16,0,0,1,7,8.92Z"/></svg>