<svg id="Layer_1" data-name="Layer 1" xmlns="http://www.w3.org/2000/svg" viewBox="0 0 765.28 608.11"><defs><style>.cls-1,.cls-3{fill:#808083;}.cls-2{fill:#bcbec0;}.cls-3{stroke:#808083;stroke-miterlimit:10;stroke-width:0.23px;}</style></defs><title>press-mobile-heading</title><path class="cls-1" d="M92.79,336.18v11.4H89.14v-28.3h9q4.86,0,7.27,2.27a8.13,8.13,0,0,1,2.41,6.2,7.88,7.88,0,0,1-2.49,6.2q-2.49,2.24-7.19,2.23Zm9.82-4.45a6.22,6.22,0,0,0,0-8c-1-.92-2.58-1.39-4.8-1.39h-5v10.8h5Q101.14,333.13,102.61,331.73Z"/><path class="cls-1" d="M123.54,319.28v17c0,2.78.61,4.84,1.84,6.16a6.61,6.61,0,0,0,5.1,2,6.42,6.42,0,0,0,5-2c1.2-1.34,1.8-3.38,1.8-6.14v-17H141v17q0,5.78-2.87,8.69a11.55,11.55,0,0,1-15.33,0c-1.92-1.94-2.87-4.84-2.87-8.69v-17Z"/><path class="cls-1" d="M183,319.77v27.81h-3.65V325.39l-8.87,22.19h-3.25l-8.92-22.11v22.11h-3.65V319.77H159l9.87,23.35,9.71-23.35Z"/><path class="cls-1" d="M200.52,336.18v11.4h-3.66v-28.3h9q4.86,0,7.27,2.27a8.13,8.13,0,0,1,2.41,6.2A7.88,7.88,0,0,1,213,334q-2.49,2.24-7.19,2.23Zm9.81-4.45a6.22,6.22,0,0,0,0-8c-1-.92-2.58-1.39-4.8-1.39h-5v10.8h5Q208.86,333.13,210.33,331.73Z"/><path class="cls-1" d="M231.46,319.28v28.3h-3.65v-28.3Z"/><path class="cls-1" d="M267.34,347.58h-3.65L249,325.22v22.36h-3.65v-28.3H249l14.69,22.4v-22.4h3.65Z"/><path class="cls-1" d="M302.36,321.45a11.91,11.91,0,0,1,4.51,6.66H303a8.68,8.68,0,0,0-3.35-4.13,9.83,9.83,0,0,0-5.56-1.56,10,10,0,0,0-5.18,1.34,9.43,9.43,0,0,0-3.59,3.83,12.45,12.45,0,0,0-1.3,5.86,12.63,12.63,0,0,0,1.32,6,9.34,9.34,0,0,0,3.67,3.85,10.66,10.66,0,0,0,5.4,1.35,10.36,10.36,0,0,0,4.78-1.12,9.22,9.22,0,0,0,3.55-3.28,11.07,11.07,0,0,0,1.66-5H293.31v-2.73h14.2v3.37a14,14,0,0,1-2.08,6.1,12.46,12.46,0,0,1-4.66,4.33,13.51,13.51,0,0,1-6.66,1.61,14,14,0,0,1-7.22-1.83,12.6,12.6,0,0,1-4.88-5.09,16.88,16.88,0,0,1,0-15,12.8,12.8,0,0,1,4.88-5.12,13.86,13.86,0,0,1,7.18-1.85A13.71,13.71,0,0,1,302.36,321.45Z"/><path class="cls-1" d="M355,341H342.55l-2.37,6.54h-3.93l10.48-27.77h4.13l10.43,27.77h-3.93Zm-1-2.85-5.18-14.29-5.17,14.29Z"/><path class="cls-1" d="M395,347.58h-3.65l-14.69-22.36v22.36H373v-28.3h3.66l14.69,22.4v-22.4H395Z"/><path class="cls-1" d="M431,340.9a11.81,11.81,0,0,1-5.08,4.93,17.15,17.15,0,0,1-8.05,1.75h-9v-28.3h9a17.52,17.52,0,0,1,8.05,1.71,11.58,11.58,0,0,1,5.08,4.9,17.23,17.23,0,0,1,0,15Zm-4.94.54q2.93-2.85,2.93-8t-2.91-8.05q-2.91-2.87-8.49-2.86h-5.05v21.79h5.05C421.29,344.29,424.12,343.34,426.07,341.44Z"/><path class="cls-1" d="M485.63,347.58H482l-14.69-22.36v22.36h-3.65v-28.3h3.65L482,341.68v-22.4h3.65Z"/><path class="cls-1" d="M503,319.28v17c0,2.78.62,4.84,1.85,6.16a6.59,6.59,0,0,0,5.09,2,6.4,6.4,0,0,0,5-2c1.2-1.34,1.81-3.38,1.81-6.14v-17h3.65v17q0,5.78-2.87,8.69a11.55,11.55,0,0,1-15.33,0c-1.92-1.94-2.87-4.84-2.87-8.69v-17Z"/><path class="cls-1" d="M549.08,347.58,541.7,336h-4v11.56h-3.66v-28.3h9.31c3.22,0,5.62.77,7.23,2.31a8.11,8.11,0,0,1,2.41,6.12,7.89,7.89,0,0,1-1.93,5.56,9,9,0,0,1-5.58,2.63l7.71,11.68Zm-11.35-14.21h5.33q6.23,0,6.22-5.46c0-3.64-2.07-5.45-6.22-5.45h-5.33Z"/><path class="cls-1" d="M582.44,344a7.33,7.33,0,0,1-2.94,2.81,9.94,9.94,0,0,1-4.85,1.08,11.72,11.72,0,0,1-5-1,9,9,0,0,1-3.49-2.81,7.91,7.91,0,0,1-1.5-4.08h3.89a5.44,5.44,0,0,0,.82,2.35,5.56,5.56,0,0,0,2,1.89,6.33,6.33,0,0,0,3.15.74,5,5,0,0,0,3.69-1.28,4.46,4.46,0,0,0,1.28-3.3,4.29,4.29,0,0,0-.9-2.81,6.34,6.34,0,0,0-2.22-1.7,29.53,29.53,0,0,0-3.62-1.34,36.81,36.81,0,0,1-4.31-1.67,7.23,7.23,0,0,1-2.77-2.35,6.85,6.85,0,0,1-1.14-4.13,7.11,7.11,0,0,1,1.06-3.89,6.88,6.88,0,0,1,3-2.61,10.9,10.9,0,0,1,4.67-.93,10.1,10.1,0,0,1,6.63,2,7.77,7.77,0,0,1,2.85,5.16h-3.94a5.28,5.28,0,0,0-1.72-3,5.44,5.44,0,0,0-3.82-1.29,5.19,5.19,0,0,0-3.53,1.15,4.6,4.6,0,0,0-.46,5.9,6.06,6.06,0,0,0,2.15,1.6,35.13,35.13,0,0,0,3.53,1.31,36,36,0,0,1,4.4,1.68,7.51,7.51,0,0,1,2.82,2.43,7.21,7.21,0,0,1,1.17,4.31A7.57,7.57,0,0,1,582.44,344Z"/><path class="cls-1" d="M600,319.28v28.3h-3.65v-28.3Z"/><path class="cls-1" d="M635.85,347.58H632.2l-14.69-22.36v22.36h-3.65v-28.3h3.65l14.69,22.4v-22.4h3.65Z"/><path class="cls-1" d="M670.87,321.45a11.93,11.93,0,0,1,4.52,6.66h-3.86a8.62,8.62,0,0,0-3.35-4.13,9.8,9.8,0,0,0-5.56-1.56,10,10,0,0,0-5.17,1.34,9.38,9.38,0,0,0-3.6,3.83,12.45,12.45,0,0,0-1.3,5.86,12.63,12.63,0,0,0,1.32,6,9.37,9.37,0,0,0,3.68,3.85,10.6,10.6,0,0,0,5.39,1.35,10.33,10.33,0,0,0,4.78-1.12,9.15,9.15,0,0,0,3.55-3.28,11.08,11.08,0,0,0,1.67-5H661.82v-2.73H676v3.37a14,14,0,0,1-2.09,6.1,12.5,12.5,0,0,1-4.65,4.33,13.57,13.57,0,0,1-6.67,1.61A14,14,0,0,1,655.4,346a12.66,12.66,0,0,1-4.88-5.09,17,17,0,0,1,0-15,12.87,12.87,0,0,1,4.88-5.12,13.88,13.88,0,0,1,7.18-1.85A13.67,13.67,0,0,1,670.87,321.45Z"/><path class="cls-1" d="M256.79,377.48v3h-8v25.32h-3.65V380.45h-8v-3Z"/><path class="cls-1" d="M288.47,379a13.24,13.24,0,0,1,5,5.16,16.46,16.46,0,0,1,0,15,13.18,13.18,0,0,1-5,5.16,13.75,13.75,0,0,1-7.08,1.85,14,14,0,0,1-7.13-1.85,13,13,0,0,1-5-5.16,16.38,16.38,0,0,1,0-15,13.11,13.11,0,0,1,5-5.16,14,14,0,0,1,7.13-1.84A13.74,13.74,0,0,1,288.47,379Zm-12.32,2.91a9.36,9.36,0,0,0-3.61,3.86,13.81,13.81,0,0,0,0,11.74,9.32,9.32,0,0,0,3.61,3.87,10.17,10.17,0,0,0,5.24,1.34,10,10,0,0,0,5.19-1.36,9.47,9.47,0,0,0,3.62-3.87,13.86,13.86,0,0,0,0-11.72,9.38,9.38,0,0,0-3.62-3.86,10.82,10.82,0,0,0-10.43,0Z"/><path class="cls-1" d="M311.85,394.38v11.39H308.2V377.48h9c3.23,0,5.66.76,7.26,2.27a8.09,8.09,0,0,1,2.41,6.2,7.89,7.89,0,0,1-2.49,6.2c-1.66,1.48-4.05,2.23-7.18,2.23Zm9.81-4.46a5.22,5.22,0,0,0,1.47-4,5.3,5.3,0,0,0-1.47-4c-1-.92-2.57-1.38-4.79-1.38h-5v10.8h5C319.09,391.33,320.68,390.86,321.66,389.92Z"/><path class="cls-1" d="M360.73,380.45v9.67h10.76v2.81H360.73v9.87h12v3H357.08V377.48h15.61v3Z"/><path class="cls-1" d="M387.26,377.48l8.63,24.24,8.75-24.24h4l-10.39,28.29H393.6l-10.35-28.29Z"/><path class="cls-1" d="M424,380.45v9.67h10.76v2.81H424v9.87h12v3H420.33V377.48h15.61v3Z"/><path class="cls-1" d="M463.68,405.77l-7.39-11.55h-4v11.55h-3.65V377.48H458q4.81,0,7.22,2.31a8.07,8.07,0,0,1,2.41,6.12,7.91,7.91,0,0,1-1.93,5.56,9,9,0,0,1-5.57,2.62l7.7,11.68Zm-11.36-14.2h5.34c4.14,0,6.22-1.82,6.22-5.46s-2.08-5.46-6.22-5.46h-5.34Z"/><path class="cls-1" d="M485.55,401.48v4.29H481.1v-4.29Zm-.24-24.68-.52,20.67h-3l-.52-20.67Z"/><path class="cls-1" d="M502.85,377.84a4.94,4.94,0,0,1-1,3.39,3.9,3.9,0,0,1-3,1.15v-1.65a1.82,1.82,0,0,0,1.49-.54,2.65,2.65,0,0,0,.44-1.67v-.92h-2v-3.45h3.7A16.71,16.71,0,0,1,502.85,377.84Zm5.46,0a4.85,4.85,0,0,1-1.05,3.39,3.92,3.92,0,0,1-3.05,1.15v-1.65a1.83,1.83,0,0,0,1.49-.54,2.65,2.65,0,0,0,.44-1.67v-.92h-2v-3.45h3.7A16.68,16.68,0,0,1,508.31,377.84Z"/><rect class="cls-2" x="379.84" y="439.8" width="5.49" height="112.27"/><path class="cls-1" d="M258.37,581.7a11.94,11.94,0,0,1,4.51,6.67H259a8.64,8.64,0,0,0-3.35-4.14,9.83,9.83,0,0,0-5.56-1.56,10.1,10.1,0,0,0-5.18,1.34,9.49,9.49,0,0,0-3.59,3.83,12.47,12.47,0,0,0-1.3,5.86,12.6,12.6,0,0,0,1.32,6,9.37,9.37,0,0,0,3.67,3.86,10.76,10.76,0,0,0,5.4,1.34,10.23,10.23,0,0,0,4.78-1.12,9.27,9.27,0,0,0,3.55-3.27,11.2,11.2,0,0,0,1.67-5H249.32V592.7h14.21v3.37a14,14,0,0,1-2.09,6.1,12.48,12.48,0,0,1-4.66,4.34,13.61,13.61,0,0,1-6.66,1.6,14.11,14.11,0,0,1-7.22-1.82,12.68,12.68,0,0,1-4.88-5.1,16.88,16.88,0,0,1,0-15,12.8,12.8,0,0,1,4.88-5.12,13.85,13.85,0,0,1,7.18-1.84A13.7,13.7,0,0,1,258.37,581.7Z"/><path class="cls-1" d="M279.94,579.54v17q0,4.18,1.85,6.16a6.6,6.6,0,0,0,5.1,2,6.39,6.39,0,0,0,5-2q1.82-2,1.81-6.14v-17h3.65v17c0,3.86-1,6.75-2.87,8.69a11.55,11.55,0,0,1-15.33,0c-1.91-1.94-2.87-4.83-2.87-8.69v-17Z"/><path class="cls-1" d="M332.18,581.7a11.94,11.94,0,0,1,4.51,6.67h-3.85a8.7,8.7,0,0,0-3.35-4.14,9.83,9.83,0,0,0-5.56-1.56,10.1,10.1,0,0,0-5.18,1.34,9.49,9.49,0,0,0-3.59,3.83,12.47,12.47,0,0,0-1.3,5.86,12.6,12.6,0,0,0,1.32,6,9.37,9.37,0,0,0,3.67,3.86,10.76,10.76,0,0,0,5.4,1.34,10.23,10.23,0,0,0,4.78-1.12,9.34,9.34,0,0,0,3.55-3.27,11.07,11.07,0,0,0,1.66-5H323.13V592.7h14.2v3.37a14,14,0,0,1-2.08,6.1,12.56,12.56,0,0,1-4.66,4.34,13.61,13.61,0,0,1-6.66,1.6,14.17,14.17,0,0,1-7.23-1.82,12.73,12.73,0,0,1-4.87-5.1,16.88,16.88,0,0,1,0-15,12.84,12.84,0,0,1,4.87-5.12,13.91,13.91,0,0,1,7.19-1.84A13.7,13.7,0,0,1,332.18,581.7Z"/><path class="cls-1" d="M353.75,579.54v17c0,2.79.61,4.84,1.85,6.16a6.58,6.58,0,0,0,5.09,2,6.4,6.4,0,0,0,5-2c1.2-1.33,1.81-3.38,1.81-6.14v-17h3.65v17c0,3.86-1,6.75-2.87,8.69a11.55,11.55,0,0,1-15.33,0c-1.92-1.94-2.87-4.83-2.87-8.69v-17Z"/><path class="cls-1" d="M423.92,581.7a12,12,0,0,1,4.52,6.67h-3.85a8.7,8.7,0,0,0-3.35-4.14,9.83,9.83,0,0,0-5.56-1.56A10.07,10.07,0,0,0,410.5,584a9.42,9.42,0,0,0-3.59,3.83,13.89,13.89,0,0,0,0,11.82,9.31,9.31,0,0,0,3.67,3.86,10.73,10.73,0,0,0,5.4,1.34,10.17,10.17,0,0,0,4.77-1.12,9.29,9.29,0,0,0,3.56-3.27,11.19,11.19,0,0,0,1.66-5H414.87V592.7h14.21v3.37a13.91,13.91,0,0,1-2.09,6.1,12.53,12.53,0,0,1-4.65,4.34,13.61,13.61,0,0,1-6.66,1.6,14.17,14.17,0,0,1-7.23-1.82,12.73,12.73,0,0,1-4.87-5.1,16.88,16.88,0,0,1,0-15,12.84,12.84,0,0,1,4.87-5.12,13.89,13.89,0,0,1,7.19-1.84A13.65,13.65,0,0,1,423.92,581.7Z"/><path class="cls-1" d="M445.5,579.54v17q0,4.18,1.84,6.16a6.6,6.6,0,0,0,5.1,2,6.42,6.42,0,0,0,5-2q1.8-2,1.8-6.14v-17h3.66v17c0,3.86-1,6.75-2.87,8.69a11.56,11.56,0,0,1-15.34,0c-1.91-1.94-2.86-4.83-2.86-8.69v-17Z"/><path class="cls-1" d="M491.61,607.83l-7.38-11.56h-4v11.56H476.6V579.54h9.31q4.81,0,7.23,2.3a8.1,8.1,0,0,1,2.4,6.12,7.91,7.91,0,0,1-1.92,5.56,9,9,0,0,1-5.58,2.63l7.71,11.68Zm-11.36-14.21h5.34q6.23,0,6.22-5.45t-6.22-5.46h-5.34Z"/><path class="cls-1" d="M511.48,579.54v17q0,4.18,1.84,6.16a6.6,6.6,0,0,0,5.1,2,6.42,6.42,0,0,0,5-2q1.8-2,1.8-6.14v-17h3.66v17c0,3.86-1,6.75-2.87,8.69a11.56,11.56,0,0,1-15.34,0c-1.91-1.94-2.86-4.83-2.86-8.69v-17Z"/><path class="cls-3" d="M215.38,127.16s0,.31-2.57.31c0,0-7.45-.93-19.48-2.16a201.6,201.6,0,0,0-21.47-1.55c-8-.31-16.61-1.24-25.77-.93-13.75-.31-28.35,0-42.38.31-.29,15.78-.29,31.86,0,47.94.29,30.62,2,60,3.72,81.65s3.72,35.87,3.72,35.87c.86,6.8-5.72,7.73-6.58.93,0,0-1.72-14.23-3.44-36.19-1.43-22-2.86-51.64-2.86-82.26,0-15.77,0-32.16.57-47.63-22.91.93-44.67,2.48-60.42,4-4.29.31-5.44-4.64-.57-5.25,16.32-1.55,38.08-2.79,61-3.1l1.72-36.49,1.72-18.56.86-8.35.86-4,.57-1.85a4,4,0,0,1,.86-1.55,2.11,2.11,0,0,1,2.29-.93c.28,0,0,0,.57.31A3.09,3.09,0,0,1,110,49.23a3.51,3.51,0,0,1,.57,1.54,4.17,4.17,0,0,0,.29,1.86c0,1.55-.29,2.47-.29,3.71a37.71,37.71,0,0,1-.57,5.88l-1.43,8.35c-1.15,5-2.58,5.87-3.15,6.18,0,1.86-.29,4-.29,6.19-.57,11.13-1.14,23.5-1.43,36.18,14.32-.31,28.63,0,42.38.62,9.16,0,18,.93,26.06,1.55s15.17.93,21.18,2.16c12,1.55,19.48,2.79,19.48,2.79C215.67,126.54,215.38,127.16,215.38,127.16Z"/><path class="cls-3" d="M282.67,207.51s.58.57-1.71,2c0,0-1.44,1.15-4.3,3.15a126.12,126.12,0,0,1-12.31,6.87c-5.44,2.58-12.32,5.73-20.91,5.44a16.39,16.39,0,0,1-12-6l-2-2.86-1.14-3.44c-1.15-2.29-1.44-4.58-2-6.87-.86-4.3-1.43-9.16-3.43-12.31-1.72-3.15-6-2.87-9.74-1.15-7.73,3.72-13.46,12-18.33,19.47-9.73,15.46-16.32,31.79-21.18,44.1-1.15,2.86-4.87,2.86-6,.86a8.67,8.67,0,0,1-2-4,370.84,370.84,0,0,1-4-37.23c-1.43-22.62-2-53.26-.86-85,.86-31.5,2.86-64.14,6-91.06,1.72-13.46,3.15-25.48,7.16-35.22.57-1.14.86-2.86,3.72-3.72l.58-.29c1.14.29.28,0,.57.29H179c0-.29,1.43,1.14,1.43,1.14L181,3.34v2a31.79,31.79,0,0,1-1.15,6,86.8,86.8,0,0,1-2,8.88c-1.72,6.58-3.72,6-3.72,6s-.86-.29-.86-3.15c-.86,5.44-1.43,10.88-2,16.61-3.15,26.91-4.86,59.56-5.44,91.06s.29,61.85,1.72,84.18c1.15,13.46,2.29,23.77,3.44,30.07a233.82,233.82,0,0,1,18.9-36.37c5.44-7.73,11.45-16,21.19-20.9a14.81,14.81,0,0,1,8-1.43,8.46,8.46,0,0,1,7.45,4.58c2.86,5.15,2.86,9.73,3.72,14.32l1.43,6.3,1.15,2.86c.28.86,1.14,1.43,1.43,2.29a12.65,12.65,0,0,0,9.45,5.15c7.44.58,14.32-2,19.47-4.29a96,96,0,0,0,12.6-6.59l4.3-2.57C282.39,206.93,282.67,207.51,282.67,207.51ZM174.15,19.09l1.72-8.59Zm4-16V2.77C178.16,3.06,177.87,2.48,178.16,3.06Z"/><path class="cls-3" d="M352.25,209.51s-1.14,1.15-3.72,3.44c-2.58,2-6,5.44-10.59,8.87A122.59,122.59,0,0,1,321,233.56c-6.87,3.73-14.89,7.45-24.34,8a31.61,31.61,0,0,1-7.16-.57,15.91,15.91,0,0,1-3.43-1.15l-3.44-2c-3.72-3.72-5.15-8.88-5.73-13.75a41.18,41.18,0,0,1,2-14.6,30.48,30.48,0,0,1,6.59-12.88c2.86-4,7.15-7.45,12.59-7.74a8.32,8.32,0,0,1,3.73.29l2,.29,2,1.14a5.58,5.58,0,0,1,2.29,4.58,12.91,12.91,0,0,1-1.44,4c-2.86,4.3-6.58,6.3-10.3,7.73a41.27,41.27,0,0,1-10.88,2.87,5.65,5.65,0,0,1-2.58-.58,36.31,36.31,0,0,0-2.29,14.61c.28,4.29,1.43,8.59,4.29,11.45s7.45,3.15,11.74,3.44c8.59-.29,16.32-3.44,23.2-7.16a124.91,124.91,0,0,0,16.89-10.88c4.87-3.72,8.3-6.59,10.88-8.88,2.58-2,4-3.15,4-3.15,2-1.72,2.29-1.14,2.29-1.14S354.26,207.79,352.25,209.51ZM285,204.93a28.64,28.64,0,0,0,9.45-2.29c3.15-1.15,6.59-3.15,8.31-6a2.49,2.49,0,0,0,.85-1.72c0-.29-.28-.29-.57-.86a.89.89,0,0,1-.57-.29l-1.43-.28a7.71,7.71,0,0,0-2.58,0c-3.72,0-7.16,2.29-9.74,5.72A40.24,40.24,0,0,0,285,204.93Z"/><path class="cls-3" d="M517.76,207.51s0,.57-4,.86c0,0-2.58.28-7.73,1.43a169.58,169.58,0,0,0-20.62,6c-2.58,1.15-5.44,2-8.3,3.15a63,63,0,0,1-7.73,14.32,74.75,74.75,0,0,1-14.61,16.89,33.87,33.87,0,0,1-9.45,6.3,13.29,13.29,0,0,1-6,1.43,8.06,8.06,0,0,1-6-2,7.93,7.93,0,0,1-3.44-5.44,9.43,9.43,0,0,1,1.43-6.3,26.46,26.46,0,0,1,7.16-7.73,102.17,102.17,0,0,1,16.32-10.31c6-2.86,11.46-5.44,16.9-7.73a32.42,32.42,0,0,0,2.29-6.87c1.72-6.59,1.43-14-3.73-16.33a15.44,15.44,0,0,0-8.87-1.43,18.69,18.69,0,0,0-8.59,2.58,40.7,40.7,0,0,0-14,12C431,217.82,427,229,424.41,238.43c-.86,3.44-2.86,4.87-4.58,4.58-1.72.29-3.44-1.43-4-4.86,0,0-2.58-14.32-4.3-36.66a686.63,686.63,0,0,1,.29-83.9c2-31.21,5.73-63.57,10.6-89.91,1.14-6.58,2.57-12.6,4-18.33a23.52,23.52,0,0,0,1.15-4.29l.86-2.29L429,1.62l1.15-.86c.57-.28.86-.85,2-.57l.29.29c.57,0,1.43,1.43,1.43,1.43a1.41,1.41,0,0,1,.29.86,12.9,12.9,0,0,0,.28,1.43V6.49l-.57,3.72a174.41,174.41,0,0,1-4.58,21.19c-1.43,6.59-3.44,6-3.44,6a.28.28,0,0,1-.29-.29A755.4,755.4,0,0,0,417,117.88a707.38,707.38,0,0,0,.86,83c.86,11.45,2,20.9,2.87,27.2a82.15,82.15,0,0,1,13.17-23.76,49.56,49.56,0,0,1,16-13.46,29.61,29.61,0,0,1,11.17-3.15c4-.29,8.31.29,11.74,2.58a14.72,14.72,0,0,1,5.16,4.29,16.91,16.91,0,0,1,2.29,6.3,32.18,32.18,0,0,1-.86,11.74,10.13,10.13,0,0,1-1.15,3.15l6.3-2a127.42,127.42,0,0,1,21.19-5.73,41.19,41.19,0,0,1,8-1.15C517.76,206.65,517.76,207.51,517.76,207.51Zm-47.54,14.6c-4.58,2-9.16,4.3-14,6.87a86.31,86.31,0,0,0-15.46,10.31c-4.58,3.72-10.31,10-5.15,13.46,2,1.72,5.15,1.14,8-.29,2.87-1.14,5.73-3.43,8.31-5.72,5.15-4.59,9.45-10.31,13.46-16.33A77.78,77.78,0,0,0,470.22,222.11Z"/><path class="cls-3" d="M652.06,207.79s0,.29-1.72.58c0,0-5.16.57-13.46,2.29-8,2-19.47,5.15-29.78,12.31-.29.57-.86.86-1.43,1.43,4,3.15,7.44,6.87,8.87,11.45a21.36,21.36,0,0,1-2,17.47,15.45,15.45,0,0,1-8.3,6.3c-3.73.86-8.31,0-11.17-2.86s-3.72-6.87-3.72-10.6a25,25,0,0,1,2.57-10.31,27.34,27.34,0,0,1,7.45-10.3c-4.3-3.15-9.45-6-14-10.6a37.62,37.62,0,0,1-4-5.44s-5.16,4.58-14,11.74a149.64,149.64,0,0,1-16.61,11.17c-6.3,3.72-13.74,8.3-23.19,8.88-2.29.28-4.59-.58-6.88-1.44a14.94,14.94,0,0,1-5.72-4.58c-2.87-4-3.73-9.16-3.73-13.74.29-9.74,3.15-19.19,9.74-26.35,3.15-3.43,7.44-6.3,12.6-6.58,2.58.57,5.15.28,7.73,2.86a6.18,6.18,0,0,1,.86,4.87,9.8,9.8,0,0,1-1.72,3.44c-6,7.44-14.32,9.16-20.9,9.73a3,3,0,0,1-2.29-.29,34.93,34.93,0,0,0-2.29,12.32c-.29,4.29.57,8.59,2.86,11.74,2,3.43,6,5.15,9.74,5.15,8-.28,15.75-4.29,22-7.73,6.59-3.72,12-7.73,16.61-10.88,9.17-6.59,14.61-11.17,14.61-11.17,0-.28,0-.28.28-.28a8.5,8.5,0,0,1-1.14-2.87,20,20,0,0,1,.57-10.88,30,30,0,0,1,12.6-16.32c2.58-1.72,6.59-3.15,10-1.15a4.58,4.58,0,0,1,2,2,9.29,9.29,0,0,1,.85,2.58c.29,1.71-.57,3.43-1.14,4.58-2.58,5.44-6.59,8.59-9.45,11.74-6.3,5.44-10.31,8.59-10.6,8.59a13.27,13.27,0,0,0,3.73,5.15c4.29,4.3,9.73,7.16,14.6,10.6l2.58-1.72c11.17-7.16,22.62-10,30.92-11.74a131.76,131.76,0,0,1,13.46-1.72C652.06,207.22,652.06,207.79,652.06,207.79Zm-132.87-2.86c5.73-.57,13.17-2.58,17.47-7.73.86-1.43,1.14-2.58.86-2.87-.29-.57-2.29-.85-4-1.14-3.44,0-6.87,2-9.74,4.87A40.43,40.43,0,0,0,519.19,204.93Zm65,.57c.57-.28,4.58-3.43,9.74-8.87,2.86-2.87,6.58-6.59,8.87-11.17,1.15-2.29,1.44-4.87-1.14-6-1.72-1.14-4.87-.28-7.16,1.15a28.14,28.14,0,0,0-10.59,14.89A15,15,0,0,0,584.19,205.5ZM602,227.55a26.11,26.11,0,0,0-6.88,9.74,33.38,33.38,0,0,0-2,8.87c.29,3.15,1.14,6,2.86,7.45a8.1,8.1,0,0,0,7.16,1.72,12.83,12.83,0,0,0,5.73-4.58A17.23,17.23,0,0,0,610,237.29C609.1,233.85,606,230.41,602,227.55Z"/><path class="cls-3" d="M765.16,127.16s0,.31-2.57.31c0,0-7.45-.93-19.48-2.16a201.6,201.6,0,0,0-21.47-1.55c-8-.31-16.61-1.24-25.77-.93-13.75-.31-28.35,0-42.38.31-.29,15.78-.29,31.86,0,47.94.28,30.62,2,60,3.72,81.65s3.72,35.87,3.72,35.87c.86,6.8-5.72,7.73-6.58.93,0,0-1.72-14.23-3.44-36.19-1.43-22-2.86-51.64-2.86-82.26,0-15.77,0-32.16.57-47.63-22.91.93-44.67,2.48-60.42,4-4.29.31-5.44-4.64-.57-5.25,16.32-1.55,38.08-2.79,61-3.1l1.72-36.49,1.72-18.56.86-8.35.85-4,.58-1.85a4,4,0,0,1,.86-1.55,2.1,2.1,0,0,1,2.29-.93c.28,0,0,0,.57.31a3.09,3.09,0,0,1,1.72,1.55,3.51,3.51,0,0,1,.57,1.54,4.17,4.17,0,0,0,.29,1.86c0,1.55-.29,2.47-.29,3.71a37.71,37.71,0,0,1-.57,5.88l-1.43,8.35c-1.15,5-2.58,5.87-3.15,6.18,0,1.86-.29,4-.29,6.19-.57,11.13-1.15,23.5-1.43,36.18,14.31-.31,28.63,0,42.38.62,9.16,0,18,.93,26,1.55s15.18.93,21.19,2.16c12,1.55,19.48,2.79,19.48,2.79C765.45,126.54,765.16,127.16,765.16,127.16Z"/><path class="cls-1" d="M2.82,93c0-.12-.11-.23-.43-.23C.76,92.36,0,91.11,0,89.06a10,10,0,0,1,1.3-5.22,18.28,18.28,0,0,1,4.88-5.45c1.42-1,2.72-1.13,3.91-.22a1.25,1.25,0,0,1,0,1.7,21.05,21.05,0,0,1-1.74,2.38,5.49,5.49,0,0,0-1.3,2.62c1.85,1,2.5,2.72,1.85,5S6.73,93.15,4.23,93Zm18.77,0c0-.12-.11-.23-.43-.23-1.63-.45-2.39-1.7-2.39-3.75a10.11,10.11,0,0,1,1.3-5.22A18.2,18.2,0,0,1,25,78.39c1.41-1,2.71-1.13,3.9-.22a1.25,1.25,0,0,1,0,1.7,20.81,20.81,0,0,1-1.73,2.38,5.42,5.42,0,0,0-1.31,2.62c1.85,1,2.5,2.72,1.85,5S25.5,93.15,23,93Z"/></svg>