<svg id="Layer_1" data-name="Layer 1" xmlns="http://www.w3.org/2000/svg" viewBox="0 0 14 14"><defs><style>.cls-1{fill:#fff;}.cls-2{fill:#adafb2;}</style></defs><title>pull-down14px</title><rect class="cls-1" width="14" height="14"/><path class="cls-2" d="M4.83,6a.33.33,0,0,1,0-.47.34.34,0,0,1,.46,0L6.67,7V2a.33.33,0,0,1,.66,0V7L8.71,5.57a.34.34,0,0,1,.46,0,.33.33,0,0,1,0,.47L7.23,8l0,0h0a.38.38,0,0,1-.34,0h0l0,0L4.83,6Z"/><path class="cls-2" d="M7,11.18A4.82,4.82,0,0,1,2.43,7.87a.34.34,0,0,1,.22-.43.35.35,0,0,1,.44.21,4.13,4.13,0,0,0,7.84,0,.35.35,0,0,1,.44-.21.34.34,0,0,1,.22.43A4.83,4.83,0,0,1,7,11.18Z"/></svg>