<svg xmlns="http://www.w3.org/2000/svg" width="14" height="14" viewBox="0 0 14 14">
  <g fill="none">
    <rect width="14" height="14" fill="#FFF"/>
    <path fill="#ADAFB2" d="M4.83,6 C4.76709437,5.93798344 4.73167866,5.85333556 4.73167866,5.765 C4.73167866,5.67666444 4.76709437,5.59201656 4.83,5.53 C4.96006314,5.41053291 5.15993686,5.41053291 5.29,5.53 L6.67,7 L6.67,2 C6.67,1.81774603 6.81774603,1.67 7,1.67 C7.18225397,1.67 7.33,1.81774603 7.33,2 L7.33,7 L8.71,5.57 C8.84006314,5.45053291 9.03993686,5.45053291 9.17,5.57 C9.23290563,5.63201656 9.26832134,5.71666444 9.26832134,5.805 C9.26832134,5.89333556 9.23290563,5.97798344 9.17,6.04 L7.23,8 L7.23,8 L7.23,8 C7.12298741,8.05352945 6.99701259,8.05352945 6.89,8 L6.89,8 L6.89,8 L4.83,6 Z"/>
    <path fill="#ADAFB2" d="M7,11.1800031 C4.92252464,11.1768234 3.08082568,9.8429014 2.43,7.87 C2.40172163,7.78381171 2.40905589,7.68989694 2.45037156,7.60914359 C2.49168723,7.52839024 2.56355841,7.46749436 2.65,7.44 C2.82932048,7.37953904 3.02422286,7.47256063 3.09,7.65 C3.6503541,9.33943325 5.2300614,10.4798077 7.01,10.4798077 C8.7899386,10.4798077 10.3696459,9.33943325 10.93,7.65 C10.9957771,7.47256063 11.1906795,7.37953904 11.37,7.44 C11.4564416,7.46749436 11.5283128,7.52839024 11.5696284,7.60914359 C11.6109441,7.68989694 11.6182784,7.78381171 11.59,7.87 C10.9342194,9.84795669 9.0838319,11.182332 7,11.1800031 Z"/>
  </g>
</svg>
