<svg xmlns="http://www.w3.org/2000/svg" width="14" height="14" viewBox="0 0 14 14">
  <g fill="none" fill-rule="evenodd">
    <rect width="14" height="14" fill="#FFF" fill-rule="nonzero"/>
    <path d="M10.44,3.89 C10.4720983,3.07288117 10.2966388,2.26095106 9.93,1.53 L8.53,3.29 C8.48167824,3.33918257 8.41833912,3.37085213 8.35,3.38 C8.27980961,3.38330015 8.2112721,3.35804949 8.16,3.31 C8.13449495,3.29886869 8.10550505,3.29886869 8.08,3.31 L5.81,3.31 C5.74372583,3.31 5.69,3.36372583 5.69,3.43 L5.69,4.27 C5.69088282,4.34281931 5.66610084,4.41362497 5.62,4.47 C5.57503258,4.52231006 5.50896089,4.55167526 5.44,4.55 L4.81,4.55 C4.77817402,4.55 4.74765155,4.56264282 4.72514719,4.58514719 C4.70264282,4.60765155 4.69,4.63817402 4.69,4.67 L4.69,5.86 C4.69,5.99807119 4.57807119,6.11 4.44,6.11 L4.23,6.11 C3.85996922,6.11 3.56,6.40996922 3.56,6.78 L3.56,7.94 L6.12,7.94 C6.25807119,7.94 6.37,8.05192881 6.37,8.19 C6.37,8.32807119 6.25807119,8.44 6.12,8.44 L3.56,8.44 L3.56,8.7 L5,8.7 C5.07420147,8.70146621 5.14391585,8.73582452 5.19027819,8.79377745 C5.23664053,8.85173037 5.25485768,8.92728647 5.24,9 C5.21663162,9.11459865 5.11693396,9.19768004 5,9.2 L3.56,9.2 L3.56,9.46 L6.12,9.46 C6.21933024,9.43983013 6.32100903,9.48163072 6.37743208,9.56583143 C6.43385514,9.65003214 6.43385514,9.75996786 6.37743208,9.84416857 C6.32100903,9.92836928 6.21933024,9.97016987 6.12,9.95 L3.56,9.95 L3.56,10.22 L5,10.22 C5.09933024,10.1998301 5.20100903,10.2416307 5.25743208,10.3258314 C5.31385514,10.4100321 5.31385514,10.5199679 5.25743208,10.6041686 C5.20100903,10.6883693 5.09933024,10.7301699 5,10.71 L3.56,10.71 L3.56,11.36 C3.56,11.7300308 3.85996922,12.03 4.23,12.03 L7,12.03 C7.37003078,12.03 7.67,11.7300308 7.67,11.36 L7.67,6.78 C7.67,6.40996922 7.37003078,6.11 7,6.11 L6.82,6.11 C6.68192881,6.11 6.57,5.99807119 6.57,5.86 L6.57,4.64 C6.56397622,4.57121198 6.58556323,4.50285312 6.63,4.45 C6.67923877,4.39645933 6.74738062,4.36418161 6.82,4.36 L8.08,4.36 C8.10956706,4.3672078 8.14043294,4.3672078 8.17,4.36 C8.21498575,4.30194229 8.28703456,4.27160595 8.36,4.28 C8.43261938,4.28418161 8.50076123,4.31645933 8.55,4.37 L9.89,6.09 C10.227559,5.40407282 10.415057,4.65408118 10.44,3.89 Z"/>
    <path fill="#ADAFB2" fill-rule="nonzero" d="M10.32,1.22 L10.32,1.22 C10.2520919,1.10204762 10.1344478,1.02116736 10,1 C9.84084076,1.00233883 9.69230514,1.08032003 9.6,1.21 L8.27,2.81 C8.20703085,2.80039482 8.14296915,2.80039482 8.08,2.81 L5.81,2.81 C5.46758346,2.81 5.19,3.08758346 5.19,3.43 L5.19,4 L4.81,4 C4.6464923,3.99731918 4.48875498,4.06040143 4.37218579,4.17509047 C4.25561659,4.28977952 4.18997802,4.44647033 4.19,4.61 L4.19,5.61 C3.55949957,5.63156807 3.05963121,6.14913088 3.0599998,6.78 L3.0599998,11.36 C3.0599998,11.6693916 3.1835742,11.9659678 3.40328401,12.1837997 C3.62299383,12.4016317 3.92061989,12.5226672 4.23,12.52 L7,12.52 C7.31374082,12.5280579 7.61756497,12.4097308 7.84321536,12.1916021 C8.06886574,11.9734734 8.19742103,11.6738337 8.2,11.36 L8.2,6.78 C8.19500682,6.15301202 7.696642,5.64141628 7.07,5.62 L7.07,4.86 L8.07,4.86 C8.13967997,4.86946616 8.21032003,4.86946616 8.28,4.86 L9.51,6.46 C9.59416373,6.5935642 9.74216362,6.67325645 9.9,6.67 C10.0412275,6.65297452 10.1685175,6.57660048 10.25,6.46 C10.6692131,5.68417527 10.9020262,4.82139726 10.93,3.94 C10.9886273,2.99383945 10.7770712,2.05050758 10.32,1.22 Z M8.32,4.22 C8.24703456,4.21160595 8.17498575,4.24194229 8.13,4.3 C8.10043294,4.3072078 8.06956706,4.3072078 8.04,4.3 L6.82,4.3 C6.74738062,4.30418161 6.67923877,4.33645933 6.63,4.39 C6.58556323,4.44285312 6.56397622,4.51121198 6.57,4.58 L6.57,5.86 C6.57,5.99807119 6.68192881,6.11 6.82,6.11 L7,6.11 C7.37003078,6.11 7.67,6.40996922 7.67,6.78 L7.67,11.36 C7.65394235,11.7182653 7.35862477,12.0003597 7,12 L4.23,12 C3.85996922,12 3.56,11.7000308 3.56,11.33 L3.56,10.68 L5,10.68 C5.09933024,10.7001699 5.20100903,10.6583693 5.25743208,10.5741686 C5.31385514,10.4899679 5.31385514,10.3800321 5.25743208,10.2958314 C5.20100903,10.2116307 5.09933024,10.1698301 5,10.19 L3.56,10.19 L3.56,10 L6.12,10 C6.21933024,10.0201699 6.32100903,9.97836928 6.37743208,9.89416857 C6.43385514,9.80996786 6.43385514,9.70003214 6.37743208,9.61583143 C6.32100903,9.53163072 6.21933024,9.48983013 6.12,9.51 L3.56,9.51 L3.56,9.2 L5,9.2 C5.11693396,9.19768004 5.21663162,9.11459865 5.24,9 C5.25485768,8.92728647 5.23664053,8.85173037 5.19027819,8.79377745 C5.14391585,8.73582452 5.07420147,8.70146621 5,8.7 L3.56,8.7 L3.56,8.44 L6.12,8.44 C6.25807119,8.44 6.37,8.32807119 6.37,8.19 C6.37,8.05192881 6.25807119,7.94 6.12,7.94 L3.56,7.94 L3.56,6.78 C3.56,6.40996922 3.85996922,6.11 4.23,6.11 L4.44,6.11 C4.57807119,6.11 4.69,5.99807119 4.69,5.86 L4.69,4.64 C4.69,4.57372583 4.74372583,4.52 4.81,4.52 L5.44,4.52 C5.50896089,4.52167526 5.57503258,4.49231006 5.62,4.44 C5.66610084,4.38362497 5.69088282,4.31281931 5.69,4.24 L5.69,3.4 C5.69,3.33372583 5.74372583,3.28 5.81,3.28 L8.08,3.28 C8.10550505,3.26886869 8.13449495,3.26886869 8.16,3.28 C8.2112721,3.32804949 8.27980961,3.35330015 8.35,3.35 C8.41833912,3.34085213 8.48167824,3.30918257 8.53,3.26 L9.93,1.5 C10.2966388,2.23095106 10.4720983,3.04288117 10.44,3.86 C10.415057,4.62408118 10.227559,5.37407282 9.89,6.06 L8.55,4.33 C8.50076123,4.27645933 8.43261938,4.24418161 8.36,4.24 L8.32,4.22 Z"/>
  </g>
</svg>
