<svg id="Layer_1" data-name="Layer 1" xmlns="http://www.w3.org/2000/svg" viewBox="0 0 14 14"><defs><style>.cls-1{fill:#fff;}.cls-2{fill:none;}.cls-3{fill:#adafb2;}</style></defs><title>pump14px</title><rect class="cls-1" width="14" height="14"/><path class="cls-2" d="M10.44,3.89a4.84,4.84,0,0,0-.51-2.36L8.53,3.29a.31.31,0,0,1-.18.09.26.26,0,0,1-.19-.07.1.1,0,0,0-.08,0H5.81a.12.12,0,0,0-.12.12v.84a.31.31,0,0,1-.07.2.23.23,0,0,1-.18.08H4.81a.12.12,0,0,0-.12.12V5.86a.25.25,0,0,1-.25.25H4.23a.67.67,0,0,0-.67.67V7.94H6.12a.25.25,0,0,1,.25.25.25.25,0,0,1-.25.25H3.56V8.7H5A.25.25,0,0,1,5.24,9,.25.25,0,0,1,5,9.2H3.56v.26H6.12a.25.25,0,1,1,0,.49H3.56v.27H5a.25.25,0,1,1,0,.49H3.56v.65a.67.67,0,0,0,.67.67H7a.67.67,0,0,0,.67-.67V6.78A.67.67,0,0,0,7,6.11H6.82a.25.25,0,0,1-.25-.25V4.64a.26.26,0,0,1,.06-.19.28.28,0,0,1,.19-.09H8.08a.19.19,0,0,0,.09,0,.21.21,0,0,1,.19-.08.28.28,0,0,1,.19.09L9.89,6.09A5.38,5.38,0,0,0,10.44,3.89Z"/><path class="cls-3" d="M10.32,1.22h0A.45.45,0,0,0,10,1a.5.5,0,0,0-.4.21L8.27,2.81a.63.63,0,0,0-.19,0H5.81a.62.62,0,0,0-.62.62V4H4.81a.61.61,0,0,0-.62.61v1A1.17,1.17,0,0,0,3.06,6.78v4.58a1.16,1.16,0,0,0,1.17,1.16H7A1.17,1.17,0,0,0,8.2,11.36V6.78A1.17,1.17,0,0,0,7.07,5.62V4.86h1a.78.78,0,0,0,.21,0l1.23,1.6a.45.45,0,0,0,.39.21.5.5,0,0,0,.35-.21,5.68,5.68,0,0,0,.68-2.52A5,5,0,0,0,10.32,1.22Zm-2,3a.21.21,0,0,0-.19.08.19.19,0,0,1-.09,0H6.82a.28.28,0,0,0-.19.09.26.26,0,0,0-.06.19V5.86a.25.25,0,0,0,.25.25H7a.67.67,0,0,1,.67.67v4.58A.67.67,0,0,1,7,12H4.23a.67.67,0,0,1-.67-.67v-.65H5a.25.25,0,1,0,0-.49H3.56V10H6.12a.25.25,0,1,0,0-.49H3.56V9.2H5A.25.25,0,0,0,5.24,9,.25.25,0,0,0,5,8.7H3.56V8.44H6.12a.25.25,0,0,0,.25-.25.25.25,0,0,0-.25-.25H3.56V6.78a.67.67,0,0,1,.67-.67h.21a.25.25,0,0,0,.25-.25V4.64a.12.12,0,0,1,.12-.12h.63a.23.23,0,0,0,.18-.08.31.31,0,0,0,.07-.2V3.4a.12.12,0,0,1,.12-.12H8.08a.1.1,0,0,1,.08,0,.26.26,0,0,0,.19.07.31.31,0,0,0,.18-.09l1.4-1.76a4.84,4.84,0,0,1,.51,2.36,5.38,5.38,0,0,1-.55,2.2L8.55,4.33A.28.28,0,0,0,8.36,4.24Z"/></svg>