<svg id="Layer_1" data-name="Layer 1" xmlns="http://www.w3.org/2000/svg" viewBox="0 0 860 357.67"><defs><style>.cls-1{fill:#fff;}.cls-2{fill:#58595b;}.cls-3{fill:#adafb2;}.cls-4{fill:none;}.cls-5{fill:#808083;opacity:0.5;}</style></defs><title>SignatureTankBenefits</title><rect class="cls-1" y="195" width="72.67" height="72.67"/><rect class="cls-1" y="285" width="72.67" height="72.67"/><path class="cls-2" d="M98.89,230a2.56,2.56,0,0,1-1,1,3.55,3.55,0,0,1-1.74.39,4.09,4.09,0,0,1-1.79-.37,3.23,3.23,0,0,1-1.26-1,2.92,2.92,0,0,1-.54-1.47h1.4a2,2,0,0,0,.3.85,1.84,1.84,0,0,0,.71.67,2.26,2.26,0,0,0,1.14.27,1.78,1.78,0,0,0,1.32-.46,1.59,1.59,0,0,0,.46-1.18,1.57,1.57,0,0,0-.32-1,2.31,2.31,0,0,0-.8-.61,10.37,10.37,0,0,0-1.3-.48,14.62,14.62,0,0,1-1.55-.6,2.73,2.73,0,0,1-1-.84,2.5,2.5,0,0,1-.41-1.49,2.56,2.56,0,0,1,.38-1.39,2.48,2.48,0,0,1,1.1-.94,3.92,3.92,0,0,1,1.67-.33,3.6,3.6,0,0,1,2.38.73,2.76,2.76,0,0,1,1,1.85H97.61a1.9,1.9,0,0,0-.62-1.07,1.93,1.93,0,0,0-1.37-.46,1.87,1.87,0,0,0-1.26.41,1.64,1.64,0,0,0-.17,2.12,2.21,2.21,0,0,0,.77.57,11.65,11.65,0,0,0,1.27.47,11.73,11.73,0,0,1,1.58.61,2.69,2.69,0,0,1,1,.87,2.59,2.59,0,0,1,.42,1.55A2.7,2.7,0,0,1,98.89,230Z"/><path class="cls-2" d="M102.45,220.5a.92.92,0,0,1,.65-.22.93.93,0,0,1,.65.22.78.78,0,0,1,.24.59.75.75,0,0,1-.24.58.93.93,0,0,1-.65.22.92.92,0,0,1-.65-.22.76.76,0,0,1-.25-.58A.78.78,0,0,1,102.45,220.5Zm1.3,2.9v7.91h-1.32V223.4Z"/><path class="cls-2" d="M119.23,224.16a3.58,3.58,0,0,1,.85,2.56v4.59h-1.32v-4.48a2.52,2.52,0,0,0-.56-1.78,2,2,0,0,0-1.57-.62,2.13,2.13,0,0,0-1.66.68,2.88,2.88,0,0,0-.63,2v4.19H113v-4.48a2.52,2.52,0,0,0-.57-1.78,2,2,0,0,0-1.56-.62,2.16,2.16,0,0,0-1.68.68,2.93,2.93,0,0,0-.62,2v4.19h-1.31V223.4h1.31v1.8a2.54,2.54,0,0,1,1-1.43,3.17,3.17,0,0,1,3.45,0,2.74,2.74,0,0,1,1.06,1.5,2.86,2.86,0,0,1,1.11-1.49,3.07,3.07,0,0,1,1.76-.53A2.92,2.92,0,0,1,119.23,224.16Z"/><path class="cls-2" d="M129.78,223.79a3.39,3.39,0,0,1,1.29,1.41,4.77,4.77,0,0,1,.47,2.16,4.71,4.71,0,0,1-.47,2.16,3.31,3.31,0,0,1-1.29,1.4,3.55,3.55,0,0,1-1.87.49,3.2,3.2,0,0,1-2-.58,2.91,2.91,0,0,1-1.1-1.54v5.76h-1.31V223.4h1.31v2a2.92,2.92,0,0,1,1.1-1.53,3.2,3.2,0,0,1,2-.59A3.65,3.65,0,0,1,129.78,223.79Zm-3.63,1a2.49,2.49,0,0,0-1,1,3.24,3.24,0,0,0-.35,1.52,3.19,3.19,0,0,0,.35,1.52,2.49,2.49,0,0,0,1,1,2.71,2.71,0,0,0,1.38.36,2.59,2.59,0,0,0,2-.77,3.5,3.5,0,0,0,0-4.25,2.59,2.59,0,0,0-2-.77A2.8,2.8,0,0,0,126.15,224.82Z"/><path class="cls-2" d="M136,220.65v10.66h-1.31V220.65Z"/><path class="cls-2" d="M146.76,227.64h-6.32a2.72,2.72,0,0,0,.77,2,2.5,2.5,0,0,0,1.78.68,2.59,2.59,0,0,0,1.59-.49,2,2,0,0,0,.78-1.29h1.4a3.3,3.3,0,0,1-1.93,2.48,4.27,4.27,0,0,1-1.79.36,4,4,0,0,1-2-.49,3.39,3.39,0,0,1-1.38-1.4,4.47,4.47,0,0,1-.49-2.16,4.53,4.53,0,0,1,.49-2.16,3.47,3.47,0,0,1,1.38-1.41,4.1,4.1,0,0,1,2-.49,4,4,0,0,1,2,.49,3.43,3.43,0,0,1,1.31,1.31,4,4,0,0,1,.4,2.54Zm-1.56-2.1a2.06,2.06,0,0,0-.9-.88,2.84,2.84,0,0,0-1.26-.29,2.57,2.57,0,0,0-1.81.67,2.65,2.65,0,0,0-.79,2h5.05A2.66,2.66,0,0,0,145.2,225.54Z"/><path class="cls-2" d="M161.2,223.79a3.39,3.39,0,0,1,1.29,1.41,4.77,4.77,0,0,1,.47,2.16,4.71,4.71,0,0,1-.47,2.16,3.31,3.31,0,0,1-1.29,1.4,3.55,3.55,0,0,1-1.87.49,3.2,3.2,0,0,1-2-.58,2.91,2.91,0,0,1-1.1-1.54v5.76H155V223.4h1.31v2a2.92,2.92,0,0,1,1.1-1.53,3.2,3.2,0,0,1,2-.59A3.65,3.65,0,0,1,161.2,223.79Zm-3.63,1a2.49,2.49,0,0,0-1,1,3.24,3.24,0,0,0-.35,1.52,3.19,3.19,0,0,0,.35,1.52,2.49,2.49,0,0,0,1,1,2.73,2.73,0,0,0,1.38.36,2.59,2.59,0,0,0,2-.77,3.5,3.5,0,0,0,0-4.25,2.59,2.59,0,0,0-2-.77A2.83,2.83,0,0,0,157.57,224.82Z"/><path class="cls-2" d="M173.14,223.4v7.91h-1.31v-1.86a2.62,2.62,0,0,1-1.08,1.48,3.16,3.16,0,0,1-1.79.51,2.91,2.91,0,0,1-2.21-.89,3.5,3.5,0,0,1-.85-2.54V223.4h1.31v4.48a2.54,2.54,0,0,0,.6,1.82,2.14,2.14,0,0,0,1.64.65,2.27,2.27,0,0,0,1.73-.7,2.92,2.92,0,0,0,.65-2V223.4Z"/><path class="cls-2" d="M178,220.65v10.66h-1.31V220.65Z"/><path class="cls-2" d="M182.84,220.65v10.66h-1.31V220.65Z"/><path class="cls-2" d="M196.57,223.88a3,3,0,0,1,1.12,1.54v-4.77H199v10.66h-1.31v-2a2.92,2.92,0,0,1-1.12,1.54,3.2,3.2,0,0,1-1.95.58,3.55,3.55,0,0,1-1.87-.49,3.31,3.31,0,0,1-1.29-1.4,4.71,4.71,0,0,1-.47-2.16,4.77,4.77,0,0,1,.47-2.16,3.39,3.39,0,0,1,1.29-1.41,3.65,3.65,0,0,1,1.87-.49A3.26,3.26,0,0,1,196.57,223.88Zm-3.51,1.36a3.46,3.46,0,0,0,0,4.25,2.55,2.55,0,0,0,1.94.77,2.69,2.69,0,0,0,1.39-.36,2.53,2.53,0,0,0,1-1,3.08,3.08,0,0,0,.35-1.52,3.13,3.13,0,0,0-.35-1.52,2.53,2.53,0,0,0-1-1,2.79,2.79,0,0,0-1.39-.35A2.55,2.55,0,0,0,193.06,225.24Z"/><path class="cls-2" d="M208.15,223.79a3.54,3.54,0,0,1,1.41,1.41,4.42,4.42,0,0,1,.51,2.16,4.37,4.37,0,0,1-.51,2.16,3.46,3.46,0,0,1-1.41,1.4,4.47,4.47,0,0,1-4.07,0,3.48,3.48,0,0,1-1.42-1.4,4.27,4.27,0,0,1-.52-2.16,4.32,4.32,0,0,1,.52-2.16,3.57,3.57,0,0,1,1.42-1.41,4.47,4.47,0,0,1,4.07,0Zm-3.34,1a2.36,2.36,0,0,0-1,1,3.23,3.23,0,0,0-.37,1.62,3.2,3.2,0,0,0,.37,1.61,2.3,2.3,0,0,0,1,1,2.75,2.75,0,0,0,1.3.32,2.79,2.79,0,0,0,1.31-.32,2.3,2.3,0,0,0,1-1,3.2,3.2,0,0,0,.37-1.61,3.23,3.23,0,0,0-.37-1.62,2.36,2.36,0,0,0-1-1,2.78,2.78,0,0,0-1.31-.31A2.74,2.74,0,0,0,204.81,224.77Z"/><path class="cls-2" d="M224.08,223.4l-2.27,7.91H220.4l-2.18-6.44L216,231.31h-1.43l-2.25-7.91h1.33l1.68,6.66,2.19-6.66h1.37l2.2,6.64,1.7-6.64Z"/><path class="cls-2" d="M233.14,224.16a3.53,3.53,0,0,1,.85,2.56v4.59h-1.31v-4.48a2.52,2.52,0,0,0-.6-1.81,2.18,2.18,0,0,0-1.64-.64,2.27,2.27,0,0,0-1.73.7,2.92,2.92,0,0,0-.65,2v4.19h-1.31V223.4h1.31v1.88a2.71,2.71,0,0,1,1.07-1.49,3.18,3.18,0,0,1,1.78-.52A2.94,2.94,0,0,1,233.14,224.16Z"/><path class="cls-2" d="M248.84,224.16a3.53,3.53,0,0,1,.85,2.56v4.59h-1.31v-4.48a2.48,2.48,0,0,0-.61-1.81,2.17,2.17,0,0,0-1.64-.64,2.27,2.27,0,0,0-1.73.7,2.92,2.92,0,0,0-.65,2v4.19h-1.31V223.4h1.31v1.88a2.72,2.72,0,0,1,1.08-1.49,3.13,3.13,0,0,1,1.78-.52A3,3,0,0,1,248.84,224.16Z"/><path class="cls-2" d="M260.17,223.4v7.91h-1.31v-1.86a2.65,2.65,0,0,1-1.07,1.48,3.18,3.18,0,0,1-1.79.51,2.92,2.92,0,0,1-2.22-.89,3.5,3.5,0,0,1-.85-2.54V223.4h1.31v4.48a2.54,2.54,0,0,0,.6,1.82,2.16,2.16,0,0,0,1.65.65,2.26,2.26,0,0,0,1.72-.7,2.92,2.92,0,0,0,.65-2V223.4Z"/><path class="cls-2" d="M266.16,223.73a3.43,3.43,0,0,1,1.79-.46v1.43h-.41a2.78,2.78,0,0,0-1.81.57,2.27,2.27,0,0,0-.71,1.88v4.16h-1.31V223.4H265V225A2.93,2.93,0,0,1,266.16,223.73Z"/><path class="cls-2" d="M275.31,224a3,3,0,0,1,1,1.88h-1.25a1.84,1.84,0,0,0-.59-1.16,1.9,1.9,0,0,0-1.33-.45,1.61,1.61,0,0,0-1.1.34,1.11,1.11,0,0,0-.4.91.94.94,0,0,0,.27.7,1.7,1.7,0,0,0,.66.4c.27.09.63.19,1.09.3a10.21,10.21,0,0,1,1.42.41,2.24,2.24,0,0,1,.92.67,1.91,1.91,0,0,1,.38,1.24,2,2,0,0,1-.73,1.57,2.93,2.93,0,0,1-1.93.6,3.75,3.75,0,0,1-2.31-.68,2.73,2.73,0,0,1-1-1.88h1.27a1.63,1.63,0,0,0,.63,1.16,2.22,2.22,0,0,0,1.46.45,1.45,1.45,0,0,0,1.05-.35,1.14,1.14,0,0,0,.39-.9,1,1,0,0,0-.28-.74,1.76,1.76,0,0,0-.67-.41,9.87,9.87,0,0,0-1.11-.31,10.79,10.79,0,0,1-1.41-.4,2.16,2.16,0,0,1-.89-.64,1.82,1.82,0,0,1-.37-1.19,2,2,0,0,1,.74-1.6,3,3,0,0,1,2-.62A3.21,3.21,0,0,1,275.31,224Z"/><path class="cls-2" d="M279.58,220.5a1.07,1.07,0,0,1,1.3,0,.78.78,0,0,1,.24.59.75.75,0,0,1-.24.58,1.07,1.07,0,0,1-1.3,0,.75.75,0,0,1-.24-.58A.78.78,0,0,1,279.58,220.5Zm1.3,2.9v7.91h-1.31V223.4Z"/><path class="cls-2" d="M290.81,224.16a3.53,3.53,0,0,1,.85,2.56v4.59h-1.31v-4.48a2.52,2.52,0,0,0-.6-1.81,2.18,2.18,0,0,0-1.64-.64,2.27,2.27,0,0,0-1.73.7,2.92,2.92,0,0,0-.65,2v4.19h-1.31V223.4h1.31v1.88a2.71,2.71,0,0,1,1.07-1.49,3.18,3.18,0,0,1,1.78-.52A2.94,2.94,0,0,1,290.81,224.16Z"/><path class="cls-2" d="M300.31,223.88a3.07,3.07,0,0,1,1.12,1.54v-2h1.31v8a4.06,4.06,0,0,1-.46,1.94,3.33,3.33,0,0,1-1.3,1.33,4,4,0,0,1-1.94.47,4.13,4.13,0,0,1-2.61-.77,3.37,3.37,0,0,1-1.28-2.08h1.29a2.27,2.27,0,0,0,.88,1.25A2.77,2.77,0,0,0,299,234a2.46,2.46,0,0,0,1.77-.68,2.58,2.58,0,0,0,.7-1.91v-2.15a3,3,0,0,1-1.12,1.54,3.2,3.2,0,0,1-1.95.58,3.53,3.53,0,0,1-1.87-.49,3.31,3.31,0,0,1-1.29-1.4,4.71,4.71,0,0,1-.47-2.16,4.77,4.77,0,0,1,.47-2.16,3.39,3.39,0,0,1,1.29-1.41,3.62,3.62,0,0,1,1.87-.49A3.26,3.26,0,0,1,300.31,223.88Zm-3.51,1.36a3.46,3.46,0,0,0,0,4.25,2.54,2.54,0,0,0,1.93.77,2.69,2.69,0,0,0,1.39-.36,2.49,2.49,0,0,0,1-1,3.19,3.19,0,0,0,.35-1.52,3.24,3.24,0,0,0-.35-1.52,2.49,2.49,0,0,0-1-1,2.79,2.79,0,0,0-1.39-.35A2.54,2.54,0,0,0,296.8,225.24Z"/><path class="cls-2" d="M316.45,223.88a3,3,0,0,1,1.12,1.54v-2h1.31v7.91h-1.31v-2a2.92,2.92,0,0,1-1.12,1.54,3.2,3.2,0,0,1-1.95.58,3.55,3.55,0,0,1-1.87-.49,3.31,3.31,0,0,1-1.29-1.4,4.71,4.71,0,0,1-.47-2.16,4.77,4.77,0,0,1,.47-2.16,3.39,3.39,0,0,1,1.29-1.41,3.65,3.65,0,0,1,1.87-.49A3.26,3.26,0,0,1,316.45,223.88Zm-3.51,1.36a3.46,3.46,0,0,0,0,4.25,2.55,2.55,0,0,0,1.94.77,2.66,2.66,0,0,0,1.38-.36,2.49,2.49,0,0,0,1-1,3.19,3.19,0,0,0,.35-1.52,3.24,3.24,0,0,0-.35-1.52,2.49,2.49,0,0,0-1-1,2.75,2.75,0,0,0-1.38-.35A2.55,2.55,0,0,0,312.94,225.24Z"/><path class="cls-2" d="M328.41,224.11a3.48,3.48,0,0,1,1.23,2.16h-1.39a2,2,0,0,0-.78-1.33,2.59,2.59,0,0,0-1.59-.48,2.56,2.56,0,0,0-1.26.31,2.34,2.34,0,0,0-.92,1,3.47,3.47,0,0,0-.34,1.62,3.41,3.41,0,0,0,.34,1.62,2.3,2.3,0,0,0,.92,1,2.56,2.56,0,0,0,1.26.31,2.53,2.53,0,0,0,1.59-.49,2,2,0,0,0,.78-1.34h1.39a3.42,3.42,0,0,1-1.23,2.17,3.86,3.86,0,0,1-2.5.8,4.06,4.06,0,0,1-2-.49,3.45,3.45,0,0,1-1.38-1.4,4.47,4.47,0,0,1-.49-2.16,4.53,4.53,0,0,1,.49-2.16,3.53,3.53,0,0,1,1.38-1.41,4.16,4.16,0,0,1,2-.49A3.81,3.81,0,0,1,328.41,224.11Z"/><path class="cls-2" d="M338.79,224.11a3.43,3.43,0,0,1,1.23,2.16h-1.38a2,2,0,0,0-.79-1.33,2.59,2.59,0,0,0-1.59-.48,2.56,2.56,0,0,0-1.26.31,2.4,2.4,0,0,0-.92,1,3.47,3.47,0,0,0-.34,1.62,3.41,3.41,0,0,0,.34,1.62,2.37,2.37,0,0,0,.92,1,2.56,2.56,0,0,0,1.26.31,2.53,2.53,0,0,0,1.59-.49,2,2,0,0,0,.79-1.34H340a3.38,3.38,0,0,1-1.23,2.17,3.86,3.86,0,0,1-2.5.8,4.06,4.06,0,0,1-2-.49,3.42,3.42,0,0,1-1.37-1.4,4.48,4.48,0,0,1-.5-2.16,4.53,4.53,0,0,1,.5-2.16,3.51,3.51,0,0,1,1.37-1.41,4.16,4.16,0,0,1,2-.49A3.81,3.81,0,0,1,338.79,224.11Z"/><path class="cls-2" d="M350.39,227.64h-6.33a2.8,2.8,0,0,0,.77,2,2.74,2.74,0,0,0,3.37.19,2,2,0,0,0,.79-1.29h1.4a3.36,3.36,0,0,1-.64,1.47,3.48,3.48,0,0,1-1.29,1,4.3,4.3,0,0,1-1.79.36,4.06,4.06,0,0,1-2-.49,3.42,3.42,0,0,1-1.37-1.4,4.48,4.48,0,0,1-.5-2.16,4.53,4.53,0,0,1,.5-2.16,3.51,3.51,0,0,1,1.37-1.41,4.16,4.16,0,0,1,2-.49,4,4,0,0,1,2,.49A3.43,3.43,0,0,1,350,225.1a3.75,3.75,0,0,1,.45,1.82A4.87,4.87,0,0,1,350.39,227.64Zm-1.56-2.1a2,2,0,0,0-.91-.88,2.77,2.77,0,0,0-1.25-.29,2.57,2.57,0,0,0-1.81.67,2.69,2.69,0,0,0-.8,2h5.06A2.66,2.66,0,0,0,348.83,225.54Z"/><path class="cls-2" d="M358.23,224a2.93,2.93,0,0,1,1,1.88H358a1.82,1.82,0,0,0-.58-1.16,1.92,1.92,0,0,0-1.34-.45,1.63,1.63,0,0,0-1.1.34,1.14,1.14,0,0,0-.39.91,1,1,0,0,0,.26.7,1.67,1.67,0,0,0,.67.4q.39.13,1.08.3a9.81,9.81,0,0,1,1.42.41,2.17,2.17,0,0,1,.92.67,1.86,1.86,0,0,1,.38,1.24,2,2,0,0,1-.72,1.57,3,3,0,0,1-1.94.6,3.7,3.7,0,0,1-2.3-.68,2.66,2.66,0,0,1-1.05-1.88h1.26a1.63,1.63,0,0,0,.63,1.16,2.25,2.25,0,0,0,1.46.45,1.49,1.49,0,0,0,1.06-.35,1.17,1.17,0,0,0,.38-.9,1,1,0,0,0-.27-.74,1.8,1.8,0,0,0-.68-.41,9.87,9.87,0,0,0-1.11-.31,11.05,11.05,0,0,1-1.4-.4,2.19,2.19,0,0,1-.9-.64,1.82,1.82,0,0,1-.36-1.19,2,2,0,0,1,.73-1.6,3,3,0,0,1,2-.62A3.24,3.24,0,0,1,358.23,224Z"/><path class="cls-2" d="M367.11,224a3,3,0,0,1,1,1.88h-1.26a1.78,1.78,0,0,0-.58-1.16,1.9,1.9,0,0,0-1.33-.45,1.61,1.61,0,0,0-1.1.34,1.11,1.11,0,0,0-.4.91.94.94,0,0,0,.27.7,1.7,1.7,0,0,0,.66.4c.26.09.63.19,1.09.3a10.21,10.21,0,0,1,1.42.41,2.24,2.24,0,0,1,.92.67,1.91,1.91,0,0,1,.38,1.24,2,2,0,0,1-.73,1.57,2.94,2.94,0,0,1-1.94.6,3.72,3.72,0,0,1-2.3-.68,2.73,2.73,0,0,1-1.05-1.88h1.27A1.62,1.62,0,0,0,364,230a2.25,2.25,0,0,0,1.46.45,1.46,1.46,0,0,0,1.06-.35,1.14,1.14,0,0,0,.39-.9,1,1,0,0,0-.28-.74,1.76,1.76,0,0,0-.67-.41,9.87,9.87,0,0,0-1.11-.31,10.79,10.79,0,0,1-1.41-.4,2.1,2.1,0,0,1-.89-.64,1.77,1.77,0,0,1-.37-1.19,2,2,0,0,1,.74-1.6,3,3,0,0,1,2-.62A3.21,3.21,0,0,1,367.11,224Z"/><path class="cls-2" d="M598,234.79v10h-1.31v-8l-3.18,8h-1.17l-3.2-7.93v7.93h-1.31v-10h1.57l3.54,8.38,3.49-8.38Z"/><path class="cls-2" d="M606.76,237.34a3,3,0,0,1,1.12,1.54v-2h1.31v7.9h-1.31v-2a3,3,0,0,1-1.12,1.54,3.26,3.26,0,0,1-2,.57,3.55,3.55,0,0,1-1.87-.49,3.31,3.31,0,0,1-1.29-1.4,5.18,5.18,0,0,1,0-4.31,3.28,3.28,0,0,1,1.29-1.41,3.55,3.55,0,0,1,1.87-.49A3.26,3.26,0,0,1,606.76,237.34Zm-3.51,1.36a3,3,0,0,0-.73,2.13,2.94,2.94,0,0,0,.73,2.12,2.51,2.51,0,0,0,1.94.77,2.72,2.72,0,0,0,1.39-.36,2.57,2.57,0,0,0,.95-1,3.5,3.5,0,0,0,0-3,2.44,2.44,0,0,0-.95-1,2.72,2.72,0,0,0-1.39-.36A2.55,2.55,0,0,0,603.25,238.7Z"/><path class="cls-2" d="M618.72,237.57a3.48,3.48,0,0,1,1.23,2.16h-1.39a2,2,0,0,0-.78-1.33,2.59,2.59,0,0,0-1.59-.48,2.56,2.56,0,0,0-1.26.31,2.36,2.36,0,0,0-.92,1,3.41,3.41,0,0,0-.34,1.62,3.47,3.47,0,0,0,.34,1.62,2.34,2.34,0,0,0,.92,1,2.56,2.56,0,0,0,1.26.32,2.59,2.59,0,0,0,1.59-.49,2,2,0,0,0,.78-1.34H620a3.42,3.42,0,0,1-1.23,2.16,3.83,3.83,0,0,1-2.5.8,4.06,4.06,0,0,1-2-.49,3.36,3.36,0,0,1-1.37-1.4,4.89,4.89,0,0,1,0-4.31,3.33,3.33,0,0,1,1.37-1.41,4.06,4.06,0,0,1,2-.49A3.88,3.88,0,0,1,618.72,237.57Z"/><path class="cls-2" d="M629.49,237.62a3.55,3.55,0,0,1,.85,2.56v4.59H629v-4.48a2.53,2.53,0,0,0-.6-1.81,2.18,2.18,0,0,0-1.64-.63,2.23,2.23,0,0,0-1.73.7,2.88,2.88,0,0,0-.65,2v4.19H623.1V234.12h1.31v4.62a2.68,2.68,0,0,1,1.07-1.48,3.1,3.1,0,0,1,1.78-.52A2.94,2.94,0,0,1,629.49,237.62Z"/><path class="cls-2" d="M633.81,234a.94.94,0,0,1,.65-.23.92.92,0,0,1,.65.23.74.74,0,0,1,.24.58.75.75,0,0,1-.24.58.92.92,0,0,1-.65.22.93.93,0,0,1-.65-.22.75.75,0,0,1-.24-.58A.74.74,0,0,1,633.81,234Zm1.3,2.9v7.9H633.8v-7.9Z"/><path class="cls-2" d="M645,237.62a3.55,3.55,0,0,1,.85,2.56v4.59h-1.31v-4.48a2.53,2.53,0,0,0-.6-1.81,2.16,2.16,0,0,0-1.64-.63,2.23,2.23,0,0,0-1.73.7,2.88,2.88,0,0,0-.65,2v4.19h-1.31v-7.9H640v1.87a2.68,2.68,0,0,1,1.07-1.48,3.1,3.1,0,0,1,1.78-.52A2.94,2.94,0,0,1,645,237.62Z"/><path class="cls-2" d="M656.56,241.1h-6.32a2.8,2.8,0,0,0,.77,2,2.54,2.54,0,0,0,1.78.68,2.57,2.57,0,0,0,1.59-.48,2,2,0,0,0,.79-1.29h1.39a3.34,3.34,0,0,1-.64,1.47,3.31,3.31,0,0,1-1.29,1,4.22,4.22,0,0,1-1.78.36,4.06,4.06,0,0,1-2-.49,3.42,3.42,0,0,1-1.37-1.4,4.89,4.89,0,0,1,0-4.31,3.39,3.39,0,0,1,1.37-1.41,4.06,4.06,0,0,1,2-.49,3.94,3.94,0,0,1,2,.49,3.3,3.3,0,0,1,1.31,1.31,3.68,3.68,0,0,1,.45,1.81A3.73,3.73,0,0,1,656.56,241.1ZM655,239a2,2,0,0,0-.91-.88,2.77,2.77,0,0,0-1.25-.29,2.64,2.64,0,0,0-1.82.67,2.75,2.75,0,0,0-.79,2h5.06A2.67,2.67,0,0,0,655,239Z"/><path class="cls-2" d="M675.63,236.87l-2.28,7.9h-1.41l-2.17-6.43-2.19,6.43h-1.42l-2.25-7.9h1.32l1.69,6.65,2.19-6.65h1.36l2.21,6.64,1.7-6.64Z"/><path class="cls-2" d="M683.48,237.34a3,3,0,0,1,1.12,1.54v-2h1.31v7.9H684.6v-2a3,3,0,0,1-1.12,1.54,3.26,3.26,0,0,1-2,.57,3.55,3.55,0,0,1-1.87-.49,3.31,3.31,0,0,1-1.29-1.4,5.28,5.28,0,0,1,0-4.31,3.28,3.28,0,0,1,1.29-1.41,3.55,3.55,0,0,1,1.87-.49A3.26,3.26,0,0,1,683.48,237.34ZM680,238.7a3,3,0,0,0-.73,2.13A3,3,0,0,0,680,243a2.52,2.52,0,0,0,1.94.77,2.69,2.69,0,0,0,1.39-.36,2.5,2.5,0,0,0,1-1,3.5,3.5,0,0,0,0-3,2.38,2.38,0,0,0-1-1,2.69,2.69,0,0,0-1.39-.36A2.56,2.56,0,0,0,680,238.7Z"/><path class="cls-2" d="M694.07,237.47a3,3,0,0,1,1,1.87H693.8a1.8,1.8,0,0,0-.58-1.16,1.91,1.91,0,0,0-1.33-.45,1.61,1.61,0,0,0-1.1.34,1.13,1.13,0,0,0-.4.91.93.93,0,0,0,.27.7,1.69,1.69,0,0,0,.66.41,9.4,9.4,0,0,0,1.09.29,11.58,11.58,0,0,1,1.41.41,2.27,2.27,0,0,1,.93.67,1.91,1.91,0,0,1,.38,1.24,2,2,0,0,1-.73,1.57,2.94,2.94,0,0,1-1.94.6,3.69,3.69,0,0,1-2.3-.67,2.66,2.66,0,0,1-1-1.89h1.27a1.63,1.63,0,0,0,.62,1.17,2.31,2.31,0,0,0,1.46.44,1.5,1.5,0,0,0,1.06-.34,1.14,1.14,0,0,0,.38-.91,1,1,0,0,0-.27-.73,1.63,1.63,0,0,0-.68-.42,8.32,8.32,0,0,0-1.11-.3,10.84,10.84,0,0,1-1.4-.41,2,2,0,0,1-.89-.64,1.77,1.77,0,0,1-.37-1.19,2,2,0,0,1,.74-1.6,3,3,0,0,1,2-.61A3.16,3.16,0,0,1,694.07,237.47Z"/><path class="cls-2" d="M704.72,237.62a3.59,3.59,0,0,1,.85,2.56v4.59h-1.31v-4.48a2.49,2.49,0,0,0-.61-1.81,2.16,2.16,0,0,0-1.64-.63,2.23,2.23,0,0,0-1.73.7,2.88,2.88,0,0,0-.65,2v4.19h-1.31V234.12h1.31v4.62a2.7,2.7,0,0,1,1.08-1.48,3.06,3.06,0,0,1,1.78-.52A3,3,0,0,1,704.72,237.62Z"/><path class="cls-2" d="M714.21,237.34a3,3,0,0,1,1.12,1.54v-2h1.31v7.9h-1.31v-2a3,3,0,0,1-1.12,1.54,3.26,3.26,0,0,1-2,.57,3.55,3.55,0,0,1-1.87-.49,3.31,3.31,0,0,1-1.29-1.4,5.18,5.18,0,0,1,0-4.31,3.28,3.28,0,0,1,1.29-1.41,3.55,3.55,0,0,1,1.87-.49A3.26,3.26,0,0,1,714.21,237.34Zm-3.51,1.36a3,3,0,0,0-.73,2.13,3,3,0,0,0,.73,2.12,2.51,2.51,0,0,0,1.94.77,2.69,2.69,0,0,0,1.39-.36,2.57,2.57,0,0,0,1-1,3.5,3.5,0,0,0,0-3,2.44,2.44,0,0,0-1-1,2.69,2.69,0,0,0-1.39-.36A2.55,2.55,0,0,0,710.7,238.7Z"/><path class="cls-2" d="M726.4,237.26a3.28,3.28,0,0,1,1.29,1.41,5.18,5.18,0,0,1,0,4.31,3.31,3.31,0,0,1-1.29,1.4,3.53,3.53,0,0,1-1.87.49,3.2,3.2,0,0,1-1.95-.58,3,3,0,0,1-1.1-1.53v2h-1.31V234.12h1.31v4.76a3,3,0,0,1,1.1-1.53,3.2,3.2,0,0,1,1.95-.58A3.53,3.53,0,0,1,726.4,237.26Zm-3.63,1a2.4,2.4,0,0,0-1,1,3.5,3.5,0,0,0,0,3,2.53,2.53,0,0,0,1,1,2.74,2.74,0,0,0,1.39.36,2.55,2.55,0,0,0,2-.77,3,3,0,0,0,.72-2.12,3,3,0,0,0-.72-2.13,2.58,2.58,0,0,0-2-.77A2.74,2.74,0,0,0,722.77,238.29Z"/><path class="cls-2" d="M732.62,234.12v10.65h-1.31V234.12Z"/><path class="cls-2" d="M743.38,241.1h-6.32a2.76,2.76,0,0,0,.77,2,2.54,2.54,0,0,0,1.78.68,2.59,2.59,0,0,0,1.59-.48A2,2,0,0,0,742,242h1.4a3.34,3.34,0,0,1-.64,1.47,3.31,3.31,0,0,1-1.29,1,4.26,4.26,0,0,1-1.78.36,4.06,4.06,0,0,1-2-.49,3.45,3.45,0,0,1-1.38-1.4,5,5,0,0,1,0-4.31,3.41,3.41,0,0,1,1.38-1.41,4.06,4.06,0,0,1,2-.49,3.93,3.93,0,0,1,2,.49,3.33,3.33,0,0,1,1.32,1.31,3.68,3.68,0,0,1,.45,1.81A3.73,3.73,0,0,1,743.38,241.1Zm-1.55-2.1a2.14,2.14,0,0,0-.91-.88,2.8,2.8,0,0,0-1.25-.29,2.64,2.64,0,0,0-1.82.67,2.71,2.71,0,0,0-.79,2h5.05A2.68,2.68,0,0,0,741.83,239Z"/><path class="cls-2" d="M95.81,312.55h5.12v1.08H94.34v-1l5-8h-4.9v-1.08h6.37v1Z"/><path class="cls-2" d="M111.22,310H104.9a2.8,2.8,0,0,0,.77,2,2.54,2.54,0,0,0,1.78.68,2.59,2.59,0,0,0,1.59-.48,2,2,0,0,0,.79-1.29h1.39a3.26,3.26,0,0,1-1.93,2.47,4.26,4.26,0,0,1-1.78.36,4.06,4.06,0,0,1-2-.49,3.42,3.42,0,0,1-1.37-1.4,4.89,4.89,0,0,1,0-4.31,3.39,3.39,0,0,1,1.37-1.41,4.06,4.06,0,0,1,2-.49,3.93,3.93,0,0,1,2,.49,3.33,3.33,0,0,1,1.32,1.31,3.68,3.68,0,0,1,.45,1.81A3.73,3.73,0,0,1,111.22,310Zm-1.55-2.1a2.09,2.09,0,0,0-.91-.88,2.8,2.8,0,0,0-1.25-.29,2.64,2.64,0,0,0-1.82.67,2.71,2.71,0,0,0-.79,2h5A2.68,2.68,0,0,0,109.67,307.86Z"/><path class="cls-2" d="M116.88,306.05a3.42,3.42,0,0,1,1.79-.45V307h-.41a2.78,2.78,0,0,0-1.81.57,2.29,2.29,0,0,0-.71,1.88v4.16h-1.31v-7.9h1.31v1.6A2.9,2.9,0,0,1,116.88,306.05Z"/><path class="cls-2" d="M127,306.12a3.42,3.42,0,0,1,1.41,1.41,4.81,4.81,0,0,1,0,4.31,3.46,3.46,0,0,1-1.41,1.4,4.49,4.49,0,0,1-4.08,0,3.54,3.54,0,0,1-1.42-1.4,4.73,4.73,0,0,1,0-4.31,3.5,3.5,0,0,1,1.42-1.41,4.49,4.49,0,0,1,4.08,0Zm-3.35,1a2.36,2.36,0,0,0-1,1,3.69,3.69,0,0,0,0,3.22,2.45,2.45,0,0,0,1,1,2.78,2.78,0,0,0,1.31.31,2.74,2.74,0,0,0,1.3-.31,2.47,2.47,0,0,0,1-1,3.78,3.78,0,0,0,0-3.22,2.38,2.38,0,0,0-1-1,2.64,2.64,0,0,0-1.3-.32A2.67,2.67,0,0,0,123.68,307.1Z"/><path class="cls-2" d="M141.73,306.33a2.9,2.9,0,0,1,1,1.87h-1.25a1.85,1.85,0,0,0-.58-1.16,1.91,1.91,0,0,0-1.33-.45,1.66,1.66,0,0,0-1.11.34,1.15,1.15,0,0,0-.39.91.93.93,0,0,0,.27.7,1.58,1.58,0,0,0,.66.41,9.71,9.71,0,0,0,1.08.29,9.81,9.81,0,0,1,1.42.41,2.17,2.17,0,0,1,.92.67,1.86,1.86,0,0,1,.39,1.24,2,2,0,0,1-.73,1.57,3,3,0,0,1-1.94.6,3.69,3.69,0,0,1-2.3-.67,2.66,2.66,0,0,1-1-1.89H138a1.67,1.67,0,0,0,.63,1.17,2.31,2.31,0,0,0,1.46.44,1.52,1.52,0,0,0,1.06-.34,1.18,1.18,0,0,0,.38-.91,1,1,0,0,0-.27-.73,1.63,1.63,0,0,0-.68-.42,8.32,8.32,0,0,0-1.11-.3,10.84,10.84,0,0,1-1.4-.41,2,2,0,0,1-.89-.64,1.77,1.77,0,0,1-.37-1.19,2,2,0,0,1,.73-1.6,3,3,0,0,1,2-.61A3.18,3.18,0,0,1,141.73,306.33Z"/><path class="cls-2" d="M152.38,306.48a3.59,3.59,0,0,1,.85,2.56v4.59h-1.31v-4.48a2.54,2.54,0,0,0-.61-1.81,2.16,2.16,0,0,0-1.64-.63,2.23,2.23,0,0,0-1.73.7,2.88,2.88,0,0,0-.65,2v4.19H146v-7.9h1.31v1.87a2.7,2.7,0,0,1,1.08-1.48,3,3,0,0,1,1.77-.52A3,3,0,0,1,152.38,306.48Z"/><path class="cls-2" d="M161.87,306.2a3,3,0,0,1,1.12,1.54v-2h1.31v7.9H163v-2a3,3,0,0,1-1.12,1.54,3.26,3.26,0,0,1-2,.57,3.55,3.55,0,0,1-1.87-.49,3.31,3.31,0,0,1-1.29-1.4,5.18,5.18,0,0,1,0-4.31,3.28,3.28,0,0,1,1.29-1.41,3.55,3.55,0,0,1,1.87-.49A3.26,3.26,0,0,1,161.87,306.2Zm-3.51,1.36a3,3,0,0,0-.73,2.13,2.94,2.94,0,0,0,.73,2.12,2.51,2.51,0,0,0,1.94.77,2.69,2.69,0,0,0,1.39-.36,2.57,2.57,0,0,0,.95-1,3.5,3.5,0,0,0,0-3,2.44,2.44,0,0,0-.95-1,2.69,2.69,0,0,0-1.39-.36A2.55,2.55,0,0,0,158.36,307.56Z"/><path class="cls-2" d="M174.06,306.12a3.28,3.28,0,0,1,1.29,1.41,5.18,5.18,0,0,1,0,4.31,3.31,3.31,0,0,1-1.29,1.4,3.53,3.53,0,0,1-1.87.49,3.2,3.2,0,0,1-1.95-.58,3,3,0,0,1-1.1-1.53v5.76h-1.31V305.73h1.31v2a3,3,0,0,1,1.1-1.53,3.2,3.2,0,0,1,1.95-.58A3.53,3.53,0,0,1,174.06,306.12Zm-3.63,1a2.4,2.4,0,0,0-1,1,3.5,3.5,0,0,0,0,3,2.53,2.53,0,0,0,1,1,2.74,2.74,0,0,0,1.39.36,2.55,2.55,0,0,0,2-.77,3,3,0,0,0,.73-2.12,3,3,0,0,0-.73-2.13,2.58,2.58,0,0,0-2-.77A2.74,2.74,0,0,0,170.43,307.15Z"/><path class="cls-2" d="M183.6,306.33a2.91,2.91,0,0,1,1,1.87h-1.25a1.86,1.86,0,0,0-.59-1.16,1.9,1.9,0,0,0-1.33-.45,1.61,1.61,0,0,0-1.1.34,1.16,1.16,0,0,0-.4.91.93.93,0,0,0,.27.7,1.72,1.72,0,0,0,.66.41,10.66,10.66,0,0,0,1.09.29,10.21,10.21,0,0,1,1.42.41,2.24,2.24,0,0,1,.92.67,1.91,1.91,0,0,1,.38,1.24,1.93,1.93,0,0,1-.73,1.57,2.93,2.93,0,0,1-1.93.6,3.74,3.74,0,0,1-2.31-.67,2.73,2.73,0,0,1-1.05-1.89h1.27a1.67,1.67,0,0,0,.63,1.17,2.29,2.29,0,0,0,1.46.44,1.54,1.54,0,0,0,1.06-.34,1.18,1.18,0,0,0,.38-.91,1,1,0,0,0-.28-.73,1.66,1.66,0,0,0-.67-.42,8.32,8.32,0,0,0-1.11-.3,10.59,10.59,0,0,1-1.41-.41,2.08,2.08,0,0,1-.89-.64,1.82,1.82,0,0,1-.37-1.19,2,2,0,0,1,.74-1.6,3,3,0,0,1,2-.61A3.16,3.16,0,0,1,183.6,306.33Z"/><path class="cls-2" d="M188.82,313.85a1.81,1.81,0,0,1-.37,1.2,1.39,1.39,0,0,1-1.12.46v-.57a.64.64,0,0,0,.52-.19.93.93,0,0,0,.17-.61V314h-.74v-1.34h1.34A4,4,0,0,1,188.82,313.85Z"/><path class="cls-2" d="M197.58,312.53h4.23v1.1h-5.67v-1.05l4-5.74h-3.92v-1.11h5.42v1.06Z"/><path class="cls-2" d="M204.69,302.83a.92.92,0,0,1,.65-.23.94.94,0,0,1,.65.23.74.74,0,0,1,.24.58.75.75,0,0,1-.24.58.93.93,0,0,1-.65.22.92.92,0,0,1-.65-.22.75.75,0,0,1-.24-.58A.74.74,0,0,1,204.69,302.83Zm1.3,2.9v7.9h-1.31v-7.9Z"/><path class="cls-2" d="M215.76,306.12a3.28,3.28,0,0,1,1.29,1.41,5.18,5.18,0,0,1,0,4.31,3.31,3.31,0,0,1-1.29,1.4,3.53,3.53,0,0,1-1.87.49,3.2,3.2,0,0,1-1.95-.58,3,3,0,0,1-1.1-1.53v5.76h-1.31V305.73h1.31v2a3,3,0,0,1,1.1-1.53,3.2,3.2,0,0,1,1.95-.58A3.53,3.53,0,0,1,215.76,306.12Zm-3.62,1a2.37,2.37,0,0,0-1,1,3.59,3.59,0,0,0,0,3,2.48,2.48,0,0,0,1,1,2.68,2.68,0,0,0,1.38.36,2.55,2.55,0,0,0,1.95-.77,3,3,0,0,0,.73-2.12,3,3,0,0,0-.73-2.13,2.58,2.58,0,0,0-1.95-.77A2.68,2.68,0,0,0,212.14,307.15Z"/><path class="cls-2" d="M226.91,306.12a3.28,3.28,0,0,1,1.29,1.41,5.18,5.18,0,0,1,0,4.31,3.31,3.31,0,0,1-1.29,1.4,3.55,3.55,0,0,1-1.87.49,3.2,3.2,0,0,1-1.95-.58,2.92,2.92,0,0,1-1.1-1.53v5.76h-1.32V305.73H222v2a2.92,2.92,0,0,1,1.1-1.53,3.2,3.2,0,0,1,1.95-.58A3.55,3.55,0,0,1,226.91,306.12Zm-3.63,1a2.4,2.4,0,0,0-1,1,3.5,3.5,0,0,0,0,3,2.53,2.53,0,0,0,1,1,2.71,2.71,0,0,0,1.38.36,2.52,2.52,0,0,0,2-.77,2.94,2.94,0,0,0,.73-2.12,3,3,0,0,0-.73-2.13,2.55,2.55,0,0,0-2-.77A2.71,2.71,0,0,0,223.28,307.15Z"/><path class="cls-2" d="M239,310h-6.32a2.8,2.8,0,0,0,.77,2,2.76,2.76,0,0,0,3.37.2,2,2,0,0,0,.79-1.29H239a3.19,3.19,0,0,1-.64,1.47,3.31,3.31,0,0,1-1.29,1,4.22,4.22,0,0,1-1.78.36,4.06,4.06,0,0,1-2-.49,3.42,3.42,0,0,1-1.37-1.4,4.89,4.89,0,0,1,0-4.31,3.39,3.39,0,0,1,1.37-1.41,4.06,4.06,0,0,1,2-.49,3.94,3.94,0,0,1,2,.49,3.3,3.3,0,0,1,1.31,1.31,3.68,3.68,0,0,1,.45,1.81A3.73,3.73,0,0,1,239,310Zm-1.55-2.1a2,2,0,0,0-.91-.88,2.77,2.77,0,0,0-1.25-.29,2.66,2.66,0,0,0-1.82.67,2.75,2.75,0,0,0-.79,2h5.06A2.67,2.67,0,0,0,237.48,307.86Z"/><path class="cls-2" d="M244.69,306.05a3.42,3.42,0,0,1,1.79-.45V307h-.4a2.81,2.81,0,0,0-1.82.57,2.28,2.28,0,0,0-.7,1.88v4.16h-1.31v-7.9h1.31v1.6A2.88,2.88,0,0,1,244.69,306.05Z"/><path class="cls-2" d="M253.84,306.33a2.87,2.87,0,0,1,1,1.87h-1.25A1.85,1.85,0,0,0,253,307a1.94,1.94,0,0,0-1.34-.45,1.63,1.63,0,0,0-1.1.34,1.15,1.15,0,0,0-.39.91.92.92,0,0,0,.26.7,1.72,1.72,0,0,0,.66.41,10.66,10.66,0,0,0,1.09.29,9.81,9.81,0,0,1,1.42.41,2.17,2.17,0,0,1,.92.67,1.86,1.86,0,0,1,.38,1.24,2,2,0,0,1-.72,1.57,3,3,0,0,1-1.94.6,3.74,3.74,0,0,1-2.31-.67,2.73,2.73,0,0,1-1.05-1.89h1.27a1.67,1.67,0,0,0,.63,1.17,2.29,2.29,0,0,0,1.46.44,1.54,1.54,0,0,0,1.06-.34,1.18,1.18,0,0,0,.38-.91,1,1,0,0,0-.27-.73,1.7,1.7,0,0,0-.68-.42,8.32,8.32,0,0,0-1.11-.3,10.38,10.38,0,0,1-1.4-.41,2.11,2.11,0,0,1-.9-.64,1.82,1.82,0,0,1-.36-1.19,2,2,0,0,1,.73-1.6,3,3,0,0,1,2-.61A3.16,3.16,0,0,1,253.84,306.33Z"/><path class="cls-2" d="M259.07,313.85a1.82,1.82,0,0,1-.38,1.2,1.38,1.38,0,0,1-1.12.46v-.57a.64.64,0,0,0,.52-.19.93.93,0,0,0,.17-.61V314h-.74v-1.34h1.34A3.73,3.73,0,0,1,259.07,313.85Z"/><path class="cls-2" d="M273.06,306.43a3.48,3.48,0,0,1,1.23,2.16H272.9a2,2,0,0,0-.78-1.33,2.59,2.59,0,0,0-1.59-.48,2.46,2.46,0,0,0-1.26.32,2.28,2.28,0,0,0-.92,1,3.41,3.41,0,0,0-.34,1.62,3.47,3.47,0,0,0,.34,1.62,2.34,2.34,0,0,0,.92,1,2.56,2.56,0,0,0,1.26.32,2.59,2.59,0,0,0,1.59-.49,2,2,0,0,0,.78-1.34h1.39a3.47,3.47,0,0,1-1.23,2.17,3.88,3.88,0,0,1-2.5.79,4,4,0,0,1-2-.49,3.36,3.36,0,0,1-1.37-1.4,4.89,4.89,0,0,1,0-4.31,3.33,3.33,0,0,1,1.37-1.41,4,4,0,0,1,2-.49A3.88,3.88,0,0,1,273.06,306.43Z"/><path class="cls-2" d="M278.75,303v10.65h-1.31V303Z"/><path class="cls-2" d="M282.31,302.83a.9.9,0,0,1,.64-.23.92.92,0,0,1,.65.23.75.75,0,0,1,.25.58.76.76,0,0,1-.25.58.92.92,0,0,1-.65.22.89.89,0,0,1-.64-.22.73.73,0,0,1-.25-.58A.72.72,0,0,1,282.31,302.83Zm1.29,2.9v7.9h-1.31v-7.9Z"/><path class="cls-2" d="M293.38,306.12a3.28,3.28,0,0,1,1.29,1.41,5.18,5.18,0,0,1,0,4.31,3.31,3.31,0,0,1-1.29,1.4,3.55,3.55,0,0,1-1.87.49,3.2,3.2,0,0,1-1.95-.58,2.92,2.92,0,0,1-1.1-1.53v5.76h-1.32V305.73h1.32v2a2.92,2.92,0,0,1,1.1-1.53,3.2,3.2,0,0,1,1.95-.58A3.55,3.55,0,0,1,293.38,306.12Zm-3.63,1a2.4,2.4,0,0,0-1,1,3.5,3.5,0,0,0,0,3,2.53,2.53,0,0,0,1,1,2.68,2.68,0,0,0,1.38.36,2.52,2.52,0,0,0,1.95-.77,2.94,2.94,0,0,0,.73-2.12,3,3,0,0,0-.73-2.13,2.55,2.55,0,0,0-1.95-.77A2.68,2.68,0,0,0,289.75,307.15Z"/><path class="cls-2" d="M302.92,306.33a3,3,0,0,1,1,1.87h-1.26a1.8,1.8,0,0,0-.58-1.16,1.91,1.91,0,0,0-1.33-.45,1.61,1.61,0,0,0-1.1.34,1.13,1.13,0,0,0-.4.91.93.93,0,0,0,.27.7,1.65,1.65,0,0,0,.66.41,10,10,0,0,0,1.09.29,9.63,9.63,0,0,1,1.41.41,2.27,2.27,0,0,1,.93.67,1.91,1.91,0,0,1,.38,1.24,1.93,1.93,0,0,1-.73,1.57,2.94,2.94,0,0,1-1.94.6,3.69,3.69,0,0,1-2.3-.67,2.69,2.69,0,0,1-1.05-1.89h1.27a1.63,1.63,0,0,0,.62,1.17,2.31,2.31,0,0,0,1.46.44,1.52,1.52,0,0,0,1.06-.34,1.14,1.14,0,0,0,.38-.91,1,1,0,0,0-.27-.73,1.63,1.63,0,0,0-.68-.42,7.91,7.91,0,0,0-1.11-.3,10.84,10.84,0,0,1-1.4-.41,2,2,0,0,1-.89-.64,1.77,1.77,0,0,1-.37-1.19,2,2,0,0,1,.73-1.6,3,3,0,0,1,2-.61A3.16,3.16,0,0,1,302.92,306.33Z"/><path class="cls-3" d="M9.59,320.36a26.75,26.75,0,1,1,7.83,18.91,26.66,26.66,0,0,1-7.83-18.91ZM19.9,303.92a23.26,23.26,0,1,0,16.43-6.8,23.17,23.17,0,0,0-16.43,6.8ZM47.42,329a1.75,1.75,0,1,1-2.48,2.47l-8.61-8.6-8.61,8.6A1.75,1.75,0,1,1,25.25,329l8.61-8.61-8.61-8.61a1.75,1.75,0,0,1,2.47-2.47l8.61,8.61,8.61-8.61a1.75,1.75,0,1,1,2.48,2.47l-8.61,8.61L47.42,329Z"/><path class="cls-3" d="M25.07,226.33a1.68,1.68,0,0,1,0-2.4,1.7,1.7,0,0,1,2.4,0l7.17,7.17V205.19a1.7,1.7,0,1,1,3.39,0V231.1l7.17-7.17a1.7,1.7,0,1,1,2.4,2.4L37.55,236.39a.52.52,0,0,0-.11.1h0s0,0-.06,0h0l0,0h0l0,0h0l0,0h0l0,0a1.72,1.72,0,0,1-.87.24,1.68,1.68,0,0,1-.86-.24l0,0h0l0,0h0l0,0h0l0,0h0l-.06,0h0l-.11-.1-10-10.06Z"/><path class="cls-2" d="M100.61,37V47.16H99.28V42.47H94.13v4.69H92.82V37h1.31V41.4h5.15V37Z"/><path class="cls-2" d="M111.37,43.49H105a2.8,2.8,0,0,0,.77,2,2.54,2.54,0,0,0,1.78.68,2.49,2.49,0,0,0,1.59-.49,2,2,0,0,0,.79-1.29h1.4a3.3,3.3,0,0,1-1.93,2.48,4.3,4.3,0,0,1-1.79.36,4.06,4.06,0,0,1-2-.49,3.42,3.42,0,0,1-1.37-1.4,4.48,4.48,0,0,1-.5-2.16,4.53,4.53,0,0,1,.5-2.16,3.51,3.51,0,0,1,1.37-1.41,4.16,4.16,0,0,1,2-.49,4,4,0,0,1,2,.49A3.43,3.43,0,0,1,111,41a3.75,3.75,0,0,1,.45,1.82A4.87,4.87,0,0,1,111.37,43.49Zm-1.56-2.1a2,2,0,0,0-.91-.88,2.77,2.77,0,0,0-1.25-.29,2.57,2.57,0,0,0-1.81.67,2.69,2.69,0,0,0-.8,2h5.06A2.66,2.66,0,0,0,109.81,41.39Z"/><path class="cls-2" d="M119.77,39.73a3,3,0,0,1,1.11,1.54v-2h1.31v7.91h-1.31v-2a3,3,0,0,1-1.11,1.54,3.22,3.22,0,0,1-2,.58,3.53,3.53,0,0,1-1.87-.49,3.31,3.31,0,0,1-1.29-1.4,4.59,4.59,0,0,1-.47-2.16,4.64,4.64,0,0,1,.47-2.16A3.39,3.39,0,0,1,116,39.64a3.62,3.62,0,0,1,1.87-.49A3.29,3.29,0,0,1,119.77,39.73Zm-3.52,1.36a3.5,3.5,0,0,0,0,4.25,2.58,2.58,0,0,0,1.94.77,2.69,2.69,0,0,0,1.39-.36,2.49,2.49,0,0,0,1-1,3.19,3.19,0,0,0,.34-1.52,3.24,3.24,0,0,0-.34-1.52,2.49,2.49,0,0,0-1-1,2.79,2.79,0,0,0-1.39-.35A2.58,2.58,0,0,0,116.25,41.09Z"/><path class="cls-2" d="M129.5,46v1.15h-1a2.49,2.49,0,0,1-1.81-.58,2.58,2.58,0,0,1-.6-1.93V40.39h-1.18V39.25h1.18v-2h1.33v2h2v1.14h-2v4.29a1.48,1.48,0,0,0,.28,1,1.37,1.37,0,0,0,1,.28Z"/><path class="cls-2" d="M141.3,46v1.15h-1a2.48,2.48,0,0,1-1.8-.58,2.58,2.58,0,0,1-.6-1.93V40.39h-1.18V39.25h1.18v-2h1.32v2h2v1.14h-2v4.29a1.54,1.54,0,0,0,.28,1,1.42,1.42,0,0,0,1,.28Z"/><path class="cls-2" d="M146.79,39.58a3.4,3.4,0,0,1,1.79-.46v1.43h-.41a2.78,2.78,0,0,0-1.81.57,2.27,2.27,0,0,0-.71,1.88v4.16h-1.31V39.25h1.31v1.6A2.93,2.93,0,0,1,146.79,39.58Z"/><path class="cls-2" d="M156.5,39.73a3,3,0,0,1,1.12,1.54v-2h1.31v7.91h-1.31v-2a3,3,0,0,1-1.12,1.54,3.2,3.2,0,0,1-1.95.58,3.55,3.55,0,0,1-1.87-.49,3.31,3.31,0,0,1-1.29-1.4,4.71,4.71,0,0,1-.47-2.16,4.77,4.77,0,0,1,.47-2.16,3.39,3.39,0,0,1,1.29-1.41,3.65,3.65,0,0,1,1.87-.49A3.26,3.26,0,0,1,156.5,39.73ZM153,41.09a3.46,3.46,0,0,0,0,4.25,2.54,2.54,0,0,0,1.93.77,2.67,2.67,0,0,0,1.39-.36,2.49,2.49,0,0,0,1-1,3.19,3.19,0,0,0,.35-1.52,3.24,3.24,0,0,0-.35-1.52,2.49,2.49,0,0,0-1-1,2.76,2.76,0,0,0-1.39-.35A2.54,2.54,0,0,0,153,41.09Z"/><path class="cls-2" d="M168.85,40a3.53,3.53,0,0,1,.85,2.56v4.59h-1.31V42.68a2.48,2.48,0,0,0-.61-1.81,2.17,2.17,0,0,0-1.64-.64,2.24,2.24,0,0,0-1.72.7,2.87,2.87,0,0,0-.65,2v4.19h-1.31V39.25h1.31v1.88a2.71,2.71,0,0,1,1.07-1.49,3.16,3.16,0,0,1,1.78-.52A3,3,0,0,1,168.85,40Z"/><path class="cls-2" d="M177.78,39.85a2.89,2.89,0,0,1,1,1.88h-1.25a1.79,1.79,0,0,0-.59-1.16,1.9,1.9,0,0,0-1.33-.45,1.63,1.63,0,0,0-1.1.34,1.14,1.14,0,0,0-.39.91.94.94,0,0,0,.26.7,1.7,1.7,0,0,0,.66.4c.27.09.63.19,1.09.3a9.81,9.81,0,0,1,1.42.41,2.17,2.17,0,0,1,.92.67,1.86,1.86,0,0,1,.38,1.24,2,2,0,0,1-.72,1.57,3,3,0,0,1-1.94.6,3.69,3.69,0,0,1-2.31-.68,2.73,2.73,0,0,1-1.05-1.88h1.27a1.63,1.63,0,0,0,.63,1.16,2.23,2.23,0,0,0,1.46.45,1.49,1.49,0,0,0,1.06-.35,1.17,1.17,0,0,0,.38-.9,1,1,0,0,0-.27-.74,1.8,1.8,0,0,0-.68-.41,9.87,9.87,0,0,0-1.11-.31,10.58,10.58,0,0,1-1.4-.4,2.19,2.19,0,0,1-.9-.64,1.82,1.82,0,0,1-.36-1.19,2,2,0,0,1,.73-1.6,3,3,0,0,1,2-.62A3.21,3.21,0,0,1,177.78,39.85Z"/><path class="cls-2" d="M184.08,37.74a1.68,1.68,0,0,0-.41,1.3v.21h1.87v1.16h-1.87v6.75h-1.31V40.41h-1.14V39.25h1.14v-.31c0-1.89,1.06-2.8,3.18-2.71v1.15A2.13,2.13,0,0,0,184.08,37.74Z"/><path class="cls-2" d="M195.62,43.49H189.3a2.76,2.76,0,0,0,.77,2,2.74,2.74,0,0,0,3.37.19,2,2,0,0,0,.78-1.29h1.4a3.36,3.36,0,0,1-.64,1.47,3.24,3.24,0,0,1-1.29,1,4.27,4.27,0,0,1-1.79.36,4,4,0,0,1-2-.49,3.39,3.39,0,0,1-1.38-1.4,4.47,4.47,0,0,1-.49-2.16,4.53,4.53,0,0,1,.49-2.16,3.47,3.47,0,0,1,1.38-1.41,4.12,4.12,0,0,1,2-.49,4,4,0,0,1,2,.49A3.43,3.43,0,0,1,195.22,41a3.65,3.65,0,0,1,.46,1.82A3.73,3.73,0,0,1,195.62,43.49Zm-1.56-2.1a2.06,2.06,0,0,0-.9-.88,2.84,2.84,0,0,0-1.26-.29,2.57,2.57,0,0,0-1.81.67,2.68,2.68,0,0,0-.79,2h5A2.66,2.66,0,0,0,194.06,41.39Z"/><path class="cls-2" d="M201.28,39.58a3.39,3.39,0,0,1,1.78-.46v1.43h-.4a2.78,2.78,0,0,0-1.81.57,2.27,2.27,0,0,0-.71,1.88v4.16h-1.31V39.25h1.31v1.6A2.93,2.93,0,0,1,201.28,39.58Z"/><path class="cls-2" d="M208.25,39.58a3.39,3.39,0,0,1,1.78-.46v1.43h-.4a2.78,2.78,0,0,0-1.81.57,2.24,2.24,0,0,0-.71,1.88v4.16H205.8V39.25h1.31v1.6A2.93,2.93,0,0,1,208.25,39.58Z"/><path class="cls-2" d="M220,43.49h-6.32a2.8,2.8,0,0,0,.77,2,2.74,2.74,0,0,0,3.37.19,2,2,0,0,0,.79-1.29H220a3.3,3.3,0,0,1-1.93,2.48,4.22,4.22,0,0,1-1.78.36,4.06,4.06,0,0,1-2-.49,3.42,3.42,0,0,1-1.37-1.4,4.48,4.48,0,0,1-.5-2.16,4.53,4.53,0,0,1,.5-2.16,3.51,3.51,0,0,1,1.37-1.41,4.16,4.16,0,0,1,2-.49,4,4,0,0,1,2,.49A3.43,3.43,0,0,1,219.59,41a4,4,0,0,1,.39,2.54Zm-1.55-2.1a2,2,0,0,0-.91-.88,2.77,2.77,0,0,0-1.25-.29,2.59,2.59,0,0,0-1.82.67,2.68,2.68,0,0,0-.79,2h5.06A2.66,2.66,0,0,0,218.43,41.39Z"/><path class="cls-2" d="M228.39,39.73a3,3,0,0,1,1.11,1.54V36.5h1.31V47.16H229.5v-2a3,3,0,0,1-1.11,1.54,3.25,3.25,0,0,1-2,.58,3.55,3.55,0,0,1-1.87-.49,3.31,3.31,0,0,1-1.29-1.4,4.71,4.71,0,0,1-.46-2.16,4.77,4.77,0,0,1,.46-2.16,3.39,3.39,0,0,1,1.29-1.41,3.65,3.65,0,0,1,1.87-.49A3.32,3.32,0,0,1,228.39,39.73Zm-3.52,1.36a3.46,3.46,0,0,0,0,4.25,2.56,2.56,0,0,0,1.94.77,2.69,2.69,0,0,0,1.39-.36,2.56,2.56,0,0,0,1-1,3.19,3.19,0,0,0,.34-1.52,3.24,3.24,0,0,0-.34-1.52,2.56,2.56,0,0,0-1-1,2.79,2.79,0,0,0-1.39-.35A2.56,2.56,0,0,0,224.87,41.09Z"/><path class="cls-2" d="M245.34,40a3.48,3.48,0,0,1,1.23,2.16h-1.39a2,2,0,0,0-.78-1.33,2.59,2.59,0,0,0-1.59-.48,2.56,2.56,0,0,0-1.26.31,2.34,2.34,0,0,0-.92,1,3.47,3.47,0,0,0-.34,1.62,3.41,3.41,0,0,0,.34,1.62,2.3,2.3,0,0,0,.92,1,2.56,2.56,0,0,0,1.26.31,2.53,2.53,0,0,0,1.59-.49,2,2,0,0,0,.78-1.34h1.39a3.42,3.42,0,0,1-1.23,2.17,3.88,3.88,0,0,1-2.5.8,4.06,4.06,0,0,1-2-.49,3.45,3.45,0,0,1-1.38-1.4,4.47,4.47,0,0,1-.49-2.16,4.53,4.53,0,0,1,.49-2.16,3.53,3.53,0,0,1,1.38-1.41,4.16,4.16,0,0,1,2-.49A3.83,3.83,0,0,1,245.34,40Z"/><path class="cls-2" d="M254.91,39.73A3.07,3.07,0,0,1,256,41.27v-2h1.31v7.91H256v-2a3,3,0,0,1-1.12,1.54,3.2,3.2,0,0,1-1.95.58,3.53,3.53,0,0,1-1.87-.49,3.31,3.31,0,0,1-1.29-1.4,4.71,4.71,0,0,1-.47-2.16,4.77,4.77,0,0,1,.47-2.16,3.39,3.39,0,0,1,1.29-1.41,3.62,3.62,0,0,1,1.87-.49A3.26,3.26,0,0,1,254.91,39.73Zm-3.51,1.36a3.46,3.46,0,0,0,0,4.25,2.54,2.54,0,0,0,1.93.77,2.69,2.69,0,0,0,1.39-.36,2.49,2.49,0,0,0,1-1,3.19,3.19,0,0,0,.35-1.52,3.24,3.24,0,0,0-.35-1.52,2.49,2.49,0,0,0-1-1,2.79,2.79,0,0,0-1.39-.35A2.54,2.54,0,0,0,251.4,41.09Z"/><path class="cls-2" d="M263.31,39.58a3.43,3.43,0,0,1,1.79-.46v1.43h-.4a2.81,2.81,0,0,0-1.82.57,2.27,2.27,0,0,0-.71,1.88v4.16h-1.31V39.25h1.31v1.6A2.93,2.93,0,0,1,263.31,39.58Z"/><path class="cls-2" d="M275.05,43.49h-6.32a2.72,2.72,0,0,0,.77,2,2.74,2.74,0,0,0,3.37.19,2,2,0,0,0,.78-1.29h1.4a3.36,3.36,0,0,1-.64,1.47,3.24,3.24,0,0,1-1.29,1,4.27,4.27,0,0,1-1.79.36,4,4,0,0,1-2-.49,3.39,3.39,0,0,1-1.38-1.4,4.47,4.47,0,0,1-.49-2.16,4.53,4.53,0,0,1,.49-2.16,3.47,3.47,0,0,1,1.38-1.41,4.12,4.12,0,0,1,2-.49,4,4,0,0,1,2,.49A3.43,3.43,0,0,1,274.65,41a4,4,0,0,1,.4,2.54Zm-1.56-2.1a2.06,2.06,0,0,0-.9-.88,2.84,2.84,0,0,0-1.26-.29,2.57,2.57,0,0,0-1.81.67,2.65,2.65,0,0,0-.79,2h5A2.66,2.66,0,0,0,273.49,41.39Z"/><path class="cls-2" d="M284.57,36.5V47.16h-1.31V36.5Z"/><path class="cls-2" d="M293.3,39.73a3.07,3.07,0,0,1,1.12,1.54v-2h1.31v7.91h-1.31v-2a3,3,0,0,1-1.12,1.54,3.2,3.2,0,0,1-1.95.58,3.53,3.53,0,0,1-1.87-.49,3.31,3.31,0,0,1-1.29-1.4,4.71,4.71,0,0,1-.47-2.16,4.77,4.77,0,0,1,.47-2.16,3.39,3.39,0,0,1,1.29-1.41,3.62,3.62,0,0,1,1.87-.49A3.26,3.26,0,0,1,293.3,39.73Zm-3.51,1.36a3.46,3.46,0,0,0,0,4.25,2.54,2.54,0,0,0,1.93.77,2.69,2.69,0,0,0,1.39-.36,2.49,2.49,0,0,0,1-1,3.19,3.19,0,0,0,.35-1.52,3.24,3.24,0,0,0-.35-1.52,2.49,2.49,0,0,0-1-1,2.79,2.79,0,0,0-1.39-.35A2.54,2.54,0,0,0,289.79,41.09Z"/><path class="cls-2" d="M305.49,39.64a3.39,3.39,0,0,1,1.29,1.41,4.77,4.77,0,0,1,.47,2.16,4.71,4.71,0,0,1-.47,2.16,3.31,3.31,0,0,1-1.29,1.4,3.55,3.55,0,0,1-1.87.49,3.2,3.2,0,0,1-1.95-.58,2.91,2.91,0,0,1-1.1-1.54v2h-1.32V36.5h1.32v4.77a2.92,2.92,0,0,1,1.1-1.53,3.2,3.2,0,0,1,1.95-.59A3.65,3.65,0,0,1,305.49,39.64Zm-3.63,1a2.49,2.49,0,0,0-1,1,3.24,3.24,0,0,0-.35,1.52,3.19,3.19,0,0,0,.35,1.52,2.49,2.49,0,0,0,1,1,2.68,2.68,0,0,0,1.38.36,2.55,2.55,0,0,0,1.95-.77,3.46,3.46,0,0,0,0-4.25,2.55,2.55,0,0,0-1.95-.77A2.77,2.77,0,0,0,301.86,40.67Z"/><path class="cls-2" d="M317.61,43.49h-6.32a2.8,2.8,0,0,0,.77,2,2.74,2.74,0,0,0,3.37.19,2,2,0,0,0,.79-1.29h1.39a3.3,3.3,0,0,1-1.93,2.48,4.22,4.22,0,0,1-1.78.36,4.06,4.06,0,0,1-2-.49,3.42,3.42,0,0,1-1.37-1.4,4.48,4.48,0,0,1-.5-2.16,4.53,4.53,0,0,1,.5-2.16,3.51,3.51,0,0,1,1.37-1.41,4.16,4.16,0,0,1,2-.49,4,4,0,0,1,2,.49A3.43,3.43,0,0,1,317.22,41a4,4,0,0,1,.39,2.54Zm-1.55-2.1a2,2,0,0,0-.91-.88,2.77,2.77,0,0,0-1.25-.29,2.59,2.59,0,0,0-1.82.67,2.68,2.68,0,0,0-.79,2h5.06A2.66,2.66,0,0,0,316.06,41.39Z"/><path class="cls-2" d="M322.14,36.5V47.16h-1.31V36.5Z"/><path class="cls-2" d="M337.59,39.76V41H330.1V39.76Zm0,3.07V44H330.1V42.83Z"/><path class="cls-2" d="M99.21,62.41a3.53,3.53,0,0,1,.85,2.56v4.59H98.75V65.08a2.52,2.52,0,0,0-.6-1.81,2.19,2.19,0,0,0-1.65-.64,2.26,2.26,0,0,0-1.72.7,2.87,2.87,0,0,0-.65,2v4.19H92.82v-7.9h1.31v1.87A2.71,2.71,0,0,1,95.2,62,3.17,3.17,0,0,1,97,61.53,2.94,2.94,0,0,1,99.21,62.41Z"/><path class="cls-2" d="M109.14,62a3.54,3.54,0,0,1,1.41,1.41,4.43,4.43,0,0,1,.51,2.17,4.35,4.35,0,0,1-.51,2.15,3.46,3.46,0,0,1-1.41,1.4,4.47,4.47,0,0,1-4.07,0,3.48,3.48,0,0,1-1.42-1.4,4.25,4.25,0,0,1-.52-2.15,4.33,4.33,0,0,1,.52-2.17A3.57,3.57,0,0,1,105.07,62a4.47,4.47,0,0,1,4.07,0Zm-3.34,1a2.44,2.44,0,0,0-1,1,3.36,3.36,0,0,0-.36,1.63,3.29,3.29,0,0,0,.36,1.6,2.38,2.38,0,0,0,1,1,2.75,2.75,0,0,0,1.3.32,2.79,2.79,0,0,0,1.31-.32,2.3,2.3,0,0,0,1-1,3.18,3.18,0,0,0,.37-1.6,3.25,3.25,0,0,0-.37-1.63,2.36,2.36,0,0,0-1-1,2.78,2.78,0,0,0-1.31-.31A2.74,2.74,0,0,0,105.8,63Z"/><path class="cls-2" d="M119.23,58.75a.92.92,0,0,1,.65-.22.89.89,0,0,1,.64.22.75.75,0,0,1,.25.59.73.73,0,0,1-.25.58.89.89,0,0,1-.64.22.92.92,0,0,1-.65-.22.76.76,0,0,1-.25-.58A.78.78,0,0,1,119.23,58.75Zm1.29,2.91v7.9h-1.31v-7.9Z"/><path class="cls-2" d="M127.84,68.41v1.15h-1a2.49,2.49,0,0,1-1.81-.58,2.58,2.58,0,0,1-.59-1.93V62.79h-1.19V61.66h1.19v-2h1.32v2h2v1.13h-2v4.29a1.48,1.48,0,0,0,.28,1,1.34,1.34,0,0,0,1,.28Z"/><path class="cls-2" d="M136.88,62.36a3.48,3.48,0,0,1,1.23,2.16h-1.39a2,2,0,0,0-.78-1.33,2.59,2.59,0,0,0-1.59-.48,2.56,2.56,0,0,0-1.26.31,2.34,2.34,0,0,0-.92,1,4.05,4.05,0,0,0,0,3.25,2.34,2.34,0,0,0,.92,1,2.56,2.56,0,0,0,1.26.31,2.53,2.53,0,0,0,1.59-.49,2,2,0,0,0,.78-1.33h1.39a3.42,3.42,0,0,1-1.23,2.16,3.88,3.88,0,0,1-2.5.8,4.06,4.06,0,0,1-2-.49,3.36,3.36,0,0,1-1.37-1.4,4.35,4.35,0,0,1-.5-2.15,4.43,4.43,0,0,1,.5-2.17A3.45,3.45,0,0,1,132.36,62a4.16,4.16,0,0,1,2-.49A3.83,3.83,0,0,1,136.88,62.36Z"/><path class="cls-2" d="M147.65,62.41A3.53,3.53,0,0,1,148.5,65v4.59h-1.31V65.08a2.52,2.52,0,0,0-.6-1.81,2.18,2.18,0,0,0-1.64-.64,2.27,2.27,0,0,0-1.73.7,2.92,2.92,0,0,0-.65,2v4.19h-1.31V58.9h1.31v4.63A2.71,2.71,0,0,1,143.64,62a3.17,3.17,0,0,1,1.78-.51A2.94,2.94,0,0,1,147.65,62.41Z"/><path class="cls-2" d="M152.51,61.66l2.56,6.22,2.37-6.22h1.46L154.2,73.3h-1.48l1.64-3.87L151,61.66Z"/><path class="cls-2" d="M170.3,68.41v1.15h-1a2.49,2.49,0,0,1-1.81-.58,2.58,2.58,0,0,1-.6-1.93V62.79h-1.18V61.66h1.18v-2h1.33v2h2v1.13h-2v4.29a1.48,1.48,0,0,0,.28,1,1.32,1.32,0,0,0,1,.28Z"/><path class="cls-2" d="M178.53,62.13a3,3,0,0,1,1.12,1.54v-2H181v7.9h-1.31v-2a2.92,2.92,0,0,1-1.12,1.54,3.2,3.2,0,0,1-1.95.58,3.55,3.55,0,0,1-1.87-.49,3.31,3.31,0,0,1-1.29-1.4,4.7,4.7,0,0,1-.47-2.15,4.78,4.78,0,0,1,.47-2.17A3.39,3.39,0,0,1,174.71,62a3.65,3.65,0,0,1,1.87-.49A3.26,3.26,0,0,1,178.53,62.13ZM175,63.49a3.46,3.46,0,0,0,0,4.25,2.55,2.55,0,0,0,1.94.77,2.69,2.69,0,0,0,1.39-.36,2.53,2.53,0,0,0,1-1,3.18,3.18,0,0,0,.35-1.51,3.26,3.26,0,0,0-.35-1.53,2.53,2.53,0,0,0-1-1,2.79,2.79,0,0,0-1.39-.35A2.55,2.55,0,0,0,175,63.49Z"/><path class="cls-2" d="M189.68,62.13a3,3,0,0,1,1.11,1.54v-2h1.32v8a4,4,0,0,1-.47,1.94A3.24,3.24,0,0,1,190.35,73a3.86,3.86,0,0,1-1.95.47,4.12,4.12,0,0,1-2.6-.77,3.37,3.37,0,0,1-1.28-2.08h1.29a2.31,2.31,0,0,0,.87,1.25,2.82,2.82,0,0,0,1.65.45,2.46,2.46,0,0,0,1.77-.68,2.57,2.57,0,0,0,.69-1.91V67.54a3,3,0,0,1-1.11,1.54,3.2,3.2,0,0,1-2,.58,3.53,3.53,0,0,1-1.87-.49,3.31,3.31,0,0,1-1.29-1.4,4.57,4.57,0,0,1-.47-2.15,4.66,4.66,0,0,1,.47-2.17A3.39,3.39,0,0,1,185.86,62a3.62,3.62,0,0,1,1.87-.49A3.26,3.26,0,0,1,189.68,62.13Zm-3.51,1.36a3.46,3.46,0,0,0,0,4.25,2.54,2.54,0,0,0,1.93.77,2.69,2.69,0,0,0,1.39-.36,2.49,2.49,0,0,0,1-1,3.17,3.17,0,0,0,.34-1.51,3.25,3.25,0,0,0-.34-1.53,2.49,2.49,0,0,0-1-1,2.79,2.79,0,0,0-1.39-.35A2.54,2.54,0,0,0,186.17,63.49Z"/><path class="cls-2" d="M200.26,62.25a2.94,2.94,0,0,1,1,1.88H200a1.81,1.81,0,0,0-.59-1.16,1.9,1.9,0,0,0-1.33-.45,1.61,1.61,0,0,0-1.1.34,1.14,1.14,0,0,0-.4.91.94.94,0,0,0,.27.7,1.7,1.7,0,0,0,.66.4c.27.09.63.19,1.09.3a10.21,10.21,0,0,1,1.42.41,2.24,2.24,0,0,1,.92.67,1.91,1.91,0,0,1,.38,1.24,2,2,0,0,1-.73,1.57,2.93,2.93,0,0,1-1.93.6,3.69,3.69,0,0,1-2.31-.68,2.73,2.73,0,0,1-1-1.88h1.27a1.63,1.63,0,0,0,.63,1.16,2.23,2.23,0,0,0,1.46.45,1.54,1.54,0,0,0,1.06-.34,1.21,1.21,0,0,0,.38-.91,1,1,0,0,0-.28-.74,1.68,1.68,0,0,0-.67-.41A9.87,9.87,0,0,0,198,66a9.42,9.42,0,0,1-1.41-.4,2.16,2.16,0,0,1-.89-.64,1.82,1.82,0,0,1-.37-1.19,2,2,0,0,1,.74-1.6,3,3,0,0,1,2-.62A3.21,3.21,0,0,1,200.26,62.25Z"/><rect class="cls-1" y="15" width="72.67" height="72.67"/><rect class="cls-1" x="477.03" y="15" width="72.67" height="72.67"/><rect class="cls-1" x="477.03" y="109.5" width="72.67" height="72.67"/><rect class="cls-1" x="477.03" y="207" width="72.67" height="72.67"/><rect class="cls-1" y="105" width="72.67" height="72.67"/><line class="cls-1" x1="52.48" y1="34.01" x2="20.19" y2="66.31"/><path class="cls-4" d="M51.2,32.84A22.83,22.83,0,0,0,19,65Z"/><path class="cls-4" d="M20.17,66.29l0,0h0Z"/><path class="cls-4" d="M53.66,35.29,21.46,67.48a22.83,22.83,0,0,0,32.2-32.19Z"/><path class="cls-3" d="M54.91,31.58a26.27,26.27,0,1,0,7.7,18.58A26.22,26.22,0,0,0,54.91,31.58ZM13.5,50.16A22.82,22.82,0,0,1,51.2,32.84L19,65A22.76,22.76,0,0,1,13.5,50.16Zm6.67,16.13,0,0h0Zm32.31,0a22.84,22.84,0,0,1-31,1.17l32.2-32.19a22.83,22.83,0,0,1-1.18,31Z"/><path class="cls-3" d="M36.33,253a25,25,0,0,1-23.75-17.19A1.79,1.79,0,1,1,16,234.73a21.44,21.44,0,0,0,40.72,0,1.79,1.79,0,0,1,3.4,1.12A25,25,0,0,1,36.33,253Z"/><path class="cls-2" d="M589,117.7v3.47h3.86v1H589v3.54h4.29v1.06h-5.6V116.63h5.6v1.07Z"/><path class="cls-2" d="M601,126.78l-2.06-3-1.86,3h-1.45l2.59-4.07-2.61-3.83h1.5l2,2.94,1.83-2.94h1.46l-2.58,4,2.68,3.93Z"/><path class="cls-2" d="M608.94,125.63v1.15h-1a2.53,2.53,0,0,1-1.8-.57,2.61,2.61,0,0,1-.6-1.93V120h-1.18v-1.14h1.18v-2h1.32v2h2V120h-2v4.29a1.45,1.45,0,0,0,.29,1,1.32,1.32,0,0,0,1,.28Z"/><path class="cls-2" d="M614.43,119.2a3.39,3.39,0,0,1,1.78-.45v1.42h-.4a2.78,2.78,0,0,0-1.81.57,2.29,2.29,0,0,0-.71,1.88v4.16H612v-7.9h1.31v1.6A2.9,2.9,0,0,1,614.43,119.2Z"/><path class="cls-2" d="M624.14,119.35a3.05,3.05,0,0,1,1.12,1.54v-2h1.31v7.9h-1.31v-2a3.05,3.05,0,0,1-1.12,1.54,3.26,3.26,0,0,1-1.95.57,3.64,3.64,0,0,1-1.87-.48A3.39,3.39,0,0,1,619,125a5.18,5.18,0,0,1,0-4.31,3.28,3.28,0,0,1,1.29-1.41,3.55,3.55,0,0,1,1.87-.49A3.26,3.26,0,0,1,624.14,119.35Zm-3.51,1.36a3,3,0,0,0-.73,2.13,2.94,2.94,0,0,0,.73,2.12,2.51,2.51,0,0,0,1.94.77,2.72,2.72,0,0,0,1.39-.36,2.57,2.57,0,0,0,.95-1,3.5,3.5,0,0,0,0-3,2.44,2.44,0,0,0-.95-1,2.72,2.72,0,0,0-1.39-.36A2.55,2.55,0,0,0,620.63,120.71Z"/><path class="cls-2" d="M636.4,116.13v10.65h-1.31V116.13Z"/><path class="cls-2" d="M647.16,123.11h-6.32a2.76,2.76,0,0,0,.77,2,2.52,2.52,0,0,0,1.78.68,2.59,2.59,0,0,0,1.59-.48,2,2,0,0,0,.78-1.29h1.4a3.41,3.41,0,0,1-.64,1.47,3.33,3.33,0,0,1-1.29,1,4.43,4.43,0,0,1-1.79.35,4.12,4.12,0,0,1-2-.48,3.47,3.47,0,0,1-1.38-1.41,5,5,0,0,1,0-4.31,3.35,3.35,0,0,1,1.38-1.41,4,4,0,0,1,2-.49,3.94,3.94,0,0,1,2,.49,3.3,3.3,0,0,1,1.31,1.31,3.58,3.58,0,0,1,.46,1.81A3.73,3.73,0,0,1,647.16,123.11ZM645.6,121a2.12,2.12,0,0,0-.9-.88,2.81,2.81,0,0,0-1.26-.29,2.63,2.63,0,0,0-1.81.67,2.71,2.71,0,0,0-.79,2h5A2.59,2.59,0,0,0,645.6,121Z"/><path class="cls-2" d="M656.76,119.63a3.55,3.55,0,0,1,.85,2.56v4.59H656.3v-4.47a2.54,2.54,0,0,0-.6-1.82,2.16,2.16,0,0,0-1.64-.63,2.23,2.23,0,0,0-1.73.7,2.88,2.88,0,0,0-.65,2v4.19h-1.31v-7.9h1.31v1.87a2.68,2.68,0,0,1,1.07-1.48,3.1,3.1,0,0,1,1.78-.52A2.94,2.94,0,0,1,656.76,119.63Z"/><path class="cls-2" d="M666.26,119.35a3.05,3.05,0,0,1,1.12,1.54v-2h1.31v8a4.13,4.13,0,0,1-.46,2,3.3,3.3,0,0,1-1.3,1.32,3.82,3.82,0,0,1-1.94.48,4.19,4.19,0,0,1-2.61-.77,3.42,3.42,0,0,1-1.28-2.08h1.3a2.22,2.22,0,0,0,.87,1.24,2.78,2.78,0,0,0,1.65.46,2.4,2.4,0,0,0,1.76-.69,2.52,2.52,0,0,0,.7-1.91v-2.14a3.05,3.05,0,0,1-1.12,1.54,3.26,3.26,0,0,1-2,.57,3.64,3.64,0,0,1-1.87-.48,3.39,3.39,0,0,1-1.29-1.41,5.18,5.18,0,0,1,0-4.31,3.28,3.28,0,0,1,1.29-1.41,3.55,3.55,0,0,1,1.87-.49A3.26,3.26,0,0,1,666.26,119.35Zm-3.51,1.36a3,3,0,0,0-.73,2.13,2.94,2.94,0,0,0,.73,2.12,2.5,2.5,0,0,0,1.93.77,2.73,2.73,0,0,0,1.4-.36,2.57,2.57,0,0,0,.95-1,3.5,3.5,0,0,0,0-3,2.44,2.44,0,0,0-.95-1,2.73,2.73,0,0,0-1.4-.36A2.54,2.54,0,0,0,662.75,120.71Z"/><path class="cls-2" d="M676,125.63v1.15h-1a2.54,2.54,0,0,1-1.81-.57,2.61,2.61,0,0,1-.6-1.93V120h-1.18v-1.14h1.18v-2h1.33v2h2V120h-2v4.29a1.46,1.46,0,0,0,.28,1,1.34,1.34,0,0,0,1,.28Z"/><path class="cls-2" d="M685.42,119.63a3.55,3.55,0,0,1,.85,2.56v4.59H685v-4.47a2.5,2.5,0,0,0-.61-1.82,2.16,2.16,0,0,0-1.64-.63,2.21,2.21,0,0,0-1.72.7,2.83,2.83,0,0,0-.65,2v4.19H679V116.13h1.31v4.62a2.68,2.68,0,0,1,1.07-1.48,3.08,3.08,0,0,1,1.78-.52A3,3,0,0,1,685.42,119.63Z"/><path class="cls-2" d="M698.5,125.63v1.15h-1a2.54,2.54,0,0,1-1.81-.57,2.61,2.61,0,0,1-.6-1.93V120h-1.18v-1.14h1.18v-2h1.33v2h2V120h-2v4.29a1.46,1.46,0,0,0,.28,1,1.32,1.32,0,0,0,1,.28Z"/><path class="cls-2" d="M707.16,119.27a3.42,3.42,0,0,1,1.41,1.41,4.81,4.81,0,0,1,0,4.31,3.54,3.54,0,0,1-1.41,1.41,4.57,4.57,0,0,1-4.08,0,3.63,3.63,0,0,1-1.42-1.41,4.81,4.81,0,0,1,0-4.31,3.5,3.5,0,0,1,1.42-1.41,4.49,4.49,0,0,1,4.08,0Zm-3.34,1a2.38,2.38,0,0,0-1,1,3.34,3.34,0,0,0-.37,1.62,3.26,3.26,0,0,0,.37,1.6,2.47,2.47,0,0,0,1,1,2.71,2.71,0,0,0,1.3.31,2.74,2.74,0,0,0,1.3-.31,2.47,2.47,0,0,0,1-1,3.26,3.26,0,0,0,.36-1.6,3.34,3.34,0,0,0-.36-1.62,2.38,2.38,0,0,0-1-1,2.75,2.75,0,0,0-1.3-.32A2.72,2.72,0,0,0,703.82,120.25Z"/><path class="cls-2" d="M721.56,126.78l-3-3.55v3.55h-1.31V116.13h1.31v6.19l3-3.44h1.6l-3.54,3.93,3.63,4Z"/><path class="cls-2" d="M733,123.11h-6.32a2.8,2.8,0,0,0,.77,2,2.54,2.54,0,0,0,1.78.68,2.59,2.59,0,0,0,1.59-.48,2,2,0,0,0,.78-1.29H733a3.3,3.3,0,0,1-.64,1.47,3.33,3.33,0,0,1-1.29,1,4.42,4.42,0,0,1-1.78.35,4.16,4.16,0,0,1-2-.48,3.45,3.45,0,0,1-1.37-1.41,4.89,4.89,0,0,1,0-4.31,3.33,3.33,0,0,1,1.37-1.41,4.06,4.06,0,0,1,2-.49,4,4,0,0,1,2,.49,3.37,3.37,0,0,1,1.31,1.31,3.68,3.68,0,0,1,.45,1.81A3.73,3.73,0,0,1,733,123.11Zm-1.55-2.1a2.14,2.14,0,0,0-.91-.88,2.77,2.77,0,0,0-1.25-.29,2.64,2.64,0,0,0-1.82.67,2.71,2.71,0,0,0-.79,2h5.06A2.77,2.77,0,0,0,731.46,121Z"/><path class="cls-2" d="M743.44,123.11h-6.32a2.72,2.72,0,0,0,.77,2,2.5,2.5,0,0,0,1.78.68,2.59,2.59,0,0,0,1.59-.48,2,2,0,0,0,.78-1.29h1.4a3.41,3.41,0,0,1-.64,1.47,3.33,3.33,0,0,1-1.29,1,4.47,4.47,0,0,1-1.79.35,4.09,4.09,0,0,1-2-.48,3.47,3.47,0,0,1-1.38-1.41,4.89,4.89,0,0,1,0-4.31,3.35,3.35,0,0,1,1.38-1.41,4,4,0,0,1,2-.49,3.94,3.94,0,0,1,2,.49,3.3,3.3,0,0,1,1.31,1.31,3.69,3.69,0,0,1,.46,1.81A3.73,3.73,0,0,1,743.44,123.11Zm-1.56-2.1a2.12,2.12,0,0,0-.9-.88,2.84,2.84,0,0,0-1.26-.29,2.61,2.61,0,0,0-1.81.67,2.67,2.67,0,0,0-.79,2h5A2.67,2.67,0,0,0,741.88,121Z"/><path class="cls-2" d="M752.88,119.27a3.28,3.28,0,0,1,1.29,1.41,5.18,5.18,0,0,1,0,4.31,3.39,3.39,0,0,1-1.29,1.41,3.62,3.62,0,0,1-1.87.48,3.2,3.2,0,0,1-2-.58,3,3,0,0,1-1.1-1.53v5.76h-1.31V118.88H748v2a3,3,0,0,1,1.1-1.53,3.2,3.2,0,0,1,2-.58A3.53,3.53,0,0,1,752.88,119.27Zm-3.63,1a2.4,2.4,0,0,0-1,1,3.5,3.5,0,0,0,0,3,2.53,2.53,0,0,0,1,1,2.74,2.74,0,0,0,1.39.36,2.55,2.55,0,0,0,2-.77,3,3,0,0,0,.73-2.12,3,3,0,0,0-.73-2.13,2.58,2.58,0,0,0-2-.77A2.74,2.74,0,0,0,749.25,120.3Z"/><path class="cls-2" d="M763.34,118.88l2.56,6.22,2.38-6.22h1.45L765,130.53h-1.49l1.65-3.88-3.33-7.77Z"/><path class="cls-2" d="M778,119.27a3.42,3.42,0,0,1,1.41,1.41,4.81,4.81,0,0,1,0,4.31A3.54,3.54,0,0,1,778,126.4a4.27,4.27,0,0,1-2,.48,4.2,4.2,0,0,1-2-.48A3.5,3.5,0,0,1,772.5,125a4.73,4.73,0,0,1,0-4.31,3.39,3.39,0,0,1,1.42-1.41,4.09,4.09,0,0,1,2-.49A4.16,4.16,0,0,1,778,119.27Zm-3.34,1a2.38,2.38,0,0,0-1,1,3.34,3.34,0,0,0-.36,1.62,3.26,3.26,0,0,0,.36,1.6,2.47,2.47,0,0,0,1,1,2.74,2.74,0,0,0,1.3.31,2.71,2.71,0,0,0,1.3-.31,2.41,2.41,0,0,0,1-1,3.26,3.26,0,0,0,.37-1.6,3.34,3.34,0,0,0-.37-1.62,2.32,2.32,0,0,0-1-1,2.72,2.72,0,0,0-1.3-.32A2.75,2.75,0,0,0,774.65,120.25Z"/><path class="cls-2" d="M790.09,118.88v7.9h-1.31v-1.85a2.66,2.66,0,0,1-1.07,1.47,3.16,3.16,0,0,1-1.79.51,2.92,2.92,0,0,1-2.22-.88,3.51,3.51,0,0,1-.85-2.54v-4.61h1.31v4.48a2.58,2.58,0,0,0,.6,1.82,2.15,2.15,0,0,0,1.65.64,2.21,2.21,0,0,0,1.72-.7,2.84,2.84,0,0,0,.65-2v-4.2Z"/><path class="cls-2" d="M796.08,119.2a3.42,3.42,0,0,1,1.79-.45v1.42h-.4a2.81,2.81,0,0,0-1.82.57,2.28,2.28,0,0,0-.7,1.88v4.16h-1.32v-7.9H795v1.6A2.82,2.82,0,0,1,796.08,119.2Z"/><path class="cls-2" d="M811.84,119.27a3.32,3.32,0,0,1,1.28,1.41,5.18,5.18,0,0,1,0,4.31,3.44,3.44,0,0,1-1.28,1.41,3.65,3.65,0,0,1-1.88.48,3.24,3.24,0,0,1-2-.58,3,3,0,0,1-1.1-1.53v2H805.6V116.13h1.31v4.76a3,3,0,0,1,1.1-1.53,3.24,3.24,0,0,1,2-.58A3.56,3.56,0,0,1,811.84,119.27Zm-3.63,1a2.37,2.37,0,0,0-1,1,3.59,3.59,0,0,0,0,3,2.48,2.48,0,0,0,1,1,2.68,2.68,0,0,0,1.38.36,2.52,2.52,0,0,0,1.95-.77,2.94,2.94,0,0,0,.73-2.12,3,3,0,0,0-.73-2.13,2.55,2.55,0,0,0-1.95-.77A2.68,2.68,0,0,0,808.21,120.3Z"/><path class="cls-2" d="M821.94,119.35a3,3,0,0,1,1.11,1.54v-2h1.31v7.9h-1.31v-2a3,3,0,0,1-1.11,1.54,3.28,3.28,0,0,1-2,.57,3.68,3.68,0,0,1-1.88-.48,3.44,3.44,0,0,1-1.28-1.41,5.18,5.18,0,0,1,0-4.31,3.32,3.32,0,0,1,1.28-1.41,3.59,3.59,0,0,1,1.88-.49A3.28,3.28,0,0,1,821.94,119.35Zm-3.52,1.36a3,3,0,0,0-.72,2.13,3,3,0,0,0,.72,2.12,2.52,2.52,0,0,0,1.94.77,2.69,2.69,0,0,0,1.39-.36,2.53,2.53,0,0,0,1-1,3.59,3.59,0,0,0,0-3,2.4,2.4,0,0,0-1-1,2.69,2.69,0,0,0-1.39-.36A2.56,2.56,0,0,0,818.42,120.71Z"/><path class="cls-2" d="M834.13,119.27a3.4,3.4,0,0,1,1.29,1.41,5.28,5.28,0,0,1,0,4.31,3.53,3.53,0,0,1-1.29,1.41,3.65,3.65,0,0,1-1.88.48,3.24,3.24,0,0,1-2-.58,3,3,0,0,1-1.1-1.53v2h-1.31V116.13h1.31v4.76a3,3,0,0,1,1.1-1.53,3.24,3.24,0,0,1,2-.58A3.56,3.56,0,0,1,834.13,119.27Zm-3.63,1a2.37,2.37,0,0,0-1,1,3.59,3.59,0,0,0,0,3,2.48,2.48,0,0,0,1,1,2.68,2.68,0,0,0,1.38.36,2.52,2.52,0,0,0,2-.77,2.94,2.94,0,0,0,.73-2.12,3,3,0,0,0-.73-2.13,2.55,2.55,0,0,0-2-.77A2.68,2.68,0,0,0,830.5,120.3Z"/><path class="cls-2" d="M839.58,118.88l2.57,6.22,2.37-6.22H846l-4.7,11.65H839.8l1.64-3.88-3.32-7.77Z"/><path class="cls-2" d="M594,141.67a3.4,3.4,0,0,1,1.29,1.41,5.28,5.28,0,0,1,0,4.31A3.53,3.53,0,0,1,594,148.8a3.65,3.65,0,0,1-1.87.49,3.25,3.25,0,0,1-2-.59,3,3,0,0,1-1.1-1.53v2h-1.31V138.53H589v4.76a3,3,0,0,1,1.1-1.53,3.25,3.25,0,0,1,2-.58A3.55,3.55,0,0,1,594,141.67Zm-3.63,1a2.43,2.43,0,0,0-1,1,3.25,3.25,0,0,0-.34,1.53,3.21,3.21,0,0,0,.34,1.52,2.49,2.49,0,0,0,1,1,2.68,2.68,0,0,0,1.38.36,2.52,2.52,0,0,0,1.95-.77,3.44,3.44,0,0,0,0-4.24,2.52,2.52,0,0,0-1.95-.78A2.68,2.68,0,0,0,590.34,142.7Z"/><path class="cls-2" d="M605.91,141.28v7.9h-1.32v-1.85a2.61,2.61,0,0,1-1.07,1.47,3.16,3.16,0,0,1-1.79.51,3,3,0,0,1-2.22-.88,3.51,3.51,0,0,1-.85-2.54v-4.61H600v4.48a2.54,2.54,0,0,0,.61,1.82,2.13,2.13,0,0,0,1.64.64,2.25,2.25,0,0,0,1.73-.7,2.89,2.89,0,0,0,.64-2v-4.2Z"/><path class="cls-2" d="M621.39,142a3.55,3.55,0,0,1,.84,2.55v4.59h-1.31v-4.47a2.55,2.55,0,0,0-.57-1.79,2,2,0,0,0-1.56-.62,2.14,2.14,0,0,0-1.66.69,2.84,2.84,0,0,0-.63,2v4.19h-1.31v-4.47a2.55,2.55,0,0,0-.57-1.79,2.06,2.06,0,0,0-1.56-.62,2.16,2.16,0,0,0-1.68.69,2.89,2.89,0,0,0-.62,2v4.19h-1.31v-7.9h1.31v1.8a2.5,2.5,0,0,1,1-1.43,3.2,3.2,0,0,1,3.45,0,2.74,2.74,0,0,1,1.06,1.5,2.9,2.9,0,0,1,1.11-1.49,3.06,3.06,0,0,1,1.76-.52A2.89,2.89,0,0,1,621.39,142Z"/><path class="cls-2" d="M631.94,141.67a3.28,3.28,0,0,1,1.29,1.41,5.18,5.18,0,0,1,0,4.31,3.39,3.39,0,0,1-1.29,1.41,3.65,3.65,0,0,1-1.87.49,3.2,3.2,0,0,1-2-.59,2.92,2.92,0,0,1-1.1-1.53v5.76h-1.31V141.28H627v2a2.92,2.92,0,0,1,1.1-1.53,3.2,3.2,0,0,1,2-.58A3.55,3.55,0,0,1,631.94,141.67Zm-3.63,1a2.4,2.4,0,0,0-1,1,3.26,3.26,0,0,0-.35,1.53,3.22,3.22,0,0,0,.35,1.52,2.46,2.46,0,0,0,1,1,2.68,2.68,0,0,0,1.38.36,2.55,2.55,0,0,0,2-.77,3.48,3.48,0,0,0,0-4.24,2.56,2.56,0,0,0-2-.78A2.68,2.68,0,0,0,628.31,142.7Z"/><path class="cls-2" d="M647,141.75a3,3,0,0,1,1.11,1.54v-2h1.31v7.9h-1.31v-2a3,3,0,0,1-1.11,1.54,3.31,3.31,0,0,1-1.95.58,3.62,3.62,0,0,1-1.87-.49,3.39,3.39,0,0,1-1.29-1.41,5.18,5.18,0,0,1,0-4.31,3.28,3.28,0,0,1,1.29-1.41,3.53,3.53,0,0,1,1.87-.49A3.3,3.3,0,0,1,647,141.75Zm-3.52,1.37a3.48,3.48,0,0,0,0,4.24,2.54,2.54,0,0,0,1.94.77,2.69,2.69,0,0,0,1.39-.36,2.46,2.46,0,0,0,1-1,3.21,3.21,0,0,0,.34-1.52,3.25,3.25,0,0,0-.34-1.53,2.4,2.4,0,0,0-1-1,2.69,2.69,0,0,0-1.39-.36A2.55,2.55,0,0,0,643.52,143.12Z"/><path class="cls-2" d="M659.39,142a3.55,3.55,0,0,1,.85,2.55v4.59h-1.32v-4.47a2.54,2.54,0,0,0-.6-1.82,2.16,2.16,0,0,0-1.64-.63,2.23,2.23,0,0,0-1.73.7,2.88,2.88,0,0,0-.65,2v4.19H653v-7.9h1.31v1.87a2.65,2.65,0,0,1,1.08-1.48,3,3,0,0,1,1.77-.52A2.93,2.93,0,0,1,659.39,142Z"/><path class="cls-2" d="M668.88,141.75a3,3,0,0,1,1.12,1.54v-4.76h1.31v10.65H670v-2a3,3,0,0,1-1.12,1.54,3.26,3.26,0,0,1-2,.58,3.65,3.65,0,0,1-1.87-.49,3.39,3.39,0,0,1-1.29-1.41,5.18,5.18,0,0,1,0-4.31,3.28,3.28,0,0,1,1.29-1.41,3.55,3.55,0,0,1,1.87-.49A3.26,3.26,0,0,1,668.88,141.75Zm-3.51,1.37a3.44,3.44,0,0,0,0,4.24,2.51,2.51,0,0,0,1.94.77,2.69,2.69,0,0,0,1.39-.36,2.51,2.51,0,0,0,.95-1,3.22,3.22,0,0,0,.35-1.52,3.26,3.26,0,0,0-.35-1.53,2.44,2.44,0,0,0-.95-1,2.69,2.69,0,0,0-1.39-.36A2.52,2.52,0,0,0,665.37,143.12Z"/><path class="cls-2" d="M686.07,141.67a3.28,3.28,0,0,1,1.29,1.41,5.18,5.18,0,0,1,0,4.31,3.39,3.39,0,0,1-1.29,1.41,3.65,3.65,0,0,1-1.87.49,3.2,3.2,0,0,1-2-.59,3,3,0,0,1-1.11-1.53v5.76h-1.31V141.28h1.31v2a3,3,0,0,1,1.11-1.53,3.2,3.2,0,0,1,2-.58A3.55,3.55,0,0,1,686.07,141.67Zm-3.63,1a2.4,2.4,0,0,0-1,1,3.26,3.26,0,0,0-.35,1.53,3.22,3.22,0,0,0,.35,1.52,2.46,2.46,0,0,0,1,1,2.68,2.68,0,0,0,1.38.36,2.52,2.52,0,0,0,1.95-.77,3.44,3.44,0,0,0,0-4.24,2.52,2.52,0,0,0-1.95-.78A2.68,2.68,0,0,0,682.44,142.7Z"/><path class="cls-2" d="M696.6,141.67a3.42,3.42,0,0,1,1.41,1.41,4.81,4.81,0,0,1,0,4.31,3.54,3.54,0,0,1-1.41,1.41,4.47,4.47,0,0,1-4.07,0,3.57,3.57,0,0,1-1.42-1.41,4.73,4.73,0,0,1,0-4.31,3.44,3.44,0,0,1,1.42-1.41,4.47,4.47,0,0,1,4.07,0Zm-3.34,1a2.3,2.3,0,0,0-1,1,3.23,3.23,0,0,0-.37,1.62,3.16,3.16,0,0,0,.37,1.6,2.33,2.33,0,0,0,1,1,2.9,2.9,0,0,0,2.61,0,2.33,2.33,0,0,0,1-1,3.16,3.16,0,0,0,.37-1.6,3.23,3.23,0,0,0-.37-1.62,2.3,2.3,0,0,0-1-1,2.82,2.82,0,0,0-2.61,0Z"/><path class="cls-2" d="M706.31,141.88a2.9,2.9,0,0,1,1,1.88H706a1.82,1.82,0,0,0-.58-1.16,1.87,1.87,0,0,0-1.33-.46,1.71,1.71,0,0,0-1.11.34,1.16,1.16,0,0,0-.39.92.92.92,0,0,0,.27.69,1.58,1.58,0,0,0,.66.41,9.4,9.4,0,0,0,1.09.29,11.58,11.58,0,0,1,1.41.41,2.36,2.36,0,0,1,.93.67,1.91,1.91,0,0,1,.38,1.24,2,2,0,0,1-.73,1.57,2.94,2.94,0,0,1-1.94.61,3.7,3.7,0,0,1-2.3-.68,2.66,2.66,0,0,1-1-1.89h1.26a1.67,1.67,0,0,0,.63,1.17,2.25,2.25,0,0,0,1.46.44,1.52,1.52,0,0,0,1.06-.34,1.18,1.18,0,0,0,.38-.91,1,1,0,0,0-.27-.73,1.74,1.74,0,0,0-.68-.42,8.32,8.32,0,0,0-1.11-.3,10.84,10.84,0,0,1-1.4-.41,2,2,0,0,1-.89-.64,1.74,1.74,0,0,1-.37-1.18,2,2,0,0,1,.73-1.61,3,3,0,0,1,2-.61A3.16,3.16,0,0,1,706.31,141.88Z"/><path class="cls-2" d="M714.34,148v1.15h-1a2.54,2.54,0,0,1-1.81-.57,2.61,2.61,0,0,1-.6-1.93v-4.26h-1.18v-1.14H711v-2h1.33v2h2v1.14h-2v4.29a1.46,1.46,0,0,0,.28,1,1.34,1.34,0,0,0,1,.28Z"/><path class="cls-2" d="M728.61,141.67a3.4,3.4,0,0,1,1.29,1.41,5.28,5.28,0,0,1,0,4.31,3.53,3.53,0,0,1-1.29,1.41,3.68,3.68,0,0,1-1.88.49,3.24,3.24,0,0,1-2-.59,3,3,0,0,1-1.1-1.53v5.76h-1.31V141.28h1.31v2a3,3,0,0,1,1.1-1.53,3.24,3.24,0,0,1,2-.58A3.59,3.59,0,0,1,728.61,141.67Zm-3.63,1a2.37,2.37,0,0,0-1,1,3.25,3.25,0,0,0-.34,1.53,3.21,3.21,0,0,0,.34,1.52,2.42,2.42,0,0,0,1,1,2.68,2.68,0,0,0,1.38.36,2.52,2.52,0,0,0,1.95-.77,3.44,3.44,0,0,0,0-4.24,2.52,2.52,0,0,0-1.95-.78A2.68,2.68,0,0,0,725,142.7Z"/><path class="cls-2" d="M738.71,141.75a3,3,0,0,1,1.11,1.54v-2h1.31v7.9h-1.31v-2a3,3,0,0,1-1.11,1.54,3.31,3.31,0,0,1-2,.58,3.68,3.68,0,0,1-1.88-.49,3.44,3.44,0,0,1-1.28-1.41,5.18,5.18,0,0,1,0-4.31,3.32,3.32,0,0,1,1.28-1.41,3.59,3.59,0,0,1,1.88-.49A3.3,3.3,0,0,1,738.71,141.75Zm-3.52,1.37a3.48,3.48,0,0,0,0,4.24,2.54,2.54,0,0,0,1.94.77,2.69,2.69,0,0,0,1.39-.36,2.46,2.46,0,0,0,1-1,3.21,3.21,0,0,0,.34-1.52,3.25,3.25,0,0,0-.34-1.53,2.4,2.4,0,0,0-1-1,2.69,2.69,0,0,0-1.39-.36A2.55,2.55,0,0,0,735.19,143.12Z"/><path class="cls-2" d="M747.11,141.6a3.4,3.4,0,0,1,1.79-.45v1.43h-.41a2.78,2.78,0,0,0-1.81.56A2.29,2.29,0,0,0,746,145v4.16h-1.31v-7.9H746v1.6A3,3,0,0,1,747.11,141.6Z"/><path class="cls-2" d="M755.4,148v1.15h-1a2.53,2.53,0,0,1-1.8-.57,2.61,2.61,0,0,1-.6-1.93v-4.26h-1.18v-1.14H752v-2h1.32v2h2v1.14h-2v4.29a1.45,1.45,0,0,0,.29,1,1.32,1.32,0,0,0,1,.28Z"/><path class="cls-2" d="M765.47,141.28v7.9h-1.31v-1.85a2.66,2.66,0,0,1-1.07,1.47,3.19,3.19,0,0,1-1.8.51,2.91,2.91,0,0,1-2.21-.88,3.51,3.51,0,0,1-.85-2.54v-4.61h1.31v4.48a2.58,2.58,0,0,0,.6,1.82,2.13,2.13,0,0,0,1.64.64,2.23,2.23,0,0,0,1.73-.7,2.89,2.89,0,0,0,.65-2v-4.2Z"/><path class="cls-2" d="M781,142a3.55,3.55,0,0,1,.84,2.55v4.59h-1.31v-4.47a2.55,2.55,0,0,0-.57-1.79,2,2,0,0,0-1.56-.62,2.16,2.16,0,0,0-1.67.69,2.89,2.89,0,0,0-.62,2v4.19h-1.31v-4.47a2.5,2.5,0,0,0-.58-1.79,2,2,0,0,0-1.55-.62A2.15,2.15,0,0,0,771,143a2.84,2.84,0,0,0-.63,2v4.19H769v-7.9h1.31v1.8a2.55,2.55,0,0,1,1-1.43,3.22,3.22,0,0,1,3.46,0,2.79,2.79,0,0,1,1.06,1.5,2.93,2.93,0,0,1,1.1-1.49,3.08,3.08,0,0,1,1.76-.52A2.91,2.91,0,0,1,781,142Z"/><path class="cls-2" d="M794,148v1.15h-1a2.54,2.54,0,0,1-1.81-.57,2.61,2.61,0,0,1-.59-1.93v-4.26h-1.19v-1.14h1.19v-2H792v2h2v1.14h-2v4.29a1.46,1.46,0,0,0,.28,1,1.34,1.34,0,0,0,1,.28Z"/><path class="cls-2" d="M804.1,141.28v7.9h-1.31v-1.85a2.66,2.66,0,0,1-1.07,1.47,3.16,3.16,0,0,1-1.79.51,3,3,0,0,1-2.22-.88,3.51,3.51,0,0,1-.85-2.54v-4.61h1.31v4.48a2.54,2.54,0,0,0,.61,1.82,2.13,2.13,0,0,0,1.64.64,2.25,2.25,0,0,0,1.73-.7,2.89,2.89,0,0,0,.64-2v-4.2Z"/><path class="cls-2" d="M819.59,142a3.55,3.55,0,0,1,.84,2.55v4.59h-1.31v-4.47a2.55,2.55,0,0,0-.57-1.79,2,2,0,0,0-1.56-.62,2.14,2.14,0,0,0-1.66.69,2.84,2.84,0,0,0-.63,2v4.19h-1.31v-4.47a2.55,2.55,0,0,0-.57-1.79,2.06,2.06,0,0,0-1.56-.62,2.16,2.16,0,0,0-1.68.69,2.89,2.89,0,0,0-.62,2v4.19h-1.31v-7.9H809v1.8a2.5,2.5,0,0,1,1-1.43,3.2,3.2,0,0,1,3.45,0,2.74,2.74,0,0,1,1.06,1.5,2.9,2.9,0,0,1,1.11-1.49,3.06,3.06,0,0,1,1.76-.52A2.89,2.89,0,0,1,819.59,142Z"/><path class="cls-2" d="M835.85,142a3.55,3.55,0,0,1,.84,2.55v4.59h-1.31v-4.47a2.55,2.55,0,0,0-.57-1.79,2,2,0,0,0-1.56-.62,2.12,2.12,0,0,0-1.66.69,2.84,2.84,0,0,0-.63,2v4.19h-1.31v-4.47a2.5,2.5,0,0,0-.58-1.79,2,2,0,0,0-1.55-.62,2.16,2.16,0,0,0-1.68.69,2.84,2.84,0,0,0-.63,2v4.19H823.9v-7.9h1.31v1.8a2.6,2.6,0,0,1,1-1.43,3,3,0,0,1,1.71-.5,3,3,0,0,1,1.75.51,2.79,2.79,0,0,1,1.06,1.5,2.9,2.9,0,0,1,1.11-1.49,3.05,3.05,0,0,1,1.75-.52A2.89,2.89,0,0,1,835.85,142Z"/><path class="cls-2" d="M840.71,141.28l2.56,6.22,2.38-6.22h1.45l-4.69,11.65h-1.49l1.65-3.88-3.33-7.77Z"/><path class="cls-2" d="M593.74,164.38a3.42,3.42,0,0,1,1.22,2.16h-1.38a2,2,0,0,0-.79-1.33,2.55,2.55,0,0,0-1.59-.48,2.46,2.46,0,0,0-1.26.32,2.26,2.26,0,0,0-.91,1,3.41,3.41,0,0,0-.35,1.62,3.46,3.46,0,0,0,.35,1.62,2.26,2.26,0,0,0,.91,1,2.74,2.74,0,0,0,2.85-.17,2.06,2.06,0,0,0,.79-1.34H595a3.42,3.42,0,0,1-1.22,2.17,3.89,3.89,0,0,1-2.51.79,4.09,4.09,0,0,1-2-.48,3.47,3.47,0,0,1-1.38-1.41,4.89,4.89,0,0,1,0-4.31,3.35,3.35,0,0,1,1.38-1.41,4,4,0,0,1,2-.49A3.89,3.89,0,0,1,593.74,164.38Z"/><path class="cls-2" d="M603.74,164.07a3.42,3.42,0,0,1,1.41,1.41,4.81,4.81,0,0,1,0,4.31,3.54,3.54,0,0,1-1.41,1.41,4.58,4.58,0,0,1-4.08,0,3.63,3.63,0,0,1-1.42-1.41,4.81,4.81,0,0,1,0-4.31,3.5,3.5,0,0,1,1.42-1.41,4.49,4.49,0,0,1,4.08,0Zm-3.34,1a2.38,2.38,0,0,0-1,1,3.78,3.78,0,0,0,0,3.22,2.47,2.47,0,0,0,1,1,2.88,2.88,0,0,0,2.6,0,2.47,2.47,0,0,0,1-1,3.78,3.78,0,0,0,0-3.22,2.38,2.38,0,0,0-1-1,2.8,2.8,0,0,0-2.6,0Z"/><path class="cls-2" d="M611.88,170.19l2.45-6.51h1.41l-3.1,7.9h-1.55l-3.1-7.9h1.41Z"/><path class="cls-2" d="M625.68,167.91h-6.33a2.8,2.8,0,0,0,.77,2,2.76,2.76,0,0,0,3.37.2,2,2,0,0,0,.79-1.29h1.4a3.41,3.41,0,0,1-.64,1.47,3.59,3.59,0,0,1-1.29,1,4.47,4.47,0,0,1-1.79.35,4.16,4.16,0,0,1-2-.48,3.51,3.51,0,0,1-1.37-1.41,4.89,4.89,0,0,1,0-4.31,3.39,3.39,0,0,1,1.37-1.41,4.06,4.06,0,0,1,2-.49,3.94,3.94,0,0,1,2,.49,3.3,3.3,0,0,1,1.31,1.31,3.68,3.68,0,0,1,.45,1.81A4.87,4.87,0,0,1,625.68,167.91Zm-1.56-2.1a2.09,2.09,0,0,0-.91-.88,2.77,2.77,0,0,0-1.25-.29,2.61,2.61,0,0,0-1.81.67,2.71,2.71,0,0,0-.8,2h5.06A2.67,2.67,0,0,0,624.12,165.81Z"/><path class="cls-2" d="M631.33,164a3.42,3.42,0,0,1,1.79-.45V165h-.4a2.81,2.81,0,0,0-1.82.57,2.28,2.28,0,0,0-.7,1.88v4.16h-1.31v-7.9h1.31v1.6A2.94,2.94,0,0,1,631.33,164Z"/><path class="cls-2" d="M643.07,167.91h-6.32a2.76,2.76,0,0,0,.77,2,2.52,2.52,0,0,0,1.78.68,2.59,2.59,0,0,0,1.59-.48,2,2,0,0,0,.78-1.29h1.4a3.3,3.3,0,0,1-1.93,2.48,4.42,4.42,0,0,1-1.78.35,4.13,4.13,0,0,1-2-.48,3.53,3.53,0,0,1-1.38-1.41,5,5,0,0,1,0-4.31,3.41,3.41,0,0,1,1.38-1.41,4,4,0,0,1,2-.49,3.93,3.93,0,0,1,2,.49,3.24,3.24,0,0,1,1.31,1.31,3.58,3.58,0,0,1,.46,1.81A3.73,3.73,0,0,1,643.07,167.91Zm-1.55-2.1a2.2,2.2,0,0,0-.91-.88,2.8,2.8,0,0,0-1.25-.29,2.64,2.64,0,0,0-1.82.67,2.71,2.71,0,0,0-.79,2h5A2.68,2.68,0,0,0,641.52,165.81Z"/><path class="cls-2" d="M651.47,164.15a3,3,0,0,1,1.12,1.54v-4.76h1.31v10.65h-1.31v-2a3,3,0,0,1-1.12,1.54,3.26,3.26,0,0,1-2,.57,3.64,3.64,0,0,1-1.87-.48,3.39,3.39,0,0,1-1.29-1.41,5.18,5.18,0,0,1,0-4.31,3.28,3.28,0,0,1,1.29-1.41,3.55,3.55,0,0,1,1.87-.49A3.26,3.26,0,0,1,651.47,164.15ZM648,165.51a3,3,0,0,0-.73,2.13,2.94,2.94,0,0,0,.73,2.12,2.51,2.51,0,0,0,1.94.77,2.69,2.69,0,0,0,1.39-.36,2.57,2.57,0,0,0,1-1,3.5,3.5,0,0,0,0-3,2.44,2.44,0,0,0-1-1,2.69,2.69,0,0,0-1.39-.36A2.55,2.55,0,0,0,648,165.51Z"/><polygon class="cls-3" points="504.43 123.31 504.43 120.31 488.36 120.31 488.36 136.37 491.38 136.37 491.38 125.44 506.57 140.64 506.71 140.78 508.84 138.65 493.5 123.31 504.43 123.31"/><polygon class="cls-3" points="522.3 120.31 522.3 123.31 533.22 123.31 517.89 138.65 520.02 140.78 535.35 125.44 535.35 136.37 538.36 136.37 538.36 120.31 522.3 120.31"/><polygon class="cls-3" points="506.71 149.83 491.38 165.16 491.38 154.24 488.36 154.24 488.36 170.3 504.43 170.3 504.43 167.29 493.5 167.29 508.84 151.96 506.71 149.83"/><polygon class="cls-3" points="535.35 165.16 520.16 149.97 520.02 149.83 517.89 151.96 533.22 167.29 522.3 167.29 522.3 170.3 538.36 170.3 538.36 154.24 535.35 154.24 535.35 165.16"/><polygon class="cls-4" points="506.07 229.39 506.07 217.53 492.77 217.54 492.78 229.39 506.07 229.39"/><path class="cls-4" d="M513.47,241.14a9.64,9.64,0,1,0,9.64,9.63A9.64,9.64,0,0,0,513.47,241.14Z"/><path class="cls-4" d="M508.64,229.39H533.9v-11.9l-25.26,0ZM528,221.1a2.22,2.22,0,1,1-2.21,2.21A2.21,2.21,0,0,1,528,221.1Zm-6.2,0a2.22,2.22,0,1,1-2.22,2.21A2.21,2.21,0,0,1,521.81,221.1Zm-6.2,0a2.22,2.22,0,1,1-2.22,2.21A2.21,2.21,0,0,1,515.61,221.1Z"/><path class="cls-4" d="M492.79,232l0,35.84,41.08-.06V232Zm20.68,31a12.21,12.21,0,1,1,12.21-12.21A12.23,12.23,0,0,1,513.47,263Z"/><path class="cls-3" d="M534,215H492.77a2.52,2.52,0,0,0-2.52,2.52V267.8a2.52,2.52,0,0,0,2.52,2.51H534a2.52,2.52,0,0,0,2.52-2.51V217.49A2.52,2.52,0,0,0,534,215Zm-.05,14.42H508.64V217.52l25.26,0Zm-27.83-11.86v11.86H492.78V217.54ZM492.82,267.8l0-35.84H533.9v35.78Z"/><path class="cls-3" d="M528,225.53a2.22,2.22,0,1,0-2.21-2.22A2.21,2.21,0,0,0,528,225.53Z"/><path class="cls-3" d="M521.81,225.53a2.22,2.22,0,1,0-2.22-2.22A2.21,2.21,0,0,0,521.81,225.53Z"/><path class="cls-3" d="M515.61,225.53a2.22,2.22,0,1,0-2.22-2.22A2.21,2.21,0,0,0,515.61,225.53Z"/><path class="cls-3" d="M513.47,238.57a12.21,12.21,0,1,0,12.21,12.2A12.22,12.22,0,0,0,513.47,238.57Zm0,21.84a9.64,9.64,0,1,1,9.64-9.64A9.65,9.65,0,0,1,513.47,260.41Z"/><path class="cls-2" d="M589.08,56.72h5.11V57.8h-6.58v-1l5-8h-4.89V47.65h6.36v1Z"/><path class="cls-2" d="M604.48,54.13h-6.32a2.8,2.8,0,0,0,.77,2,2.53,2.53,0,0,0,1.78.67,2.59,2.59,0,0,0,1.59-.48,2,2,0,0,0,.79-1.29h1.39a3.25,3.25,0,0,1-.64,1.47,3.33,3.33,0,0,1-1.29,1,4.22,4.22,0,0,1-1.78.36,4.06,4.06,0,0,1-2-.49,3.48,3.48,0,0,1-1.37-1.4,4.48,4.48,0,0,1-.5-2.16,4.53,4.53,0,0,1,.5-2.16,3.51,3.51,0,0,1,1.37-1.41,4.16,4.16,0,0,1,2-.49,4,4,0,0,1,2,.49,3.37,3.37,0,0,1,1.31,1.31,3.72,3.72,0,0,1,.45,1.82A3.88,3.88,0,0,1,604.48,54.13ZM602.93,52a2.07,2.07,0,0,0-.91-.87,2.64,2.64,0,0,0-1.25-.29,2.59,2.59,0,0,0-1.82.67,2.68,2.68,0,0,0-.79,2h5.06A2.71,2.71,0,0,0,602.93,52Z"/><path class="cls-2" d="M610.14,50.22a3.34,3.34,0,0,1,1.79-.46v1.43h-.4a2.81,2.81,0,0,0-1.82.57,2.27,2.27,0,0,0-.7,1.88V57.8H607.7V49.89H609v1.6A2.8,2.8,0,0,1,610.14,50.22Z"/><path class="cls-2" d="M620.29,50.28a3.54,3.54,0,0,1,1.41,1.41,4.42,4.42,0,0,1,.51,2.16A4.37,4.37,0,0,1,621.7,56a3.52,3.52,0,0,1-1.41,1.4,4.49,4.49,0,0,1-4.08,0,3.61,3.61,0,0,1-1.42-1.4,4.37,4.37,0,0,1-.51-2.16,4.42,4.42,0,0,1,.51-2.16,3.63,3.63,0,0,1,1.42-1.41,4.49,4.49,0,0,1,4.08,0Zm-3.34,1a2.44,2.44,0,0,0-1,1,3.34,3.34,0,0,0-.37,1.62,3.3,3.3,0,0,0,.37,1.61,2.44,2.44,0,0,0,1,1,2.8,2.8,0,0,0,2.6,0,2.44,2.44,0,0,0,1-1,3.3,3.3,0,0,0,.37-1.61,3.34,3.34,0,0,0-.37-1.62,2.44,2.44,0,0,0-1-1,2.8,2.8,0,0,0-2.6,0Z"/><path class="cls-2" d="M637.58,54.13h-6.33a2.8,2.8,0,0,0,.77,2,2.78,2.78,0,0,0,3.37.19,2,2,0,0,0,.79-1.29h1.4a3.36,3.36,0,0,1-1.93,2.48,4.3,4.3,0,0,1-1.79.36,4.06,4.06,0,0,1-2-.49,3.48,3.48,0,0,1-1.37-1.4,4.48,4.48,0,0,1-.5-2.16,4.53,4.53,0,0,1,.5-2.16,3.51,3.51,0,0,1,1.37-1.41,4.16,4.16,0,0,1,2-.49,4,4,0,0,1,2,.49,3.37,3.37,0,0,1,1.31,1.31,3.72,3.72,0,0,1,.45,1.82A5.08,5.08,0,0,1,637.58,54.13ZM636,52a2.07,2.07,0,0,0-.91-.87,2.64,2.64,0,0,0-1.25-.29,2.59,2.59,0,0,0-1.82.67,2.72,2.72,0,0,0-.79,2h5.06A2.71,2.71,0,0,0,636,52Z"/><path class="cls-2" d="M642.1,47.14V57.8h-1.31V47.14Z"/><path class="cls-2" d="M650.83,50.37A3.07,3.07,0,0,1,652,51.91v-2h1.31V57.8H652v-2a3,3,0,0,1-1.12,1.54,3.2,3.2,0,0,1-2,.58,3.53,3.53,0,0,1-1.87-.49,3.37,3.37,0,0,1-1.29-1.4,4.71,4.71,0,0,1-.47-2.16,4.77,4.77,0,0,1,.47-2.16A3.39,3.39,0,0,1,647,50.28a3.62,3.62,0,0,1,1.87-.49A3.2,3.2,0,0,1,650.83,50.37Zm-3.51,1.36a3.46,3.46,0,0,0,0,4.25,2.54,2.54,0,0,0,1.93.77,2.69,2.69,0,0,0,1.39-.36,2.49,2.49,0,0,0,1-1,3.48,3.48,0,0,0,0-3,2.49,2.49,0,0,0-1-1,2.79,2.79,0,0,0-1.39-.35A2.54,2.54,0,0,0,647.32,51.73Z"/><path class="cls-2" d="M661.41,50.49a2.94,2.94,0,0,1,1,1.88h-1.25a1.79,1.79,0,0,0-.59-1.16,1.9,1.9,0,0,0-1.33-.45,1.61,1.61,0,0,0-1.1.34,1.14,1.14,0,0,0-.4.91.94.94,0,0,0,.27.7,1.7,1.7,0,0,0,.66.4c.27.09.63.19,1.09.3a9.81,9.81,0,0,1,1.42.41,2.17,2.17,0,0,1,.92.67,1.88,1.88,0,0,1,.38,1.23,1.94,1.94,0,0,1-.72,1.57,2.93,2.93,0,0,1-1.94.61,3.75,3.75,0,0,1-2.31-.68,2.73,2.73,0,0,1-1-1.88h1.27a1.65,1.65,0,0,0,.63,1.16,2.23,2.23,0,0,0,1.46.45,1.54,1.54,0,0,0,1.06-.35,1.17,1.17,0,0,0,.38-.9A1,1,0,0,0,661,55a1.82,1.82,0,0,0-.67-.42q-.4-.13-1.11-.3a11.27,11.27,0,0,1-1.41-.4,2.26,2.26,0,0,1-.89-.64,1.84,1.84,0,0,1-.37-1.19,2,2,0,0,1,.74-1.61,3.08,3.08,0,0,1,2-.61A3.16,3.16,0,0,1,661.41,50.49Z"/><path class="cls-2" d="M669.44,56.65V57.8h-1a2.47,2.47,0,0,1-1.8-.58,2.59,2.59,0,0,1-.6-1.93V51h-1.18V49.89h1.18v-2h1.32v2h2V51h-2v4.29a1.54,1.54,0,0,0,.28,1,1.4,1.4,0,0,0,1,.28Z"/><path class="cls-2" d="M672.49,47a.93.93,0,0,1,.65-.22.92.92,0,0,1,.65.22.76.76,0,0,1,.25.58.78.78,0,0,1-.25.59.92.92,0,0,1-.65.22.93.93,0,0,1-.65-.22.78.78,0,0,1-.24-.59A.75.75,0,0,1,672.49,47Zm1.3,2.9V57.8h-1.31V49.89Z"/><path class="cls-2" d="M683.34,50.6a3.42,3.42,0,0,1,1.22,2.16h-1.38a2,2,0,0,0-.79-1.33,2.49,2.49,0,0,0-1.59-.49,2.56,2.56,0,0,0-1.26.32,2.32,2.32,0,0,0-.91,1,3.46,3.46,0,0,0-.35,1.62,3.41,3.41,0,0,0,.35,1.62,2.26,2.26,0,0,0,.91,1,2.46,2.46,0,0,0,1.26.32,2.49,2.49,0,0,0,1.59-.49,2,2,0,0,0,.79-1.34h1.38a3.37,3.37,0,0,1-1.22,2.17,3.91,3.91,0,0,1-2.51.8,4,4,0,0,1-2-.49,3.45,3.45,0,0,1-1.38-1.4,4.48,4.48,0,0,1-.5-2.16,4.53,4.53,0,0,1,.5-2.16,3.47,3.47,0,0,1,1.38-1.41,4.1,4.1,0,0,1,2-.49A3.86,3.86,0,0,1,683.34,50.6Z"/><path class="cls-2" d="M699.62,50.4v1.19h-7.48V50.4Zm0,3.06v1.2h-7.48v-1.2Z"/><path class="cls-2" d="M708.35,56.69h4.23V57.8h-5.67v-1l4-5.75H707V49.89h5.42V51Z"/><path class="cls-2" d="M722.66,54.13h-6.32a2.8,2.8,0,0,0,.77,2,2.53,2.53,0,0,0,1.78.67,2.59,2.59,0,0,0,1.59-.48,2,2,0,0,0,.79-1.29h1.39a3.25,3.25,0,0,1-.64,1.47,3.33,3.33,0,0,1-1.29,1,4.22,4.22,0,0,1-1.78.36,4.06,4.06,0,0,1-2-.49,3.48,3.48,0,0,1-1.37-1.4,4.48,4.48,0,0,1-.5-2.16,4.53,4.53,0,0,1,.5-2.16,3.51,3.51,0,0,1,1.37-1.41,4.16,4.16,0,0,1,2-.49,4,4,0,0,1,2,.49,3.37,3.37,0,0,1,1.31,1.31,3.72,3.72,0,0,1,.45,1.82A3.88,3.88,0,0,1,722.66,54.13ZM721.11,52a2.12,2.12,0,0,0-.91-.87,2.64,2.64,0,0,0-1.25-.29,2.59,2.59,0,0,0-1.82.67,2.68,2.68,0,0,0-.79,2h5.06A2.81,2.81,0,0,0,721.11,52Z"/><path class="cls-2" d="M728.32,50.22a3.34,3.34,0,0,1,1.79-.46v1.43h-.4a2.81,2.81,0,0,0-1.82.57,2.27,2.27,0,0,0-.71,1.88V57.8h-1.31V49.89h1.31v1.6A2.87,2.87,0,0,1,728.32,50.22Z"/><path class="cls-2" d="M738.47,50.28a3.54,3.54,0,0,1,1.41,1.41,4.42,4.42,0,0,1,.51,2.16,4.37,4.37,0,0,1-.51,2.16,3.52,3.52,0,0,1-1.41,1.4,4.49,4.49,0,0,1-4.08,0A3.61,3.61,0,0,1,733,56a4.37,4.37,0,0,1-.51-2.16,4.42,4.42,0,0,1,.51-2.16,3.63,3.63,0,0,1,1.42-1.41,4.49,4.49,0,0,1,4.08,0Zm-3.34,1a2.44,2.44,0,0,0-1,1,3.34,3.34,0,0,0-.37,1.62,3.3,3.3,0,0,0,.37,1.61,2.44,2.44,0,0,0,1,1,2.72,2.72,0,0,0,1.3.32,2.75,2.75,0,0,0,1.3-.32,2.44,2.44,0,0,0,1-1,3.3,3.3,0,0,0,.36-1.61,3.34,3.34,0,0,0-.36-1.62,2.44,2.44,0,0,0-1-1,2.75,2.75,0,0,0-1.3-.32A2.72,2.72,0,0,0,735.13,51.26Z"/><path class="cls-2" d="M753.73,50.37a3,3,0,0,1,1.12,1.54V47.14h1.31V57.8h-1.31v-2a3,3,0,0,1-1.12,1.54,3.2,3.2,0,0,1-2,.58,3.53,3.53,0,0,1-1.87-.49,3.37,3.37,0,0,1-1.29-1.4,4.71,4.71,0,0,1-.47-2.16,4.77,4.77,0,0,1,.47-2.16,3.39,3.39,0,0,1,1.29-1.41,3.62,3.62,0,0,1,1.87-.49A3.2,3.2,0,0,1,753.73,50.37Zm-3.51,1.36a3.46,3.46,0,0,0,0,4.25,2.54,2.54,0,0,0,1.93.77,2.67,2.67,0,0,0,1.39-.36,2.49,2.49,0,0,0,1-1,3.48,3.48,0,0,0,0-3,2.49,2.49,0,0,0-1-1,2.76,2.76,0,0,0-1.39-.35A2.54,2.54,0,0,0,750.22,51.73Z"/><path class="cls-2" d="M759.7,47a.92.92,0,0,1,.65-.22A.93.93,0,0,1,761,47a.75.75,0,0,1,.24.58.78.78,0,0,1-.24.59.93.93,0,0,1-.65.22.92.92,0,0,1-.65-.22.78.78,0,0,1-.25-.59A.76.76,0,0,1,759.7,47Zm1.3,2.9V57.8h-1.32V49.89Z"/><path class="cls-2" d="M769.73,50.37a3,3,0,0,1,1.11,1.54v-2h1.32v8a4,4,0,0,1-.47,1.94,3.24,3.24,0,0,1-1.29,1.33,4,4,0,0,1-1.95.47,4.18,4.18,0,0,1-2.6-.77,3.39,3.39,0,0,1-1.28-2.08h1.29a2.34,2.34,0,0,0,.87,1.25,2.82,2.82,0,0,0,1.65.45,2.46,2.46,0,0,0,1.77-.68,2.59,2.59,0,0,0,.69-1.91V55.78a3,3,0,0,1-1.11,1.54,3.2,3.2,0,0,1-2,.58,3.53,3.53,0,0,1-1.87-.49,3.37,3.37,0,0,1-1.29-1.4,4.71,4.71,0,0,1-.47-2.16,4.77,4.77,0,0,1,.47-2.16,3.39,3.39,0,0,1,1.29-1.41,3.62,3.62,0,0,1,1.87-.49A3.2,3.2,0,0,1,769.73,50.37Zm-3.51,1.36a3.46,3.46,0,0,0,0,4.25,2.54,2.54,0,0,0,1.93.77,2.69,2.69,0,0,0,1.39-.36,2.49,2.49,0,0,0,1-1,3.57,3.57,0,0,0,0-3,2.49,2.49,0,0,0-1-1,2.79,2.79,0,0,0-1.39-.35A2.54,2.54,0,0,0,766.22,51.73Z"/><path class="cls-2" d="M780.87,50.37A3,3,0,0,1,782,51.91v-2h1.31v8a4,4,0,0,1-.46,1.94,3.33,3.33,0,0,1-1.3,1.33,3.9,3.9,0,0,1-1.94.47A4.21,4.21,0,0,1,777,60.9a3.39,3.39,0,0,1-1.28-2.08H777a2.24,2.24,0,0,0,.87,1.25,2.82,2.82,0,0,0,1.65.45,2.42,2.42,0,0,0,1.76-.68,2.55,2.55,0,0,0,.7-1.91V55.78a2.92,2.92,0,0,1-1.12,1.54,3.2,3.2,0,0,1-2,.58,3.55,3.55,0,0,1-1.87-.49,3.43,3.43,0,0,1-1.29-1.4,4.71,4.71,0,0,1-.47-2.16,4.77,4.77,0,0,1,.47-2.16,3.46,3.46,0,0,1,1.29-1.41,3.65,3.65,0,0,1,1.87-.49A3.2,3.2,0,0,1,780.87,50.37Zm-3.51,1.36a3.46,3.46,0,0,0,0,4.25,2.56,2.56,0,0,0,1.94.77,2.69,2.69,0,0,0,1.39-.36,2.56,2.56,0,0,0,1-1,3.57,3.57,0,0,0,0-3,2.56,2.56,0,0,0-1-1A2.79,2.79,0,0,0,779.3,51,2.56,2.56,0,0,0,777.36,51.73Z"/><path class="cls-2" d="M786.84,47a.93.93,0,0,1,.65-.22.92.92,0,0,1,.65.22.75.75,0,0,1,.24.58.78.78,0,0,1-.24.59.92.92,0,0,1-.65.22.93.93,0,0,1-.65-.22.78.78,0,0,1-.24-.59A.75.75,0,0,1,786.84,47Zm1.3,2.9V57.8h-1.31V49.89Z"/><path class="cls-2" d="M798.08,50.65a3.56,3.56,0,0,1,.84,2.55v4.6h-1.31V53.32a2.52,2.52,0,0,0-.6-1.81,2.13,2.13,0,0,0-1.64-.64,2.23,2.23,0,0,0-1.73.7,2.92,2.92,0,0,0-.65,2V57.8h-1.31V49.89H793v1.88a2.67,2.67,0,0,1,1.08-1.49,3.12,3.12,0,0,1,1.77-.52A3,3,0,0,1,798.08,50.65Z"/><path class="cls-2" d="M807.57,50.37a3,3,0,0,1,1.12,1.54v-2H810v8a4.06,4.06,0,0,1-.46,1.94,3.33,3.33,0,0,1-1.3,1.33,3.92,3.92,0,0,1-1.94.47,4.19,4.19,0,0,1-2.61-.77,3.39,3.39,0,0,1-1.28-2.08h1.3a2.24,2.24,0,0,0,.87,1.25,2.78,2.78,0,0,0,1.65.45,2.44,2.44,0,0,0,1.76-.68,2.55,2.55,0,0,0,.7-1.91V55.78a3,3,0,0,1-1.12,1.54,3.2,3.2,0,0,1-2,.58,3.55,3.55,0,0,1-1.87-.49,3.37,3.37,0,0,1-1.29-1.4,4.71,4.71,0,0,1-.47-2.16,4.77,4.77,0,0,1,.47-2.16,3.39,3.39,0,0,1,1.29-1.41,3.65,3.65,0,0,1,1.87-.49A3.2,3.2,0,0,1,807.57,50.37Zm-3.51,1.36a3.46,3.46,0,0,0,0,4.25,2.55,2.55,0,0,0,1.94.77,2.66,2.66,0,0,0,1.38-.36,2.49,2.49,0,0,0,1-1,3.48,3.48,0,0,0,0-3,2.49,2.49,0,0,0-1-1A2.75,2.75,0,0,0,806,51,2.55,2.55,0,0,0,804.06,51.73Z"/><path class="cls-3" d="M542.6,50.93a1.52,1.52,0,0,0-.94-.74,1.5,1.5,0,0,0-1.17.15,56.3,56.3,0,0,1-27.66,7,56.74,56.74,0,0,1-26.62-6.41,1.55,1.55,0,0,0-2.11.64,1.56,1.56,0,0,0,.64,2.1,59.91,59.91,0,0,0,28.09,6.78A59.41,59.41,0,0,0,542,53.05a1.58,1.58,0,0,0,.74-.94A1.52,1.52,0,0,0,542.6,50.93Z"/><path class="cls-3" d="M513.49,52.38c12.57,0,23.9-5.2,28.86-13.26a1.55,1.55,0,0,0-.51-2.14,1.56,1.56,0,0,0-2.14.51c-4.41,7.16-14.7,11.79-26.21,11.79S491.24,44.38,487,37.09a1.55,1.55,0,1,0-2.69,1.55C489.16,47,500.6,52.38,513.49,52.38Z"/><path class="cls-3" d="M540.68,63.46H486a1.56,1.56,0,0,0,0,3.11h54.64a1.56,1.56,0,0,0,0-3.11Z"/><path class="cls-2" d="M95.13,135.3h3.6v1H93.82V126.17h1.31Z"/><path class="cls-2" d="M108.53,128.42v7.9h-1.31v-1.85a2.66,2.66,0,0,1-1.07,1.47,3.16,3.16,0,0,1-1.79.51,3,3,0,0,1-2.22-.88,3.51,3.51,0,0,1-.85-2.54v-4.61h1.31v4.48a2.54,2.54,0,0,0,.61,1.82,2.17,2.17,0,0,0,1.64.64,2.25,2.25,0,0,0,1.73-.7,2.9,2.9,0,0,0,.64-2v-4.2Z"/><path class="cls-2" d="M116.63,136.32l-2.06-3-1.86,3h-1.46l2.6-4.07-2.61-3.83h1.5l2,2.94,1.83-2.94H118l-2.57,4,2.67,3.93Z"/><path class="cls-2" d="M127.82,128.42v7.9H126.5v-1.85a2.66,2.66,0,0,1-1.07,1.47,3.16,3.16,0,0,1-1.79.51,3,3,0,0,1-2.22-.88,3.51,3.51,0,0,1-.85-2.54v-4.61h1.31v4.48a2.54,2.54,0,0,0,.61,1.82,2.17,2.17,0,0,0,1.64.64,2.25,2.25,0,0,0,1.73-.7,2.9,2.9,0,0,0,.64-2v-4.2Z"/><path class="cls-2" d="M133.8,128.74a3.42,3.42,0,0,1,1.79-.45v1.42h-.4a2.81,2.81,0,0,0-1.82.57,2.28,2.28,0,0,0-.7,1.88v4.16h-1.31v-7.9h1.31V130A2.94,2.94,0,0,1,133.8,128.74Z"/><path class="cls-2" d="M138.34,125.52a.92.92,0,0,1,.65-.23.94.94,0,0,1,.65.23.82.82,0,0,1,0,1.16.94.94,0,0,1-.65.23.92.92,0,0,1-.65-.23.82.82,0,0,1,0-1.16Zm1.3,2.9v7.9h-1.31v-7.9Z"/><path class="cls-2" d="M148.8,128.81a3.42,3.42,0,0,1,1.41,1.41,4.81,4.81,0,0,1,0,4.31,3.46,3.46,0,0,1-1.41,1.4,4.47,4.47,0,0,1-4.07,0,3.48,3.48,0,0,1-1.42-1.4,4.73,4.73,0,0,1,0-4.31,3.44,3.44,0,0,1,1.42-1.41,4.47,4.47,0,0,1,4.07,0Zm-3.34,1a2.3,2.3,0,0,0-1,1,3.69,3.69,0,0,0,0,3.22,2.39,2.39,0,0,0,1,1,2.9,2.9,0,0,0,2.61,0,2.39,2.39,0,0,0,1-1,3.69,3.69,0,0,0,0-3.22,2.3,2.3,0,0,0-1-1,2.82,2.82,0,0,0-2.61,0Z"/><path class="cls-2" d="M160.91,128.42v7.9h-1.32v-1.85a2.61,2.61,0,0,1-1.07,1.47,3.16,3.16,0,0,1-1.79.51,3,3,0,0,1-2.22-.88,3.56,3.56,0,0,1-.85-2.54v-4.61H155v4.48a2.54,2.54,0,0,0,.61,1.82,2.17,2.17,0,0,0,1.64.64,2.25,2.25,0,0,0,1.73-.7,2.9,2.9,0,0,0,.64-2v-4.2Z"/><path class="cls-2" d="M169.08,129a2.9,2.9,0,0,1,1,1.87h-1.25a1.8,1.8,0,0,0-.58-1.15,1.87,1.87,0,0,0-1.33-.46,1.64,1.64,0,0,0-1.11.34,1.15,1.15,0,0,0-.39.91.93.93,0,0,0,.27.7,1.58,1.58,0,0,0,.66.41,9.71,9.71,0,0,0,1.08.29,11.28,11.28,0,0,1,1.42.41,2.17,2.17,0,0,1,.92.67,1.86,1.86,0,0,1,.39,1.24,2,2,0,0,1-.73,1.57,3,3,0,0,1-1.94.6,3.69,3.69,0,0,1-2.3-.67,2.66,2.66,0,0,1-1-1.89h1.26A1.67,1.67,0,0,0,166,135a2.25,2.25,0,0,0,1.46.44,1.52,1.52,0,0,0,1.06-.34,1.18,1.18,0,0,0,.38-.91,1,1,0,0,0-.27-.73,1.74,1.74,0,0,0-.68-.42,8.32,8.32,0,0,0-1.11-.3,10.84,10.84,0,0,1-1.4-.41,2,2,0,0,1-.89-.64,1.77,1.77,0,0,1-.37-1.19,2,2,0,0,1,.73-1.6,3,3,0,0,1,2-.61A3.19,3.19,0,0,1,169.08,129Z"/><path class="cls-2" d="M174.64,125.67v10.65h-1.31V125.67Z"/><path class="cls-2" d="M178.73,128.42l2.57,6.22,2.37-6.22h1.46l-4.7,11.65H179l1.64-3.88-3.33-7.77Z"/><path class="cls-2" d="M197.39,129a2.9,2.9,0,0,1,1,1.87h-1.25a1.8,1.8,0,0,0-.58-1.15,1.87,1.87,0,0,0-1.33-.46,1.66,1.66,0,0,0-1.11.34,1.15,1.15,0,0,0-.39.91,1,1,0,0,0,.26.7,1.68,1.68,0,0,0,.67.41,9.71,9.71,0,0,0,1.08.29,11.28,11.28,0,0,1,1.42.41,2.17,2.17,0,0,1,.92.67,1.86,1.86,0,0,1,.39,1.24,2,2,0,0,1-.73,1.57,3,3,0,0,1-1.94.6,3.69,3.69,0,0,1-2.3-.67,2.66,2.66,0,0,1-1-1.89h1.26a1.67,1.67,0,0,0,.63,1.17,2.25,2.25,0,0,0,1.46.44,1.54,1.54,0,0,0,1.06-.34,1.18,1.18,0,0,0,.38-.91,1,1,0,0,0-.27-.73,1.74,1.74,0,0,0-.68-.42,8.32,8.32,0,0,0-1.11-.3,10.84,10.84,0,0,1-1.4-.41,2,2,0,0,1-.89-.64,1.77,1.77,0,0,1-.37-1.19,2,2,0,0,1,.73-1.6,3,3,0,0,1,2-.61A3.19,3.19,0,0,1,197.39,129Z"/><path class="cls-2" d="M207.27,128.81a3.42,3.42,0,0,1,1.41,1.41,4.81,4.81,0,0,1,0,4.31,3.46,3.46,0,0,1-1.41,1.4,4.49,4.49,0,0,1-4.08,0,3.54,3.54,0,0,1-1.42-1.4,4.73,4.73,0,0,1,0-4.31,3.5,3.5,0,0,1,1.42-1.41,4.49,4.49,0,0,1,4.08,0Zm-3.35,1a2.42,2.42,0,0,0-1,1,3.69,3.69,0,0,0,0,3.22,2.52,2.52,0,0,0,1,1,2.78,2.78,0,0,0,1.31.31,2.74,2.74,0,0,0,1.3-.31,2.47,2.47,0,0,0,1-1,3.78,3.78,0,0,0,0-3.22,2.38,2.38,0,0,0-1-1,2.64,2.64,0,0,0-1.3-.32A2.67,2.67,0,0,0,203.92,129.79Z"/><path class="cls-2" d="M214.38,126.91a1.7,1.7,0,0,0-.41,1.29v.22h1.87v1.15H214v6.75h-1.31v-6.75h-1.14v-1.15h1.14v-.32q0-2.84,3.18-2.71v1.16A2.13,2.13,0,0,0,214.38,126.91Z"/><path class="cls-2" d="M222.48,135.17v1.15h-1a2.54,2.54,0,0,1-1.81-.57,2.61,2.61,0,0,1-.6-1.93v-4.26h-1.18v-1.14h1.18v-2h1.33v2h2v1.14h-2v4.29a1.46,1.46,0,0,0,.28,1,1.34,1.34,0,0,0,1,.28Z"/><path class="cls-2" d="M242.46,129.17a3.59,3.59,0,0,1,.84,2.56v4.59H242v-4.47a2.55,2.55,0,0,0-.57-1.79,2,2,0,0,0-1.56-.62,2.15,2.15,0,0,0-1.66.68,2.88,2.88,0,0,0-.63,2v4.19h-1.31v-4.47a2.5,2.5,0,0,0-.58-1.79,2,2,0,0,0-1.55-.62,2.19,2.19,0,0,0-1.68.68,2.88,2.88,0,0,0-.62,2v4.19h-1.32v-7.9h1.32v1.8a2.53,2.53,0,0,1,1-1.43,3,3,0,0,1,1.71-.5,3,3,0,0,1,1.75.51,2.79,2.79,0,0,1,1.06,1.5,2.86,2.86,0,0,1,1.11-1.49,3.05,3.05,0,0,1,1.75-.52A2.92,2.92,0,0,1,242.46,129.17Z"/><path class="cls-2" d="M246.79,125.52a1,1,0,0,1,1.29,0,.8.8,0,0,1,0,1.16,1,1,0,0,1-1.29,0,.8.8,0,0,1,0-1.16Zm1.29,2.9v7.9h-1.31v-7.9Z"/><path class="cls-2" d="M257.63,129.12a3.42,3.42,0,0,1,1.22,2.16h-1.38a2.07,2.07,0,0,0-.78-1.33,2.6,2.6,0,0,0-1.6-.48,2.46,2.46,0,0,0-1.26.32,2.32,2.32,0,0,0-.91,1,3.41,3.41,0,0,0-.35,1.62,3.46,3.46,0,0,0,.35,1.62,2.38,2.38,0,0,0,.91,1,2.56,2.56,0,0,0,1.26.32,2.6,2.6,0,0,0,1.6-.49,2.12,2.12,0,0,0,.78-1.34h1.38a3.42,3.42,0,0,1-1.22,2.17,3.89,3.89,0,0,1-2.51.79,4,4,0,0,1-2-.49,3.39,3.39,0,0,1-1.38-1.4,5,5,0,0,1,0-4.31,3.35,3.35,0,0,1,1.38-1.41,4,4,0,0,1,2-.49A3.89,3.89,0,0,1,257.63,129.12Z"/><path class="cls-2" d="M264.45,128.74a3.42,3.42,0,0,1,1.79-.45v1.42h-.4a2.81,2.81,0,0,0-1.82.57,2.28,2.28,0,0,0-.7,1.88v4.16H262v-7.9h1.31V130A2.94,2.94,0,0,1,264.45,128.74Z"/><path class="cls-2" d="M274.6,128.81a3.42,3.42,0,0,1,1.41,1.41,4.81,4.81,0,0,1,0,4.31,3.46,3.46,0,0,1-1.41,1.4,4.49,4.49,0,0,1-4.08,0,3.54,3.54,0,0,1-1.42-1.4,4.81,4.81,0,0,1,0-4.31,3.5,3.5,0,0,1,1.42-1.41,4.49,4.49,0,0,1,4.08,0Zm-3.34,1a2.38,2.38,0,0,0-1,1,3.78,3.78,0,0,0,0,3.22,2.47,2.47,0,0,0,1,1,2.74,2.74,0,0,0,1.3.31,2.71,2.71,0,0,0,1.3-.31,2.47,2.47,0,0,0,1-1,3.69,3.69,0,0,0,0-3.22,2.38,2.38,0,0,0-1-1,2.61,2.61,0,0,0-1.3-.32A2.64,2.64,0,0,0,271.26,129.79Z"/><path class="cls-2" d="M284.17,130.49v1.11h-5.76v-1.11Z"/><path class="cls-2" d="M300.13,129.17a3.59,3.59,0,0,1,.84,2.56v4.59h-1.31v-4.47a2.55,2.55,0,0,0-.57-1.79,2,2,0,0,0-1.56-.62,2.16,2.16,0,0,0-1.66.68,2.88,2.88,0,0,0-.63,2v4.19h-1.31v-4.47a2.5,2.5,0,0,0-.58-1.79,2,2,0,0,0-1.55-.62,2.19,2.19,0,0,0-1.68.68,2.88,2.88,0,0,0-.62,2v4.19h-1.32v-7.9h1.32v1.8a2.53,2.53,0,0,1,1-1.43,3,3,0,0,1,1.71-.5,3,3,0,0,1,1.75.51,2.74,2.74,0,0,1,1.06,1.5,2.86,2.86,0,0,1,1.11-1.49,3.06,3.06,0,0,1,1.76-.52A2.92,2.92,0,0,1,300.13,129.17Z"/><path class="cls-2" d="M310.07,128.81a3.42,3.42,0,0,1,1.41,1.41,4.81,4.81,0,0,1,0,4.31,3.46,3.46,0,0,1-1.41,1.4,4.49,4.49,0,0,1-4.08,0,3.54,3.54,0,0,1-1.42-1.4,4.73,4.73,0,0,1,0-4.31,3.5,3.5,0,0,1,1.42-1.41,4.49,4.49,0,0,1,4.08,0Zm-3.34,1a2.32,2.32,0,0,0-1,1,3.69,3.69,0,0,0,0,3.22,2.41,2.41,0,0,0,1,1,2.71,2.71,0,0,0,1.3.31,2.74,2.74,0,0,0,1.3-.31,2.47,2.47,0,0,0,1-1,3.78,3.78,0,0,0,0-3.22,2.38,2.38,0,0,0-1-1,2.64,2.64,0,0,0-1.3-.32A2.61,2.61,0,0,0,306.73,129.79Z"/><path class="cls-2" d="M320.33,128.89a3,3,0,0,1,1.12,1.54v-4.76h1.31v10.65h-1.31v-2a3,3,0,0,1-1.12,1.54,3.26,3.26,0,0,1-1.95.57,3.55,3.55,0,0,1-1.87-.49,3.31,3.31,0,0,1-1.29-1.4,5.18,5.18,0,0,1,0-4.31,3.28,3.28,0,0,1,1.29-1.41,3.55,3.55,0,0,1,1.87-.49A3.26,3.26,0,0,1,320.33,128.89Zm-3.51,1.36a3,3,0,0,0-.73,2.13,2.94,2.94,0,0,0,.73,2.12,2.51,2.51,0,0,0,1.94.77,2.72,2.72,0,0,0,1.39-.36,2.57,2.57,0,0,0,1-1,3.5,3.5,0,0,0,0-3.05,2.44,2.44,0,0,0-1-1,2.72,2.72,0,0,0-1.39-.36A2.55,2.55,0,0,0,316.82,130.25Z"/><path class="cls-2" d="M331.48,128.89a3,3,0,0,1,1.11,1.54v-2h1.32v7.9h-1.32v-2a3,3,0,0,1-1.11,1.54,3.28,3.28,0,0,1-2,.57,3.53,3.53,0,0,1-1.87-.49,3.31,3.31,0,0,1-1.29-1.4,5.18,5.18,0,0,1,0-4.31,3.28,3.28,0,0,1,1.29-1.41,3.53,3.53,0,0,1,1.87-.49A3.28,3.28,0,0,1,331.48,128.89ZM328,130.25a3,3,0,0,0-.72,2.13,3,3,0,0,0,.72,2.12,2.52,2.52,0,0,0,1.94.77,2.69,2.69,0,0,0,1.39-.36,2.53,2.53,0,0,0,1-1,3.59,3.59,0,0,0,0-3.05,2.4,2.4,0,0,0-1-1,2.69,2.69,0,0,0-1.39-.36A2.56,2.56,0,0,0,328,130.25Z"/><path class="cls-2" d="M338.74,125.67v10.65h-1.31V125.67Z"/><path class="cls-2" d="M98.45,151.42a2.9,2.9,0,0,1,1,1.88H98.18a1.8,1.8,0,0,0-.58-1.16,1.88,1.88,0,0,0-1.34-.46,1.68,1.68,0,0,0-1.1.34,1.15,1.15,0,0,0-.39.91,1,1,0,0,0,.26.7,1.68,1.68,0,0,0,.67.41,9.71,9.71,0,0,0,1.08.29,11.28,11.28,0,0,1,1.42.41,2.17,2.17,0,0,1,.92.67,1.86,1.86,0,0,1,.38,1.24,2,2,0,0,1-.72,1.57,3,3,0,0,1-1.94.6,3.69,3.69,0,0,1-2.3-.67,2.66,2.66,0,0,1-1.05-1.89h1.26a1.67,1.67,0,0,0,.63,1.17,2.25,2.25,0,0,0,1.46.44,1.54,1.54,0,0,0,1.06-.34,1.18,1.18,0,0,0,.38-.91,1,1,0,0,0-.27-.73,1.74,1.74,0,0,0-.68-.42,8.32,8.32,0,0,0-1.11-.3,10.84,10.84,0,0,1-1.4-.41,2.11,2.11,0,0,1-.9-.64,1.82,1.82,0,0,1-.36-1.19,2,2,0,0,1,.73-1.6,3,3,0,0,1,2-.61A3.19,3.19,0,0,1,98.45,151.42Z"/><path class="cls-2" d="M106.47,157.57v1.15h-1a2.54,2.54,0,0,1-1.81-.57,2.61,2.61,0,0,1-.6-1.93V152h-1.18v-1.14h1.18v-2h1.33v2h2V152h-2v4.29a1.46,1.46,0,0,0,.28,1,1.32,1.32,0,0,0,1,.28Z"/><path class="cls-2" d="M112,151.14a3.42,3.42,0,0,1,1.79-.45v1.42h-.41a2.78,2.78,0,0,0-1.81.57,2.29,2.29,0,0,0-.71,1.88v4.16h-1.31v-7.9h1.31v1.6A2.9,2.9,0,0,1,112,151.14Z"/><path class="cls-2" d="M123.7,155.05h-6.33a2.76,2.76,0,0,0,.78,2,2.49,2.49,0,0,0,1.77.68,2.55,2.55,0,0,0,1.59-.48,2,2,0,0,0,.79-1.29h1.4a3.41,3.41,0,0,1-.64,1.47,3.59,3.59,0,0,1-1.29,1,4.47,4.47,0,0,1-1.79.35,4.16,4.16,0,0,1-2-.48,3.51,3.51,0,0,1-1.37-1.41,4.89,4.89,0,0,1,0-4.31,3.39,3.39,0,0,1,1.37-1.41,4.06,4.06,0,0,1,2-.49,3.94,3.94,0,0,1,2,.49,3.3,3.3,0,0,1,1.31,1.31,3.68,3.68,0,0,1,.45,1.81A4.87,4.87,0,0,1,123.7,155.05Zm-1.56-2.1a2.09,2.09,0,0,0-.91-.88,2.77,2.77,0,0,0-1.25-.29,2.61,2.61,0,0,0-1.81.67,2.71,2.71,0,0,0-.8,2h5.06A2.67,2.67,0,0,0,122.14,153Z"/><path class="cls-2" d="M130.68,157.57v1.15h-1a2.55,2.55,0,0,1-1.81-.57,2.65,2.65,0,0,1-.59-1.93V152h-1.18v-1.14h1.18v-2h1.32v2h2V152h-2v4.29a1.46,1.46,0,0,0,.28,1,1.34,1.34,0,0,0,1,.28Z"/><path class="cls-2" d="M139.72,151.52a3.43,3.43,0,0,1,1.23,2.16h-1.38a2,2,0,0,0-.79-1.33,2.59,2.59,0,0,0-1.59-.48,2.46,2.46,0,0,0-1.26.32,2.34,2.34,0,0,0-.92,1,4,4,0,0,0,0,3.24,2.34,2.34,0,0,0,.92,1,2.56,2.56,0,0,0,1.26.32,2.59,2.59,0,0,0,1.59-.49,2.06,2.06,0,0,0,.79-1.34H141a3.43,3.43,0,0,1-1.23,2.17,3.86,3.86,0,0,1-2.5.79,4.16,4.16,0,0,1-2-.48,3.51,3.51,0,0,1-1.37-1.41,4.89,4.89,0,0,1,0-4.31,3.39,3.39,0,0,1,1.37-1.41,4.06,4.06,0,0,1,2-.49A3.86,3.86,0,0,1,139.72,151.52Z"/><path class="cls-2" d="M150.49,151.57a3.55,3.55,0,0,1,.85,2.56v4.59H150v-4.47a2.54,2.54,0,0,0-.6-1.82,2.16,2.16,0,0,0-1.64-.63,2.23,2.23,0,0,0-1.73.7,2.88,2.88,0,0,0-.65,2v4.19H144.1V148.07h1.31v4.62a2.68,2.68,0,0,1,1.07-1.48,3.1,3.1,0,0,1,1.78-.52A2.94,2.94,0,0,1,150.49,151.57Z"/><path class="cls-2" d="M161.83,149.31a1.7,1.7,0,0,0-.41,1.29v.22h1.88V152h-1.88v6.75h-1.31V152H159v-1.15h1.13v-.32q0-2.83,3.19-2.71V149A2.16,2.16,0,0,0,161.83,149.31Z"/><path class="cls-2" d="M171.35,151.29a3,3,0,0,1,1.12,1.54v-2h1.31v7.9h-1.31v-2a3,3,0,0,1-1.12,1.54,3.26,3.26,0,0,1-1.95.57,3.64,3.64,0,0,1-1.87-.48,3.39,3.39,0,0,1-1.29-1.41,5.18,5.18,0,0,1,0-4.31,3.28,3.28,0,0,1,1.29-1.41,3.55,3.55,0,0,1,1.87-.49A3.26,3.26,0,0,1,171.35,151.29Zm-3.51,1.36a3,3,0,0,0-.73,2.13,2.94,2.94,0,0,0,.73,2.12,2.51,2.51,0,0,0,1.94.77,2.72,2.72,0,0,0,1.39-.36,2.57,2.57,0,0,0,1-1,3.5,3.5,0,0,0,0-3.05,2.44,2.44,0,0,0-1-1,2.72,2.72,0,0,0-1.39-.36A2.55,2.55,0,0,0,167.84,152.65Z"/><path class="cls-2" d="M183.54,151.21a3.28,3.28,0,0,1,1.29,1.41,5.18,5.18,0,0,1,0,4.31,3.39,3.39,0,0,1-1.29,1.41,3.62,3.62,0,0,1-1.87.48,3.2,3.2,0,0,1-1.95-.58,3,3,0,0,1-1.1-1.53v2h-1.31V148.07h1.31v4.76a3,3,0,0,1,1.1-1.53,3.2,3.2,0,0,1,1.95-.58A3.53,3.53,0,0,1,183.54,151.21Zm-3.63,1a2.4,2.4,0,0,0-1,1,3.5,3.5,0,0,0,0,3.05,2.53,2.53,0,0,0,1,1,2.74,2.74,0,0,0,1.39.36,2.55,2.55,0,0,0,1.95-.77,3,3,0,0,0,.72-2.12,3,3,0,0,0-.72-2.13,2.58,2.58,0,0,0-1.95-.77A2.74,2.74,0,0,0,179.91,152.24Z"/><path class="cls-2" d="M190.9,151.14a3.42,3.42,0,0,1,1.79-.45v1.42h-.41a2.78,2.78,0,0,0-1.81.57,2.29,2.29,0,0,0-.71,1.88v4.16h-1.31v-7.9h1.31v1.6A2.9,2.9,0,0,1,190.9,151.14Z"/><path class="cls-2" d="M195.44,147.92a1,1,0,0,1,1.29,0,.8.8,0,0,1,0,1.16,1,1,0,0,1-1.29,0,.8.8,0,0,1,0-1.16Zm1.29,2.9v7.9h-1.31v-7.9Z"/><path class="cls-2" d="M206.28,151.52a3.42,3.42,0,0,1,1.22,2.16h-1.38a2.07,2.07,0,0,0-.78-1.33,2.59,2.59,0,0,0-1.59-.48,2.41,2.41,0,0,0-1.26.32,2.28,2.28,0,0,0-.92,1,3.92,3.92,0,0,0,0,3.24,2.28,2.28,0,0,0,.92,1,2.51,2.51,0,0,0,1.26.32,2.59,2.59,0,0,0,1.59-.49,2.09,2.09,0,0,0,.78-1.34h1.38a3.42,3.42,0,0,1-1.22,2.17,3.89,3.89,0,0,1-2.51.79,4.09,4.09,0,0,1-2-.48,3.47,3.47,0,0,1-1.38-1.41,5,5,0,0,1,0-4.31,3.35,3.35,0,0,1,1.38-1.41,4,4,0,0,1,2-.49A3.89,3.89,0,0,1,206.28,151.52Z"/><path class="cls-4" d="M38.26,121.37a14.63,14.63,0,0,0-13.1,8.08l-.64,1.27-1.38-.31a12.24,12.24,0,1,0-2.71,24.17H56.11a8.36,8.36,0,1,0,0-16.72,10.11,10.11,0,0,0-1.12.08l-2.06.28V136A14.66,14.66,0,0,0,38.26,121.37Z"/><path class="cls-3" d="M56.48,134.23a18.37,18.37,0,0,0-18.22-16.5,18.08,18.08,0,0,0-15.68,8.88,15.65,15.65,0,0,0-2.15-.15,15.88,15.88,0,0,0,0,31.76H56.11a12,12,0,0,0,.37-24ZM55,137.94a10.11,10.11,0,0,1,1.12-.08,8.36,8.36,0,1,1,0,16.72H20.43a12.24,12.24,0,1,1,2.71-24.17l1.38.31.64-1.27A14.67,14.67,0,0,1,52.93,136v2.23Z"/><rect class="cls-5" x="418.17" width="1.5" height="354.5"/></svg>