<svg id="Layer_1" data-name="Layer 1" xmlns="http://www.w3.org/2000/svg" viewBox="0 0 14 14"><defs><style>.cls-1{fill:#fff;}.cls-2{fill:none;}.cls-3{fill:#adafb2;}</style></defs><title>svgbra</title><rect class="cls-1" width="14" height="14"/><polygon class="cls-2" points="7.92 9.29 7.92 9.29 7.92 9.29 7.92 9.29"/><path class="cls-2" d="M2.71,11.33h8.58a.58.58,0,0,0,.58-.49c.08-.43.14-.9.2-1.34a2.77,2.77,0,0,1-2.07.94A2.72,2.72,0,0,1,7.82,9.36a.29.29,0,0,1-.05-.18A.27.27,0,0,1,7.87,9a.24.24,0,0,1,.18,0,.23.23,0,0,1,.17.1A2.23,2.23,0,0,0,10,9.94,2.26,2.26,0,0,0,12.22,8c0-.17,0-.28,0-.28a1.71,1.71,0,0,0-.62-1.34A5.42,5.42,0,0,1,10.24,2H9.75c-.05,3.5-1.19,4.35-2.1,5-.17.13-.34.26-.48.39a.25.25,0,0,1-.34,0c-.14-.13-.31-.26-.48-.39-.91-.69-2-1.54-2.1-5H3.76A5.42,5.42,0,0,1,2.37,6.42a1.71,1.71,0,0,0-.62,1.34s0,.11,0,.28a2.24,2.24,0,0,0,4,1A.25.25,0,0,1,6.13,9a.27.27,0,0,1,.1.17.29.29,0,0,1-.05.18A2.72,2.72,0,0,1,4,10.44,2.77,2.77,0,0,1,1.93,9.5c.06.44.12.91.2,1.34A.58.58,0,0,0,2.71,11.33Z"/><path class="cls-3" d="M12.75,7.69h0A2.22,2.22,0,0,0,12,6.09c-.63-.73-1.42-1.64-1.26-4.29a.26.26,0,0,0-.07-.19.25.25,0,0,0-.18-.08h-1a.25.25,0,0,0-.25.25C9.25,5.24,8.2,6,7.34,6.68L7,7c-.11-.1-.23-.18-.35-.28C5.8,6,4.75,5.24,4.75,1.78a.25.25,0,0,0-.25-.25h-1a.25.25,0,0,0-.18.08.26.26,0,0,0-.07.19C3.41,4.45,2.62,5.36,2,6.09a2.22,2.22,0,0,0-.74,1.59h0a2.12,2.12,0,0,0,0,.44c.06.65.22,2,.35,2.8a1.08,1.08,0,0,0,1.07.9h8.58a1.08,1.08,0,0,0,1.07-.9c.13-.75.29-2.15.35-2.8A2.12,2.12,0,0,0,12.75,7.69ZM4,10.44A2.72,2.72,0,0,0,6.18,9.36a.29.29,0,0,0,.05-.18A.27.27,0,0,0,6.13,9a.25.25,0,0,0-.35.05,2.24,2.24,0,0,1-4-1c0-.17,0-.28,0-.28a1.71,1.71,0,0,1,.62-1.34A5.42,5.42,0,0,0,3.76,2h.49c0,3.5,1.19,4.35,2.1,5,.17.13.34.26.48.39a.25.25,0,0,0,.34,0c.14-.13.31-.26.48-.39.91-.69,2-1.54,2.1-5h.49a5.42,5.42,0,0,0,1.39,4.39,1.71,1.71,0,0,1,.62,1.34s0,.11,0,.28A2.26,2.26,0,0,1,10,9.94a2.23,2.23,0,0,1-1.78-.88A.23.23,0,0,0,8.05,9a.24.24,0,0,0-.18,0,.27.27,0,0,0-.1.17.29.29,0,0,0,.05.18A2.72,2.72,0,0,0,10,10.44a2.77,2.77,0,0,0,2.07-.94c-.06.44-.12.91-.2,1.34a.58.58,0,0,1-.58.49H2.71a.58.58,0,0,1-.58-.49c-.08-.43-.14-.9-.2-1.34A2.77,2.77,0,0,0,4,10.44ZM7.92,9.29Z"/></svg>
