<?xml version="1.0" encoding="utf-8"?>
<!-- Generator: Adobe Illustrator 24.0.1, SVG Export Plug-In . SVG Version: 6.00 Build 0)  -->
<svg version="1.1" xmlns="http://www.w3.org/2000/svg" xmlns:xlink="http://www.w3.org/1999/xlink" x="0px" y="0px"
	 viewBox="0 0 1154.561 192.593" enable-background="new 0 0 1154.561 192.593" xml:space="preserve">
<g id="Layer_1">
	<g>
		<rect x="0.281" y="4.173" fill="#EEEDEE" width="1153.373" height="188.373"/>
		<rect x="0.907" y="4.173" fill="#D2D2D2" width="1153.373" height="93.119"/>
		<rect x="232.843" y="98.51" fill="#C8D6E0" width="227.034" height="89.681"/>
		<rect x="691.927" y="98.51" fill="#C8D6E0" width="237.29" height="89.681"/>
		<line fill="none" stroke="#FFFFFF" stroke-miterlimit="10" x1="1153.654" y1="97.292" x2="0.281" y2="97.292"/>
		
			<line fill="none" stroke="#FFFFFF" stroke-width="0.7895" stroke-miterlimit="10" x1="0.281" y1="190.549" x2="1153.654" y2="190.549"/>
		<g>
			<g>
				<path fill="#7D7B7B" d="M304.198,156.073l11.126-9.12c4.155-3.439,5.777-5.253,5.777-8.022c0-2.819-1.862-4.346-4.487-4.346
					c-2.58,0-4.346,1.431-6.83,4.487l-5.157-4.155c3.295-4.487,6.495-6.923,12.464-6.923c6.923,0,11.509,4.059,11.509,10.315v0.096
					c0,5.588-2.865,8.357-8.788,12.94l-5.442,4.202h14.563v6.352h-24.734V156.073z"/>
				<path fill="#7D7B7B" d="M333.998,143.609h14.706v6.971h-14.706V143.609z"/>
				<path fill="#7D7B7B" d="M370.099,154.687h-16.331l-1.192-5.205l18.337-21.249h6.206v20.486h4.49v5.969h-4.49v7.211h-7.019
					V154.687z M370.099,148.718v-10.41l-8.881,10.41H370.099z"/>
			</g>
		</g>
		<g>
			<g>
				<path fill="#7D7B7B" d="M101.753,145.279v-0.096c0-9.692,6.019-17.286,14.9-17.286c8.833,0,14.802,7.498,14.802,17.19v0.096
					c0,9.695-5.969,17.286-14.898,17.286S101.753,154.974,101.753,145.279z M123.912,145.279v-0.096
					c0-6.064-2.96-10.647-7.354-10.647c-4.394,0-7.259,4.439-7.259,10.552v0.096c0,6.112,2.913,10.65,7.354,10.65
					C121.092,155.833,123.912,151.344,123.912,145.279z"/>
			</g>
		</g>
		<g>
			<g>
				<path fill="#7D7B7B" d="M541.722,158.459c-2.436-2.436-3.968-6.016-3.968-12.655v-0.096c0-10.312,4.681-18.241,14.661-18.241
					c4.537,0,7.5,1.338,10.458,3.678l-3.867,5.681c-2.197-1.67-3.963-2.673-6.83-2.673c-4.155,0-6.256,3.343-6.73,7.735
					c1.67-1.098,3.628-2.149,6.921-2.149c6.639,0,11.751,3.678,11.751,10.65v0.096c0,6.828-5.495,11.554-12.751,11.554
					C547.02,162.039,544.058,160.799,541.722,158.459z M556.808,150.817v-0.093c0-2.819-2.197-4.873-5.825-4.873
					c-3.628,0-5.729,2.005-5.729,4.825v0.093c0,2.819,2.197,4.968,5.825,4.968C554.707,155.738,556.808,153.684,556.808,150.817z"/>
				<path fill="#7D7B7B" d="M569.181,143.178h14.709v6.971h-14.709V143.178z"/>
				<path fill="#7D7B7B" d="M588.427,152.299v-0.096c0-4.059,1.862-6.447,5.394-8.07c-2.58-1.575-4.25-3.724-4.25-7.306v-0.096
					c0-5.109,4.681-9.168,11.746-9.168c7.07,0,11.751,4.011,11.751,9.168v0.096c0,3.583-1.675,5.732-4.25,7.306
					c3.389,1.766,5.394,3.915,5.394,7.878v0.096c0,6.208-5.49,9.838-12.895,9.838C593.917,161.945,588.427,158.124,588.427,152.299z
					 M607.099,151.727v-0.096c0-2.58-2.436-4.107-5.782-4.107c-3.341,0-5.777,1.527-5.777,4.107v0.096
					c0,2.29,2.149,4.152,5.777,4.152C604.95,155.879,607.099,154.065,607.099,151.727z M606.094,137.638v-0.096
					c0-2.051-1.766-3.915-4.777-3.915c-3.006,0-4.772,1.816-4.772,3.87v0.093c0,2.341,1.862,4.107,4.772,4.107
					C604.232,141.697,606.094,139.978,606.094,137.638z"/>
			</g>
		</g>
		<g>
			<g>
				<path fill="#7D7B7B" d="M752.169,134.713l-5.827,1.431l-1.527-6.016l9.597-2.865h5.016v33.665h-7.259V134.713z"/>
				<path fill="#7D7B7B" d="M766.399,144.31v-0.096c0-9.692,6.019-17.286,14.9-17.286c8.833,0,14.802,7.498,14.802,17.193v0.093
					c0,9.695-5.969,17.286-14.898,17.286S766.399,154.005,766.399,144.31z M788.558,144.31v-0.096c0-6.064-2.96-10.647-7.354-10.647
					s-7.259,4.442-7.259,10.554v0.093c0,6.112,2.913,10.65,7.354,10.65C785.739,154.864,788.558,150.374,788.558,144.31z"/>
				<path fill="#7D7B7B" d="M801.074,142.64h14.706v6.971h-14.706V142.64z"/>
				<path fill="#7D7B7B" d="M825.238,134.713l-5.827,1.431l-1.527-6.016l9.597-2.865h5.016v33.665h-7.259V134.713z"/>
				<path fill="#7D7B7B" d="M839.231,155.103l11.126-9.12c4.155-3.439,5.777-5.253,5.777-8.022c0-2.819-1.862-4.346-4.487-4.346
					c-2.58,0-4.346,1.431-6.83,4.487l-5.157-4.155c3.295-4.487,6.495-6.923,12.464-6.923c6.923,0,11.509,4.059,11.509,10.315v0.096
					c0,5.588-2.865,8.357-8.788,12.94l-5.442,4.202h14.563v6.352h-24.734V155.103z"/>
			</g>
		</g>
		<g>
			<g>
				<path fill="#7D7B7B" d="M985.331,134.713l-5.827,1.431l-1.527-6.016l9.597-2.865h5.016v33.665h-7.259V134.713z"/>
				<path fill="#7D7B7B" d="M1015.987,153.718h-16.331l-1.192-5.205l18.337-21.249h6.206v20.486h4.49v5.969h-4.49v7.211h-7.019
					V153.718z M1015.987,147.749v-10.41l-8.881,10.41H1015.987z"/>
				<path fill="#7D7B7B" d="M1032.278,142.64h14.706v6.971h-14.706V142.64z"/>
				<path fill="#7D7B7B" d="M1056.439,134.713l-5.828,1.431l-1.527-6.016l9.597-2.865h5.016v33.665h-7.259V134.713z"/>
				<path fill="#7D7B7B" d="M1074.637,157.92c-2.436-2.436-3.965-6.016-3.965-12.655v-0.096c0-10.312,4.681-18.241,14.661-18.241
					c4.537,0,7.498,1.338,10.458,3.678l-3.867,5.681c-2.197-1.67-3.963-2.673-6.83-2.673c-4.155,0-6.256,3.343-6.732,7.735
					c1.671-1.098,3.628-2.149,6.924-2.149c6.639,0,11.748,3.678,11.748,10.65v0.096c0,6.828-5.492,11.554-12.751,11.554
					C1079.936,161.5,1076.975,160.261,1074.637,157.92z M1089.726,150.279v-0.093c0-2.819-2.197-4.873-5.828-4.873
					c-3.628,0-5.729,2.005-5.729,4.825v0.096c0,2.817,2.197,4.966,5.825,4.966C1087.625,155.199,1089.726,153.146,1089.726,150.279z
					"/>
			</g>
		</g>
		<g>
			<g>
				<path fill="#FFFFFF" d="M1019.142,50.746l-11.174-16.427h8.596l7.019,10.839l7.067-10.839h8.357l-11.174,16.331l11.65,17.095
					h-8.594l-7.498-11.461l-7.546,11.461h-8.355L1019.142,50.746z"/>
				<path fill="#FFFFFF" d="M1044.981,34.319h7.354v26.741h16.664v6.684h-24.018V34.319z"/>
			</g>
		</g>
		
			<line fill="none" stroke="#FFFFFF" stroke-width="0.7861" stroke-miterlimit="10" x1="4.592" y1="192.083" x2="1153.03" y2="192.083"/>
		
			<line fill="none" stroke="#FFFFFF" stroke-width="1.0174" stroke-miterlimit="10" x1="232.028" y1="189.971" x2="231.562" y2="0.047"/>
		
			<line fill="none" stroke="#FFFFFF" stroke-width="1.0174" stroke-miterlimit="10" x1="460.692" y1="189.971" x2="460.226" y2="0.047"/>
		
			<line fill="none" stroke="#FFFFFF" stroke-width="1.0174" stroke-miterlimit="10" x1="691.809" y1="189.971" x2="691.343" y2="0.047"/>
		
			<line fill="none" stroke="#FFFFFF" stroke-width="1.0174" stroke-miterlimit="10" x1="927.831" y1="189.971" x2="927.365" y2="0.047"/>
		<g>
			<g>
				<path fill="#FFFFFF" d="M329.424,64.954l4.327-5.186c2.996,2.475,6.136,4.044,9.941,4.044c2.996,0,4.803-1.189,4.803-3.14
					v-0.096c0-1.855-1.142-2.805-6.706-4.234c-6.706-1.711-11.035-3.566-11.035-10.178V46.07c0-6.04,4.851-10.035,11.652-10.035
					c4.853,0,8.991,1.522,12.368,4.234l-3.805,5.516c-2.948-2.046-5.851-3.281-8.656-3.281c-2.807,0-4.281,1.283-4.281,2.901V45.5
					c0,2.187,1.426,2.901,7.182,4.375c6.754,1.761,10.559,4.186,10.559,9.989v0.096c0,6.61-5.04,10.322-12.224,10.322
					C338.509,70.282,333.419,68.52,329.424,64.954z"/>
			</g>
		</g>
		<g>
			<g>
				<path fill="#FFFFFF" d="M97.778,52.871l-11.131-16.36h8.56l6.993,10.796l7.041-10.796h8.324l-11.131,16.267l11.605,17.028h-8.56
					l-7.469-11.416l-7.515,11.416h-8.324L97.778,52.871z"/>
				<path fill="#FFFFFF" d="M119.791,64.954l4.327-5.186c2.996,2.475,6.136,4.044,9.941,4.044c2.996,0,4.803-1.189,4.803-3.14
					v-0.096c0-1.855-1.142-2.805-6.706-4.234c-6.706-1.711-11.035-3.566-11.035-10.178V46.07c0-6.04,4.851-10.035,11.652-10.035
					c4.853,0,8.991,1.522,12.368,4.234l-3.805,5.516c-2.948-2.046-5.851-3.281-8.656-3.281c-2.807,0-4.281,1.283-4.281,2.901V45.5
					c0,2.187,1.426,2.901,7.182,4.375c6.754,1.761,10.559,4.186,10.559,9.989v0.096c0,6.61-5.04,10.322-12.224,10.322
					C128.875,70.282,123.785,68.52,119.791,64.954z"/>
			</g>
		</g>
		<g>
			<g>
				<path fill="#FFFFFF" d="M559.125,36.511h7.898l8.752,14.077l8.752-14.077h7.895v33.294h-7.278V48.068l-9.369,14.223h-0.191
					l-9.274-14.079v21.594h-7.184V36.511z"/>
			</g>
		</g>
		<g>
			<g>
				<path fill="#FFFFFF" d="M794.435,36.511h7.326v26.636h16.602v6.658h-23.927V36.511z"/>
			</g>
		</g>
	</g>
</g>
<g id="Layer_2">
</g>
</svg>
