<svg xmlns="http://www.w3.org/2000/svg" width="14" height="14" viewBox="0 0 14 14">
  <g fill="none" fill-rule="evenodd">
    <rect width="14" height="14" fill="#FFF" fill-rule="nonzero"/>
    <rect width="2.56" height="2.28" x="3.03" y="2.16"/>
    <path d="M7 6.71C5.97542617 6.72101756 5.15272216 7.55858322 5.16004754 8.58319011 5.16737291 9.60779699 6.00196847 10.4335139 7.0265951 10.4298927 8.05122172 10.4262477 8.87994076 9.59463307 8.8800284 8.57 8.88275546 8.07237551 8.68491756 7.59462444 8.33116186 7.2446321 7.97740616 6.89463976 7.49756656 6.70192266 7 6.71L7 6.71zM6.09 4.45L11 4.45 11 2.15 6.09 2.15 6.09 4.45zM9.82 2.85C9.98739902 2.82424675 10.1543228 2.89915789 10.2463575 3.04133835 10.3383921 3.1835188 10.3383921 3.3664812 10.2463575 3.50866165 10.1543228 3.65084211 9.98739902 3.72575325 9.82 3.7 9.61023187 3.66772854 9.45538348 3.48723599 9.45538348 3.275 9.45538348 3.06276401 9.61023187 2.88227146 9.82 2.85L9.82 2.85zM8.63 2.85C8.86748244 2.85 9.06 3.04251756 9.06 3.28 9.06 3.51748244 8.86748244 3.71 8.63 3.71 8.39251756 3.71 8.2 3.51748244 8.2 3.28 8.19723084 3.16513036 8.24164447 3.05414186 8.32289316 2.97289316 8.40414186 2.89164447 8.51513036 2.84723084 8.63 2.85L8.63 2.85zM7.43 2.85C7.59739902 2.82424675 7.76432283 2.89915789 7.85635749 3.04133835 7.94839215 3.1835188 7.94839215 3.3664812 7.85635749 3.50866165 7.76432283 3.65084211 7.59739902 3.72575325 7.43 3.7 7.22023187 3.66772854 7.06538348 3.48723599 7.06538348 3.275 7.06538348 3.06276401 7.22023187 2.88227146 7.43 2.85L7.43 2.85z"/>
    <path d="M3,4.94 L3,11.85 L11,11.85 L11,4.94 L3,4.94 Z M7,10.94 C5.699228,10.9344765 4.64818246,9.87746327 4.65002123,8.57668084 C4.65186482,7.27589841 5.70589841,6.22186482 7.00668084,6.22002123 C8.30746327,6.21818246 9.36447648,7.269228 9.37,8.57 C9.36735345,9.19591266 9.11616956,9.7951376 8.67170711,10.2358493 C8.22724467,10.676561 7.62591261,10.9226578 7,10.92 L7,10.94 Z"/>
    <path fill="#ADAFB2" fill-rule="nonzero" d="M11,1.67 L3,1.67 C2.73713507,1.67531202 2.52531202,1.88713507 2.52,2.15 L2.52,11.85 C2.52531202,12.1128649 2.73713507,12.324688 3,12.33 L11,12.33 C11.2628649,12.324688 11.474688,12.1128649 11.48,11.85 L11.48,2.15 C11.474688,1.88713507 11.2628649,1.67531202 11,1.67 Z M11,4.45 L6.09,4.45 L6.09,2.16 L11,2.16 L11,4.45 Z M5.6,2.16 L5.6,4.45 L3,4.45 L3,2.16 L5.6,2.16 Z M3,11.85 L3,4.94 L11,4.94 L11,11.84 L3,11.85 Z"/>
    <path fill="#ADAFB2" fill-rule="nonzero" d="M9.82 3.7C9.99567339 3.70404006 10.1561295 3.60078401 10.2252365 3.43922386 10.2943435 3.2776637 10.2581949 3.09031044 10.1339423 2.96605775 10.0096896 2.84180506 9.8223363 2.8056565 9.66077614 2.87476351 9.49921599 2.94387053 9.39595994 3.10432661 9.4 3.28 9.4 3.51195959 9.58804041 3.7 9.82 3.7zM8.63 3.7C8.83976813 3.66772854 8.99461652 3.48723599 8.99461652 3.275 8.99461652 3.06276401 8.83976813 2.88227146 8.63 2.85 8.46260098 2.82424675 8.29567717 2.89915789 8.20364251 3.04133835 8.11160785 3.1835188 8.11160785 3.3664812 8.20364251 3.50866165 8.29567717 3.65084211 8.46260098 3.72575325 8.63 3.7L8.63 3.7zM7.43 3.7C7.60481867 3.69995272 7.76220774 3.59407147 7.82813488 3.43216044 7.89406202 3.27024942 7.85540281 3.08454097 7.7303417 2.96238826 7.60528059 2.84023554 7.41871404 2.80595605 7.25839884 2.87567408 7.09808364 2.94539212 6.99593446 3.10522861 7 3.28 6.99996792 3.39314538 7.04558787 3.50151791 7.12652938 3.58057706 7.2074709 3.65963621 7.31688669 3.70269394 7.43 3.7zM7 6.20997878C5.697924 6.21551732 4.64633507 7.27455592 4.6499998 8.57663843 4.65368372 9.87872094 5.71123281 10.9318078 7.01331922 10.9299789 8.31540562 10.9281452 9.37 9.87208769 9.37 8.57 9.37 7.94235261 9.11999125 7.34055693 8.67524022 6.89768249 8.2304892 6.45480805 7.62764175 6.20734048 7 6.20997878zM7 10.42C5.97412884 10.408954 5.15091801 9.56934903 5.16010081 8.5434595 5.16928362 7.51756996 6.00739206 6.69283559 7.03329658 6.70015515 8.0592011 6.70747471 8.88545629 7.54408388 8.88002687 8.57 8.88006521 9.06589285 8.6810423 9.54105173 8.3275843 9.88886945 7.9741263 10.2366872 7.49582765 10.4280415 7 10.42L7 10.42z"/>
  </g>
</svg>
