<svg id="Layer_1" data-name="Layer 1" xmlns="http://www.w3.org/2000/svg" viewBox="0 0 14 14"><defs><style>.cls-1{fill:#fff;}.cls-2{fill:none;}.cls-3{fill:#adafb2;}</style></defs><title>washable14px</title><rect class="cls-1" width="14" height="14"/><rect class="cls-2" x="3.03" y="2.16" width="2.56" height="2.28"/><path class="cls-2" d="M7,6.71A1.86,1.86,0,1,0,8.88,8.57,1.85,1.85,0,0,0,7,6.71Z"/><path class="cls-2" d="M6.09,4.45H11V2.15H6.09Zm3.73-1.6a.43.43,0,1,1,0,.85.43.43,0,0,1,0-.85Zm-1.19,0a.43.43,0,1,1-.43.43A.42.42,0,0,1,8.63,2.85Zm-1.2,0a.43.43,0,1,1,0,.85.43.43,0,0,1,0-.85Z"/><path class="cls-2" d="M3,4.94v6.91H11V4.94Zm4,6A2.36,2.36,0,1,1,9.37,8.57,2.36,2.36,0,0,1,7,10.92Z"/><path class="cls-3" d="M11,1.67H3a.49.49,0,0,0-.48.48v9.7a.49.49,0,0,0,.48.48H11a.49.49,0,0,0,.48-.48V2.15A.49.49,0,0,0,11,1.67Zm0,2.78H6.09V2.16H11ZM5.6,2.16V4.45H3V2.16ZM3,11.85V4.94H11v6.9Z"/><path class="cls-3" d="M9.82,3.7a.43.43,0,1,0-.42-.42A.42.42,0,0,0,9.82,3.7Z"/><path class="cls-3" d="M8.63,3.7a.43.43,0,0,0,0-.85.43.43,0,1,0,0,.85Z"/><path class="cls-3" d="M7.43,3.7A.43.43,0,1,0,7,3.28.42.42,0,0,0,7.43,3.7Z"/><path class="cls-3" d="M7,6.21A2.36,2.36,0,1,0,9.37,8.57,2.36,2.36,0,0,0,7,6.21Zm0,4.21A1.86,1.86,0,1,1,8.88,8.57,1.85,1.85,0,0,1,7,10.42Z"/></svg>