<svg xmlns="http://www.w3.org/2000/svg" xmlns:xlink="http://www.w3.org/1999/xlink" width="24" height="28" viewBox="0 0 24 28">
  <defs>
    <polygon id="washable-a" points="0 0 23.384 0 23.384 28 0 28"/>
  </defs>
  <g fill="none" fill-rule="evenodd">
    <mask id="washable-b" fill="#fff">
      <use xlink:href="#washable-a"/>
    </mask>
    <path fill="#AFB0B3" d="M1.2997,26.7259 L1.2817,8.5349 L22.0847,8.5349 L22.0847,26.7009 L1.2997,26.7259 Z M8.0607,1.2909 L8.0607,7.3509 L1.2797,7.3509 L1.2737,1.2999 L8.0607,1.2909 Z M22.0847,7.3509 L9.2447,7.3509 L9.2447,1.2899 L22.0847,1.2739 L22.0847,7.3509 Z M22.1107,-0.0001 L1.2737,-0.0001 C0.5717,-0.0001 -0.0003,0.5709 -0.0003,1.2739 L-0.0003,26.7259 C-0.0003,27.4289 0.5717,27.9999 1.2737,27.9999 L22.1107,27.9999 C22.8127,27.9999 23.3837,27.4289 23.3837,26.7259 L23.3837,1.2739 C23.3837,0.5709 22.8127,-0.0001 22.1107,-0.0001 L22.1107,-0.0001 Z" mask="url(#washable-b)"/>
    <path fill="#AFB0B3" d="M19.1039 5.3401C19.7219 5.3401 20.2239 4.8381 20.2239 4.2191 20.2239 3.6001 19.7219 3.0991 19.1039 3.0991 18.4849 3.0991 17.9829 3.6001 17.9829 4.2191 17.9829 4.8381 18.4849 5.3401 19.1039 5.3401M15.9662 5.3401C16.5842 5.3401 17.0862 4.8381 17.0862 4.2191 17.0862 3.6001 16.5842 3.0991 15.9662 3.0991 15.3472 3.0991 14.8452 3.6001 14.8452 4.2191 14.8452 4.8381 15.3472 5.3401 15.9662 5.3401M12.8285 5.3401C13.4475 5.3401 13.9485 4.8381 13.9485 4.2191 13.9485 3.6001 13.4475 3.0991 12.8285 3.0991 12.2095 3.0991 11.7075 3.6001 11.7075 4.2191 11.7075 4.8381 12.2095 5.3401 12.8285 5.3401M11.7489 22.9871C9.0609 22.9871 6.8739 20.8001 6.8739 18.1121 6.8739 15.4241 9.0609 13.2371 11.7489 13.2371 14.4369 13.2371 16.6239 15.4241 16.6239 18.1121 16.6239 20.8001 14.4369 22.9871 11.7489 22.9871M11.7489 11.9371C8.3439 11.9371 5.5739 14.7071 5.5739 18.1121 5.5739 21.5171 8.3439 24.2871 11.7489 24.2871 15.1539 24.2871 17.9239 21.5171 17.9239 18.1121 17.9239 14.7071 15.1539 11.9371 11.7489 11.9371"/>
  </g>
</svg>
