<svg xmlns="http://www.w3.org/2000/svg" xmlns:xlink="http://www.w3.org/1999/xlink" width="28" height="28" viewBox="0 0 28 28">
  <defs>
    <polygon id="zero-hardware-a" points="0 0 28 0 28 28 0 28"/>
  </defs>
  <g fill="none" fill-rule="evenodd">
    <path fill="#AFB0B3" d="M19.8011,8.1983 C19.4441,7.8403 18.8631,7.8403 18.5061,8.1983 L13.9991,12.7043 L9.4931,8.1983 C9.1351,7.8403 8.5551,7.8403 8.1971,8.1983 C7.8401,8.5553 7.8401,9.1363 8.1971,9.4943 L12.7031,14.0003 L8.1971,18.5073 C7.8401,18.8643 7.8401,19.4433 8.1971,19.8013 C8.5551,20.1593 9.1351,20.1593 9.4931,19.8013 L13.9991,15.2953 L18.5061,19.8013 C18.8631,20.1593 19.4441,20.1593 19.8011,19.8013 C20.1591,19.4433 20.1591,18.8643 19.8011,18.5073 L15.2951,14.0003 L19.8011,9.4943 C20.1591,9.1363 20.1591,8.5553 19.8011,8.1983"/>
    <g>
      <mask id="zero-hardware-b" fill="#fff">
        <use xlink:href="#zero-hardware-a"/>
      </mask>
      <path fill="#AFB0B3" d="M22.6028,22.6036 C20.4008,24.8046 17.3588,26.1676 13.9998,26.1676 C10.6398,26.1676 7.5978,24.8046 5.3958,22.6036 C3.1938,20.4006 1.8318,17.3596 1.8318,13.9996 C1.8318,10.6416 3.1938,7.5996 5.3958,5.3956 C7.5978,3.1956 10.6398,1.8326 13.9998,1.8326 C17.3588,1.8326 20.4008,3.1956 22.6028,5.3956 C24.8048,7.5986 26.1658,10.6416 26.1658,13.9996 C26.1658,17.3596 24.8048,20.4006 22.6028,22.6036 M23.8988,4.1016 C21.3648,1.5676 17.8658,-0.0004 13.9998,-0.0004 C10.1338,-0.0004 6.6348,1.5676 4.1008,4.1016 C1.5668,6.6346 -0.0002,10.1346 -0.0002,13.9996 C-0.0002,17.8656 1.5668,21.3656 4.1008,23.8996 C6.6348,26.4336 10.1338,27.9996 13.9998,27.9996 C17.8658,27.9996 21.3648,26.4336 23.8988,23.8996 C26.4308,21.3656 27.9998,17.8656 27.9998,13.9996 C27.9998,10.1346 26.4308,6.6346 23.8988,4.1016" mask="url(#zero-hardware-b)"/>
    </g>
  </g>
</svg>
