<svg id="Layer_1" data-name="Layer 1" xmlns="http://www.w3.org/2000/svg" viewBox="0 0 14 14"><defs><style>.cls-1{fill:#fff;}.cls-2{fill:#adafb2;}</style></defs><title>zero-elastic14px</title><rect class="cls-1" width="14" height="14"/><path class="cls-2" d="M12.63,6.92a.28.28,0,0,0-.18-.14.29.29,0,0,0-.22,0A10.87,10.87,0,0,1,6.9,8.15,10.89,10.89,0,0,1,1.77,6.92a.26.26,0,0,0-.23,0A.28.28,0,0,0,1.36,7a.31.31,0,0,0,.13.41A11.56,11.56,0,0,0,6.9,8.75a11.44,11.44,0,0,0,5.62-1.42.28.28,0,0,0,.14-.18A.31.31,0,0,0,12.63,6.92Z"/><path class="cls-2" d="M7,7.2c2.42,0,4.6-1,5.56-2.55a.31.31,0,0,0,0-.23.27.27,0,0,0-.13-.18.29.29,0,0,0-.41.09C11.23,5.71,9.24,6.6,7,6.6s-4.29-.94-5.1-2.34a.29.29,0,0,0-.41-.11.29.29,0,0,0-.11.4C2.34,6.16,4.54,7.2,7,7.2Z"/><path class="cls-2" d="M12.26,9.34H1.74a.3.3,0,1,0,0,.59H12.26a.3.3,0,1,0,0-.59Z"/></svg>