<svg xmlns="http://www.w3.org/2000/svg" width="14" height="14" viewBox="0 0 14 14">
  <g fill="none">
    <rect width="14" height="14" fill="#FFF"/>
    <path fill="#ADAFB2" d="M12.63,6.92 C12.5925813,6.84990809 12.527146,6.79901395 12.45,6.78 C12.3795131,6.75110421 12.3004869,6.75110421 12.23,6.78 C10.6002596,7.68629665 8.76476859,8.15808329 6.9,8.15 C5.11503585,8.16664022 3.35334787,7.7442472 1.77,6.92 C1.69750187,6.88424597 1.61249813,6.88424597 1.54,6.92 C1.47229094,6.9239852 1.40833014,6.95241222 1.36,7 C1.28605564,7.14939083 1.34348406,7.33051122 1.49,7.41 C3.15705531,8.2912131 5.01436791,8.75124986 6.9,8.75 C8.86417486,8.76699305 10.7996392,8.27796113 12.52,7.33 C12.5900919,7.29258131 12.6409861,7.22714599 12.66,7.15 C12.6801391,7.07233976 12.6693856,6.98989614 12.63,6.92 L12.63,6.92 Z"/>
    <path fill="#ADAFB2" d="M7 7.2C9.42 7.2 11.6 6.2 12.56 4.65 12.5894931 4.57616978 12.5894931 4.49383022 12.56 4.42 12.5444838 4.34413401 12.4971405 4.27858178 12.43 4.24 12.3642384 4.19567274 12.2831922 4.1802112 12.2057301 4.19721506 12.1282681 4.21421892 12.0611493 4.26220449 12.02 4.33 11.23 5.71 9.24 6.6 7 6.6 4.76 6.6 2.71 5.66 1.9 4.26 1.8622836 4.18887439 1.79669783 4.13662815 1.7189407 4.11576648 1.64118357 4.09490482 1.55825355 4.10730535 1.49 4.15 1.42168414 4.1878049 1.37149868 4.25156 1.35079564 4.3268438 1.33009259 4.4021276 1.34062124 4.48257908 1.38 4.55 2.34 6.16 4.54 7.2 7 7.2zM12.26 9.34L1.74 9.34C1.62165091 9.31811803 1.50168088 9.36908296 1.43526691 9.46945483 1.36885295 9.56982671 1.36885295 9.70017329 1.43526691 9.80054517 1.50168088 9.90091704 1.62165091 9.95188197 1.74 9.93L12.26 9.93C12.3783491 9.95188197 12.4983191 9.90091704 12.5647331 9.80054517 12.6311471 9.70017329 12.6311471 9.56982671 12.5647331 9.46945483 12.4983191 9.36908296 12.3783491 9.31811803 12.26 9.34z"/>
  </g>
</svg>
