<svg id="Layer_1" data-name="Layer 1" xmlns="http://www.w3.org/2000/svg" viewBox="0 0 14 14"><defs><style>.cls-1{fill:#fff;}.cls-2{fill:#adafb2;}</style></defs><title>zero-hardware14px</title><rect class="cls-1" width="14" height="14"/><path class="cls-2" d="M1.85,7a5.15,5.15,0,0,1,8.79-3.64,5.15,5.15,0,1,1-7.28,7.28A5.1,5.1,0,0,1,1.85,7Zm2-3.17A4.49,4.49,0,1,0,7,2.52,4.47,4.47,0,0,0,3.83,3.83ZM9.14,8.66a.34.34,0,0,1-.48.48L7,7.48,5.34,9.14a.34.34,0,1,1-.48-.48L6.52,7,4.86,5.34a.34.34,0,1,1,.48-.48L7,6.52,8.66,4.86a.34.34,0,1,1,.48.48L7.48,7,9.14,8.66Z"/></svg>