<svg xmlns="http://www.w3.org/2000/svg" xmlns:xlink="http://www.w3.org/1999/xlink" width="30" height="14" viewBox="0 0 30 14">
  <defs>
    <polygon id="zero-elastic-a" points=".355 .795 29.427 .795 29.427 2 .355 2"/>
  </defs>
  <g fill="none" fill-rule="evenodd">
    <path fill="#AFB0B3" d="M29.93,6.571 C29.767,6.281 29.399,6.179 29.109,6.342 C24.953,8.688 20.043,9.928 14.909,9.928 C10.008,9.928 5.282,8.789 1.242,6.634 C0.948,6.477 0.583,6.588 0.427,6.882 C0.27,7.175 0.381,7.54 0.675,7.697 C4.888,9.945 9.81,11.133 14.909,11.133 C20.25,11.133 25.366,9.84 29.701,7.391 C29.992,7.228 30.093,6.861 29.93,6.571"/>
    <path fill="#AFB0B3" d="M14.7806,7.8186 C21.1246,7.8186 26.8396,5.1986 29.3376,1.1436 C29.5116,0.8606 29.4246,0.4896 29.1406,0.3156 C28.8576,0.1406 28.4866,0.2286 28.3116,0.5116 C26.0276,4.2186 20.7166,6.6136 14.7806,6.6136 C8.7886,6.6136 3.3016,4.0766 1.1246,0.3016 C0.9586,0.0136 0.5906,-0.0854 0.3016,0.0806 C0.0136,0.2466 -0.0854,0.6156 0.0806,0.9036 C2.5026,5.1046 8.2726,7.8186 14.7806,7.8186"/>
    <g transform="translate(0 12)">
      <mask id="zero-elastic-b" fill="#fff">
        <use xlink:href="#zero-elastic-a"/>
      </mask>
      <path fill="#AFB0B3" d="M28.8245,0.7952 L0.9575,0.7952 C0.6255,0.7952 0.3555,1.0652 0.3555,1.3982 C0.3555,1.7302 0.6255,2.0002 0.9575,2.0002 L28.8245,2.0002 C29.1575,2.0002 29.4275,1.7302 29.4275,1.3982 C29.4275,1.0652 29.1575,0.7952 28.8245,0.7952" mask="url(#zero-elastic-b)"/>
    </g>
  </g>
</svg>
