<svg xmlns="http://www.w3.org/2000/svg" width="14" height="14" viewBox="0 0 14 14">
  <g fill="none">
    <rect width="14" height="14" fill="#FFF"/>
    <path fill="#ADAFB2" d="M1.84996975,7 C1.85129291,4.91801334 3.10603463,3.0416061 5.02961237,2.24503921 C6.95319011,1.44847232 9.16716671,1.88845923 10.64,3.36 C12.0055058,4.64685656 12.5630782,6.57453086 12.095381,8.39163438 C11.6276839,10.2087379 10.2087379,11.6276839 8.39163438,12.095381 C6.57453086,12.5630782 4.64685656,12.0055058 3.36,10.64 C2.38929087,9.67799361 1.84529611,8.36664201 1.84996975,7 L1.84996975,7 Z M3.85,3.83 C2.33112708,5.34404812 2.09501701,7.72086383 3.28633769,9.50413939 C4.47765836,11.2874149 6.76378398,11.9792462 8.74397387,11.1557387 C10.7241638,10.3322312 11.8455338,8.22331436 11.4210052,6.12115069 C10.9964765,4.01898702 9.14458078,2.51051658 7,2.51995554 C5.81117343,2.51775065 4.67042263,2.98916502 3.83,3.83 L3.85,3.83 Z M9.14,8.66 C9.25957753,8.79455227 9.25355947,8.99898887 9.12627417,9.12627417 C8.99898887,9.25355947 8.79455227,9.25957753 8.66,9.14 L7,7.48 L5.34,9.14 C5.25613412,9.23436844 5.12688416,9.27449714 5.00431914,9.24422006 C4.88175411,9.21394298 4.78605702,9.11824589 4.75577994,8.99568086 C4.72550286,8.87311584 4.76563156,8.74386588 4.86,8.66 L6.52,7 L4.86,5.34 C4.76563156,5.25613412 4.72550286,5.12688416 4.75577994,5.00431914 C4.78605702,4.88175411 4.88175411,4.78605702 5.00431914,4.75577994 C5.12688416,4.72550286 5.25613412,4.76563156 5.34,4.86 L7,6.52 L8.66,4.86 C8.74386588,4.76563156 8.87311584,4.72550286 8.99568086,4.75577994 C9.11824589,4.78605702 9.21394298,4.88175411 9.24422006,5.00431914 C9.27449714,5.12688416 9.23436844,5.25613412 9.14,5.34 L7.48,7 L9.14,8.66 Z"/>
  </g>
</svg>
